<svg width="360" height="232" viewBox="0 0 360 232" fill="none" xmlns="http://www.w3.org/2000/svg">
<g clip-path="url(#clip0_289_43924)">
<path fill-rule="evenodd" clip-rule="evenodd" d="M-72.5965 191.213C-153.347 130.264 -177.357 23.2969 -187.049 -77.4793C-196.203 -172.657 -183.659 -271.262 -124.291 -346.286C-66.2948 -419.576 25.4974 -454.955 118.492 -463.596C206.501 -471.774 286.488 -435.599 363.073 -391.572C454.84 -338.816 556.327 -289.959 593.195 -190.696C637.417 -71.6324 658.509 80.8087 573.693 175.502C490.501 268.382 342.507 217.974 217.952 221.002C116.462 223.469 8.39366 252.343 -72.5965 191.213Z" fill="#F95B29"/>
<path fill-rule="evenodd" clip-rule="evenodd" d="M-72.5965 191.213C-153.347 130.264 -177.357 23.2969 -187.049 -77.4793C-196.203 -172.657 -183.659 -271.262 -124.291 -346.286C-66.2948 -419.576 25.4974 -454.955 118.492 -463.596C206.501 -471.774 286.488 -435.599 363.073 -391.572C454.84 -338.816 556.327 -289.959 593.195 -190.696C637.417 -71.6324 658.509 80.8087 573.693 175.502C490.501 268.382 342.507 217.974 217.952 221.002C116.462 223.469 8.39366 252.343 -72.5965 191.213Z" fill="white" fill-opacity="0.8"/>
<mask id="mask0_289_43924" style="mask-type:alpha" maskUnits="userSpaceOnUse" x="-190" y="-465" width="822" height="697">
<path fill-rule="evenodd" clip-rule="evenodd" d="M-72.5965 191.213C-153.347 130.264 -177.357 23.2969 -187.049 -77.4793C-196.203 -172.657 -183.659 -271.262 -124.291 -346.286C-66.2948 -419.576 25.4974 -454.955 118.492 -463.596C206.501 -471.774 286.488 -435.599 363.073 -391.572C454.84 -338.816 556.327 -289.959 593.195 -190.696C637.417 -71.6324 658.509 80.8087 573.693 175.502C490.501 268.382 342.507 217.974 217.952 221.002C116.462 223.469 8.39366 252.343 -72.5965 191.213Z" fill="#F95B29"/>
<path fill-rule="evenodd" clip-rule="evenodd" d="M-72.5965 191.213C-153.347 130.264 -177.357 23.2969 -187.049 -77.4793C-196.203 -172.657 -183.659 -271.262 -124.291 -346.286C-66.2948 -419.576 25.4974 -454.955 118.492 -463.596C206.501 -471.774 286.488 -435.599 363.073 -391.572C454.84 -338.816 556.327 -289.959 593.195 -190.696C637.417 -71.6324 658.509 80.8087 573.693 175.502C490.501 268.382 342.507 217.974 217.952 221.002C116.462 223.469 8.39366 252.343 -72.5965 191.213Z" fill="white" fill-opacity="0.8"/>
</mask>
<g mask="url(#mask0_289_43924)">
<g opacity="0.08">
<path d="M266.138 175.608C265.904 176.082 265.533 176.475 265.074 176.736C264.614 176.997 264.087 177.114 263.56 177.072C263.034 177.029 262.532 176.83 262.119 176.499C261.707 176.168 261.403 175.721 261.247 175.216C260.926 174.111 260.213 172.418 258.746 171.718C256.482 170.599 254.002 171.634 252.73 174.202C251.459 176.769 252.158 179.378 254.421 180.498C255.882 181.197 257.656 180.764 258.725 180.344C259.22 180.159 259.758 180.127 260.271 180.252C260.784 180.377 261.247 180.654 261.601 181.046C261.955 181.438 262.183 181.928 262.256 182.451C262.329 182.974 262.243 183.508 262.009 183.982L254.086 200.03L290.061 216.932L298.089 199.939C298.324 199.465 298.694 199.072 299.154 198.811C299.614 198.55 300.141 198.433 300.667 198.475C301.194 198.517 301.696 198.717 302.108 199.048C302.521 199.378 302.824 199.825 302.98 200.331C303.302 201.436 304.014 203.129 305.481 203.829C307.745 204.948 310.226 203.913 311.497 201.338C312.769 198.764 312.07 196.168 309.806 195.042C308.346 194.342 306.571 194.776 305.502 195.189C305.165 195.319 304.804 195.376 304.443 195.358C304.082 195.34 303.729 195.247 303.406 195.084C302.107 194.44 301.31 192.901 301.925 191.586L308.695 177.14L273.062 160.399L266.138 175.608Z" fill="black"/>
<path d="M203.708 17.674L188.022 22.2492L192.04 36.2408C192.382 37.521 193.87 38.0807 195.149 37.7379C195.465 37.6563 195.761 37.5097 196.017 37.3073C196.273 37.1049 196.484 36.8513 196.637 36.5626C197.126 35.6321 198.035 34.261 199.502 33.8762C201.724 33.2816 203.757 34.6457 204.428 37.1712C205.098 39.6967 204.022 41.8934 201.794 42.488C200.361 42.8658 198.859 42.1452 197.979 41.5786C197.701 41.4057 197.391 41.2922 197.068 41.2453C196.744 41.1983 196.414 41.2189 196.099 41.3057C195.795 41.3869 195.51 41.5274 195.26 41.719C195.01 41.9107 194.8 42.1497 194.642 42.4226C194.485 42.6955 194.382 42.9968 194.341 43.3093C194.3 43.6218 194.32 43.9394 194.401 44.244L199.076 60.705L222.216 54.038L235.799 50.1204L237.469 49.6377L233.277 33.8902C233.195 33.5856 233.055 33.3 232.864 33.0497C232.672 32.7994 232.434 32.5893 232.161 32.4314C231.889 32.2735 231.588 32.171 231.276 32.1296C230.963 32.0882 230.646 32.1088 230.342 32.1902C230.027 32.273 229.732 32.4201 229.475 32.6223C229.219 32.8246 229.008 33.0776 228.854 33.3655C228.365 34.2959 227.456 35.6741 225.989 36.0589C223.767 36.6535 221.734 35.2824 221.063 32.7639C220.393 30.2454 221.469 28.0417 223.698 27.4471C225.13 27.0623 226.632 27.7899 227.512 28.3495C227.789 28.5236 228.099 28.6383 228.423 28.6864C228.746 28.7346 229.076 28.7152 229.392 28.6294C229.696 28.5482 229.981 28.4077 230.231 28.2161C230.481 28.0244 230.691 27.7854 230.849 27.5125C231.006 27.2396 231.109 26.9383 231.15 26.6258C231.192 26.3133 231.171 25.9957 231.09 25.6911L226.73 11L203.729 17.667" fill="black"/>
<path d="M177.062 176.731L163.172 177.739L164.031 190.072C164.105 190.618 164.389 191.112 164.822 191.45C165.256 191.787 165.805 191.941 166.351 191.877C166.628 191.868 166.901 191.801 167.151 191.68C167.401 191.56 167.623 191.389 167.804 191.178C168.144 190.716 168.571 190.325 169.061 190.029C169.551 189.732 170.095 189.535 170.662 189.45C172.618 189.352 174.064 190.849 174.155 193.074C174.246 195.298 172.981 196.928 171.025 197.026C170.455 197.003 169.895 196.868 169.377 196.628C168.859 196.388 168.393 196.048 168.007 195.627C167.807 195.433 167.569 195.282 167.308 195.184C167.047 195.087 166.769 195.045 166.491 195.06C165.951 195.088 165.443 195.328 165.08 195.73C164.718 196.131 164.529 196.66 164.555 197.201L165.519 211.738L185.97 210.304L197.96 209.465L199.441 209.36L198.742 195.515C198.715 194.972 198.474 194.463 198.072 194.098C197.669 193.733 197.139 193.544 196.597 193.57C196.321 193.581 196.05 193.648 195.801 193.769C195.552 193.889 195.331 194.06 195.151 194.27C194.812 194.732 194.385 195.123 193.894 195.42C193.404 195.716 192.86 195.913 192.293 195.998C190.337 196.096 188.891 194.599 188.8 192.374C188.709 190.149 189.974 188.519 191.93 188.421C192.503 188.447 193.065 188.587 193.583 188.834C194.102 189.08 194.566 189.427 194.948 189.855C195.148 190.05 195.386 190.2 195.647 190.297C195.908 190.393 196.187 190.434 196.464 190.415C197.004 190.388 197.512 190.147 197.875 189.746C198.238 189.344 198.426 188.815 198.4 188.274L197.324 175.276L177.062 176.731Z" fill="black"/>
<path d="M193.832 111.344C195.527 110.316 197.353 109.521 199.26 108.98L200.378 103.593L209.461 103.439L210.775 108.777C212.7 109.254 214.553 109.983 216.287 110.946L220.878 107.938L227.411 114.234L224.567 118.935C225.591 120.634 226.385 122.462 226.928 124.371L232.259 125.518L232.42 134.612L227.089 135.921C226.614 137.849 225.883 139.706 224.916 141.44L227.928 146.037L221.639 152.585L216.944 149.73C215.246 150.757 213.417 151.553 211.508 152.095L210.39 157.482L201.308 157.643L200.001 152.298C198.075 151.826 196.22 151.096 194.488 150.129L189.898 153.137L183.358 146.841L186.209 142.14C185.18 140.443 184.386 138.615 183.847 136.704L178.467 135.585L178.307 126.49L183.645 125.182C184.118 123.254 184.846 121.397 185.811 119.662L182.799 115.066L189.087 108.525L193.783 111.372L193.832 111.344ZM198.673 123.461C197.334 124.85 196.436 126.605 196.094 128.505C195.751 130.404 195.978 132.363 196.747 134.133C197.516 135.903 198.792 137.405 200.414 138.449C202.036 139.493 203.93 140.032 205.858 139.998C207.785 139.964 209.66 139.358 211.243 138.257C212.827 137.156 214.049 135.609 214.755 133.813C215.461 132.017 215.619 130.051 215.209 128.165C214.799 126.279 213.839 124.556 212.452 123.216C210.586 121.418 208.084 120.434 205.495 120.48C202.905 120.525 200.44 121.598 198.639 123.461H198.673Z" fill="black"/>
<path d="M296.537 46.7174C298.117 45.7573 299.818 45.0137 301.596 44.5068L302.637 39.4978L311.091 39.3509L312.307 44.3179C314.097 44.7633 315.822 45.4431 317.435 46.3397L321.704 43.5414L327.79 49.4038L325.142 53.7762C326.095 55.3568 326.832 57.0578 327.336 58.8341L332.338 59.8835L332.492 68.3414L327.524 69.5657C327.082 71.3597 326.403 73.0866 325.505 74.7006L328.3 78.975L322.431 85.0683L318.064 82.4169C316.483 83.3712 314.782 84.11 313.005 84.6136L311.964 89.6226L303.51 89.7695L302.295 84.8025C300.503 84.3595 298.778 83.6796 297.166 82.7807L292.89 85.579L286.812 79.6955L289.46 75.3232C288.503 73.7435 287.763 72.0423 287.259 70.2652L282.256 69.2229L282.109 60.758L287.07 59.5407C287.513 57.7469 288.192 56.0201 289.089 54.4058L286.295 50.1244L292.17 44.0381L296.537 46.7174ZM301.044 57.9876C299.794 59.2807 298.955 60.916 298.633 62.6866C298.312 64.4573 298.522 66.2836 299.238 67.9344C299.954 69.5853 301.142 70.9864 302.654 71.9604C304.165 72.9345 305.931 73.4377 307.728 73.4063C309.525 73.375 311.273 72.8105 312.749 71.7843C314.226 70.7581 315.365 69.3163 316.023 67.6415C316.681 65.9667 316.827 64.1342 316.444 62.3758C316.061 60.6175 315.166 59.0124 313.872 57.7638C312.14 56.0929 309.816 55.1781 307.412 55.2201C305.007 55.262 302.717 56.2573 301.044 57.9876Z" fill="black"/>
<path d="M33.7823 125.854C35.3602 124.898 37.0593 124.159 38.8338 123.657L39.8748 118.662L48.329 118.508L49.5447 123.482C51.3382 123.919 53.0636 124.599 54.6731 125.504L58.9491 122.706L65.0277 128.582L62.3796 132.954C63.3308 134.531 64.0685 136.227 64.5735 137.998L69.5761 139.041L69.7229 147.506L64.7691 148.744C64.3267 150.538 63.6477 152.265 62.7499 153.879L65.5447 158.16L59.6827 164.226L55.3159 161.574C53.734 162.529 52.0331 163.27 50.2574 163.778L49.2023 168.787L40.7552 168.934L39.5325 163.96C37.741 163.52 36.0163 162.842 34.4041 161.945L30.1351 164.743L24.0495 158.867L26.6976 154.494C25.7468 152.916 25.0113 151.217 24.5107 149.443L19.5081 148.401L19.3613 139.936L24.322 138.719C24.7637 136.925 25.4428 135.198 26.3412 133.584L23.5465 129.31L29.4155 123.216L33.7893 125.868L33.7823 125.854ZM38.2888 137.131C37.0377 138.424 36.1979 140.059 35.8756 141.83C35.5534 143.601 35.7632 145.428 36.4787 147.079C37.1941 148.73 38.3828 150.132 39.8944 151.107C41.406 152.081 43.1723 152.584 44.9698 152.553C46.7674 152.522 48.5151 151.957 49.9919 150.93C51.4686 149.904 52.6078 148.461 53.2653 146.786C53.9227 145.111 54.0689 143.277 53.6851 141.519C53.3014 139.76 52.4051 138.155 51.1098 136.907C49.378 135.238 47.0562 134.325 44.6531 134.367C42.25 134.409 39.9615 135.403 38.2888 137.131Z" fill="black"/>
<path d="M63.3221 56.3996C64.3895 55.7524 65.5385 55.2512 66.7387 54.9095L67.4374 51.5235L73.1527 51.4256L73.9772 54.7836C75.1995 55.0894 76.3748 55.5601 77.4706 56.1827L80.3562 54.2869L84.4715 58.2675L82.6758 61.2197C83.3239 62.29 83.8245 63.443 84.164 64.6476L87.5457 65.3472L87.6435 71.0697L84.2898 71.8952C83.9836 73.1189 83.5136 74.2956 82.8924 75.3931L84.7859 78.2894L80.8173 82.4029L77.8479 80.535C76.78 81.1811 75.6311 81.6821 74.4313 82.0251L73.7326 85.4111L68.0173 85.509L67.1929 82.1511C65.9725 81.8555 64.7974 81.3967 63.6994 80.7869L60.8069 82.6827L56.6986 78.7021L58.4872 75.7499C57.8461 74.6785 57.3459 73.5287 56.999 72.329L53.6173 71.6294L53.5195 65.9069L56.8732 65.0814C57.1828 63.8587 57.6526 62.6826 58.2706 61.5835L56.3981 58.7082L60.3807 54.5947L63.3221 56.3996ZM66.3684 64.025C65.5311 64.9005 64.9717 66.0048 64.7606 67.1984C64.5495 68.3921 64.6963 69.6216 65.1824 70.7317C65.6685 71.8419 66.4722 72.783 67.492 73.4363C68.5119 74.0896 69.7021 74.4257 70.9125 74.4023C72.1229 74.3789 73.2993 73.997 74.2932 73.3048C75.2871 72.6126 76.0539 71.6411 76.4968 70.513C76.9398 69.3849 77.0391 68.1506 76.7821 66.966C76.5252 65.7815 75.9236 64.6996 75.0531 63.8571C74.4733 63.2953 73.7884 62.8536 73.0378 62.5572C72.2872 62.2609 71.4856 62.1157 70.6789 62.13C69.8722 62.1443 69.0762 62.3178 68.3365 62.6406C67.5969 62.9633 66.9281 63.429 66.3684 64.011V64.025Z" fill="black"/>
<path d="M42.5567 19.5738C43.5375 18.9687 44.595 18.4981 45.7008 18.1746L46.3506 15.1245L51.6117 15.0335L52.3663 18.1257C53.4789 18.3809 54.5527 18.7832 55.5593 19.322L58.2144 17.573L62.0013 21.2318L60.3803 23.9811C60.9828 24.9642 61.4527 26.0227 61.7777 27.1292L64.8868 27.7799L64.9777 33.0477L61.8336 33.8032C61.56 34.9197 61.1394 35.9948 60.5829 37.0003L62.3227 39.6587L58.6685 43.4504L55.9506 41.7994C54.9705 42.4058 53.9128 42.8765 52.8065 43.1986L52.1567 46.3187L46.9026 46.4096L46.141 43.3175C45.0279 43.041 43.9565 42.6176 42.955 42.0582L40.293 43.8072L36.5131 40.1484L38.162 37.427C37.5566 36.4455 37.0865 35.3866 36.7646 34.2789L33.6484 33.6283L33.5576 28.3675L36.6458 27.605C36.9207 26.4901 37.3437 25.4172 37.9035 24.4149L36.1637 21.7495L39.8388 17.9228L42.5567 19.5668V19.5738ZM45.3515 26.5696C44.5768 27.3728 44.0574 28.388 43.8589 29.4868C43.6605 30.5857 43.792 31.7187 44.2367 32.7427C44.6814 33.7667 45.4194 34.6357 46.3574 35.2397C47.2954 35.8437 48.3912 36.1557 49.5062 36.1361C50.6213 36.1165 51.7055 35.7663 52.6217 35.1298C53.538 34.4932 54.2451 33.5989 54.6537 32.5599C55.0623 31.5209 55.154 30.3839 54.9173 29.2928C54.6805 28.2016 54.1259 27.2052 53.3235 26.4297C52.2457 25.3968 50.8029 24.8339 49.3113 24.864C47.8197 24.8942 46.4008 25.515 45.3655 26.5906L45.3515 26.5696Z" fill="black"/>
<path d="M296.951 127.624C297.932 127.028 298.99 126.569 300.095 126.259L300.738 123.139L305.999 123.048L306.753 126.141C307.869 126.416 308.943 126.839 309.946 127.4L312.608 125.658L316.395 129.317L314.746 132.038C315.349 133.021 315.819 134.08 316.144 135.186L319.253 135.837L319.344 141.098L316.255 141.86C315.986 142.976 315.565 144.049 315.005 145.05L316.745 147.716L313.09 151.5L310.372 149.856C309.391 150.452 308.333 150.911 307.228 151.22L306.586 154.341L301.324 154.431L300.57 151.339C299.454 151.064 298.38 150.641 297.377 150.08L294.715 151.829L290.935 148.17L292.584 145.449C291.978 144.467 291.508 143.408 291.186 142.301L288.077 141.65L287.979 136.382L291.068 135.627C291.344 134.51 291.767 133.435 292.325 132.43L290.586 129.771L294.24 125.98L296.958 127.631L296.951 127.624ZM299.745 134.619C298.969 135.423 298.449 136.44 298.25 137.54C298.051 138.641 298.182 139.775 298.627 140.801C299.072 141.826 299.811 142.697 300.751 143.302C301.69 143.906 302.787 144.219 303.904 144.199C305.02 144.18 306.106 143.829 307.024 143.192C307.941 142.554 308.649 141.658 309.058 140.618C309.467 139.577 309.559 138.439 309.321 137.346C309.084 136.253 308.528 135.256 307.724 134.48C306.646 133.442 305.2 132.877 303.705 132.907C302.21 132.937 300.788 133.561 299.752 134.64L299.745 134.619Z" fill="black"/>
<path d="M231.484 76.5265C232.765 75.9243 234.121 75.4961 235.515 75.2532L236.703 71.5105L243.166 72.0701L243.697 75.9528C245.029 76.4313 246.292 77.0878 247.449 77.9046L250.942 76.1067L255.134 81.0737L252.766 84.1938C253.366 85.4776 253.796 86.8347 254.044 88.2304L257.775 89.4197L257.216 95.8908L253.339 96.4225C252.859 97.7563 252.204 99.0198 251.389 100.179L253.185 103.677L248.224 107.875L245.108 105.503C243.826 106.104 242.471 106.535 241.077 106.783L239.889 110.519L233.426 109.959L232.895 106.077C231.563 105.597 230.301 104.94 229.143 104.125L225.65 105.923L221.457 100.956L223.826 97.8356C223.225 96.5527 222.797 95.1952 222.554 93.799L218.816 92.6098L219.375 86.1387L223.253 85.607C223.732 84.2732 224.388 83.0097 225.202 81.8502L223.407 78.3524L228.367 74.1549L231.484 76.5265ZM234.034 85.4811C232.968 86.3672 232.189 87.5508 231.796 88.8814C231.403 90.2119 231.415 91.6293 231.829 92.9534C232.242 94.2774 233.04 95.4484 234.12 96.3174C235.201 97.1864 236.514 97.7142 237.895 97.8336C239.275 97.9531 240.66 97.6589 241.873 96.9883C243.086 96.3178 244.073 95.3012 244.708 94.0679C245.342 92.8346 245.596 91.4401 245.437 90.0619C245.279 88.6836 244.714 87.3837 243.816 86.3275C242.624 84.9268 240.929 84.0525 239.098 83.894C237.267 83.7356 235.448 84.3058 234.034 85.4811Z" fill="black"/>
</g>
<path d="M197.59 104.411C196.451 104.411 192.846 103.894 192.056 104.719C190.805 106.027 191.078 108.805 188.507 108.756C184.524 108.679 181.806 105.433 181.897 100.914C181.988 96.3943 184.825 93.2602 188.807 93.3371C191.378 93.3931 190.603 97.3387 192.301 97.9613C193.307 98.3321 196.57 98.0103 197.715 98.0313C198.26 98.0424 198.802 97.9459 199.309 97.7472C199.816 97.5485 200.28 97.2516 200.672 96.8734C201.065 96.4952 201.379 96.0432 201.597 95.5432C201.815 95.0433 201.932 94.5052 201.942 93.9598L201.691 67.5157L160.294 67.5926L131.99 67.6696V92.7775C131.948 95.0721 134.149 96.7091 136.44 96.7581C137.005 96.7714 137.567 96.6676 138.09 96.4533C138.613 96.239 139.086 95.9188 139.48 95.5128C140.73 94.1976 142.973 92.3647 145.523 92.4137C149.506 92.4906 152.224 95.7367 152.133 100.256C152.042 104.775 149.205 107.902 145.223 107.825C142.652 107.776 140.507 105.853 139.305 104.495C138.748 103.878 138.018 103.442 137.211 103.245C136.403 103.048 135.555 103.099 134.777 103.391C133.998 103.683 133.326 104.203 132.846 104.882C132.366 105.562 132.102 106.371 132.088 107.203L131.969 136.851H201.083L201.656 108.665C201.669 108.118 201.574 107.574 201.376 107.064C201.179 106.554 200.883 106.088 200.505 105.693C200.127 105.297 199.675 104.981 199.175 104.761C198.675 104.541 198.136 104.422 197.59 104.411Z" fill="#263238"/>
<path d="M192.838 104.412C192.273 104.398 191.712 104.502 191.189 104.716C190.666 104.931 190.193 105.251 189.799 105.657C188.548 106.965 186.306 108.805 183.755 108.756C179.78 108.679 177.055 105.433 177.146 100.914C177.237 96.3945 180.08 93.2603 184.056 93.3373C186.627 93.3933 188.772 95.3171 189.974 96.6743C190.352 97.0949 190.812 97.4326 191.327 97.6662C191.842 97.8997 192.399 98.0241 192.964 98.0315C193.509 98.0426 194.05 97.9461 194.558 97.7474C195.065 97.5487 195.528 97.2517 195.921 96.8735C196.314 96.4954 196.628 96.0434 196.846 95.5434C197.064 95.0434 197.181 94.5053 197.191 93.9599L196.94 67.5159L155.521 67.5718L127.217 67.6488V92.7776C127.175 95.0723 129.376 96.7093 131.668 96.7582C132.234 96.7717 132.797 96.668 133.321 96.4537C133.845 96.2395 134.319 95.9192 134.714 95.513C135.965 94.1978 138.208 92.3649 140.751 92.4139C144.734 92.4908 147.451 95.7369 147.368 100.256C147.284 104.775 144.433 107.903 140.451 107.826C137.879 107.777 135.734 105.853 134.533 104.496C133.976 103.878 133.246 103.442 132.438 103.245C131.631 103.048 130.783 103.099 130.004 103.391C129.226 103.683 128.553 104.203 128.074 104.883C127.594 105.562 127.33 106.371 127.315 107.203L127.217 136.851H196.339L196.905 108.665C196.918 108.118 196.823 107.574 196.625 107.064C196.428 106.554 196.131 106.088 195.754 105.693C195.376 105.298 194.924 104.981 194.424 104.761C193.923 104.541 193.385 104.423 192.838 104.412Z" fill="#455A64"/>
<path d="M192.839 104.412C193.037 104.407 193.236 104.421 193.432 104.454C194.012 104.539 194.565 104.752 195.053 105.076C195.866 105.602 196.469 106.397 196.758 107.322C196.937 107.913 197.001 108.533 196.947 109.148C196.947 109.798 196.947 110.498 196.947 111.247C196.835 117.186 196.681 125.861 196.479 136.837V136.942H196.374L127.253 137.005H127.092V136.851C127.092 131.059 127.108 125.082 127.141 118.921C127.141 115.847 127.141 112.732 127.141 109.575C127.141 108.784 127.141 107.993 127.141 107.196C127.171 106.361 127.435 105.552 127.902 104.859C128.385 104.168 129.056 103.632 129.836 103.314C130.615 102.996 131.47 102.911 132.297 103.068C133.132 103.231 133.901 103.637 134.505 104.237C135.035 104.846 135.615 105.41 136.238 105.923C137.443 106.993 138.981 107.613 140.591 107.679C142.219 107.701 143.79 107.08 144.964 105.951C146.119 104.777 146.855 103.255 147.06 101.62C147.185 100.803 147.209 99.9737 147.13 99.1508C147.068 98.3247 146.879 97.5131 146.571 96.7443C145.983 95.1771 144.804 93.9036 143.288 93.1974C142.531 92.8491 141.711 92.6595 140.878 92.6402C140.045 92.621 139.218 92.7725 138.446 93.0855C137.667 93.4119 136.936 93.8426 136.273 94.3657C135.937 94.6315 135.616 94.9114 135.308 95.1982C135.006 95.5187 134.687 95.8223 134.351 96.1076C133.739 96.5675 133.016 96.8571 132.255 96.9471C131.491 97.0175 130.721 96.9196 129.998 96.6603C129.279 96.4045 128.629 95.9855 128.098 95.4361C127.561 94.8779 127.209 94.1667 127.092 93.4003C127.054 93.0285 127.04 92.6546 127.05 92.2809V84.6486C127.05 78.8934 127.05 73.2268 127.05 67.6488V67.4669H127.225L196.947 67.369H197.094V67.5159C197.149 73.327 197.198 78.8747 197.24 84.1588C197.268 86.8032 197.292 89.3684 197.31 91.8542C197.31 92.4768 197.31 93.0995 197.31 93.7151C197.329 94.3407 197.215 94.9631 196.975 95.541C196.737 96.0969 196.385 96.5964 195.941 97.0066C195.497 97.4167 194.972 97.7285 194.399 97.9213C193.827 98.1141 193.22 98.1838 192.619 98.1256C192.017 98.0674 191.435 97.8828 190.91 97.5837C190.419 97.2867 189.984 96.9055 189.625 96.4574C189.255 96.0553 188.858 95.679 188.437 95.3311C187.638 94.6332 186.713 94.0942 185.712 93.7431C184.746 93.4224 183.715 93.3526 182.715 93.5402C181.774 93.7093 180.884 94.0908 180.113 94.6557C179.342 95.2205 178.71 95.954 178.264 96.8002C177.452 98.3526 177.1 100.105 177.251 101.851C177.326 103.424 177.863 104.94 178.795 106.21C179.631 107.316 180.815 108.107 182.156 108.455C183.301 108.78 184.516 108.758 185.649 108.392C186.583 108.074 187.457 107.601 188.234 106.993C188.852 106.512 189.435 105.988 189.981 105.426C190.408 105.042 190.913 104.755 191.462 104.587C191.793 104.482 192.136 104.421 192.482 104.405C192.599 104.395 192.715 104.395 192.832 104.405C192.832 104.405 192.713 104.405 192.482 104.405C192.14 104.431 191.802 104.499 191.476 104.608C190.936 104.782 190.441 105.07 190.023 105.454C189.485 106.025 188.906 106.556 188.29 107.042C187.505 107.65 186.624 108.122 185.684 108.441C184.531 108.821 183.291 108.85 182.121 108.525C180.749 108.175 179.535 107.371 178.676 106.245C177.724 104.976 177.163 103.456 177.062 101.872C176.902 100.091 177.256 98.3017 178.082 96.7163C178.539 95.8426 179.188 95.0847 179.981 94.5004C180.774 93.916 181.69 93.5206 182.659 93.3443C183.693 93.1486 184.759 93.216 185.761 93.5402C186.784 93.9047 187.732 94.4549 188.556 95.1632C188.982 95.5199 189.386 95.9031 189.764 96.3105C190.11 96.7401 190.528 97.1049 191.001 97.3879C191.496 97.67 192.046 97.844 192.613 97.8983C193.181 97.9526 193.753 97.886 194.293 97.703C194.833 97.52 195.328 97.2246 195.745 96.8363C196.163 96.448 196.494 95.9755 196.716 95.45C197.205 94.3727 196.975 93.0995 197.01 91.8612C197.01 89.3707 196.984 86.8056 196.933 84.1658C196.877 78.8817 196.819 73.3317 196.758 67.5159L196.905 67.6628L127.183 67.8237L127.364 67.6488V92.26C127.353 92.6173 127.367 92.9749 127.406 93.3303C127.55 94.0198 127.877 94.6576 128.353 95.1761C128.829 95.6946 129.436 96.0745 130.11 96.2755C130.781 96.5178 131.497 96.6086 132.206 96.5414C132.911 96.4635 133.582 96.1977 134.149 95.7718C134.47 95.534 134.743 95.1982 135.071 94.8974C135.399 94.5966 135.721 94.3097 136.063 94.0369C136.751 93.493 137.511 93.0458 138.32 92.7077C139.138 92.3755 140.016 92.2141 140.899 92.2334C141.782 92.2526 142.652 92.4521 143.455 92.8196C145.064 93.5652 146.318 94.9109 146.949 96.5694C147.269 97.37 147.466 98.2143 147.536 99.0739C147.615 99.9273 147.589 100.787 147.459 101.634C147.237 103.346 146.461 104.938 145.251 106.168C144.009 107.362 142.347 108.018 140.626 107.993C138.933 107.931 137.315 107.281 136.049 106.154C135.413 105.635 134.822 105.064 134.281 104.447C133.731 103.895 133.028 103.521 132.262 103.376C131.697 103.265 131.114 103.279 130.554 103.416C129.995 103.554 129.472 103.811 129.022 104.171C128.571 104.532 128.205 104.986 127.948 105.502C127.691 106.018 127.549 106.584 127.532 107.161C127.532 107.958 127.532 108.749 127.532 109.533C127.532 112.69 127.532 115.808 127.532 118.886C127.532 125.033 127.511 131.007 127.469 136.809L127.302 136.648L196.423 136.704L196.311 136.809C196.556 125.826 196.751 117.151 196.884 111.219C196.884 110.477 196.919 109.777 196.933 109.12C196.988 108.515 196.929 107.905 196.758 107.322C196.481 106.412 195.895 105.628 195.102 105.104C194.624 104.779 194.08 104.562 193.509 104.468C193.041 104.419 192.839 104.426 192.839 104.412Z" fill="black"/>
<path d="M339.655 104.411C338.516 104.411 334.918 103.894 334.128 104.719C332.87 106.027 333.143 108.805 330.572 108.756C326.596 108.679 323.871 105.433 323.962 100.914C324.053 96.3943 326.897 93.2602 330.872 93.3371C333.443 93.3931 332.668 97.3387 334.366 97.9613C335.365 98.3321 338.635 98.0103 339.773 98.0313C340.318 98.0424 340.86 97.9459 341.367 97.7472C341.874 97.5485 342.338 97.2516 342.73 96.8734C343.123 96.4952 343.437 96.0432 343.655 95.5432C343.873 95.0433 343.991 94.5052 344.001 93.9598L343.749 67.5157L302.338 67.5926L274.034 67.6696V92.7775C273.992 95.0721 276.193 96.7091 278.484 96.7581C279.05 96.7715 279.613 96.6678 280.137 96.4535C280.661 96.2393 281.136 95.919 281.531 95.5128C282.781 94.1976 285.024 92.3647 287.567 92.4137C291.55 92.4906 294.268 95.7367 294.184 100.256C294.1 104.775 291.249 107.902 287.267 107.825C284.703 107.776 282.551 105.853 281.349 104.495C280.792 103.878 280.062 103.442 279.255 103.245C278.447 103.048 277.599 103.099 276.821 103.391C276.042 103.683 275.37 104.203 274.89 104.882C274.411 105.562 274.146 106.371 274.132 107.203L274.034 136.851H343.155L343.721 108.665C343.734 108.118 343.639 107.574 343.442 107.064C343.244 106.554 342.948 106.088 342.57 105.693C342.192 105.297 341.74 104.981 341.24 104.761C340.74 104.541 340.201 104.422 339.655 104.411Z" fill="#263238"/>
<path d="M335.294 104.411C334.729 104.397 334.167 104.501 333.644 104.715C333.12 104.929 332.647 105.25 332.254 105.657C330.997 106.965 328.761 108.805 326.211 108.756C322.228 108.679 319.51 105.433 319.594 100.914C319.678 96.3943 322.529 93.2602 326.511 93.3371C329.082 93.3931 331.227 95.3169 332.429 96.6741C332.806 97.0954 333.267 97.4335 333.782 97.6671C334.297 97.9008 334.854 98.0248 335.419 98.0313C335.964 98.0424 336.506 97.9459 337.013 97.7472C337.52 97.5485 337.984 97.2516 338.376 96.8734C338.769 96.4952 339.083 96.0432 339.301 95.5432C339.519 95.0433 339.636 94.5052 339.646 93.9598L339.395 67.5157L297.977 67.5717L269.673 67.6486V92.7775C269.624 95.0721 271.832 96.7091 274.123 96.7581C274.688 96.7714 275.25 96.6676 275.773 96.4533C276.296 96.239 276.769 95.9188 277.163 95.5128C278.413 94.1976 280.656 92.3647 283.206 92.4137C287.189 92.4906 289.907 95.7367 289.816 100.256C289.725 104.775 286.881 107.902 282.906 107.825C280.335 107.776 278.19 105.853 276.988 104.495C276.431 103.878 275.701 103.442 274.894 103.245C274.086 103.048 273.238 103.099 272.46 103.391C271.681 103.683 271.009 104.203 270.529 104.882C270.049 105.562 269.785 106.371 269.77 107.203L269.673 136.851H338.787L339.36 108.665C339.375 107.563 338.957 106.5 338.197 105.705C337.436 104.909 336.393 104.444 335.294 104.411Z" fill="#455A64"/>
<path d="M335.294 104.412C335.491 104.407 335.687 104.421 335.881 104.454C336.461 104.538 337.015 104.751 337.502 105.076C338.319 105.599 338.925 106.395 339.214 107.322C339.386 107.914 339.45 108.533 339.402 109.148C339.402 109.798 339.402 110.498 339.367 111.247C339.256 117.186 339.095 125.861 338.892 136.837V136.942H338.788L269.673 137.005H269.506V136.851C269.506 131.059 269.524 125.082 269.561 118.921C269.561 115.847 269.561 112.732 269.561 109.575C269.561 108.784 269.561 107.993 269.561 107.196C269.578 106.567 269.732 105.95 270.011 105.387C270.29 104.824 270.689 104.328 271.179 103.936C271.67 103.543 272.24 103.261 272.849 103.112C273.459 102.962 274.095 102.947 274.711 103.068C275.546 103.229 276.315 103.636 276.919 104.237C277.45 104.844 278.03 105.408 278.651 105.923C279.859 106.995 281.399 107.615 283.011 107.679C284.638 107.702 286.207 107.081 287.378 105.951C288.535 104.779 289.272 103.256 289.474 101.62C289.601 100.803 289.627 99.974 289.551 99.1508C289.486 98.3244 289.295 97.5128 288.985 96.7443C288.399 95.1776 287.223 93.9038 285.708 93.1974C284.95 92.8493 284.129 92.6599 283.295 92.6406C282.461 92.6214 281.633 92.7727 280.859 93.0855C280.083 93.412 279.354 93.8427 278.693 94.3657C278.358 94.6315 278.037 94.9114 277.729 95.1982C277.422 95.485 277.142 95.8278 276.772 96.1076C276.159 96.5666 275.436 96.8561 274.676 96.9471C273.914 97.0176 273.146 96.9197 272.426 96.6603C271.707 96.4045 271.056 95.9855 270.526 95.4361C269.988 94.8779 269.637 94.1667 269.52 93.4003C269.478 93.0287 269.464 92.6546 269.478 92.2809V67.4669H269.659L339.381 67.369H339.528V67.5159C339.575 73.327 339.624 78.8747 339.675 84.1588C339.675 86.8032 339.696 89.3684 339.738 91.8542V93.7151C339.754 94.3411 339.638 94.9636 339.395 95.541C339.158 96.0967 338.807 96.596 338.364 97.0062C337.92 97.4163 337.396 97.7281 336.824 97.921C336.252 98.1138 335.645 98.1835 335.045 98.1254C334.444 98.0673 333.862 97.8827 333.338 97.5837C332.845 97.2889 332.409 96.9073 332.052 96.4574C331.681 96.057 331.284 95.6808 330.864 95.3311C330.063 94.6359 329.139 94.0973 328.14 93.7431C327.174 93.4224 326.142 93.3526 325.142 93.5402C324.202 93.7093 323.312 94.0908 322.541 94.6557C321.77 95.2205 321.137 95.954 320.692 96.8002C319.88 98.3526 319.528 100.105 319.678 101.851C319.754 103.424 320.291 104.94 321.223 106.21C322.056 107.315 323.237 108.107 324.576 108.455C325.721 108.78 326.937 108.758 328.07 108.392C329.006 108.074 329.882 107.601 330.662 106.993C331.279 106.514 331.86 105.99 332.402 105.426C333.096 104.808 333.982 104.448 334.91 104.405C335.026 104.395 335.143 104.395 335.259 104.405C335.259 104.405 335.14 104.405 334.91 104.405C334.565 104.43 334.225 104.498 333.897 104.608C333.36 104.783 332.867 105.072 332.45 105.454C331.911 106.023 331.332 106.554 330.718 107.042C329.93 107.65 329.047 108.122 328.105 108.441C326.954 108.822 325.716 108.851 324.548 108.525C323.175 108.178 321.96 107.374 321.104 106.245C320.148 104.955 319.592 103.413 319.504 101.809C319.35 100.029 319.704 98.2409 320.524 96.6533C320.982 95.7798 321.633 95.0221 322.427 94.4379C323.221 93.8537 324.138 93.4582 325.107 93.2813C326.141 93.0857 327.208 93.153 328.209 93.4772C329.233 93.8411 330.18 94.3914 331.004 95.1003C331.434 95.4534 331.838 95.8368 332.213 96.2476C332.56 96.6755 332.978 97.04 333.45 97.3249C333.938 97.6005 334.478 97.7726 335.036 97.8303C335.593 97.8881 336.157 97.8304 336.692 97.6607C337.243 97.482 337.749 97.1863 338.176 96.794C338.603 96.4016 338.94 95.9218 339.165 95.3871C339.654 94.3097 339.43 93.0365 339.465 91.7982C339.437 89.3077 339.409 86.7426 339.381 84.1029C339.326 78.8187 339.27 73.2688 339.214 67.4529L339.361 67.5998L269.638 67.7607L269.813 67.5858C269.813 73.1545 269.813 78.8234 269.813 84.5926V92.197C269.8 92.5542 269.811 92.9118 269.848 93.2674C269.986 93.9571 270.308 94.5966 270.779 95.1187C271.25 95.6407 271.853 96.0259 272.524 96.2336C273.194 96.4767 273.91 96.5675 274.62 96.4994C275.325 96.4239 275.996 96.1579 276.562 95.7299C276.888 95.4553 277.198 95.1634 277.492 94.8554C277.808 94.5521 278.139 94.2649 278.484 93.9949C279.172 93.451 279.931 93.0038 280.74 92.6657C281.558 92.3337 282.434 92.1724 283.316 92.1917C284.198 92.2109 285.067 92.4103 285.869 92.7777C287.479 93.5213 288.733 94.8677 289.362 96.5274C289.685 97.3271 289.883 98.1718 289.949 99.0319C290.032 99.8852 290.006 100.746 289.872 101.592C289.657 103.306 288.88 104.9 287.664 106.126C286.425 107.319 284.766 107.975 283.046 107.952C281.351 107.89 279.73 107.24 278.463 106.112C277.831 105.591 277.242 105.021 276.702 104.405C276.151 103.854 275.448 103.481 274.683 103.334C274.117 103.225 273.535 103.239 272.975 103.377C272.416 103.515 271.893 103.772 271.442 104.132C270.992 104.492 270.625 104.946 270.366 105.461C270.108 105.977 269.965 106.542 269.946 107.119C269.946 107.917 269.946 108.707 269.946 109.491C269.946 112.648 269.934 115.766 269.911 118.844C269.911 124.991 269.888 130.965 269.841 136.767L269.68 136.606L338.795 136.662L338.69 136.767C338.934 125.784 339.123 117.109 339.256 111.177C339.256 110.435 339.291 109.735 339.305 109.078C339.358 108.473 339.302 107.864 339.137 107.28C338.857 106.372 338.272 105.588 337.481 105.062C337 104.737 336.454 104.52 335.881 104.426C335.497 104.419 335.294 104.426 335.294 104.412Z" fill="black"/>
<path d="M65.4606 93.897C65.4404 94.9924 64.9882 96.0353 64.2028 96.7981C63.4174 97.5609 62.3626 97.9816 61.2685 97.9685C60.7027 97.9615 60.1446 97.8366 59.6298 97.6018C59.1149 97.3669 58.6546 97.0272 58.2781 96.6043C57.0763 95.2472 54.9313 93.3233 52.3602 93.2744C48.3846 93.1974 45.534 96.3315 45.4501 100.851C45.3663 105.37 48.0772 108.609 52.0597 108.686C54.6309 108.742 56.8527 106.902 58.1034 105.594C58.4887 105.194 58.9514 104.878 59.4632 104.664C59.9751 104.45 60.5252 104.342 61.0798 104.349C61.6245 104.359 62.1619 104.476 62.6613 104.694C63.1606 104.913 63.612 105.227 63.9897 105.62C64.3674 106.014 64.664 106.477 64.8624 106.985C65.0609 107.493 65.1573 108.036 65.1462 108.581L64.5802 136.767H127.169L127.267 107.154C127.287 106.059 127.739 105.016 128.524 104.253C129.31 103.49 130.365 103.069 131.459 103.082C132.027 103.094 132.587 103.224 133.102 103.465C133.617 103.706 134.076 104.052 134.449 104.482C135.651 105.839 137.796 107.763 140.367 107.812C144.343 107.889 147.193 104.754 147.277 100.235C147.361 95.7159 144.643 92.4768 140.668 92.3999C138.096 92.3439 135.875 94.1838 134.624 95.492C134.231 95.8994 133.758 96.2205 133.235 96.4349C132.712 96.6493 132.15 96.7523 131.585 96.7373C129.293 96.6953 127.085 95.0513 127.134 92.7567V67.5928H65.2091L65.4606 93.897Z" fill="#455A64"/>
<path d="M65.4604 93.897C65.4604 93.897 65.4604 93.7501 65.4604 93.4562C65.4604 93.1624 65.4604 92.7147 65.4604 92.141C65.4604 90.9797 65.4185 89.2588 65.3906 87.0271C65.2718 82.5358 65.2159 75.9878 65.1181 67.5928V67.4949H65.2159L127.204 67.4319H127.357V67.5928C127.357 73.8237 127.357 80.3135 127.357 87.0621V92.162C127.339 92.5805 127.36 92.9997 127.42 93.4143C127.496 93.817 127.648 94.2016 127.867 94.5476C128.33 95.2476 128.989 95.7951 129.761 96.1216C130.532 96.4669 131.38 96.6021 132.22 96.5134C133.066 96.4151 133.854 96.0386 134.463 95.443C135.669 94.0868 137.201 93.061 138.914 92.4628C139.369 92.3274 139.837 92.2429 140.311 92.211C140.778 92.1914 141.246 92.2148 141.708 92.2809C142.632 92.4138 143.517 92.7456 144.301 93.2534C145.865 94.3197 146.951 95.9569 147.326 97.8146C147.729 99.6756 147.613 101.612 146.99 103.411C146.677 104.323 146.176 105.159 145.518 105.864C144.861 106.569 144.063 107.128 143.176 107.504C142.274 107.86 141.308 108.024 140.339 107.986C139.358 107.932 138.402 107.654 137.544 107.175C136.698 106.704 135.919 106.123 135.225 105.447C134.875 105.118 134.526 104.747 134.232 104.412C133.903 104.091 133.52 103.83 133.101 103.642C132.251 103.266 131.296 103.2 130.402 103.456C129.509 103.712 128.733 104.272 128.21 105.041C127.688 105.825 127.442 106.76 127.511 107.7C127.511 108.672 127.511 109.651 127.511 110.624C127.511 119.537 127.455 128.295 127.42 136.816V136.998H127.246H64.6569H64.4962V136.837C64.6313 130.457 64.7594 124.357 64.8805 118.536C64.9411 115.635 65.0016 112.807 65.0622 110.05C65.1042 109.375 65.1042 108.697 65.0622 108.021C64.9847 107.375 64.7443 106.759 64.3635 106.231C63.9924 105.709 63.5017 105.285 62.9327 104.992C62.3637 104.7 61.733 104.549 61.0936 104.552C60.4698 104.55 59.8545 104.696 59.298 104.978C59.0226 105.115 58.7645 105.284 58.5294 105.482C58.2989 105.678 58.0893 105.916 57.8307 106.14C56.9489 107.021 55.9234 107.745 54.7984 108.28C53.7154 108.778 52.5161 108.967 51.3327 108.826C50.1492 108.686 49.0275 108.221 48.091 107.483C47.2287 106.773 46.5463 105.87 46.0997 104.845C45.6827 103.865 45.446 102.818 45.4011 101.753C45.2371 99.7689 45.728 97.7856 46.7984 96.1076C47.7494 94.7076 49.2116 93.7376 50.87 93.4065C52.5284 93.0755 54.2503 93.4099 55.6648 94.3377C56.7819 95.0753 57.7907 95.9654 58.6622 96.9821C59.4113 97.6309 60.3686 97.988 61.3591 97.988C62.3496 97.988 63.307 97.6309 64.0561 96.9821C64.5383 96.5702 64.9166 96.05 65.16 95.464C65.3599 94.9862 65.4757 94.4773 65.5024 93.9599C65.5024 93.9599 65.5024 94.0929 65.5024 94.3517C65.4615 94.7405 65.3674 95.1218 65.2229 95.485C64.9544 96.0635 64.5577 96.5731 64.063 96.9751C63.299 97.6442 62.3183 98.013 61.3032 98.013C60.2881 98.013 59.3075 97.6442 58.5434 96.9751C57.6708 95.9722 56.6646 95.0941 55.553 94.3657C54.1703 93.4647 52.4894 93.1439 50.8727 93.4724C49.2559 93.8008 47.8328 94.7523 46.9102 96.1216C45.8546 97.7618 45.3638 99.7027 45.5129 101.648C45.5365 102.715 45.7846 103.765 46.2409 104.729C46.6972 105.694 47.3514 106.551 48.1609 107.245C49.0676 107.95 50.15 108.394 51.2905 108.527C52.431 108.66 53.5862 108.478 54.6307 108C55.7296 107.474 56.7313 106.764 57.5932 105.902C57.8168 105.692 58.0194 105.454 58.2919 105.237C58.5415 105.025 58.816 104.844 59.1093 104.698C59.7003 104.398 60.354 104.242 61.0168 104.244C62.0487 104.237 63.0483 104.604 63.8306 105.278C64.6129 105.952 65.1249 106.887 65.2718 107.91C65.3114 108.609 65.3114 109.309 65.2718 110.008C65.2159 112.765 65.16 115.596 65.1041 118.501C64.9923 124.317 64.8735 130.417 64.7478 136.802L64.5941 136.641H127.183L127.001 136.823C127.001 128.295 127.057 119.544 127.085 110.624C127.085 109.651 127.085 108.679 127.085 107.707C127.02 106.695 127.288 105.69 127.846 104.845C128.419 104.006 129.268 103.395 130.245 103.119C131.222 102.843 132.265 102.919 133.191 103.334C133.651 103.536 134.07 103.821 134.428 104.174C134.777 104.538 135.071 104.873 135.42 105.202C136.087 105.86 136.842 106.423 137.663 106.874C138.47 107.324 139.368 107.587 140.29 107.644C141.208 107.68 142.124 107.525 142.98 107.189C143.821 106.833 144.577 106.303 145.2 105.634C145.822 104.965 146.297 104.171 146.592 103.306C147.19 101.579 147.301 99.7201 146.914 97.9335C146.561 96.1649 145.53 94.6052 144.042 93.5892C143.299 93.1119 142.463 92.7995 141.59 92.6727C141.157 92.6111 140.72 92.5877 140.283 92.6028C139.85 92.636 139.421 92.7157 139.004 92.8406C137.343 93.4193 135.858 94.4168 134.694 95.7369C134.029 96.3796 133.173 96.7874 132.255 96.8982C131.352 96.9953 130.438 96.853 129.607 96.4854C128.772 96.1303 128.061 95.5335 127.567 94.7715C127.326 94.3882 127.158 93.9637 127.071 93.5192C127.007 93.0839 126.983 92.6436 127.001 92.204C127.001 90.4924 127.001 88.7924 127.001 87.1041C127.001 80.3695 127.001 73.8797 127.001 67.6348L127.162 67.7957L65.174 67.7327L65.2718 67.6348C65.3347 76.0297 65.3836 82.5918 65.4115 87.0831C65.4115 89.3147 65.4115 91.0357 65.4115 92.197V93.4772C65.4674 93.7501 65.4604 93.897 65.4604 93.897Z" fill="black"/>
<path d="M61.428 104.411C60.8993 104.4 60.3747 104.506 59.8916 104.721C59.4085 104.936 58.9788 105.256 58.6333 105.657C57.4874 106.965 55.4612 108.805 53.1136 108.756C49.4734 108.679 46.9861 105.433 47.063 100.914C47.1398 96.3943 49.7599 93.2602 53.3931 93.3371C55.7407 93.3931 57.704 95.3169 58.8009 96.6741C59.1299 97.0861 59.5449 97.4211 60.0168 97.6555C60.4887 97.89 61.0062 98.0182 61.5328 98.0313C62.054 98.0186 62.5676 97.9032 63.0443 97.6917C63.5209 97.4801 63.9513 97.1767 64.3107 96.7985C64.6702 96.4204 64.9517 95.9751 65.1392 95.488C65.3267 95.0009 65.4166 94.4816 65.4036 93.9598L65.173 67.5157L27.304 67.5717L16.125 67.6486V136.851H64.614L65.1381 108.665C65.2053 107.609 64.853 106.57 64.1581 105.773C63.4631 104.976 62.4818 104.487 61.428 104.411Z" fill="#455A64"/>
<path d="M61.4288 104.412H61.5825C61.7329 104.412 61.8828 104.428 62.0297 104.461C62.6106 104.557 63.1581 104.798 63.6227 105.16C64.3788 105.778 64.8994 106.638 65.0969 107.595C65.1991 108.202 65.2296 108.82 65.1877 109.435C65.1877 110.092 65.1877 110.792 65.1877 111.533C65.0899 117.466 64.9502 126.071 64.7755 136.802V136.914H64.6567L16.1677 136.963H16V136.851C16 120.117 16 101.585 16 82.116V67.4669H16.1817C25.0131 67.3899 33.586 67.3829 41.7886 67.3759H65.2297H65.3834V67.5368C65.4253 73.0635 65.4672 78.3733 65.5091 83.4242C65.5091 85.9567 65.5091 88.4192 65.565 90.8118C65.565 92.0151 65.6069 93.1834 65.565 94.3656C65.5019 94.9567 65.3195 95.5288 65.0289 96.0471C64.7382 96.5654 64.3454 97.0192 63.8742 97.3808C63.1932 97.9131 62.3469 98.1886 61.4834 98.1592C60.62 98.1298 59.7944 97.7973 59.1511 97.2199C58.7318 96.8422 58.4524 96.3944 58.0751 96.0236C57.3887 95.2628 56.5842 94.6179 55.6925 94.1138C54.8446 93.6284 53.8723 93.4046 52.8978 93.4702C51.9788 93.5311 51.0891 93.8184 50.3078 94.3066C49.5264 94.7948 48.8777 95.4687 48.4192 96.2685C47.5622 97.7576 47.1319 99.4545 47.1755 101.173C47.147 102.705 47.5025 104.22 48.2096 105.58C48.8309 106.781 49.8479 107.73 51.0882 108.266C52.1583 108.724 53.3497 108.815 54.4768 108.525C55.407 108.248 56.2719 107.787 57.0201 107.168C57.6215 106.688 58.1781 106.154 58.6829 105.573C59.0716 105.158 59.5494 104.838 60.0803 104.635C60.4013 104.517 60.7379 104.446 61.0794 104.426C61.1957 104.416 61.3125 104.416 61.4288 104.426C60.9724 104.434 60.5209 104.522 60.0943 104.684C59.5778 104.894 59.1147 105.217 58.7388 105.629C58.2358 106.218 57.6816 106.761 57.0829 107.252C56.3285 107.887 55.454 108.362 54.5118 108.651C53.3529 108.959 52.1248 108.876 51.0183 108.413C49.7418 107.87 48.6925 106.901 48.0489 105.671C47.3223 104.285 46.957 102.738 46.9869 101.173C46.9415 99.4321 47.3715 97.7123 48.2305 96.1985C48.706 95.3896 49.3551 94.6966 50.131 94.1698C50.9451 93.6182 51.895 93.3012 52.8768 93.2533C53.8986 93.1749 54.9204 93.4039 55.8113 93.9109C56.7365 94.4193 57.5721 95.0763 58.2847 95.8557C58.662 96.2335 58.9834 96.6952 59.3467 97.031C59.7514 97.381 60.2287 97.6367 60.7441 97.7796C61.2606 97.9234 61.8038 97.9433 62.3294 97.8376C62.8551 97.7318 63.3484 97.5034 63.7694 97.171C64.2005 96.8225 64.5561 96.3896 64.8143 95.8989C65.0726 95.4081 65.2282 94.8697 65.2716 94.3167C65.3135 93.1834 65.2716 91.9801 65.2716 90.8188C65.2716 88.4262 65.2227 85.9637 65.1947 83.4312C65.1481 78.3803 65.0992 73.0845 65.048 67.5438L65.2087 67.7047L41.7677 67.7537C33.5651 67.7537 24.9991 67.7537 16.1607 67.8586L16.3424 67.6767V82.123C16.3424 101.592 16.3424 120.124 16.3424 136.858L16.1747 136.69L64.6637 136.739L64.5449 136.858C64.7685 126.133 64.9502 117.522 65.069 111.589C65.069 110.848 65.069 110.148 65.1179 109.491C65.1642 108.883 65.1384 108.273 65.041 107.672C64.8644 106.735 64.371 105.887 63.6436 105.272C63.1915 104.9 62.6574 104.641 62.0856 104.517C61.6314 104.419 61.4288 104.426 61.4288 104.412Z" fill="black"/>
<path opacity="0.3" d="M65.1953 136.851C65.1953 136.851 69.1359 94.0369 71.0014 88.5802C72.8669 83.1235 89.5656 78.1565 89.5656 78.1565L94.0093 74.1619L95.6721 70.2302V67.5928H108.591L110.226 136.851H65.1953Z" fill="black"/>
<path d="M140.89 153.095C142.334 159.489 142.821 166.062 142.337 172.6C142.022 176.741 128.048 291.395 128.048 291.395H109.184L114.487 183.66L112.943 183.989C112.943 183.989 102.651 229.951 101.806 237.394C101.051 244.082 92.3734 292.661 92.3734 292.661L75.1367 292.857L80.6424 228.58L87.0494 166.933L89.4599 148.982L140.89 153.095Z" fill="black"/>
<path d="M113.81 176.321C113.81 176.321 113.845 176.377 113.928 176.454C114.066 176.557 114.223 176.63 114.389 176.671C114.701 176.735 115.022 176.73 115.331 176.657C115.64 176.583 115.929 176.442 116.178 176.244C116.532 175.939 116.822 175.567 117.032 175.149C117.242 174.732 117.367 174.276 117.401 173.81C117.534 172.781 117.555 171.676 117.631 170.508C117.757 168.178 117.855 166.066 117.904 164.533C117.97 163.709 117.97 162.881 117.904 162.057C117.756 162.87 117.67 163.693 117.645 164.519C117.527 166.045 117.394 168.157 117.268 170.487C117.191 171.648 117.177 172.774 117.065 173.761C117.021 174.627 116.646 175.444 116.017 176.041C115.799 176.229 115.544 176.369 115.268 176.453C114.993 176.537 114.703 176.564 114.417 176.531C114.207 176.485 114.003 176.414 113.81 176.321Z" fill="white" fill-opacity="0.16"/>
<path d="M86.0645 165.24C86.2284 165.335 86.4084 165.399 86.5955 165.429C87.0882 165.555 87.5907 165.639 88.0976 165.681C89.7917 165.829 91.4969 165.576 93.075 164.942C94.6531 164.307 96.0596 163.309 97.1806 162.029C97.52 161.648 97.8262 161.238 98.0959 160.805C98.2078 160.652 98.2929 160.482 98.3474 160.301C98.2915 160.301 97.8723 160.945 96.992 161.854C95.8447 163.038 94.465 163.972 92.9396 164.596C91.41 165.205 89.7702 165.486 88.1256 165.422C86.847 165.373 86.0784 165.177 86.0645 165.24Z" fill="white" fill-opacity="0.16"/>
<path d="M133.379 160.441C133.373 161.084 133.47 161.724 133.666 162.337C134.061 163.831 134.701 165.249 135.559 166.534C136.419 167.829 137.486 168.973 138.717 169.92C139.206 170.334 139.755 170.671 140.345 170.921C140.436 170.823 137.83 169.333 135.866 166.331C134.731 164.512 133.891 162.524 133.379 160.441Z" fill="white" fill-opacity="0.16"/>
<path d="M131.569 38.2666C132.425 38.3077 133.266 38.0327 133.932 37.4937C134.599 36.9547 135.044 36.1894 135.184 35.3432C135.323 34.497 135.148 33.6288 134.69 32.9038C134.232 32.1788 133.525 31.6474 132.701 31.4107C133.211 30.838 133.526 30.1182 133.601 29.3549C133.675 28.5916 133.507 27.8242 133.118 27.1632C132.73 26.5021 132.142 25.9815 131.439 25.6762C130.737 25.3709 129.955 25.2967 129.208 25.4643C129.139 24.7163 128.878 23.9989 128.449 23.3822C128.021 22.7654 127.44 22.2705 126.764 21.9456C126.088 21.6207 125.339 21.4769 124.59 21.5284C123.842 21.5799 123.119 21.8248 122.493 22.2392C121.615 21.5972 120.548 21.2665 119.461 21.2994C118.375 21.3324 117.33 21.7271 116.492 22.4211C115.761 22.3393 115.022 22.4907 114.382 22.8538C113.742 23.2169 113.233 23.773 112.927 24.443C112.621 25.113 112.534 25.8625 112.678 26.5848C112.823 27.3072 113.192 27.9653 113.732 28.4655" fill="black"/>
<path d="M115.94 25.898L116.709 25.863C120.416 25.6825 124.056 26.9056 126.904 29.2894C129.752 31.6731 131.6 35.0428 132.08 38.7283C133.009 45.843 133.945 53.7132 134.092 57.5469C134.385 65.4871 126.518 67.1172 126.518 67.1172L127.664 76.6174L108.401 76.9742L104.985 42.485C103.888 34.286 107.723 26.7935 115.94 25.898Z" fill="#FFBF9D"/>
<path d="M126.608 67.1032C122.928 67.2864 119.271 66.41 116.072 64.5777C116.072 64.5777 118.797 70.1743 126.671 69.055L126.608 67.1032Z" fill="black" fill-opacity="0.16"/>
<path d="M130.179 46.0459C130.198 46.3413 130.1 46.6325 129.907 46.8564C129.713 47.0803 129.439 47.2189 129.144 47.2422C129.001 47.2617 128.856 47.2522 128.717 47.2142C128.577 47.1762 128.447 47.1106 128.334 47.0211C128.22 46.9317 128.126 46.8203 128.056 46.6936C127.987 46.567 127.943 46.4276 127.929 46.2837C127.911 45.988 128.009 45.6969 128.202 45.4724C128.395 45.2478 128.668 45.1072 128.963 45.0805C129.106 45.062 129.252 45.0724 129.391 45.1112C129.531 45.15 129.661 45.2164 129.774 45.3063C129.887 45.3963 129.982 45.5081 130.051 45.6351C130.121 45.7622 130.164 45.9018 130.179 46.0459Z" fill="black"/>
<path d="M130.592 42.6949C130.46 42.8488 129.572 42.2542 128.35 42.3171C127.127 42.3801 126.254 43.0167 126.135 42.8978C126.016 42.7788 126.198 42.555 126.568 42.2542C127.077 41.8632 127.694 41.6386 128.336 41.6105C128.97 41.5773 129.599 41.7463 130.131 42.0933C130.516 42.3661 130.655 42.6249 130.592 42.6949Z" fill="black"/>
<path d="M118.91 46.3537C118.928 46.6487 118.829 46.9389 118.636 47.1624C118.443 47.3859 118.17 47.5249 117.876 47.55C117.734 47.5686 117.589 47.5589 117.451 47.5215C117.312 47.4841 117.183 47.4197 117.069 47.332C116.955 47.2442 116.86 47.1349 116.789 47.0102C116.718 46.8856 116.672 46.748 116.653 46.6055C116.632 46.3096 116.726 46.017 116.917 45.7897C117.107 45.5624 117.379 45.4184 117.673 45.3883C117.818 45.3677 117.966 45.3766 118.107 45.4144C118.249 45.4522 118.381 45.5181 118.496 45.6082C118.612 45.6983 118.708 45.8107 118.779 45.9388C118.85 46.0669 118.895 46.208 118.91 46.3537Z" fill="black"/>
<path d="M118.63 43.5134C118.497 43.6743 117.61 43.0796 116.394 43.1426C115.179 43.2056 114.298 43.8422 114.173 43.7163C114.047 43.5903 114.235 43.3805 114.613 43.0796C115.119 42.6877 115.734 42.4628 116.373 42.436C117.008 42.3993 117.638 42.5686 118.169 42.9187C118.553 43.1846 118.7 43.4504 118.63 43.5134Z" fill="black"/>
<path d="M123.5 52.3421C124.133 52.1083 124.792 51.9555 125.463 51.8873C125.771 51.8384 126.064 51.7614 126.106 51.5445C126.111 51.2225 126.021 50.9062 125.848 50.6351C125.519 49.8935 125.149 49.117 124.814 48.3055C123.367 44.9965 122.305 42.2681 122.438 42.2052C122.571 42.1422 123.835 44.7866 125.296 48.1026L126.295 50.4392C126.51 50.8059 126.589 51.237 126.518 51.6565C126.479 51.7691 126.415 51.8713 126.33 51.955C126.245 52.0387 126.142 52.1017 126.029 52.1392C125.86 52.195 125.683 52.228 125.505 52.2371C124.844 52.3553 124.17 52.3906 123.5 52.3421Z" fill="black"/>
<path d="M119.454 38.7702C119.308 39.0921 118.252 38.7702 116.96 38.8262C115.667 38.8822 114.605 39.12 114.473 38.8262C114.41 38.6723 114.626 38.3855 115.08 38.1266C115.663 37.7984 116.32 37.625 116.988 37.6229C117.648 37.6145 118.299 37.781 118.874 38.1056C119.315 38.3365 119.517 38.6233 119.454 38.7702Z" fill="black"/>
<path d="M130.404 37.6649C130.159 37.9518 129.139 37.7139 127.93 37.7629C126.722 37.8118 125.708 38.0567 125.457 37.7629C125.345 37.623 125.492 37.3361 125.925 37.0633C126.529 36.7163 127.211 36.5256 127.907 36.5085C128.604 36.4914 129.294 36.6484 129.915 36.9654C130.355 37.2452 130.508 37.511 130.404 37.6649Z" fill="black"/>
<path d="M131.158 35.1255C131.158 35.1255 128.825 30.2284 126.372 29.221C123.403 27.9618 122.32 31.2078 119.518 30.5712C116.716 29.9346 113.887 28.7243 111.169 31.0049C108.199 33.4954 109.73 35.0625 109.709 38.5954C109.646 52.9087 107.242 57.0712 106.166 50.3903C106.047 49.6907 103.979 49.173 103.525 46.0739C102.931 42.0583 102.533 37.1682 103.288 34.258C103.93 31.8025 105.216 30.0605 107.592 28.1087C111.337 25.0096 116.675 24.6808 120.329 24.8696C123.983 25.0585 131.179 28.8852 131.158 35.1255Z" fill="black"/>
<path d="M106.661 50.1454C106.637 49.8547 106.555 49.572 106.418 49.3143C106.282 49.0566 106.095 48.8293 105.868 48.6461C105.641 48.463 105.38 48.3278 105.1 48.2488C104.819 48.1698 104.526 48.1486 104.237 48.1866C102.763 48.4034 101.163 49.3199 101.442 52.384C101.882 57.7988 107.22 56.2387 107.22 56.0778C107.22 55.9169 106.864 52.412 106.661 50.1454Z" fill="#FFBF9D"/>
<path d="M105.844 54.133C105.844 54.133 105.76 54.2029 105.606 54.2939C105.391 54.4057 105.141 54.4307 104.908 54.3638C104.321 54.2029 103.762 53.3355 103.657 52.3561C103.602 51.884 103.655 51.4057 103.811 50.9569C103.848 50.7837 103.927 50.6221 104.04 50.4857C104.153 50.3494 104.297 50.2422 104.46 50.1734C104.567 50.137 104.683 50.1387 104.789 50.1782C104.895 50.2178 104.983 50.2927 105.04 50.3902C105.124 50.5372 105.096 50.6421 105.124 50.6491C105.152 50.6561 105.236 50.5511 105.173 50.3343C105.134 50.2025 105.05 50.0886 104.935 50.0125C104.857 49.9608 104.769 49.9254 104.676 49.9086C104.584 49.8918 104.489 49.8938 104.397 49.9145C104.179 49.9776 103.98 50.0956 103.82 50.2572C103.66 50.4188 103.544 50.6187 103.482 50.838C103.295 51.3255 103.225 51.8505 103.28 52.37C103.405 53.4614 104.048 54.4688 104.845 54.5947C104.993 54.626 105.147 54.6233 105.295 54.587C105.442 54.5507 105.58 54.4816 105.697 54.3848C105.844 54.3009 105.865 54.14 105.844 54.133Z" fill="#6F4439"/>
<path d="M106.242 39.6097C106.932 40.1213 107.739 40.4531 108.589 40.5752C109.015 40.6194 109.442 40.5077 109.791 40.2607C110.141 40.0137 110.389 39.6482 110.49 39.232C110.539 38.8542 110.42 38.4205 110.657 38.1196C110.895 37.8188 111.489 37.8328 111.943 37.8608C113.529 37.9517 115.283 36.1189 115.604 34.5658C115.823 34.851 116.144 35.0406 116.499 35.0953C116.854 35.1501 117.217 35.0656 117.512 34.8596C117.998 34.529 118.421 34.1145 118.762 33.6354C118.958 33.3285 119.226 33.0744 119.543 32.8951C119.86 32.7159 120.215 32.6169 120.579 32.607C120.965 32.7219 121.364 32.79 121.767 32.8098C122.465 32.7119 122.78 31.8584 122.857 31.1449C122.933 30.4313 122.968 29.6058 123.555 29.193C124.142 28.7803 124.827 28.9762 125.484 29.0391C126.14 29.1021 126.986 28.9132 127.119 28.2626C127.138 28.0896 127.122 27.9144 127.073 27.7475C127.024 27.5805 126.942 27.425 126.832 27.2902C126.363 26.6566 125.693 26.2005 124.932 25.996C124.171 25.7916 123.363 25.8507 122.64 26.1639C122.329 25.2733 121.762 24.4951 121.009 23.9279C120.257 23.3606 119.353 23.0298 118.412 22.9773C117.472 22.9249 116.537 23.1532 115.726 23.6333C114.915 24.1134 114.265 24.8237 113.857 25.6742C113.256 25.1804 112.544 24.8392 111.783 24.6797C111.021 24.5201 110.233 24.5469 109.484 24.7577C108.735 24.9685 108.048 25.3571 107.481 25.8906C106.914 26.424 106.484 27.0865 106.228 27.8219C105.555 27.6766 104.854 27.7335 104.214 27.9855C103.573 28.2375 103.021 28.6733 102.627 29.2383C102.233 29.8032 102.014 30.4722 101.999 31.1611C101.983 31.85 102.171 32.5282 102.539 33.1107C102.048 33.3873 101.634 33.7838 101.338 34.2632C101.041 34.7427 100.87 35.2896 100.841 35.853C100.876 36.9793 102.029 38.0427 103.091 37.6929C102.946 38.1315 102.963 38.6071 103.137 39.0347C103.311 39.4623 103.631 39.8139 104.04 40.0268C104.449 40.2397 104.921 40.2998 105.37 40.1965C105.82 40.0932 106.218 39.8331 106.493 39.4628" fill="black"/>
<path d="M123.101 27.7169C123.101 27.7169 123.101 27.7169 123.101 27.8218C123.101 27.9268 123.101 27.9827 123.101 28.1087C123.047 28.4821 122.932 28.8439 122.759 29.179C122.483 29.7079 122.088 30.1653 121.606 30.5152C120.979 30.9983 120.21 31.2613 119.419 31.2638L119.503 31.1378C119.597 31.3782 119.643 31.6351 119.637 31.8934C119.631 32.1517 119.574 32.4062 119.468 32.6419C119.254 33.1495 118.965 33.6213 118.609 34.0411C118.441 34.2778 118.249 34.4959 118.036 34.6917C117.788 34.8815 117.498 35.0065 117.19 35.0555C116.873 35.1178 116.545 35.1013 116.236 35.0074C115.926 34.9135 115.645 34.745 115.416 34.5168L115.618 34.4468C115.571 35.015 115.406 35.567 115.133 36.0671C114.86 36.5672 114.485 37.0043 114.032 37.3501C113.541 37.7671 112.928 38.0127 112.285 38.0497C111.681 38.0517 111.081 37.9499 110.511 37.7489L110.65 37.6789C110.401 38.3492 109.991 38.9475 109.456 39.4208C109.209 39.6538 108.914 39.8292 108.591 39.9345C108.269 40.0397 107.927 40.0721 107.59 40.0295C107.015 39.9348 106.481 39.6737 106.052 39.2784C105.624 38.883 105.321 38.3708 105.18 37.8048L105.305 37.8538C104.75 38.1887 104.095 38.3198 103.454 38.2246C102.977 38.1592 102.522 37.9818 102.126 37.7069C101.88 37.532 101.665 37.3168 101.491 37.0703C101.426 36.9876 101.374 36.8956 101.337 36.7974C101.564 37.1233 101.848 37.4053 102.175 37.6299C102.565 37.8819 103.007 38.0399 103.468 38.0916C104.076 38.1693 104.693 38.036 105.215 37.7139L105.312 37.6509V37.7628C105.443 38.2985 105.729 38.7834 106.135 39.1568C106.54 39.5302 107.046 39.7754 107.59 39.8616C107.897 39.8965 108.207 39.8632 108.5 39.764C108.792 39.6648 109.059 39.5023 109.281 39.2879C109.788 38.8405 110.175 38.2728 110.406 37.6369L110.448 37.539H110.553C111.097 37.7258 111.668 37.8227 112.243 37.8258C112.835 37.7953 113.401 37.5745 113.857 37.1962C114.286 36.8716 114.641 36.4602 114.9 35.9889C115.159 35.5175 115.315 34.9969 115.36 34.4608V34.209L115.534 34.3979C115.74 34.5966 115.989 34.7435 116.263 34.8262C116.536 34.909 116.825 34.9252 117.106 34.8736C117.377 34.8288 117.633 34.721 117.854 34.5588C118.055 34.3732 118.235 34.1669 118.392 33.9432C118.757 33.5495 119.059 33.101 119.286 32.614C119.384 32.4022 119.438 32.1732 119.446 31.9403C119.455 31.7073 119.417 31.475 119.335 31.2568L119.286 31.1308H119.426C120.182 31.1308 120.917 30.8854 121.522 30.4313C121.988 30.0955 122.375 29.6607 122.654 29.158C122.892 28.7102 123.044 28.2212 123.101 27.7169Z" fill="white" fill-opacity="0.3"/>
<path d="M123.444 56.5255C123.402 56.3227 122.082 56.6725 120.852 55.784C119.622 54.8955 119.392 53.4614 119.203 53.4964C119.119 53.4964 119.028 53.8811 119.168 54.4758C119.362 55.2502 119.822 55.9314 120.468 56.3996C121.088 56.8521 121.86 57.0453 122.62 56.9383C123.186 56.8473 123.472 56.6165 123.444 56.5255Z" fill="black"/>
<path d="M179.953 103.523L159.636 119.362C159.636 119.362 156.939 107.469 149.749 89.7485C148.853 87.4963 147.736 85.3382 146.416 83.3054C146.333 83.1305 146.249 82.9626 146.172 82.8227C143.482 77.7857 137.823 75.5611 134.294 75.3442C133.763 75.3092 132.436 75.3442 130.577 75.4491L129.264 75.0224L127.761 70.5451L124.17 74.5117L107.031 66.3966L105.382 72.7418L93.2182 78.1285C93.2182 78.1285 81.9902 80.647 80.5579 90.3222C78.909 101.452 77.4697 126.938 77.4697 126.938L91.3806 119.802L88.0269 145.281L88.8444 154.669L120.774 159.895C122.496 160.151 124.245 160.151 125.966 159.895L141.693 157.573L143.594 153.088L141.819 124.664V122.825C143.768 127.855 148.303 138.278 152.921 140.013C157.379 141.692 181.253 119.362 181.253 119.362L179.953 103.523Z" fill="#E0E0E0"/>
<path d="M107.046 66.3966C107.046 66.3966 108.96 66.9563 113.886 69.5867C118.707 72.1611 124.184 74.4837 124.184 74.4837L123.772 82.284L105.522 73.1126" fill="#E0E0E0"/>
<path d="M127.777 70.5451L124.186 74.5117L126.107 82.8227L129.307 75.3162" fill="#E0E0E0"/>
<g opacity="0.3">
<path d="M124.255 75.3722C124.416 75.4911 125.408 84.9634 125.408 84.9634L107.123 73.8891L123.773 82.284L124.255 75.3722Z" fill="black"/>
</g>
<path d="M124.128 110.715C123.856 103.474 124.994 84.9914 124.994 84.9914L127.377 84.6066C130.415 97.7589 132.46 111.121 133.497 124.581C134.196 133.493 134.196 143.812 134.196 143.812L129.403 154.103L124.086 143.847C124.086 143.847 124.463 119.516 124.128 110.715Z" fill="#455A64"/>
<path d="M89.6123 80.3462C89.6123 80.3812 90.1084 80.7869 90.849 81.5565C92.7915 83.5518 94.1351 86.0534 94.7267 88.7761C94.9573 89.8115 95.0062 90.4761 95.0481 90.4691C95.0737 90.3139 95.0737 90.1555 95.0481 90.0004C95.0285 89.575 94.9771 89.1518 94.8944 88.7341C94.6363 87.3497 94.1649 86.0139 93.497 84.7745C92.8302 83.5308 91.972 82.3999 90.9538 81.4235C90.652 81.1262 90.3298 80.8504 89.9896 80.598C89.8765 80.4965 89.7494 80.4117 89.6123 80.3462Z" fill="black"/>
<path d="M124.129 78.2195L125.764 77.5829L127.308 80.2413L127.587 84.6066L125.407 84.9634L123.772 82.263L124.129 78.2195Z" fill="#455A64"/>
<path d="M141.792 91.2106C141.722 91.2106 141.666 100.669 141.666 112.324C141.666 123.979 141.722 133.444 141.792 133.444C141.862 133.444 141.918 123.993 141.918 112.324C141.918 100.655 141.862 91.2106 141.792 91.2106Z" fill="#263238"/>
<path d="M124.018 74.4487C123.983 74.4487 124.367 75.0574 124.947 76.0298C125.527 77.0022 126.289 78.3594 127.043 79.9194C127.106 80.0454 127.162 80.1783 127.218 80.2972L127.33 80.5421L127.448 80.2972C128.042 79.0431 128.551 77.7507 128.972 76.4285C129.132 75.9249 129.244 75.5121 129.314 75.2253C129.361 75.0804 129.39 74.9298 129.398 74.7775C129.363 74.7775 129.167 75.3792 128.811 76.3726C128.344 77.6693 127.812 78.9418 127.218 80.1853H127.455L127.281 79.8075C126.654 78.4648 125.935 77.1674 125.129 75.9249C124.814 75.4491 124.549 75.0714 124.36 74.8195C124.172 74.5677 124.032 74.4347 124.018 74.4487Z" fill="black"/>
<path d="M105.396 72.7418C105.473 72.8038 105.558 72.8556 105.648 72.8957L106.389 73.2805L109.114 74.6796C111.412 75.8759 114.563 77.5829 118.05 79.4507C120.146 80.584 122.186 81.6334 123.94 82.5079L124.1 82.5918V82.4099C124.1 80.1363 124.142 78.2125 124.156 76.8133V75.2882C124.173 75.102 124.173 74.9148 124.156 74.7286C124.125 74.9134 124.111 75.1008 124.114 75.2882C124.114 75.68 124.079 76.2047 124.051 76.8553C124.017 78.2545 123.968 80.1573 123.905 82.4519L124.072 82.354C122.326 81.4585 120.32 80.4022 118.196 79.2688C114.703 77.401 111.545 75.722 109.225 74.5607C108.065 73.98 107.129 73.5253 106.431 73.2175L105.669 72.8747C105.584 72.8192 105.492 72.7745 105.396 72.7418Z" fill="black"/>
<path d="M139.585 78.7162C139.55 78.7162 139.836 79.2269 140.207 80.0524C141.176 82.214 141.61 84.5778 141.471 86.9432C141.422 87.8527 141.325 88.4053 141.367 88.4123C141.408 88.4193 141.422 88.2794 141.478 88.0345C141.56 87.6796 141.618 87.3197 141.653 86.9572C141.888 84.5507 141.442 82.1266 140.367 79.9614C140.209 79.6353 140.029 79.3199 139.829 79.017C139.69 78.8211 139.599 78.7022 139.585 78.7162Z" fill="black"/>
<path d="M125.806 85.2432C125.848 85.3062 126.26 85.1103 126.735 84.8095C127.21 84.5087 127.56 84.2148 127.525 84.1589C127.49 84.1029 127.071 84.2918 126.596 84.5926C126.121 84.8934 125.771 85.1873 125.806 85.2432Z" fill="black"/>
<path d="M125.023 84.1799C125.466 83.4793 125.838 82.7364 126.134 81.9622C126.502 81.224 126.795 80.4506 127.008 79.6536C126.564 80.3512 126.192 81.0919 125.897 81.8643C125.527 82.604 125.234 83.38 125.023 84.1799Z" fill="black"/>
<path d="M87.6994 80.8849C87.6994 80.8849 82.04 84.9284 81.3413 87.1811C80.6427 89.4337 77.6313 126.05 77.1003 130.408C76.5693 134.766 76.0383 142.909 79.399 145.561C82.7597 148.212 90.0051 150.213 90.0051 150.213L96.7125 136.354L93.1632 128.918L96.7125 101.11L87.6994 80.8849Z" fill="#E0E0E0"/>
<path d="M88.3838 149.723C88.5043 149.707 88.6266 149.707 88.7471 149.723C89.0952 149.721 89.4429 149.698 89.7882 149.653C91.0858 149.532 92.3313 149.081 93.4074 148.345C95.0229 147.159 96.241 145.51 96.9008 143.616C97.7586 141.222 98.189 138.695 98.1724 136.152V136.249L92.9742 129.044L92.9323 128.988V128.918C92.9323 128.736 92.9812 128.533 93.0091 128.33C94.0082 120.537 94.9095 113.478 95.5733 108.329L96.3558 102.264C96.4467 101.564 96.5235 101.026 96.5724 100.62C96.5873 100.427 96.6153 100.235 96.6563 100.046C96.664 100.095 96.664 100.145 96.6563 100.193C96.6563 100.291 96.6563 100.431 96.6563 100.627C96.6213 101.033 96.5724 101.585 96.5095 102.278C96.3698 103.719 96.1323 105.776 95.8109 108.357C95.21 113.485 94.3436 120.565 93.3445 128.379C93.3445 128.575 93.2956 128.778 93.2746 128.96V128.834C95.0982 131.38 96.8519 133.815 98.4519 136.054V136.096V136.152C98.4434 138.736 97.9701 141.298 97.0545 143.714C96.3731 145.646 95.1175 147.323 93.4563 148.52C92.8142 148.95 92.1061 149.271 91.3602 149.471L90.8921 149.604L90.4589 149.674C90.208 149.726 89.9533 149.756 89.6973 149.765C89.3463 149.796 88.9933 149.796 88.6423 149.765C88.5553 149.757 88.4689 149.743 88.3838 149.723Z" fill="black"/>
<path d="M81.5508 131.485C81.9855 131.057 82.4855 130.7 83.032 130.429C84.3213 129.706 85.7176 129.193 87.1682 128.911C88.6183 128.627 90.1048 128.58 91.57 128.771C92.1793 128.82 92.7776 128.962 93.3447 129.191C91.317 128.909 89.2588 128.933 87.2381 129.261C85.241 129.71 83.3234 130.46 81.5508 131.485Z" fill="#263238"/>
<path d="M114.438 112.163C114.336 113.32 113.781 114.389 112.892 115.135C112.004 115.882 110.856 116.244 109.7 116.144C109.107 116.095 108.53 115.924 108.005 115.641C107.481 115.358 107.021 114.969 106.654 114.5C105.487 112.982 103.363 110.806 100.666 110.575C96.4743 110.211 93.2743 113.303 92.8551 118.046C92.4359 122.79 95.0769 126.399 99.2551 126.763C101.959 127.001 104.418 125.224 105.83 123.965C106.273 123.564 106.794 123.26 107.36 123.072C107.927 122.884 108.526 122.817 109.121 122.874C109.692 122.923 110.249 123.085 110.758 123.349C111.267 123.614 111.72 123.977 112.089 124.417C112.458 124.856 112.737 125.365 112.91 125.913C113.083 126.461 113.146 127.037 113.096 127.61L110.497 157.216L176.362 161.63L178.556 130.499C178.606 129.926 178.767 129.368 179.032 128.857C179.297 128.346 179.66 127.892 180.099 127.522C180.539 127.152 181.048 126.872 181.596 126.698C182.144 126.525 182.721 126.461 183.293 126.511C183.889 126.56 184.468 126.731 184.993 127.016C185.519 127.3 185.98 127.69 186.347 128.162C187.514 129.673 189.631 131.849 192.328 132.087C196.52 132.451 199.727 129.352 200.139 124.608C200.551 119.865 197.924 116.263 193.739 115.892C191.042 115.661 188.576 117.431 187.164 118.725C186.722 119.125 186.202 119.428 185.637 119.616C185.071 119.804 184.473 119.872 183.88 119.816C181.47 119.607 179.269 117.718 179.479 115.311L181.253 88.874L116.066 84.4667L114.438 112.163Z" fill="#F95B29"/>
<g opacity="0.4">
<path d="M114.439 112.163C114.337 113.32 113.781 114.389 112.893 115.135C112.005 115.882 110.857 116.244 109.701 116.144C109.108 116.095 108.531 115.924 108.006 115.641C107.482 115.358 107.022 114.969 106.655 114.5C105.488 112.982 103.364 110.806 100.667 110.575C96.4753 110.211 93.2753 113.303 92.8561 118.046C92.4369 122.79 95.0779 126.399 99.2561 126.763C101.96 127.001 104.419 125.224 105.831 123.965C106.273 123.564 106.795 123.26 107.361 123.072C107.928 122.884 108.527 122.817 109.122 122.874C109.693 122.923 110.25 123.085 110.759 123.349C111.268 123.614 111.72 123.977 112.09 124.417C112.459 124.856 112.738 125.365 112.911 125.913C113.084 126.461 113.147 127.037 113.097 127.61L110.498 157.216L176.363 161.63L178.557 130.499C178.607 129.926 178.768 129.368 179.033 128.857C179.298 128.346 179.66 127.892 180.1 127.522C180.54 127.152 181.049 126.872 181.597 126.698C182.145 126.525 182.722 126.461 183.294 126.511C183.89 126.56 184.469 126.731 184.994 127.016C185.52 127.3 185.981 127.69 186.348 128.162C187.515 129.673 189.632 131.849 192.328 132.087C196.521 132.451 199.728 129.352 200.14 124.609C200.552 119.865 197.925 116.263 193.74 115.892C191.043 115.661 188.577 117.431 187.165 118.725C186.723 119.125 186.203 119.428 185.638 119.616C185.072 119.804 184.474 119.872 183.881 119.816C181.471 119.607 179.27 117.718 179.48 115.311L181.254 88.8741L116.067 84.4667L114.439 112.163Z" fill="black"/>
</g>
<path d="M109.987 111.841C109.886 112.998 109.33 114.067 108.442 114.814C107.554 115.56 106.406 115.923 105.25 115.822C104.656 115.775 104.079 115.604 103.554 115.321C103.03 115.038 102.57 114.649 102.204 114.178C101.037 112.667 98.9132 110.491 96.2162 110.253C92.0241 109.889 88.8241 112.982 88.4049 117.732C87.9857 122.482 90.6267 126.078 94.8049 126.441C97.5088 126.679 99.9682 124.902 101.38 123.643C101.823 123.243 102.344 122.94 102.911 122.752C103.477 122.564 104.076 122.496 104.67 122.552C105.826 122.653 106.893 123.21 107.639 124.099C108.384 124.989 108.747 126.138 108.646 127.295L106.047 156.894L171.898 161.336L174.099 130.198C174.148 129.626 174.31 129.069 174.574 128.559C174.839 128.049 175.201 127.596 175.64 127.226C176.08 126.856 176.587 126.577 177.134 126.404C177.682 126.231 178.258 126.168 178.829 126.218C179.424 126.265 180.003 126.435 180.529 126.718C181.054 127.001 181.515 127.391 181.883 127.862C183.049 129.373 185.166 131.548 187.863 131.786C192.055 132.15 195.262 129.058 195.675 124.308C196.087 119.558 193.46 115.962 189.275 115.598C186.578 115.36 184.111 117.137 182.7 118.396C182.258 118.796 181.738 119.099 181.172 119.287C180.607 119.475 180.009 119.543 179.416 119.488C177.006 119.278 174.805 117.389 175.014 114.989L176.796 88.5452L111.608 84.1379L109.987 111.841Z" fill="#F95B29"/>
<path d="M109.988 111.841C109.988 111.841 109.988 111.68 109.988 111.372C109.988 111.065 109.988 110.596 110.057 109.973C110.12 108.749 110.218 106.937 110.344 104.587C110.602 99.8574 110.987 92.9386 111.476 84.1239V84.026H111.574L176.768 88.3634H176.929V88.5173C176.491 95.0746 176.025 101.9 175.532 108.994C175.413 110.771 175.294 112.555 175.175 114.36C175.13 114.799 175.13 115.242 175.175 115.682C175.228 116.111 175.36 116.526 175.567 116.906C176.002 117.678 176.656 118.304 177.446 118.704C178.237 119.121 179.124 119.323 180.017 119.292C180.914 119.242 181.77 118.9 182.456 118.319C183.823 116.987 185.506 116.024 187.346 115.521C187.821 115.415 188.306 115.361 188.793 115.36C189.279 115.369 189.764 115.428 190.239 115.535C191.199 115.739 192.105 116.147 192.894 116.731C194.463 117.964 195.488 119.761 195.752 121.74C196.038 123.718 195.777 125.736 194.997 127.575C194.605 128.51 194.02 129.353 193.281 130.047C192.542 130.741 191.665 131.272 190.707 131.604C189.733 131.913 188.705 132.016 187.689 131.905C186.667 131.778 185.687 131.419 184.824 130.856C183.965 130.305 183.184 129.638 182.504 128.876C182.162 128.512 181.806 128.085 181.533 127.715C181.209 127.354 180.823 127.053 180.394 126.826C179.526 126.365 178.524 126.223 177.562 126.426C176.601 126.63 175.741 127.165 175.133 127.938C174.531 128.73 174.206 129.699 174.211 130.695C174.141 131.716 174.064 132.738 173.994 133.766C173.296 143.133 172.681 152.34 172.045 161.308V161.483H171.87L106.047 157.013H105.886V156.852C106.482 150.15 107.048 143.742 107.584 137.628C107.859 134.577 108.122 131.607 108.374 128.715C108.458 128.007 108.503 127.294 108.506 126.581C108.463 125.893 108.247 125.226 107.877 124.643C107.522 124.069 107.035 123.588 106.457 123.24C105.878 122.892 105.225 122.687 104.552 122.643C103.893 122.6 103.233 122.711 102.623 122.964C102.324 123.09 102.04 123.249 101.778 123.44C101.526 123.629 101.289 123.867 101.03 124.084C100.04 124.947 98.9107 125.635 97.6906 126.12C96.5178 126.565 95.2451 126.678 94.0124 126.446C92.7797 126.214 91.6349 125.646 90.7037 124.804C89.8445 123.997 89.1884 122.997 88.7893 121.887C88.4185 120.829 88.2387 119.713 88.2583 118.592C88.2406 116.492 88.9079 114.443 90.1587 112.758C91.2592 111.356 92.8648 110.441 94.6308 110.211C96.3969 109.981 98.1827 110.453 99.605 111.526C100.727 112.383 101.727 113.391 102.574 114.521C103.311 115.262 104.291 115.711 105.333 115.784C106.375 115.858 107.408 115.55 108.241 114.919C108.78 114.522 109.216 114.002 109.512 113.401C109.759 112.913 109.917 112.385 109.981 111.841L109.939 112.254C109.868 112.659 109.741 113.052 109.561 113.422C109.263 114.034 108.825 114.566 108.283 114.975C107.539 115.549 106.63 115.868 105.691 115.885C105.099 115.896 104.511 115.788 103.961 115.568C103.412 115.349 102.912 115.021 102.491 114.605C101.644 113.486 100.647 112.49 99.5281 111.645C98.1368 110.6 96.3915 110.143 94.6671 110.372C92.9427 110.601 91.3767 111.497 90.3054 112.87C89.0853 114.525 88.4377 116.534 88.4609 118.592C88.4408 119.691 88.6208 120.783 88.9919 121.817C89.3839 122.883 90.0205 123.841 90.8504 124.615C91.7517 125.428 92.8598 125.975 94.0522 126.196C95.2446 126.417 96.4748 126.303 97.6067 125.868C98.7999 125.391 99.9034 124.715 100.87 123.867C101.121 123.657 101.352 123.419 101.631 123.216C101.906 123.009 102.207 122.837 102.526 122.706C103.169 122.431 103.868 122.314 104.566 122.363C105.279 122.406 105.972 122.619 106.587 122.984C107.202 123.349 107.721 123.855 108.101 124.462C108.511 125.089 108.752 125.812 108.8 126.56C108.804 127.285 108.762 128.01 108.674 128.729L107.891 137.656C107.36 143.765 106.802 150.173 106.215 156.88L106.075 156.712L171.898 161.133L171.71 161.301C172.339 152.34 172.988 143.112 173.652 133.759L173.869 130.688C173.867 129.62 174.218 128.582 174.868 127.736C175.53 126.896 176.465 126.315 177.51 126.094C178.556 125.873 179.645 126.025 180.59 126.525C181.056 126.774 181.475 127.104 181.827 127.498C182.162 127.904 182.449 128.281 182.791 128.652C183.448 129.39 184.202 130.035 185.034 130.569C185.85 131.103 186.777 131.445 187.745 131.569C188.711 131.675 189.689 131.577 190.616 131.282C191.527 130.967 192.36 130.462 193.062 129.801C193.764 129.141 194.319 128.339 194.69 127.449C195.435 125.671 195.676 123.723 195.388 121.817C195.143 119.929 194.167 118.213 192.67 117.039C191.924 116.481 191.066 116.092 190.155 115.899C189.696 115.796 189.228 115.74 188.758 115.731C188.299 115.733 187.843 115.785 187.395 115.885C185.608 116.383 183.976 117.326 182.651 118.627C181.911 119.26 180.982 119.629 180.01 119.676C179.054 119.716 178.104 119.501 177.257 119.054C176.41 118.618 175.708 117.945 175.238 117.116C175.011 116.697 174.866 116.239 174.812 115.766C174.766 115.301 174.766 114.832 174.812 114.367C174.931 112.569 175.056 110.778 175.175 109.008C175.641 101.924 176.107 95.098 176.573 88.5312L176.719 88.6991L111.532 84.2358L111.636 84.1449C111.105 92.9596 110.693 99.8784 110.407 104.608C110.26 106.958 110.148 108.763 110.071 109.987C110.029 110.596 110.002 111.051 109.981 111.386C109.96 111.722 109.988 111.841 109.988 111.841Z" fill="black"/>
<path d="M102.302 142.147C102.302 142.147 104.573 140.391 106.256 140.321C107.94 140.251 110.134 140.902 110.567 140.685C111.001 140.468 112.035 139.503 112.663 140.314C113.292 141.126 114.124 144.057 110.616 144.861H108.199C108.199 144.861 108.492 147.275 109.079 148.226C109.666 149.178 117.855 159.51 117.855 159.51C117.855 159.51 118.882 160.532 118.372 161.56C117.862 162.589 115.661 162.001 115.661 162.001C115.661 162.001 114.124 163.4 112.37 162.701C111.5 162.404 110.666 162.012 109.883 161.532C109.316 161.966 108.622 162.201 107.909 162.201C107.195 162.201 106.502 161.966 105.935 161.532C103.888 159.993 97.0547 151.423 97.0547 151.423L99.4931 141.832L102.302 142.147Z" fill="#FFBF9D"/>
<path d="M95.2242 136.48L102.33 142.147L97.1107 151.451L86.7002 147.667C86.7002 147.667 87.0006 136.683 95.2242 136.48Z" fill="#FFBF9D"/>
<path d="M175.476 98.3043C175.476 98.3043 175.839 95.8208 181.065 96.6673C184.342 97.192 182.63 99.3187 182.63 99.3187C182.875 99.5305 183.065 99.7987 183.183 100.1C183.302 100.402 183.345 100.727 183.31 101.049C183.275 101.371 183.163 101.68 182.982 101.949C182.802 102.218 182.559 102.439 182.274 102.593L182.616 102.845C182.616 102.845 185.223 104.153 182.973 106.475C183.2 106.891 183.293 107.367 183.24 107.838C183.186 108.309 182.988 108.752 182.672 109.106C181.547 110.225 178.739 108.728 178.739 108.728C178.739 108.728 174.77 108.665 174.547 107.616C174.474 107.296 174.513 106.96 174.656 106.665C174.8 106.37 175.04 106.133 175.336 105.993C176.259 105.817 177.193 105.705 178.131 105.657C178.131 105.657 174.637 105.615 174.344 104.957C173.785 103.74 173.932 102.502 178.131 102.656C178.131 102.656 175.008 102.593 174.637 101.956C174.267 101.32 174.721 100.291 175.839 99.7665C176.505 99.4527 177.235 99.3017 177.97 99.3257C177.97 99.3257 175.029 99.8784 175.476 98.3043Z" fill="#FFBF9D"/>
</g>
</g>
<defs>
<clipPath id="clip0_289_43924">
<rect width="360" height="232" fill="white"/>
</clipPath>
</defs>
</svg>
