<svg width="188" height="216" viewBox="0 0 188 216" fill="none" xmlns="http://www.w3.org/2000/svg">
<g clip-path="url(#clip0_416_56509)">
<path fill-rule="evenodd" clip-rule="evenodd" d="M53.0646 297.2C16.4823 269.589 5.60524 221.129 1.21439 175.475C-2.93252 132.357 2.75027 87.6859 29.6456 53.6979C55.9194 20.4953 97.504 4.46775 139.633 0.553082C179.504 -3.15173 215.74 13.2362 250.435 33.1821C292.008 57.0818 337.985 79.2155 354.687 124.184C374.721 178.124 384.276 247.184 345.852 290.083C308.164 332.16 241.119 309.324 184.691 310.695C138.714 311.813 89.7554 324.894 53.0646 297.2Z" fill="#F95B29"/>
<path fill-rule="evenodd" clip-rule="evenodd" d="M53.0646 297.2C16.4823 269.589 5.60524 221.129 1.21439 175.475C-2.93252 132.357 2.75027 87.6859 29.6456 53.6979C55.9194 20.4953 97.504 4.46775 139.633 0.553082C179.504 -3.15173 215.74 13.2362 250.435 33.1821C292.008 57.0818 337.985 79.2155 354.687 124.184C374.721 178.124 384.276 247.184 345.852 290.083C308.164 332.16 241.119 309.324 184.691 310.695C138.714 311.813 89.7554 324.894 53.0646 297.2Z" fill="white" fill-opacity="0.8"/>
<path d="M108.152 140.332C108.078 140.332 108.014 136.418 108.014 131.588C108.014 126.759 108.078 122.84 108.152 122.84C108.227 122.84 108.291 126.759 108.291 131.588C108.291 136.418 108.227 140.332 108.152 140.332Z" fill="black"/>
<path d="M110.625 142.173C110.545 142.173 110.486 138.651 110.486 134.308C110.486 129.966 110.545 126.438 110.625 126.438C110.705 126.438 110.764 129.961 110.764 134.308C110.764 138.656 110.689 142.173 110.625 142.173Z" fill="black"/>
<path d="M124.147 110.215C124.072 110.215 124.008 106.66 124.008 102.275C124.008 97.8899 124.072 94.3348 124.147 94.3348C124.221 94.3348 124.285 97.8899 124.285 102.275C124.285 106.66 124.227 110.215 124.147 110.215Z" fill="black"/>
<path d="M126.455 102.708C126.375 102.708 126.316 100.058 126.316 96.7868C126.316 93.5155 126.375 90.8706 126.455 90.8706C126.535 90.8706 126.594 93.5155 126.594 96.7868C126.594 100.058 126.53 102.708 126.455 102.708Z" fill="black"/>
<path d="M148.688 109.985L144.796 116.485C144.49 116.999 144.401 117.614 144.547 118.194C144.693 118.774 145.063 119.272 145.575 119.579L151.806 123.327L148.688 109.985Z" fill="#F95B29"/>
<path d="M138.473 140.615L121.842 130.656C121.291 130.325 120.893 129.789 120.736 129.165C120.579 128.54 120.675 127.879 121.004 127.326L134.747 104.245C134.909 103.97 135.124 103.731 135.379 103.54C135.634 103.35 135.925 103.211 136.233 103.133C136.542 103.055 136.862 103.039 137.177 103.085C137.492 103.132 137.794 103.24 138.067 103.404L148.618 109.716L151.757 123.043L141.794 139.774C141.631 140.048 141.416 140.287 141.161 140.478C140.906 140.669 140.616 140.807 140.308 140.885C139.999 140.963 139.678 140.98 139.364 140.933C139.049 140.887 138.746 140.778 138.473 140.615Z" fill="#F95B29"/>
<path fill-rule="evenodd" clip-rule="evenodd" d="M138.097 115.872C140.071 117.008 141.724 117.873 141.749 117.786C140.643 116.968 139.476 116.236 138.259 115.596C137.093 114.864 135.872 114.224 134.607 113.682C135.711 114.503 136.878 115.235 138.097 115.872ZM138.455 120.609C141.698 122.477 144.387 123.93 144.411 123.847C144.451 123.786 141.868 122.192 138.619 120.327C135.37 118.463 132.709 117.007 132.663 117.089C132.618 117.17 135.213 118.741 138.455 120.609ZM143.84 127.303C143.816 127.386 140.894 125.794 137.358 123.769C133.821 121.743 130.985 120.026 131.031 119.944C131.076 119.863 133.976 121.454 137.518 123.48C141.06 125.507 143.884 127.227 143.84 127.303ZM135.816 126.451C139.358 128.477 142.279 130.069 142.303 129.987C142.347 129.911 139.523 128.191 135.981 126.164C132.439 124.138 129.538 122.551 129.494 122.628C129.45 122.704 132.274 124.424 135.816 126.451ZM140.768 132.676C140.744 132.758 137.822 131.166 134.281 129.14C130.739 127.113 127.915 125.393 127.959 125.317C128.003 125.24 130.904 126.826 134.446 128.853C137.988 130.879 140.813 132.594 140.768 132.676ZM132.749 131.823C136.285 133.848 139.212 135.442 139.236 135.36C139.28 135.283 136.444 133.565 132.909 131.535C129.374 129.505 126.466 127.922 126.422 127.999C126.378 128.075 129.212 129.798 132.749 131.823Z" fill="#FAFAFA"/>
<path opacity="0.2" d="M144.567 117.106C144.278 117.599 144.166 118.177 144.25 118.743C144.333 119.309 144.607 119.829 145.026 120.217C145.081 120.278 145.14 120.335 145.203 120.388C145.929 121.02 150.718 125.18 150.787 125.057L151.828 123.311L145.598 119.564C145.598 119.564 144.076 118.6 144.567 117.106Z" fill="black"/>
<path d="M148.688 109.985L144.796 116.485C144.49 116.999 144.401 117.614 144.547 118.194C144.693 118.774 145.063 119.272 145.575 119.579L151.806 123.327L148.688 109.985Z" fill="white" fill-opacity="0.3"/>
<path d="M102.112 158.894L80.1894 163.376C79.829 163.45 79.4575 163.452 79.0962 163.382C78.7349 163.312 78.3909 163.172 78.0839 162.968C77.7769 162.765 77.513 162.503 77.3072 162.197C77.1013 161.891 76.9577 161.547 76.8845 161.186L70.7018 130.727C70.6277 130.365 70.6255 129.993 70.6952 129.63C70.7649 129.268 70.9052 128.923 71.108 128.615C71.3109 128.307 71.5723 128.043 71.8773 127.836C72.1823 127.63 72.5249 127.486 72.8855 127.412L86.8046 124.569L99.8373 133.505L104.317 155.58C104.391 155.943 104.392 156.317 104.321 156.68C104.25 157.044 104.108 157.39 103.903 157.698C103.698 158.006 103.434 158.27 103.127 158.476C102.819 158.681 102.474 158.823 102.112 158.894Z" fill="#455A64"/>
<path d="M86.7832 124.569L88.5237 133.136C88.5906 133.473 88.7233 133.793 88.914 134.078C89.1048 134.363 89.3499 134.607 89.6353 134.797C89.9207 134.986 90.2406 135.117 90.5767 135.183C90.9129 135.248 91.2585 135.245 91.5937 135.176L99.816 133.5L86.7832 124.569Z" fill="#263238"/>
<path fill-rule="evenodd" clip-rule="evenodd" d="M81.5619 134.405C84.3649 133.832 86.5966 133.28 86.5966 133.168C86.5966 133.061 84.2795 133.436 81.4764 134.009C78.6734 134.581 76.4149 135.128 76.4416 135.24C76.4683 135.352 78.7588 134.978 81.5619 134.405ZM85.8385 138.581C90.4515 137.639 94.1515 136.787 94.1515 136.675C94.1301 136.568 90.3714 137.242 85.7584 138.185C81.1454 139.127 77.424 139.994 77.4454 140.091C77.4668 140.187 81.2255 139.523 85.8385 138.581ZM96.4803 140.418C96.4803 140.525 92.4439 141.451 87.4038 142.473C82.3637 143.496 78.2793 144.246 78.2579 144.133C78.2365 144.021 82.2943 143.105 87.3344 142.077C92.3745 141.049 96.4589 140.305 96.4803 140.418ZM88.1987 146.296C93.2388 145.268 97.2752 144.347 97.2752 144.235C97.2325 144.122 93.1694 144.867 88.1293 145.895C83.0892 146.923 79.0315 147.849 79.0528 147.956C79.0742 148.063 83.1586 147.324 88.1987 146.296ZM98.0272 148.052C98.0272 148.165 93.9908 149.086 88.9507 150.114C83.9105 151.142 79.8261 151.881 79.8048 151.773C79.7834 151.666 83.8411 150.74 88.8813 149.712C93.9214 148.684 98.0058 147.945 98.0272 148.052ZM89.7241 153.931C94.7642 152.903 98.8273 151.982 98.8006 151.87C98.7792 151.763 94.6948 152.501 89.6547 153.529C84.6146 154.557 80.5569 155.484 80.5782 155.591C80.5996 155.698 84.684 154.959 89.7241 153.931Z" fill="#FAFAFA"/>
<path d="M141.772 85.5513L122.22 86.9113C121.899 86.9346 121.576 86.894 121.271 86.7918C120.965 86.6897 120.683 86.528 120.44 86.3161C120.196 86.1041 119.997 85.8461 119.854 85.5568C119.711 85.2676 119.626 84.9528 119.604 84.6305L117.725 57.4855C117.702 57.1634 117.743 56.8401 117.845 56.534C117.947 56.2278 118.109 55.9448 118.32 55.7012C118.531 55.4576 118.788 55.2581 119.076 55.1141C119.364 54.9701 119.678 54.8844 119.999 54.862L132.402 54L142.69 63.2571L144.052 82.9279C144.096 83.5788 143.881 84.2206 143.453 84.7125C143.026 85.2043 142.421 85.506 141.772 85.5513Z" fill="#455A64"/>
<path fill-rule="evenodd" clip-rule="evenodd" d="M127.192 65.1484C129.463 64.9828 131.315 64.7734 131.287 64.6868C129.914 64.6289 128.539 64.6762 127.173 64.8282C125.798 64.8752 124.429 65.0295 123.078 65.2898C124.451 65.3507 125.827 65.3035 127.192 65.1484ZM130.131 68.8752C133.861 68.6056 136.901 68.302 136.874 68.2205C136.873 68.1477 133.843 68.2736 130.11 68.55C126.376 68.8263 123.358 69.1115 123.366 69.2047C123.374 69.2979 126.401 69.1448 130.131 68.8752ZM138.327 71.4065C138.353 71.488 135.043 71.8065 130.982 72.1109C126.921 72.4152 123.612 72.5813 123.604 72.4881C123.597 72.3949 126.888 72.0881 130.954 71.7822C135.021 71.4762 138.321 71.3185 138.327 71.4065ZM131.199 75.1972C135.266 74.8912 138.576 74.5727 138.549 74.4912C138.543 74.4031 135.243 74.5609 131.177 74.8668C127.11 75.1728 123.821 75.4847 123.827 75.5728C123.833 75.6609 127.133 75.5032 131.199 75.1972ZM138.776 77.5813C138.802 77.6628 135.492 77.9813 131.426 78.2873C127.36 78.5933 124.059 78.751 124.053 78.6629C124.047 78.5748 127.337 78.2629 131.403 77.9569C135.47 77.651 138.768 77.4881 138.776 77.5813ZM131.65 81.3722C135.711 81.0679 139.026 80.7477 139 80.6663C138.994 80.5782 135.685 80.7443 131.622 81.0435C127.559 81.3428 124.266 81.6614 124.272 81.7495C124.278 81.8376 127.589 81.6766 131.65 81.3722Z" fill="#FAFAFA"/>
<path d="M132.4 54L132.934 61.6402C132.953 61.9414 133.031 62.2358 133.164 62.5066C133.297 62.7774 133.482 63.0192 133.708 63.2182C133.934 63.4172 134.197 63.5694 134.482 63.6661C134.767 63.7629 135.069 63.8022 135.369 63.7818L142.694 63.2732L132.4 54Z" fill="#263238"/>
<path d="M163.023 149.348H60.7422V215.995H163.023V149.348Z" fill="#F95B29"/>
<g opacity="0.3">
<path d="M163.022 149.348H135.99V215.995H163.022V149.348Z" fill="black"/>
</g>
<path d="M135.99 149.348L151.452 167.595H177L163.022 149.348H135.99Z" fill="#F95B29"/>
<path d="M60.7438 149.348L39.7344 167.595H119.212L135.993 149.348H60.7438Z" fill="#F95B29"/>
<path d="M135.99 149.337C135.99 149.337 135.894 149.46 135.697 149.685L134.816 150.67L131.447 154.402C128.51 157.614 124.33 162.176 119.306 167.675L119.268 167.712H119.215L91.4888 167.755H54.3713L43.1271 167.723L40.0678 167.696H39.2723H39C39 167.696 39.0908 167.696 39.2723 167.696H40.0678L43.1271 167.664L54.3713 167.61L91.4888 167.541H119.215L119.129 167.578C124.191 162.112 128.393 157.561 131.345 154.375L134.768 150.697C135.163 150.285 135.462 149.964 135.675 149.733L135.99 149.337Z" fill="#263238"/>
<path d="M135.99 215.995C135.916 215.995 135.852 201.079 135.852 182.677C135.852 164.275 135.916 149.348 135.99 149.348C136.065 149.348 136.129 164.27 136.129 182.677C136.129 201.084 136.07 215.995 135.99 215.995Z" fill="#263238"/>
<g opacity="0.3">
<path d="M101.283 206.159H90.2949V216H101.283V206.159Z" fill="white"/>
</g>
<g opacity="0.3">
<path d="M60.7383 167.659V172.756L120.387 172.45L135.667 149.701L119.207 167.594L60.7383 167.659Z" fill="black"/>
</g>
<path d="M61.2646 83.1611L59.9725 88.3974C59.8967 88.7053 59.8822 89.0253 59.9297 89.3389C59.9772 89.6525 60.0859 89.9536 60.2495 90.2251C60.4131 90.4966 60.6285 90.7331 60.8833 90.921C61.1381 91.109 61.4273 91.2448 61.7344 91.3207L67.0041 92.5039L61.2646 83.1611Z" fill="#F95B29"/>
<path d="M59.9198 114.461L40.4267 109.642C39.9725 109.53 39.5814 109.241 39.3392 108.839C39.097 108.438 39.0234 107.957 39.1347 107.501L45.6377 81.1429C45.7501 80.6874 46.038 80.2952 46.4384 80.0523C46.8388 79.8094 47.3188 79.7356 47.7733 79.8472L61.4041 83.2256L67.1596 92.5041L62.0608 113.165C61.9472 113.621 61.6582 114.014 61.257 114.256C60.8558 114.499 60.375 114.573 59.9198 114.461Z" fill="#F95B29"/>
<path fill-rule="evenodd" clip-rule="evenodd" d="M52.3118 89.9447C54.5221 90.4908 56.3481 90.8656 56.3481 90.7746C55.0602 90.2941 53.7376 89.9128 52.3918 89.6342C51.0699 89.2528 49.7204 88.9754 48.3555 88.8043C49.6424 89.2878 50.9652 89.6691 52.3118 89.9447ZM53.9571 94.3993C57.5877 95.2987 60.5722 95.9519 60.5722 95.8663C60.5936 95.7967 57.6731 94.9775 54.0371 94.0834C50.4012 93.1892 47.4433 92.5253 47.422 92.6164C47.4006 92.7074 50.3265 93.4998 53.9571 94.3993ZM60.9723 99.3463C60.9723 99.4319 57.7261 98.7091 53.7699 97.7401C49.8136 96.771 46.6155 95.9036 46.6368 95.8126C46.6582 95.7216 49.883 96.4497 53.8446 97.4188C57.8062 98.3879 60.9937 99.2606 60.9723 99.3463ZM53.0263 100.744C56.9879 101.713 60.2341 102.436 60.2341 102.35C60.2554 102.264 57.068 101.392 53.1063 100.423C49.1447 99.4536 45.9199 98.7308 45.8985 98.8164C45.8772 98.9021 49.0646 99.7748 53.0263 100.744ZM59.4958 105.359C59.4958 105.445 56.2496 104.722 52.288 103.753C48.3264 102.784 45.1389 101.911 45.1603 101.825C45.1816 101.74 48.4064 102.463 52.3681 103.432C56.3297 104.401 59.5171 105.268 59.4958 105.359ZM51.5531 106.756C55.5094 107.725 58.7609 108.448 58.7609 108.363C58.7822 108.277 55.5841 107.41 51.6278 106.435C47.6716 105.461 44.4414 104.743 44.42 104.829C44.3987 104.915 47.5968 105.787 51.5531 106.756Z" fill="#FAFAFA"/>
<path opacity="0.4" d="M61.2685 83.1611L59.9764 88.3974C59.9006 88.7053 59.8861 89.0253 59.9336 89.3389C59.9811 89.6525 60.0898 89.9536 60.2534 90.2251C60.417 90.4966 60.6324 90.7331 60.8872 90.921C61.142 91.109 61.4312 91.2448 61.7383 91.3207L67.008 92.5039L61.2685 83.1611Z" fill="white"/>
<path d="M99.0625 79.0117L101.198 88.1136C101.369 88.8342 101.818 89.4574 102.447 89.8467C103.075 90.2361 103.832 90.3598 104.551 90.191L113.291 88.1296L99.0625 79.0117Z" fill="#F95B29"/>
<path d="M116.593 115.194L93.288 120.714C92.9049 120.806 92.5074 120.821 92.1185 120.758C91.7296 120.695 91.3568 120.556 91.0216 120.349C90.6863 120.141 90.3952 119.87 90.1647 119.549C89.9343 119.229 89.7692 118.866 89.6788 118.482L82.0599 86.1594C81.9687 85.7755 81.954 85.3773 82.0166 84.9877C82.0792 84.598 82.2179 84.2246 82.4248 83.8889C82.6316 83.5531 82.9025 83.2616 83.222 83.0311C83.5414 82.8005 83.9031 82.6355 84.2863 82.5455L99.065 79.0386L113.294 88.1404L118.82 111.586C118.999 112.36 118.866 113.174 118.449 113.851C118.032 114.527 117.365 115.01 116.593 115.194Z" fill="#F95B29"/>
<path fill-rule="evenodd" clip-rule="evenodd" d="M94.7372 92.2153C97.5298 91.5934 99.7517 91.003 99.7497 90.8906C99.7478 90.7835 97.4375 91.1988 94.6449 91.8206C91.8523 92.4425 89.6037 93.0281 89.6323 93.14C89.661 93.252 91.9446 92.8371 94.7372 92.2153ZM99.0854 96.3159C103.681 95.293 107.366 94.3771 107.364 94.2647C107.341 94.158 103.594 94.8983 98.9984 95.9212C94.4026 96.9441 90.6969 97.8764 90.7199 97.9724C90.7429 98.0684 94.4895 97.3388 99.0854 96.3159ZM109.759 97.9658C109.761 98.0729 105.741 99.0696 100.72 100.18C95.6981 101.291 91.6273 102.112 91.604 102C91.5807 101.888 95.6219 100.901 100.643 99.7854C105.665 98.6693 109.736 97.8538 109.759 97.9658ZM101.577 103.989C106.599 102.873 110.618 101.881 110.616 101.769C110.572 101.657 106.522 102.472 101.501 103.588C96.4793 104.704 92.4383 105.701 92.4615 105.808C92.4847 105.915 96.5557 105.105 101.577 103.989ZM111.437 105.573C111.439 105.685 107.419 106.676 102.397 107.792C97.376 108.908 93.305 109.719 93.2818 109.612C93.2586 109.505 97.2996 108.508 102.321 107.392C107.343 106.276 111.413 105.466 111.437 105.573ZM103.239 111.595C108.261 110.479 112.307 109.487 112.278 109.375C112.255 109.269 108.184 110.079 103.163 111.195C98.1414 112.311 94.1004 113.308 94.1236 113.415C94.1468 113.521 98.2178 112.711 103.239 111.595Z" fill="#FAFAFA"/>
<path opacity="0.2" d="M101.549 88.8901C101.717 89.5775 102.113 90.1869 102.674 90.6172C103.234 91.0476 103.924 91.2732 104.629 91.2565C104.731 91.2619 104.832 91.2619 104.934 91.2565C106.119 91.1923 113.941 90.7533 113.898 90.5819C113.855 90.4106 113.322 88.1351 113.322 88.1351L104.592 90.2018C104.592 90.2018 102.371 90.6408 101.549 88.8901Z" fill="black"/>
<path opacity="0.4" d="M99.0645 79.0116L101.2 88.1135C101.371 88.8341 101.82 89.4572 102.449 89.8466C103.077 90.2359 103.834 90.3597 104.553 90.1908L113.293 88.1295L99.0645 79.0116Z" fill="white"/>
</g>
<defs>
<clipPath id="clip0_416_56509">
<rect width="188" height="216" fill="white"/>
</clipPath>
</defs>
</svg>
