<svg width="188" height="216" viewBox="0 0 188 216" fill="none" xmlns="http://www.w3.org/2000/svg">
<g clip-path="url(#clip0_416_55223)">
<path fill-rule="evenodd" clip-rule="evenodd" d="M53.0657 297.2C16.4835 269.589 5.60641 221.129 1.21553 175.475C-2.93136 132.357 2.75144 87.6859 29.6467 53.6979C55.9205 20.4953 97.505 4.46774 139.634 0.55307C179.505 -3.15172 215.741 13.2362 250.436 33.182C292.009 57.0818 337.986 79.2154 354.688 124.184C374.722 178.124 384.277 247.184 345.853 290.083C308.165 332.16 241.119 309.323 184.692 310.695C138.715 311.813 89.7565 324.894 53.0657 297.2Z" fill="#F95B29"/>
<path fill-rule="evenodd" clip-rule="evenodd" d="M53.0657 297.2C16.4835 269.589 5.60641 221.129 1.21553 175.475C-2.93136 132.357 2.75144 87.6859 29.6467 53.6979C55.9205 20.4953 97.505 4.46774 139.634 0.55307C179.505 -3.15172 215.741 13.2362 250.436 33.182C292.009 57.0818 337.986 79.2154 354.688 124.184C374.722 178.124 384.277 247.184 345.853 290.083C308.165 332.16 241.119 309.323 184.692 310.695C138.715 311.813 89.7565 324.894 53.0657 297.2Z" fill="white" fill-opacity="0.8"/>
<g clip-path="url(#clip1_416_55223)">
<ellipse cx="111.529" cy="192.394" rx="20.032" ry="3.34782" fill="black" fill-opacity="0.3"/>
<path d="M114.337 171.203C114.297 171.086 114.249 170.972 114.195 170.861C114.072 170.615 113.92 170.283 113.721 169.865C113.158 168.577 112.703 167.244 112.358 165.881C111.253 160.808 111.282 155.553 112.444 150.493C113.169 146.992 114.117 143.542 115.283 140.162C116.485 136.5 117.886 132.573 119.069 128.399C120.378 124.011 121.016 119.45 120.962 114.871C120.792 110.127 119.382 105.308 117.829 100.555C116.277 95.8025 114.668 91.1445 114.185 86.458C113.653 81.9548 114.558 77.3985 116.769 73.4423C118.823 69.6476 121.417 66.3936 123.395 63.0069C125.205 59.884 126.539 56.5073 127.352 52.9889C128.522 47.8971 128.609 42.6154 127.607 37.4876C127.214 35.6302 126.64 33.8159 125.894 32.0707C125.915 32.1965 125.947 32.3203 125.989 32.4407C126.074 32.6968 126.178 33.0478 126.32 33.4842C126.725 34.8319 127.06 36.1998 127.323 37.5825C128.241 42.6759 128.102 47.9041 126.916 52.9415C126.091 56.4156 124.754 59.7472 122.95 62.8267C121.057 66.147 118.416 69.382 116.324 73.262C114.06 77.2963 113.129 81.9459 113.665 86.5434C114.147 91.2868 115.766 95.9827 117.309 100.774C118.852 105.564 120.262 110.26 120.432 114.947C120.504 119.474 119.898 123.986 118.634 128.332C117.508 132.526 116.126 136.415 114.933 140.096C113.759 143.492 112.811 146.962 112.093 150.484C110.931 155.585 110.931 160.884 112.093 165.985C112.46 167.352 112.951 168.683 113.56 169.96L114.072 170.909C114.145 171.019 114.235 171.118 114.337 171.203Z" fill="#181423"/>
<path d="M120.67 66.3462C120.67 66.3462 124.608 53.7479 117.546 46.3672C117.492 46.3078 117.422 46.2647 117.345 46.2425C117.268 46.2204 117.186 46.2201 117.109 46.2417C117.031 46.2633 116.961 46.306 116.907 46.3649C116.852 46.4239 116.815 46.497 116.799 46.5759C116.429 48.663 115.956 55.0001 120.67 66.3462Z" fill="#F95B29"/>
<path d="M118.309 50.5603C118.32 51.3451 118.409 52.1269 118.575 52.8941C118.84 54.4878 119.142 56.3757 119.521 58.4533C119.9 60.5308 120.146 62.4092 120.401 64.0125C120.473 64.7884 120.613 65.5566 120.818 66.3083C120.89 65.5274 120.868 64.7406 120.752 63.965C120.619 62.5231 120.363 60.5498 120.013 58.3679C119.663 56.1859 119.275 54.2412 118.972 52.8276C118.835 52.0498 118.613 51.2894 118.309 50.5603Z" fill="#181423"/>
<path d="M116.05 96.0871C116.05 96.0871 113.646 83.0997 103.925 79.8837C103.849 79.8574 103.767 79.8527 103.688 79.8701C103.61 79.8875 103.538 79.9263 103.48 79.9823C103.422 80.0383 103.381 80.1093 103.361 80.1873C103.341 80.2654 103.342 80.3474 103.366 80.4245C104.048 82.4357 106.584 88.2605 116.05 96.0871Z" fill="#F95B29"/>
<path d="M106.604 83.2324C106.977 83.908 107.418 84.5437 107.919 85.1298L111.308 89.655C112.567 91.3436 113.712 92.8615 114.687 94.1612C115.108 94.8189 115.589 95.4352 116.126 96.0016C115.827 95.2765 115.439 94.5913 114.971 93.9619C114.186 92.7476 113.078 91.1159 111.706 89.3609C110.333 87.6058 109.122 86.05 108.194 84.9495C107.731 84.3182 107.197 83.7421 106.604 83.2324Z" fill="#181423"/>
<path d="M118.67 128.665C118.67 128.665 120.127 115.554 111.798 109.634C111.732 109.587 111.655 109.558 111.574 109.552C111.493 109.546 111.413 109.563 111.341 109.6C111.269 109.638 111.209 109.695 111.168 109.764C111.127 109.834 111.105 109.914 111.107 109.995C111.126 112.11 111.873 118.4 118.67 128.665Z" fill="#F95B29"/>
<path d="M113.391 113.657C113.549 114.421 113.784 115.168 114.091 115.886C114.65 117.404 115.303 119.197 115.984 121.17C116.666 123.143 117.347 124.965 117.877 126.464C118.093 127.211 118.375 127.938 118.72 128.636C118.644 127.856 118.472 127.088 118.209 126.35C117.811 124.965 117.177 123.067 116.42 120.999C115.662 118.931 114.915 117.081 114.337 115.753C114.096 115.023 113.779 114.32 113.391 113.657Z" fill="#181423"/>
<path d="M111.374 161.432C111.374 161.432 112.321 148.254 103.802 142.667C103.735 142.621 103.657 142.594 103.576 142.591C103.495 142.587 103.414 142.606 103.344 142.645C103.273 142.684 103.214 142.743 103.175 142.814C103.135 142.885 103.116 142.965 103.12 143.046C103.253 145.162 104.228 151.442 111.374 161.432Z" fill="#F95B29"/>
<path d="M105.524 146.585C105.708 147.344 105.971 148.082 106.31 148.786C106.916 150.294 107.635 152.059 108.43 154.004C109.225 155.948 109.935 157.713 110.551 159.193C110.8 159.935 111.116 160.653 111.497 161.337C111.385 160.561 111.185 159.8 110.901 159.069C110.446 157.694 109.755 155.825 108.913 153.785C108.071 151.746 107.275 149.924 106.651 148.625C106.35 147.906 105.972 147.222 105.524 146.585Z" fill="#181423"/>
<path d="M126.331 55.2753C126.331 55.2753 138.002 49.1469 138.238 38.9392C138.24 38.8588 138.22 38.7796 138.179 38.7101C138.139 38.6406 138.081 38.5836 138.01 38.5454C137.94 38.5071 137.86 38.4891 137.78 38.4933C137.7 38.4975 137.623 38.5238 137.557 38.5692C135.815 39.7645 131.007 43.9102 126.331 55.2753Z" fill="#F95B29"/>
<path d="M135.813 42.4491C135.268 43.0095 134.78 43.6228 134.356 44.28L131.062 48.8431L127.758 53.3968C127.256 53.9869 126.81 54.622 126.424 55.2941C127.026 54.7908 127.566 54.2175 128.033 53.5865C128.979 52.4765 130.172 50.8922 131.459 49.1087C132.747 47.3252 133.864 45.6651 134.64 44.4508C135.105 43.8299 135.499 43.1585 135.813 42.4491Z" fill="#181423"/>
<path d="M113.777 82.3504C113.777 82.3504 125.808 76.9524 126.641 66.7732C126.65 66.6919 126.636 66.6098 126.6 66.5362C126.564 66.4626 126.509 66.4005 126.44 66.357C126.371 66.3135 126.291 66.2903 126.209 66.2901C126.128 66.2899 126.048 66.3126 125.978 66.3558C124.199 67.4467 119.144 71.2888 113.777 82.3504Z" fill="#F95B29"/>
<path d="M124.028 70.122C123.447 70.6661 122.92 71.2668 122.457 71.915L118.898 76.2694L115.282 80.5668C114.746 81.1303 114.264 81.7433 113.843 82.3978C114.475 81.9359 115.048 81.3974 115.547 80.7945C116.541 79.7415 117.847 78.2426 119.239 76.535C120.63 74.8274 121.851 73.2431 122.694 72.0763C123.209 71.476 123.656 70.8206 124.028 70.122Z" fill="#181423"/>
<path d="M120.707 112.546C120.707 112.546 128.961 102.272 125.09 92.7856C125.06 92.7103 125.01 92.6448 124.945 92.5965C124.88 92.5481 124.803 92.5189 124.722 92.512C124.642 92.5051 124.561 92.5208 124.488 92.5574C124.416 92.594 124.356 92.65 124.314 92.7192C123.206 94.5217 120.452 100.252 120.707 112.546Z" fill="#F95B29"/>
<path d="M124.266 96.9882C123.992 97.719 123.792 98.4754 123.669 99.2461C123.319 100.84 122.921 102.699 122.477 104.758C122.032 106.816 121.615 108.666 121.265 110.251C121.044 111.001 120.892 111.769 120.811 112.546C121.169 111.847 121.436 111.104 121.606 110.336C122.003 108.951 122.496 107.016 122.959 104.862C123.423 102.709 123.783 100.745 124.01 99.3125C124.182 98.5498 124.268 97.7701 124.266 96.9882Z" fill="#181423"/>
<path d="M112.519 148.084C112.519 148.084 124.455 142.487 125.136 132.288C125.143 132.208 125.127 132.127 125.091 132.055C125.055 131.983 124.999 131.922 124.93 131.88C124.861 131.838 124.782 131.815 124.702 131.815C124.621 131.815 124.542 131.838 124.474 131.88C122.685 133.009 117.696 136.937 112.519 148.084Z" fill="#F95B29"/>
<path d="M122.561 135.694C121.986 136.224 121.472 136.816 121.027 137.459L117.534 141.87L114.032 146.272C113.504 146.859 113.032 147.494 112.622 148.169C113.259 147.685 113.835 147.124 114.335 146.499C115.282 145.427 116.597 143.91 117.96 142.174C119.323 140.437 120.507 138.844 121.339 137.667C121.816 137.055 122.225 136.394 122.561 135.694Z" fill="#181423"/>
<path d="M88.7781 96.1535C88.7629 96.251 88.7629 96.3502 88.7781 96.4476V97.292C88.7781 98.0793 88.8538 99.1893 88.9201 100.489C89.0716 103.335 89.2893 107.234 89.5448 111.93C90.3967 116.673 92.8293 122.005 96.0855 127.109C98.4802 130.903 100.989 134.338 103.156 137.544C105.12 140.343 106.888 143.275 108.447 146.319C109.472 148.384 110.302 150.541 110.927 152.761C111.136 153.548 111.296 154.165 111.382 154.582C111.418 154.8 111.478 155.013 111.562 155.218C111.56 154.998 111.534 154.778 111.486 154.563C111.42 154.136 111.296 153.51 111.117 152.713C110.558 150.456 109.768 148.262 108.76 146.167C107.239 143.081 105.489 140.113 103.525 137.288C101.377 134.062 98.8873 130.647 96.502 126.853C93.2553 121.739 90.8227 116.522 89.9613 111.816C89.63 107.12 89.3555 103.202 89.1662 100.432C89.0526 99.0944 88.9674 98.0224 88.9012 97.235C88.9012 96.8935 88.8444 96.6184 88.816 96.3907C88.8134 96.3104 88.8007 96.2307 88.7781 96.1535Z" fill="#181423"/>
<path d="M95.849 126.188C95.849 126.188 90.7945 113.998 97.1553 106.001C97.2046 105.936 97.2711 105.886 97.3472 105.857C97.4233 105.828 97.5059 105.821 97.5858 105.837C97.6656 105.853 97.7394 105.891 97.7988 105.947C97.8582 106.002 97.9009 106.074 97.922 106.152C98.4804 108.192 99.5216 114.463 95.849 126.188Z" fill="#F95B29"/>
<path d="M96.7705 110.26C96.5551 111.012 96.4218 111.785 96.3729 112.566C96.1931 113.998 95.9943 115.981 95.8334 118.182C95.6725 120.383 95.6062 122.375 95.6062 123.817C95.5558 124.601 95.6035 125.388 95.7482 126.16C95.8862 125.393 95.9559 124.615 95.9565 123.836C96.0606 122.214 96.1931 120.316 96.3256 118.22C96.4581 116.123 96.6096 114.216 96.7232 112.594C96.8167 111.82 96.8326 111.038 96.7705 110.26Z" fill="#181423"/>
<g opacity="0.3">
<path opacity="0.3" d="M95.852 126.188C95.852 126.188 90.7974 113.998 97.1582 106.001C97.2076 105.936 97.2741 105.886 97.3501 105.857C97.4262 105.828 97.5089 105.821 97.5887 105.837C97.6685 105.853 97.7423 105.891 97.8018 105.947C97.8612 106.002 97.9038 106.074 97.9249 106.152C98.4834 108.192 99.5246 114.463 95.852 126.188Z" fill="black"/>
</g>
<path d="M111.496 155.588C111.496 155.588 107.445 143.018 114.43 135.571C114.486 135.512 114.556 135.47 114.634 135.448C114.711 135.426 114.794 135.426 114.871 135.447C114.949 135.469 115.02 135.511 115.075 135.569C115.131 135.628 115.17 135.701 115.188 135.78C115.585 137.857 116.115 144.194 111.496 155.588Z" fill="#F95B29"/>
<path d="M113.72 139.773C113.441 140.505 113.245 141.266 113.133 142.041C112.84 143.454 112.48 145.418 112.187 147.6C111.893 149.782 111.619 151.765 111.505 153.197C111.41 153.978 111.41 154.769 111.505 155.55C111.7 154.794 111.83 154.023 111.893 153.245C112.13 151.641 112.414 149.753 112.726 147.676C113.039 145.598 113.323 143.71 113.569 142.107C113.697 141.336 113.748 140.554 113.72 139.773Z" fill="#181423"/>
<g opacity="0.3">
<path opacity="0.3" d="M111.494 155.588C111.494 155.588 107.443 143.018 114.428 135.571C114.484 135.512 114.554 135.47 114.632 135.448C114.71 135.426 114.792 135.426 114.869 135.447C114.947 135.469 115.018 135.511 115.073 135.569C115.129 135.628 115.168 135.701 115.186 135.78C115.583 137.857 116.113 144.194 111.494 155.588Z" fill="black"/>
</g>
<path d="M89.4131 111.285C89.4131 111.285 78.613 103.695 79.7015 93.5446C79.7115 93.4649 79.7428 93.3895 79.7921 93.3261C79.8413 93.2628 79.9067 93.214 79.9814 93.1849C80.056 93.1557 80.1372 93.1473 80.2162 93.1605C80.2952 93.1738 80.3692 93.2081 80.4303 93.26C81.9921 94.683 86.2327 99.4264 89.4131 111.285Z" fill="#F95B29"/>
<g opacity="0.3">
<path opacity="0.3" d="M89.415 111.285C89.415 111.285 78.6149 103.695 79.7035 93.5446C79.7135 93.4649 79.7448 93.3895 79.794 93.3261C79.8433 93.2628 79.9087 93.214 79.9833 93.1849C80.058 93.1557 80.1391 93.1473 80.2182 93.1605C80.2972 93.1738 80.3712 93.2081 80.4323 93.26C81.9941 94.683 86.2346 99.4264 89.415 111.285Z" fill="black"/>
</g>
<path d="M81.6608 97.3394C81.8686 98.094 82.1673 98.8203 82.5505 99.5024C83.1753 100.812 84.065 102.595 85.1062 104.53C86.1474 106.466 87.1602 108.202 87.9459 109.416C88.321 110.104 88.7822 110.742 89.3184 111.313C89.02 110.591 88.6589 109.895 88.2393 109.236L85.5511 104.303C84.5478 102.405 83.658 100.774 82.8724 99.3506C82.5363 98.6415 82.1305 97.9677 81.6608 97.3394Z" fill="#181423"/>
<path d="M107.161 143.122C107.161 143.122 94.1367 141.092 90.6439 131.482C90.6162 131.406 90.61 131.324 90.626 131.245C90.642 131.166 90.6795 131.093 90.7344 131.034C90.7893 130.975 90.8595 130.933 90.9371 130.911C91.0147 130.89 91.0967 130.89 91.174 130.913C93.1996 131.492 99.0871 133.873 107.161 143.122Z" fill="#F95B29"/>
<g opacity="0.3">
<path opacity="0.3" d="M107.159 143.122C107.159 143.122 94.1347 141.092 90.6419 131.482C90.6143 131.406 90.6081 131.324 90.6241 131.245C90.64 131.166 90.6776 131.093 90.7325 131.034C90.7874 130.975 90.8575 130.933 90.9351 130.911C91.0127 130.89 91.0947 130.89 91.172 130.913C93.1976 131.492 99.0851 133.873 107.159 143.122Z" fill="black"/>
</g>
<path d="M94.0682 134.034C94.5916 134.611 95.1791 135.127 95.8193 135.571C96.9457 136.472 98.5359 137.686 100.325 138.958C102.114 140.229 103.78 141.348 105.058 142.098C105.697 142.55 106.39 142.919 107.121 143.198C106.533 142.681 105.899 142.217 105.228 141.813L100.637 138.559L96.056 135.296C95.4391 134.807 94.7729 134.384 94.0682 134.034Z" fill="#181423"/>
<path d="M119.577 167.143L123.373 192.766H99.6999L102.776 167.143H119.577Z" fill="#455A64"/>
<path d="M101.832 175.083C105.006 175.328 108.19 175.41 111.373 175.33C114.555 175.41 117.74 175.328 120.914 175.083C117.74 174.833 114.555 174.75 111.373 174.836C108.19 174.75 105.006 174.833 101.832 175.083Z" fill="#181423"/>
<path d="M101.36 177.123C101.36 177.256 105.77 177.37 111.213 177.37C116.656 177.37 121.076 177.256 121.076 177.123C117.795 176.872 114.503 176.79 111.213 176.876C107.927 176.79 104.638 176.873 101.36 177.123Z" fill="#181423"/>
</g>
</g>
<defs>
<clipPath id="clip0_416_55223">
<rect width="188" height="216" fill="white"/>
</clipPath>
<clipPath id="clip1_416_55223">
<rect width="58.612" height="163.671" fill="white" transform="matrix(-1 0 0 1 138.239 32.0707)"/>
</clipPath>
</defs>
</svg>
