<svg width="188" height="216" viewBox="0 0 188 216" fill="none" xmlns="http://www.w3.org/2000/svg">
<g clip-path="url(#clip0_416_55041)">
<path fill-rule="evenodd" clip-rule="evenodd" d="M167.587 169.904C140.859 203.22 95.4182 212.017 52.7695 214.848C12.4902 217.523 -28.9647 210.998 -59.8836 185.008C-90.0881 159.618 -103.872 120.44 -106.357 81.0881C-108.709 43.846 -92.4449 10.5434 -72.9088 -21.226C-49.5 -59.2931 -27.615 -101.511 14.7345 -115.83C65.5318 -133.005 130.126 -140.002 169.027 -103.027C207.184 -66.7604 184.064 -4.93609 183.786 47.6642C183.56 90.5241 194.396 136.49 167.587 169.904Z" fill="#F95B29"/>
<path fill-rule="evenodd" clip-rule="evenodd" d="M167.587 169.904C140.859 203.22 95.4182 212.017 52.7695 214.848C12.4902 217.523 -28.9647 210.998 -59.8836 185.008C-90.0881 159.618 -103.872 120.44 -106.357 81.0881C-108.709 43.846 -92.4449 10.5434 -72.9088 -21.226C-49.5 -59.2931 -27.615 -101.511 14.7345 -115.83C65.5318 -133.005 130.126 -140.002 169.027 -103.027C207.184 -66.7604 184.064 -4.93609 183.786 47.6642C183.56 90.5241 194.396 136.49 167.587 169.904Z" fill="white" fill-opacity="0.8"/>
<g clip-path="url(#clip1_416_55041)">
<path d="M159.627 30.6933L156.65 80.7654C151.08 84.0115 145.317 86.9578 137.414 86.5148L99.7651 83.123L106.32 25.1123L159.627 30.6933Z" fill="#181423" fill-opacity="0.3"/>
<path d="M162.468 28.3246L159.489 78.3868L140.255 84.1461L102.567 80.7622L106.381 24.3914L162.468 28.3246Z" fill="white"/>
<path d="M153.49 74.0388L159.501 78.3949C157.308 80.3976 154.724 81.9244 151.911 82.8792C148.15 84.0492 144.202 84.4952 140.275 84.1937C140.275 84.1937 149.168 82.3632 153.49 74.0388Z" fill="#181423"/>
<path d="M153.49 74.0388L159.501 78.3949C157.308 80.3976 154.724 81.9244 151.911 82.8792C148.15 84.0492 144.202 84.4952 140.275 84.1937C140.275 84.1937 149.168 82.3632 153.49 74.0388Z" fill="white" fill-opacity="0.88"/>
<path d="M165.191 39.9755L142.656 25.708L145.624 20.9625L168.65 34.9669L165.191 39.9755Z" fill="white" fill-opacity="0.5"/>
<path d="M98.6706 36.0364L120.071 20.1172L123.446 24.5928L102.106 41.0648L98.6706 36.0364Z" fill="white" fill-opacity="0.5"/>
<mask id="path-7-inside-1_416_55041" fill="white">
<path d="M111.387 42.6376C111.414 42.7758 120.909 43.5763 132.679 44.4018C144.448 45.2273 153.969 45.7967 154.014 45.6131C154.059 45.4294 144.491 44.6744 132.71 43.841C120.928 43.0077 111.398 42.4915 111.387 42.6376Z"/>
</mask>
<path d="M111.387 42.6376C111.414 42.7758 120.909 43.5763 132.679 44.4018C144.448 45.2273 153.969 45.7967 154.014 45.6131C154.059 45.4294 144.491 44.6744 132.71 43.841C120.928 43.0077 111.398 42.4915 111.387 42.6376Z" fill="#E0E0E0"/>
<path d="M111.387 42.6376L110.241 42.8681L110.208 42.7077L110.222 42.5445L111.387 42.6376ZM112.532 42.4071C112.457 42.0312 112.226 41.8184 112.144 41.7492C112.044 41.6641 111.952 41.6164 111.912 41.5963C111.826 41.5542 111.758 41.5345 111.744 41.5307C111.705 41.5193 111.687 41.517 111.713 41.5218C111.755 41.5295 111.839 41.5424 111.976 41.5601C112.244 41.5946 112.65 41.6391 113.186 41.6925C114.255 41.7989 115.805 41.9371 117.727 42.0972C121.569 42.4173 126.88 42.8234 132.761 43.2359L132.597 45.5676C126.708 45.1546 121.387 44.7477 117.533 44.4266C115.606 44.2662 114.042 44.1267 112.954 44.0184C112.412 43.9645 111.98 43.9173 111.677 43.8784C111.53 43.8594 111.395 43.84 111.289 43.8204C111.241 43.8116 111.166 43.7969 111.089 43.7743C111.056 43.7649 110.973 43.7399 110.878 43.6928C110.832 43.6703 110.737 43.6201 110.634 43.5328C110.549 43.4612 110.317 43.2462 110.241 42.8681L112.532 42.4071ZM132.761 43.2359C138.643 43.6485 143.96 43.9968 147.81 44.2191C149.736 44.3302 151.289 44.4094 152.36 44.4494C152.898 44.4695 153.301 44.4792 153.565 44.4789C153.702 44.4787 153.777 44.4757 153.807 44.4734C153.829 44.4717 153.794 44.4729 153.734 44.486C153.71 44.4912 153.618 44.5113 153.506 44.5642C153.477 44.5777 153.016 44.7761 152.879 45.3338L155.149 45.8923C155.01 46.4557 154.543 46.6596 154.504 46.6781C154.381 46.7359 154.274 46.7607 154.23 46.7701C154.131 46.7918 154.038 46.8001 153.985 46.8041C153.865 46.8133 153.719 46.8161 153.568 46.8163C153.257 46.8168 152.818 46.8056 152.273 46.7853C151.178 46.7444 149.606 46.6641 147.675 46.5526C143.812 46.3296 138.484 45.9805 132.597 45.5676L132.761 43.2359ZM152.879 45.3338C152.706 46.0362 153.203 46.4565 153.282 46.519C153.412 46.6228 153.532 46.6698 153.557 46.6796C153.629 46.7084 153.677 46.7172 153.655 46.7124C153.632 46.7072 153.564 46.6944 153.43 46.6755C153.173 46.639 152.776 46.5931 152.242 46.5386C151.179 46.4302 149.629 46.2933 147.701 46.1355C143.849 45.8202 138.516 45.4234 132.627 45.0069L132.792 42.6752C138.684 43.092 144.027 43.4895 147.892 43.8059C149.823 43.964 151.393 44.1023 152.479 44.2132C153.02 44.2684 153.455 44.318 153.759 44.3613C153.906 44.3821 154.05 44.4053 154.167 44.4317C154.217 44.4427 154.317 44.4662 154.423 44.5087C154.465 44.5254 154.597 44.5789 154.736 44.6891C154.823 44.7579 155.323 45.1842 155.149 45.8923L152.879 45.3338ZM132.627 45.0069C126.741 44.5905 121.419 44.2535 117.569 44.0389C115.644 43.9316 114.091 43.8552 113.022 43.8147C112.486 43.7944 112.081 43.7836 111.816 43.7819C111.679 43.7811 111.599 43.7829 111.563 43.7849C111.538 43.7863 111.566 43.786 111.617 43.777C111.633 43.7742 111.724 43.759 111.836 43.7133C111.889 43.6916 112.013 43.6369 112.145 43.5253C112.277 43.4135 112.518 43.1528 112.552 42.7307L110.222 42.5445C110.255 42.1202 110.498 41.8573 110.632 41.7433C110.766 41.6296 110.894 41.5729 110.952 41.5492C111.074 41.4996 111.178 41.4808 111.214 41.4747C111.302 41.4591 111.386 41.4536 111.434 41.4509C111.544 41.4449 111.682 41.4436 111.83 41.4445C112.134 41.4464 112.568 41.4584 113.111 41.4789C114.2 41.5202 115.769 41.5975 117.7 41.7051C121.563 41.9204 126.897 42.2582 132.792 42.6752L132.627 45.0069Z" fill="#181423" mask="url(#path-7-inside-1_416_55041)"/>
<mask id="path-9-inside-2_416_55041" fill="white">
<path d="M111.027 50.3395C111.055 50.4777 120.56 51.2762 132.331 52.1115C144.103 52.9469 153.66 53.4985 153.672 53.3524C153.684 53.2063 144.139 52.4158 132.368 51.5804C120.597 50.7451 111.031 50.1539 111.027 50.3395Z"/>
</mask>
<path d="M111.027 50.3395C111.055 50.4777 120.56 51.2762 132.331 52.1115C144.103 52.9469 153.66 53.4985 153.672 53.3524C153.684 53.2063 144.139 52.4158 132.368 51.5804C120.597 50.7451 111.031 50.1539 111.027 50.3395Z" fill="#E0E0E0"/>
<path d="M111.027 50.3395L109.881 50.57L109.856 50.4443L109.859 50.316L111.027 50.3395ZM112.173 50.109C112.097 49.7327 111.866 49.5198 111.784 49.4507C111.684 49.3657 111.592 49.3179 111.552 49.2979C111.466 49.2559 111.398 49.2363 111.385 49.2324C111.346 49.2211 111.327 49.2188 111.354 49.2236C111.395 49.2313 111.479 49.2442 111.617 49.2618C111.885 49.2963 112.291 49.3408 112.828 49.3942C113.898 49.5006 115.449 49.6389 117.373 49.7994C121.218 50.1202 126.532 50.5283 132.414 50.9457L132.248 53.2773C126.359 52.8594 121.035 52.4506 117.178 52.1287C115.25 51.9679 113.685 51.8284 112.597 51.7202C112.054 51.6662 111.621 51.6191 111.319 51.5803C111.171 51.5612 111.036 51.5419 110.93 51.5224C110.882 51.5136 110.807 51.4989 110.73 51.4763C110.698 51.4669 110.615 51.442 110.519 51.395C110.473 51.3725 110.378 51.3224 110.275 51.2351C110.19 51.1636 109.958 50.9484 109.881 50.57L112.173 50.109ZM132.414 50.9457C138.296 51.3632 143.623 51.7096 147.479 51.9333C149.408 52.0452 150.964 52.1261 152.036 52.1699C152.574 52.1919 152.979 52.2041 153.246 52.2066C153.383 52.208 153.463 52.2065 153.5 52.2046C153.525 52.2033 153.497 52.2034 153.446 52.2121C153.43 52.2149 153.339 52.2297 153.227 52.275C153.174 52.2964 153.049 52.3508 152.917 52.4622C152.784 52.5741 152.541 52.8353 152.507 53.2593L154.837 53.4455C154.803 53.8718 154.559 54.1353 154.424 54.2493C154.289 54.3628 154.16 54.4192 154.102 54.4425C153.98 54.4917 153.876 54.5101 153.841 54.5161C153.752 54.5313 153.668 54.5365 153.62 54.5389C153.51 54.5446 153.372 54.5454 153.223 54.544C152.919 54.5411 152.484 54.5276 151.94 54.5054C150.849 54.4608 149.277 54.379 147.344 54.2668C143.475 54.0424 138.138 53.6953 132.248 53.2773L132.414 50.9457ZM152.507 53.2593C152.473 53.6866 152.674 53.9857 152.793 54.1203C152.909 54.2527 153.027 54.3258 153.078 54.355C153.183 54.4167 153.272 54.4446 153.288 54.4496C153.338 54.4657 153.366 54.4697 153.341 54.4649C153.305 54.4579 153.226 54.4452 153.09 54.4273C152.826 54.3926 152.423 54.3479 151.887 54.2943C150.82 54.1876 149.268 54.0496 147.342 53.8896C143.492 53.5698 138.168 53.1637 132.285 52.7462L132.451 50.4146C138.34 50.8325 143.673 51.2394 147.536 51.5602C149.466 51.7205 151.033 51.8598 152.12 51.9685C152.661 52.0226 153.094 52.0702 153.395 52.1099C153.542 52.1292 153.679 52.1493 153.787 52.1704C153.834 52.1795 153.917 52.1965 154.003 52.2241C154.037 52.235 154.139 52.2683 154.254 52.3352C154.309 52.367 154.43 52.4426 154.549 52.5775C154.669 52.7145 154.872 53.016 154.837 53.4455L152.507 53.2593ZM132.285 52.7462C126.402 52.3287 121.072 51.9724 117.216 51.7438C115.286 51.6294 113.731 51.5474 112.662 51.5055C112.125 51.4844 111.724 51.474 111.462 51.474C111.327 51.474 111.255 51.4769 111.228 51.4789C111.206 51.4806 111.249 51.479 111.319 51.463C111.344 51.4572 111.455 51.4317 111.587 51.3611C111.641 51.3324 112.182 51.0462 112.196 50.363L109.859 50.316C109.873 49.627 110.419 49.3354 110.482 49.3016C110.623 49.2259 110.748 49.1958 110.792 49.1857C110.898 49.1611 110.997 49.1524 111.048 49.1484C111.168 49.1392 111.313 49.1365 111.463 49.1365C111.771 49.1366 112.21 49.1485 112.754 49.1698C113.847 49.2126 115.42 49.2958 117.354 49.4104C121.224 49.6398 126.563 49.9968 132.451 50.4146L132.285 52.7462Z" fill="#181423" mask="url(#path-9-inside-2_416_55041)"/>
<mask id="path-11-inside-3_416_55041" fill="white">
<path d="M110.312 57.1373C110.339 57.2755 119.835 58.076 131.616 58.9094C143.397 59.7427 152.935 60.2984 152.957 60.2016C152.978 60.1048 143.434 59.263 131.653 58.4296C119.871 57.5962 110.323 56.9912 110.312 57.1373Z"/>
</mask>
<path d="M110.312 57.1373C110.339 57.2755 119.835 58.076 131.616 58.9094C143.397 59.7427 152.935 60.2984 152.957 60.2016C152.978 60.1048 143.434 59.263 131.653 58.4296C119.871 57.5962 110.323 56.9912 110.312 57.1373Z" fill="#E0E0E0"/>
<path d="M110.312 57.1373L109.166 57.3679L109.134 57.2074L109.147 57.0442L110.312 57.1373ZM111.457 56.9068C111.382 56.531 111.151 56.3182 111.069 56.2489C110.969 56.1639 110.877 56.1161 110.837 56.0961C110.751 56.054 110.683 56.0343 110.67 56.0304C110.631 56.019 110.612 56.0167 110.638 56.0216C110.68 56.0293 110.764 56.0421 110.901 56.0598C111.169 56.0944 111.575 56.1389 112.111 56.1924C113.18 56.2989 114.731 56.4374 116.653 56.598C120.497 56.919 125.811 57.3271 131.698 57.7435L131.533 60.0752C125.639 59.6582 120.315 59.2494 116.459 58.9273C114.532 58.7664 112.967 58.6267 111.879 58.5183C111.338 58.4642 110.905 58.4171 110.603 58.3781C110.455 58.3591 110.32 58.3398 110.214 58.3202C110.166 58.3113 110.091 58.2966 110.014 58.2741C109.982 58.2646 109.899 58.2396 109.803 58.1925C109.757 58.17 109.662 58.1199 109.559 58.0325C109.474 57.9609 109.242 57.7459 109.166 57.3679L111.457 56.9068ZM131.698 57.7435C137.585 58.16 142.911 58.507 146.766 58.7376C148.694 58.853 150.251 58.9391 151.325 58.9903C151.864 59.016 152.274 59.0325 152.548 59.0397C152.687 59.0434 152.777 59.0443 152.826 59.0436C152.856 59.0432 152.847 59.0425 152.819 59.045C152.813 59.0456 152.753 59.0506 152.675 59.0695C152.642 59.0774 152.542 59.1023 152.424 59.1625C152.377 59.1864 151.939 59.3988 151.816 59.9469L154.097 60.4563C153.975 61.006 153.535 61.2198 153.485 61.245C153.365 61.3065 153.261 61.3327 153.223 61.3419C153.135 61.3631 153.06 61.3702 153.035 61.3725C152.969 61.3786 152.904 61.3802 152.859 61.3808C152.761 61.3822 152.633 61.3802 152.486 61.3764C152.187 61.3685 151.757 61.351 151.214 61.3251C150.126 61.2733 148.558 61.1865 146.626 61.0709C142.761 60.8397 137.427 60.4921 131.533 60.0752L131.698 57.7435ZM151.816 59.9469C151.669 60.6069 152.109 61.0132 152.198 61.0895C152.329 61.2002 152.451 61.2538 152.485 61.2683C152.571 61.306 152.641 61.3225 152.647 61.3241C152.678 61.3319 152.691 61.3331 152.662 61.3284C152.616 61.3208 152.528 61.3087 152.391 61.2922C152.122 61.2599 151.715 61.2168 151.18 61.1642C150.111 61.0594 148.558 60.9196 146.632 60.7564C142.782 60.4301 137.456 60.0117 131.57 59.5954L131.735 57.2638C137.631 57.6808 142.968 58.1 146.829 58.4273C148.76 58.5908 150.325 58.7317 151.408 58.838C151.948 58.891 152.375 58.936 152.67 58.9715C152.815 58.9889 152.942 59.0057 153.039 59.0214C153.082 59.0285 153.148 59.0399 153.215 59.0567C153.239 59.0627 153.322 59.0833 153.417 59.1248C153.455 59.1411 153.581 59.1965 153.713 59.3089C153.804 59.3869 154.245 59.7948 154.097 60.4563L151.816 59.9469ZM131.57 59.5954C125.681 59.1788 120.353 58.8195 116.497 58.5827C114.568 58.4642 113.013 58.3767 111.941 58.3279C111.404 58.3035 110.998 58.2893 110.732 58.2853C110.595 58.2833 110.514 58.2844 110.478 58.2861C110.452 58.2873 110.48 58.2873 110.532 58.2788C110.548 58.2761 110.639 58.2616 110.752 58.2167C110.805 58.1954 110.932 58.1412 111.065 58.0295C111.199 57.9169 111.443 57.6551 111.477 57.2305L109.147 57.0442C109.181 56.6173 109.426 56.3533 109.563 56.2386C109.698 56.1248 109.828 56.0686 109.886 56.0454C110.009 55.9966 110.114 55.9787 110.149 55.9729C110.238 55.9581 110.322 55.9534 110.37 55.9511C110.48 55.946 110.618 55.946 110.766 55.9481C111.07 55.9526 111.504 55.9682 112.048 55.9929C113.138 56.0425 114.708 56.131 116.64 56.2496C120.507 56.4871 125.843 56.847 131.735 57.2638L131.57 59.5954Z" fill="#181423" mask="url(#path-11-inside-3_416_55041)"/>
<mask id="path-13-inside-4_416_55041" fill="white">
<path d="M109.901 63.7301C109.927 63.8584 119.422 64.6589 131.193 65.4942C142.964 66.3296 152.522 66.8812 152.534 66.7351C152.546 66.589 143.011 65.7965 131.232 64.973C119.453 64.1495 109.899 63.5662 109.901 63.7301Z"/>
</mask>
<path d="M109.901 63.7301C109.927 63.8584 119.422 64.6589 131.193 65.4942C142.964 66.3296 152.522 66.8812 152.534 66.7351C152.546 66.589 143.011 65.7965 131.232 64.973C119.453 64.1495 109.899 63.5662 109.901 63.7301Z" fill="#E0E0E0"/>
<path d="M109.901 63.7301L108.755 63.9606L108.734 63.8541L108.732 63.7455L109.901 63.7301ZM111.047 63.4995C110.966 63.0986 110.709 62.8812 110.634 62.8208C110.532 62.7398 110.441 62.6952 110.403 62.6773C110.321 62.639 110.255 62.6212 110.244 62.618C110.208 62.6081 110.192 62.6063 110.219 62.6111C110.263 62.6189 110.348 62.6315 110.486 62.6488C110.755 62.6826 111.162 62.7265 111.698 62.7793C112.767 62.8846 114.317 63.0222 116.239 63.1823C120.082 63.5024 125.394 63.911 131.276 64.3284L131.11 66.66C125.221 66.2421 119.9 65.8328 116.045 65.5117C114.119 65.3512 112.555 65.2125 111.469 65.1055C110.927 65.0521 110.496 65.0059 110.195 64.9681C110.047 64.9496 109.914 64.931 109.811 64.9126C109.764 64.9042 109.692 64.8906 109.618 64.8701C109.587 64.8616 109.507 64.8388 109.415 64.7959C109.372 64.7757 109.277 64.7288 109.173 64.6456C109.095 64.583 108.836 64.3635 108.755 63.9606L111.047 63.4995ZM131.276 64.3284C137.158 64.7459 142.485 65.0923 146.341 65.316C148.27 65.4279 149.826 65.5088 150.898 65.5526C151.436 65.5746 151.841 65.5868 152.108 65.5894C152.245 65.5907 152.325 65.5892 152.362 65.5873C152.387 65.586 152.359 65.5861 152.308 65.5948C152.292 65.5976 152.201 65.6125 152.089 65.6577C152.036 65.6791 151.911 65.7335 151.779 65.8449C151.646 65.9568 151.403 66.2181 151.369 66.642L153.699 66.8283C153.665 67.2545 153.421 67.518 153.285 67.632C153.151 67.7455 153.022 67.8019 152.964 67.8253C152.842 67.8744 152.737 67.8928 152.702 67.8988C152.614 67.914 152.53 67.9192 152.482 67.9216C152.372 67.9273 152.234 67.9281 152.085 67.9267C151.781 67.9238 151.346 67.9104 150.802 67.8881C149.711 67.8435 148.139 67.7617 146.206 67.6495C142.337 67.4251 137 67.078 131.11 66.66L131.276 64.3284ZM151.369 66.642C151.335 67.0688 151.536 67.3677 151.654 67.5024C151.77 67.6349 151.889 67.7081 151.939 67.7374C152.045 67.7992 152.134 67.8271 152.149 67.8321C152.2 67.8482 152.228 67.8523 152.203 67.8475C152.167 67.8405 152.088 67.8279 151.952 67.81C151.689 67.7752 151.286 67.7305 150.751 67.6769C149.684 67.5702 148.133 67.4323 146.208 67.2728C142.36 66.954 137.037 66.5504 131.15 66.1389L131.313 63.8071C137.207 64.2191 142.54 64.6235 146.401 64.9433C148.331 65.1032 149.897 65.2423 150.983 65.351C151.525 65.4052 151.957 65.4528 152.258 65.4925C152.405 65.5119 152.541 65.532 152.65 65.5531C152.697 65.5623 152.779 65.5793 152.865 65.607C152.899 65.6179 153.002 65.6513 153.117 65.7183C153.171 65.7501 153.293 65.8259 153.411 65.9607C153.531 66.0979 153.733 66.3992 153.699 66.8283L151.369 66.642ZM131.15 66.1389C125.263 65.7272 119.934 65.3759 116.079 65.148C114.151 65.0339 112.597 64.9511 111.528 64.9071C110.992 64.885 110.589 64.8731 110.326 64.8714C110.19 64.8705 110.114 64.8725 110.083 64.8745C110.06 64.8759 110.096 64.8752 110.158 64.8629C110.178 64.8589 110.284 64.8385 110.411 64.7777C110.473 64.748 110.61 64.6768 110.744 64.5374C110.891 64.3849 111.075 64.1041 111.07 63.7146L108.732 63.7455C108.727 63.3534 108.912 63.0703 109.061 62.9153C109.198 62.7736 109.337 62.7001 109.404 62.6682C109.541 62.603 109.661 62.5786 109.699 62.5709C109.798 62.5512 109.889 62.5446 109.938 62.5415C110.052 62.5344 110.193 62.533 110.341 62.534C110.646 62.536 111.082 62.5492 111.625 62.5716C112.715 62.6165 114.285 62.7003 116.217 62.8146C120.084 63.0432 125.422 63.3952 131.313 63.8071L131.15 66.1389Z" fill="#181423" mask="url(#path-13-inside-4_416_55041)"/>
</g>
<g clip-path="url(#clip2_416_55041)">
<ellipse cx="78.051" cy="180.891" rx="63.4162" ry="3.3338" fill="black" fill-opacity="0.3"/>
<path d="M46.4502 180.818C26.2053 174.128 40.0849 147.427 40.0849 147.427L128.579 155.731C130.267 155.719 131.941 156.04 133.505 156.676C135.068 157.312 136.49 158.25 137.688 159.436C138.886 160.622 139.837 162.033 140.486 163.587C141.135 165.141 141.469 166.808 141.469 168.492C141.469 171.878 140.12 175.126 137.718 177.521C135.316 179.916 132.059 181.261 128.663 181.261L46.4754 180.818" fill="black"/>
<path d="M25.7349 180.793C6.00163 174.153 19.6045 147.427 19.6045 147.427L105.868 155.53C114.254 155.639 118.405 159.711 118.405 168.266C118.405 175.315 115.78 181.261 105.893 181.06L25.7349 180.793Z" fill="black"/>
<path d="M45.7601 151.934H46.0033H46.7245L49.4837 152.052L59.6313 152.553L93.11 154.385C94.7873 154.46 96.3556 154.602 97.949 154.619C99.5424 154.635 101.119 154.711 102.662 154.803C104.205 154.895 105.723 155.012 107.199 155.171C108.672 155.274 110.124 155.572 111.518 156.057C112.86 156.567 114.082 157.347 115.108 158.348C116.075 159.338 116.816 160.525 117.28 161.827C117.715 163.045 118.013 164.307 118.169 165.59C118.328 166.771 118.406 167.961 118.404 169.152C118.434 171.205 118.046 173.242 117.263 175.14C116.668 176.548 115.748 177.797 114.579 178.786C113.866 179.401 113.036 179.867 112.139 180.157C111.527 180.35 111.518 180.291 112.139 180.074C113.004 179.742 113.803 179.258 114.495 178.644C115.616 177.65 116.494 176.415 117.062 175.031C117.804 173.17 118.163 171.18 118.118 169.178C118.105 168.002 118.015 166.829 117.85 165.665C117.691 164.413 117.393 163.181 116.961 161.994C116.511 160.742 115.796 159.601 114.864 158.649C113.872 157.694 112.693 156.951 111.401 156.467C110.047 156.003 108.637 155.721 107.208 155.631C105.74 155.48 104.23 155.371 102.687 155.279C101.144 155.187 99.5844 155.129 97.9909 155.104C96.3975 155.079 94.7789 154.937 93.1436 154.861L59.6648 152.896L49.5256 152.244L46.7665 152.043L46.0536 151.985C45.9536 151.985 45.8542 151.968 45.7601 151.934Z" fill="white" fill-opacity="0.3"/>
<path d="M26.2806 160.355C26.4892 160.514 26.7251 160.633 26.9767 160.707C27.6504 160.952 28.3571 161.096 29.0733 161.133C30.2677 161.225 31.4677 161.054 32.5887 160.633C33.7097 160.212 34.7243 159.55 35.5609 158.695C36.3975 157.84 37.0357 156.813 37.4305 155.685C37.8253 154.557 37.9669 153.357 37.8456 152.169C37.7883 151.455 37.6273 150.754 37.3675 150.086C37.1746 149.618 37.0237 149.384 36.9985 149.401C37.2595 150.31 37.4309 151.243 37.5101 152.185C37.5848 153.314 37.421 154.446 37.0294 155.508C36.6377 156.57 36.027 157.538 35.2365 158.35C34.4461 159.162 33.4936 159.799 32.4406 160.221C31.3876 160.643 30.2576 160.84 29.1236 160.799C28.1636 160.745 27.2113 160.596 26.2806 160.355Z" fill="white" fill-opacity="0.3"/>
<path d="M52.2594 74.9593C63.2372 76.1886 65.0152 83.6227 70.1309 90.9397L77.5361 104.562L63.9249 112.882L64.3946 133.788L69.9632 152.286L18.6968 149.401L24.408 131.84L17.5814 104.997C17.0614 101.334 15.6525 94.5355 16.6086 90.9313C19.5941 79.684 31.3184 76.3977 39.3862 74.3071C41.0635 73.8806 49.0809 73.9057 50.4731 74.2402" fill="#F95B29"/>
<path d="M58.0467 132.166C57.393 132.044 56.7176 132.186 56.1681 132.559C55.5383 132.922 55.0305 133.464 54.7089 134.114C54.3175 134.926 54.2516 135.856 54.5244 136.715C54.7739 137.58 55.3395 138.32 56.1094 138.789C56.7387 139.154 57.463 139.323 58.1893 139.274C58.8532 139.287 59.4954 139.037 59.9756 138.58C59.402 138.805 58.7962 138.937 58.1809 138.973C57.524 138.968 56.8808 138.786 56.3191 138.446C55.6435 138.014 55.1459 137.354 54.9166 136.587C54.6873 135.819 54.7416 134.996 55.0695 134.265C55.3477 133.674 55.7827 133.171 56.3275 132.81C56.8621 132.504 57.4426 132.287 58.0467 132.166Z" fill="#FAFAFA"/>
<path d="M45.8125 109.588C45.8125 109.671 40.5794 111.486 34.0715 113.635C27.5636 115.784 22.2465 117.465 22.213 117.381C22.1795 117.298 27.4461 115.483 33.954 113.326C40.4619 111.168 45.8125 109.504 45.8125 109.588Z" fill="black"/>
<g opacity="0.3">
<path opacity="0.3" d="M24.7461 120.81C25.7138 125.257 26.9773 129.634 28.5284 133.914C29.5106 136.632 30.9049 139.185 32.663 141.482C35.2638 144.469 38.7302 146.579 42.5841 147.519C46.4264 148.447 50.41 148.643 54.3252 148.096L34.8267 137.117L29.6438 119.146L24.7461 120.81Z" fill="black"/>
</g>
<path d="M64.3888 126.512C64.3057 126.032 64.2636 125.545 64.263 125.057C64.2126 124.02 64.1455 122.657 64.0701 121.01C63.9191 117.59 63.7514 119.564 63.592 114.338C63.4327 109.111 63.3153 104.378 63.2566 100.958C63.2566 99.2854 63.2566 97.9391 63.2062 96.9021C63.1806 96.4027 63.1975 95.9019 63.2566 95.4053C63.341 95.8971 63.3858 96.3948 63.3908 96.8938C63.4411 97.9307 63.5082 99.2938 63.592 100.941C63.7346 104.361 63.9107 109.094 64.0617 114.321C64.2126 119.547 64.3384 117.564 64.4055 120.993C64.4055 122.665 64.4055 124.003 64.4475 125.049C64.4658 125.537 64.4462 126.027 64.3888 126.512Z" fill="black"/>
<path d="M75.542 100.941C73.7122 102.282 71.7928 103.498 69.7973 104.579C67.8768 105.791 65.8763 106.872 63.8093 107.815C65.6354 106.466 67.5551 105.247 69.5541 104.169C71.47 102.951 73.4711 101.873 75.542 100.941Z" fill="black"/>
<path d="M49.9221 92.4617C50.2852 93.0191 50.8552 93.4101 51.5072 93.5488C52.1109 93.7202 52.7487 93.7334 53.359 93.5871C53.9693 93.4408 54.5314 93.1399 54.991 92.7136C55.4506 92.2873 55.7921 91.75 55.9825 91.1536C56.1728 90.5572 56.2057 89.9219 56.0778 89.3091C55.9235 88.5988 55.5616 87.9499 55.0379 87.4443C54.8178 87.198 54.5512 86.9973 54.2534 86.8538C53.9555 86.7103 53.6321 86.6268 53.3018 86.6081C53.8593 86.8686 54.3716 87.2158 54.8198 87.6367C55.2657 88.1026 55.5759 88.6807 55.7172 89.3091C55.8626 90.0909 55.7196 90.8988 55.3146 91.5837C54.9293 92.2825 54.2994 92.8154 53.5451 93.0805C52.922 93.283 52.2558 93.3148 51.6162 93.1725C51.0176 93.0257 50.4459 92.7859 49.9221 92.4617Z" fill="#FAFAFA"/>
<path d="M60.7153 106.862C61.1081 106.324 61.271 105.654 61.1681 104.997C61.1153 104.372 60.9012 103.772 60.5468 103.255C60.1923 102.738 59.7096 102.321 59.1455 102.044C58.5815 101.768 57.9554 101.642 57.3281 101.679C56.7008 101.716 56.0938 101.914 55.566 102.254C54.9633 102.667 54.4965 103.249 54.2241 103.926C53.9261 104.518 53.8748 105.204 54.0816 105.833C54.1262 105.22 54.2707 104.618 54.5093 104.052C54.7947 103.463 55.2354 102.963 55.784 102.605C56.4693 102.2 57.2748 102.046 58.0617 102.17C58.8486 102.293 59.5676 102.687 60.0947 103.282C60.5083 103.79 60.7751 104.4 60.8662 105.047C60.9175 105.656 60.8665 106.269 60.7153 106.862Z" fill="#FAFAFA"/>
<path d="M60.7153 125.317C61.1081 124.78 61.271 124.109 61.1681 123.452C61.1153 122.828 60.9012 122.228 60.5468 121.711C60.1923 121.193 59.7096 120.776 59.1455 120.5C58.5815 120.224 57.9554 120.098 57.3281 120.135C56.7008 120.172 56.0938 120.37 55.566 120.71C54.9633 121.123 54.4965 121.705 54.2241 122.382C53.9261 122.974 53.8748 123.659 54.0816 124.289C54.1262 123.676 54.2707 123.074 54.5093 122.507C54.7947 121.919 55.2354 121.419 55.784 121.061C56.4659 120.661 57.2654 120.51 58.0467 120.632C58.8279 120.754 59.5428 121.142 60.0695 121.73C60.4831 122.237 60.7499 122.847 60.8411 123.494C60.9015 124.105 60.859 124.721 60.7153 125.317Z" fill="#FAFAFA"/>
<path d="M44.529 102.304C45.1935 102.324 45.8387 102.08 46.3237 101.627C46.8935 101.177 47.3167 100.569 47.5397 99.8792C47.7988 99.0167 47.724 98.0886 47.3301 97.2785C46.9483 96.4614 46.2759 95.8147 45.4431 95.4639C44.7644 95.2032 44.0242 95.1451 43.313 95.2966C42.9842 95.3376 42.6668 95.4429 42.379 95.6065C42.0911 95.7701 41.8385 95.9887 41.6357 96.2499C42.1591 95.9505 42.7244 95.7306 43.313 95.5977C43.9633 95.499 44.6283 95.5829 45.2335 95.8402C45.9607 96.1665 46.5475 96.7406 46.8887 97.4593C47.2299 98.178 47.3031 98.9944 47.0953 99.7621C46.9071 100.389 46.5503 100.953 46.0637 101.393C45.6046 101.777 45.0864 102.085 44.529 102.304Z" fill="#FAFAFA"/>
<path d="M51.096 109.68C50.5237 110.021 50.1105 110.574 49.9471 111.219C49.6835 111.988 49.6893 112.824 49.9637 113.59C50.2381 114.356 50.7648 115.007 51.4578 115.436C52.1508 115.865 52.9691 116.047 53.7793 115.952C54.5894 115.857 55.3434 115.492 55.9182 114.915C56.4191 114.493 56.735 113.893 56.7988 113.242C56.5193 113.792 56.1509 114.292 55.7086 114.722C55.2161 115.157 54.6122 115.446 53.9642 115.559C53.1762 115.669 52.3743 115.5 51.6983 115.082C51.0224 114.663 50.5154 114.021 50.2658 113.267C50.0899 112.635 50.0899 111.968 50.2658 111.336C50.4444 110.74 50.7253 110.18 51.096 109.68Z" fill="#FAFAFA"/>
<path d="M64.4119 84.6263C64.0883 84.5632 63.7554 84.5655 63.4327 84.633C63.11 84.7005 62.8042 84.8319 62.5334 85.0193C61.9029 85.3806 61.3926 85.9186 61.0657 86.5663C60.7901 87.1337 60.6684 87.7633 60.7131 88.3922C60.7577 89.0211 60.9671 89.6274 61.3201 90.1504C61.6732 90.6734 62.1577 91.0949 62.7253 91.3729C63.2928 91.6508 63.9236 91.7754 64.5545 91.7343C65.2185 91.7471 65.8606 91.4976 66.3408 91.0402C65.7659 91.2595 65.1606 91.3893 64.5461 91.4249C63.8894 91.4268 63.245 91.2473 62.6843 90.9064C62.0163 90.4714 61.5257 89.8132 61.3006 89.05C61.0688 88.2892 61.1163 87.4709 61.4347 86.742C61.7103 86.1498 62.1459 85.6459 62.6927 85.2869C63.2241 84.9712 63.8055 84.7478 64.4119 84.6263Z" fill="#FAFAFA"/>
<path d="M41.2996 106.795C41.6347 106.221 41.7282 105.539 41.5596 104.896C41.4293 104.184 41.0943 103.524 40.5951 102.998C39.9528 102.365 39.0989 101.99 38.1966 101.945C37.3831 101.89 36.5754 102.116 35.9095 102.585C35.2435 103.054 34.7599 103.737 34.5401 104.52C34.3022 105.14 34.3203 105.829 34.5904 106.435C34.5732 105.818 34.6554 105.203 34.8336 104.612C35.0573 103.998 35.4461 103.457 35.9574 103.048C36.5959 102.574 37.381 102.337 38.1762 102.38C38.9714 102.423 39.7265 102.742 40.31 103.283C40.7728 103.744 41.1005 104.322 41.2577 104.955C41.3668 105.562 41.3809 106.183 41.2996 106.795Z" fill="#FAFAFA"/>
<path d="M49.6014 120.35C48.9477 120.228 48.2723 120.37 47.7228 120.743C47.092 121.108 46.5819 121.648 46.2552 122.298C45.8765 123.115 45.8108 124.041 46.0704 124.902C46.33 125.763 46.8969 126.5 47.6641 126.973C48.2918 127.334 49.0123 127.503 49.7356 127.458C50.4024 127.473 51.048 127.223 51.5303 126.764C50.9527 126.984 50.3445 127.114 49.7272 127.149C49.0733 127.149 48.4318 126.97 47.8738 126.63C47.1982 126.198 46.7005 125.538 46.4712 124.771C46.242 124.003 46.2962 123.18 46.6242 122.449C46.9023 121.858 47.3374 121.355 47.8822 120.994C48.414 120.683 48.9955 120.465 49.6014 120.35Z" fill="#FAFAFA"/>
<path d="M36.2246 144.5C36.224 143.835 35.9586 143.198 35.4866 142.727C35.0747 142.254 34.5469 141.895 33.9546 141.686C33.3623 141.476 32.7257 141.423 32.1067 141.532C31.4878 141.64 30.9075 141.907 30.4226 142.306C29.9376 142.704 29.5644 143.221 29.3393 143.806C29.0941 144.488 29.0562 145.227 29.2303 145.93C29.3428 146.585 29.7068 147.17 30.2451 147.561C29.9198 147.045 29.6792 146.48 29.5322 145.888C29.4194 145.245 29.4832 144.584 29.7167 143.974C30.0287 143.244 30.587 142.646 31.2947 142.284C32.0024 141.922 32.815 141.819 33.5912 141.992C34.2285 142.157 34.8085 142.492 35.2685 142.962C35.6618 143.425 35.984 143.943 36.2246 144.5Z" fill="#FAFAFA"/>
<path d="M26.5232 131.213C26.1945 131.254 25.877 131.359 25.5892 131.523C25.3014 131.686 25.0488 131.905 24.8459 132.166C24.2902 132.762 23.9582 133.532 23.9063 134.344C23.8543 135.156 24.0855 135.961 24.5608 136.623C25.0656 137.371 25.8358 137.899 26.7161 138.103C27.4243 138.259 28.163 138.201 28.8379 137.936C29.4739 137.743 30.0075 137.307 30.3223 136.723C29.8466 137.113 29.3115 137.423 28.7372 137.643C28.1132 137.843 27.4462 137.869 26.8084 137.719C26.0421 137.503 25.3755 137.028 24.9237 136.374C24.4719 135.721 24.2635 134.93 24.3344 134.14C24.4112 133.49 24.6699 132.876 25.0807 132.367C25.4938 131.905 25.9813 131.515 26.5232 131.213Z" fill="#FAFAFA"/>
<path d="M26.5226 105.632C25.8597 105.724 25.2584 106.069 24.8453 106.594C24.3585 107.132 24.0407 107.801 23.9312 108.517C23.8233 109.41 24.0469 110.311 24.5599 111.051C25.0729 111.79 25.8397 112.317 26.7155 112.531C27.4268 112.682 28.1668 112.624 28.8457 112.364C29.4832 112.169 30.0171 111.73 30.3301 111.143C29.8548 111.539 29.3162 111.853 28.7367 112.071C28.1126 112.273 27.4444 112.296 26.8078 112.138C26.037 111.934 25.3646 111.462 24.9112 110.807C24.4578 110.153 24.2531 109.359 24.3338 108.568C24.4141 107.919 24.6724 107.306 25.0802 106.795C25.4968 106.334 25.9836 105.942 26.5226 105.632Z" fill="#FAFAFA"/>
<path d="M20.9969 100.933C21.6604 100.979 22.3159 100.766 22.8251 100.339C23.4105 99.9196 23.8596 99.3381 24.1166 98.6665C24.4065 97.8152 24.3737 96.8876 24.0245 96.0587C23.6753 95.2298 23.0339 94.5571 22.2213 94.1676C21.5562 93.871 20.8178 93.7779 20.0995 93.9C19.4458 93.9658 18.8438 94.2839 18.4222 94.7864C18.9668 94.4954 19.5565 94.2976 20.1666 94.201C20.8191 94.1368 21.4768 94.2495 22.0703 94.5272C22.7761 94.8933 23.3306 95.4948 23.6371 96.2268C23.9437 96.9588 23.9828 97.7749 23.7476 98.5327C23.5348 99.1506 23.1546 99.6976 22.649 100.113C22.1459 100.473 21.5881 100.75 20.9969 100.933Z" fill="#FAFAFA"/>
<path d="M30.3295 86.8338C30.9909 86.8828 31.6449 86.6694 32.1493 86.24C32.7348 85.8206 33.1838 85.2391 33.4408 84.5676C33.7307 83.7163 33.6979 82.7886 33.3487 81.9598C32.9995 81.1309 32.3581 80.4582 31.5455 80.0687C30.8805 79.7716 30.1419 79.6785 29.4237 79.8011C28.77 79.8668 28.168 80.185 27.7464 80.6875C28.2944 80.4063 28.8829 80.2117 29.4908 80.1105C30.1427 80.038 30.8019 80.1481 31.3945 80.4282C32.1003 80.7943 32.6548 81.3958 32.9614 82.1279C33.2679 82.8599 33.307 83.676 33.0718 84.4338C32.8569 85.0529 32.4771 85.6021 31.9732 86.0226C31.4701 86.3751 30.9157 86.6486 30.3295 86.8338Z" fill="#FAFAFA"/>
<path d="M67.616 103.082C68.2785 103.129 68.9327 102.912 69.4359 102.48C70.1017 102.011 70.5846 101.327 70.8031 100.544C71.0216 99.7605 70.9623 98.9261 70.6351 98.1816C70.2932 97.3483 69.6496 96.6737 68.832 96.2917C68.1671 95.9946 67.4285 95.9015 66.7103 96.0241C66.3857 96.0536 66.0703 96.1471 65.7823 96.2993C65.4943 96.4515 65.2396 96.6592 65.033 96.9105C65.5775 96.6195 66.1672 96.4217 66.7773 96.3251C67.4298 96.2609 68.0875 96.3736 68.6811 96.6513C69.3868 97.0174 69.9413 97.6189 70.2479 98.3509C70.5544 99.0829 70.5935 99.899 70.3584 100.657C70.1432 101.274 69.7634 101.82 69.2597 102.237C68.7595 102.603 68.2048 102.888 67.616 103.082Z" fill="#FAFAFA"/>
<path d="M30.2224 90.0618C29.893 90.1038 29.5753 90.2104 29.2874 90.3754C28.9995 90.5405 28.7472 90.7607 28.5451 91.0234C28.0549 91.5593 27.7366 92.2291 27.631 92.9467C27.5246 93.838 27.7478 94.7375 28.2588 95.4764C28.7698 96.2154 29.5336 96.7431 30.4069 96.9607C31.1182 97.1122 31.8583 97.054 32.5371 96.7934C33.1746 96.5986 33.7085 96.1595 34.0215 95.5725C33.5462 95.9687 33.0076 96.2824 32.4281 96.5007C31.804 96.7021 31.1358 96.7253 30.4992 96.5676C29.7289 96.3632 29.0588 95.888 28.6122 95.2297C28.1571 94.5785 27.949 93.7871 28.0252 92.9969C28.1083 92.348 28.3695 91.7345 28.78 91.2241C29.1973 90.7643 29.684 90.3722 30.2224 90.0618Z" fill="#FAFAFA"/>
<path d="M18.4541 104.813C18.4978 104.908 18.5343 105.005 18.5631 105.106C18.6302 105.315 18.7309 105.599 18.8483 105.942C19.0999 106.72 19.4521 107.823 19.8966 109.237L23.6285 121.17L23.4524 121.086L46.2468 112.724L46.8171 112.49L46.7165 112.673C45.3377 107.56 43.5541 102.563 41.3827 97.73C39.694 93.757 37.4091 90.0633 34.6064 86.7754C33.5084 85.543 32.2134 84.5003 30.7738 83.6897C29.6937 83.0669 28.4808 82.7087 27.2347 82.6444C26.9946 82.6282 26.7536 82.6282 26.5135 82.6444L25.8761 82.7113C25.6832 82.7113 25.4987 82.7113 25.3394 82.7782L24.8949 82.8953L24.2995 83.0458L24.0982 83.0876L24.2911 83.0207L24.8781 82.8284L25.3226 82.703C25.482 82.6611 25.6665 82.6528 25.8677 82.6194L26.5051 82.5357C26.7508 82.5192 26.9974 82.5192 27.2431 82.5357C28.5121 82.5778 29.7521 82.925 30.8577 83.5476C32.3294 84.3504 33.6537 85.3967 34.7742 86.6416C37.6214 89.9285 39.9412 93.6351 41.6511 97.6297C43.8474 102.472 45.6479 107.484 47.0352 112.615V112.749L46.9094 112.799L46.3307 113.033C37.7933 116.219 29.8765 119.054 23.5111 121.395L23.3854 121.446L23.3434 121.312L19.7205 109.345C19.3012 107.924 18.9741 106.837 18.7392 106C18.6386 105.624 18.5547 105.34 18.496 105.122C18.47 105.021 18.4559 104.917 18.4541 104.813Z" fill="black"/>
<path d="M61.478 118.519L65.8893 132.291C66.7322 135.094 68.3348 137.61 70.5205 139.562C72.7062 141.514 75.39 142.827 78.2761 143.355L107.754 148.874L115.78 148.615L107.754 138.714L85.5974 131.187C84.5346 130.959 83.5552 130.444 82.7667 129.698C81.9783 128.951 81.4111 128.003 81.1275 126.956L72.3049 107.823L61.1258 114.655L61.478 118.519Z" fill="#FFBE9D"/>
<path d="M26.9763 119.815L31.7818 135.494C32.6107 138.313 34.2019 140.849 36.3809 142.826C38.5599 144.803 41.2427 146.143 44.135 146.7L73.6134 152.286L81.6309 152.026L78.9053 145.203L51.448 134.374C50.3807 134.135 49.3996 133.608 48.6114 132.852C47.8233 132.096 47.2583 131.138 46.978 130.084L42.877 114.304L26.9763 119.815Z" fill="#FFBE9D"/>
<path d="M53.0993 152.495L53.3509 150.588L75.9943 149.702L87.1148 121.755L129.458 124.615L115.167 155.639L53.0993 152.495Z" fill="#455A64"/>
<path d="M103.779 139.884C103.544 140.255 103.204 140.549 102.802 140.727C102.401 140.905 101.955 140.961 101.521 140.886C101.088 140.812 100.686 140.61 100.367 140.308C100.049 140.006 99.827 139.616 99.7305 139.188C99.6341 138.76 99.6672 138.313 99.8257 137.904C99.9841 137.495 100.261 137.142 100.621 136.89C100.98 136.637 101.407 136.497 101.847 136.487C102.287 136.477 102.72 136.597 103.091 136.832C103.586 137.148 103.935 137.646 104.064 138.217C104.193 138.789 104.09 139.388 103.779 139.884Z" fill="white"/>
<path d="M40.0664 26.3995C36.7446 26.6218 33.559 27.8015 30.897 29.7953C28.235 31.789 26.2111 34.5109 25.0714 37.6301C24.6689 38.8008 24.3921 40.0133 23.8805 41.1422C23.4156 42.3042 22.5462 43.2602 21.4317 43.8349C20.593 44.2112 19.6538 44.253 18.7983 44.5708C18.0792 44.8538 17.4392 45.3056 16.9325 45.8879C16.4259 46.4703 16.0677 47.1659 15.8882 47.9157C15.721 48.6685 15.7045 49.4468 15.8398 50.206C15.9751 50.9651 16.2595 51.6901 16.6766 52.3394C17.1773 52.9295 17.518 53.6378 17.6662 54.3965C17.6325 54.9182 17.5282 55.433 17.3559 55.9268C17.1445 56.7953 17.2178 57.7085 17.565 58.5324C17.9122 59.3564 18.515 60.0477 19.2851 60.5051C20.0551 60.9624 20.9519 61.1617 21.8438 61.0736C22.7358 60.9856 23.5759 60.615 24.2412 60.016C24.6826 61.3375 25.5723 62.4641 26.7571 63.202C28.0151 63.7957 29.8685 63.2606 30.1117 61.8975C30.4457 62.5329 30.9757 63.0444 31.6236 63.3565C32.2714 63.6686 33.0027 63.7647 33.7096 63.6307C34.4164 63.4967 35.0613 63.1396 35.549 62.6122C36.0368 62.0848 36.3415 61.415 36.4183 60.7017" fill="black"/>
<path d="M60.1678 46.9707C62.9018 43.7847 62.9437 38.784 61.0065 35.0544C59.0692 31.3248 55.3875 28.7576 51.513 27.2357C46.1792 25.1451 39.8139 24.9277 35.0169 28.0719C32.9209 29.48 31.2394 31.4198 30.1454 33.6915C29.0514 35.9632 28.5847 38.4846 28.7931 40.996C29.0016 43.5074 29.8778 45.918 31.3314 47.9795C32.785 50.0409 34.7636 51.6787 37.0631 52.724" fill="#F95B29"/>
<path d="M28.5951 39.2021C29.2374 39.3573 29.8965 39.4331 30.5575 39.4279C31.2056 39.5599 31.8674 39.6132 32.5283 39.5868C31.9327 39.2613 31.2771 39.0594 30.6012 38.9933C29.9252 38.9271 29.2428 38.9982 28.5951 39.2021Z" fill="#FAFAFA"/>
<path d="M31.1613 32.2531C31.7313 32.4527 32.3221 32.5873 32.9224 32.6545C33.8785 32.8635 34.5997 33.1729 34.6836 33.0558C34.2379 32.5927 33.6454 32.2973 33.0063 32.2196C32.4063 32.0151 31.7534 32.0269 31.1613 32.2531Z" fill="#FAFAFA"/>
<path d="M36.1654 27.5701C36.1654 27.6956 37.306 27.8461 38.6814 28.2977C39.4707 28.6343 40.2768 28.9301 41.0967 29.1841C40.4744 28.5441 39.6838 28.0919 38.8156 27.8795C37.9809 27.5226 37.0602 27.4151 36.1654 27.5701Z" fill="#FAFAFA"/>
<path d="M44.512 25.7222C44.512 25.8392 45.5519 26.1821 46.6421 26.9849C47.7324 27.7877 48.3949 28.6574 48.5039 28.6072C48.2112 27.7818 47.6427 27.082 46.8937 26.6253C46.231 26.0543 45.3877 25.7345 44.512 25.7222Z" fill="#FAFAFA"/>
<path d="M54.1234 28.791C54.0563 28.8913 54.4001 29.2258 54.702 29.7025C54.9117 30.0286 55.0459 30.3464 55.1549 30.5387L55.3478 30.8314V30.5471C55.3478 30.4551 55.3478 30.3966 55.2975 30.3799C55.2472 30.3631 55.2052 30.3799 55.1465 30.4802H55.3478C55.3589 30.1296 55.2591 29.7844 55.0627 29.4934C54.7104 28.9081 54.1988 28.6906 54.1234 28.791Z" fill="#FAFAFA"/>
<path d="M30.3565 46.5109C30.3565 46.628 31.1113 46.6949 31.9918 46.4273C32.8724 46.1597 33.4511 45.6747 33.3924 45.5911C33.3337 45.5075 32.6795 45.7667 31.8661 46.0175C31.0526 46.2684 30.3481 46.3938 30.3565 46.5109Z" fill="#FAFAFA"/>
<path d="M17.1313 39.7791C17.1313 39.7791 17.2822 40.331 18.1544 40.6153C18.4168 40.6948 18.6926 40.7202 18.9651 40.69C19.2376 40.6598 19.501 40.5746 19.7395 40.4397C20.0513 40.2467 20.3107 39.9803 20.4949 39.6639C20.6792 39.3475 20.7827 38.9907 20.7962 38.6251C20.812 38.1795 20.7085 37.7377 20.4962 37.3453C20.284 36.9528 19.9707 36.6239 19.5885 36.3923C19.1533 36.1247 18.6565 35.9726 18.1457 35.9506C17.6348 35.9287 17.1268 36.0375 16.67 36.2669C16.163 36.5068 15.7201 36.8629 15.3775 37.3062C15.035 37.7495 14.8026 38.2674 14.6992 38.8174C14.5967 39.4024 14.6185 40.0024 14.7629 40.5785C14.9074 41.1547 15.1714 41.6942 15.5379 42.1623C15.9243 42.6221 16.4125 42.9861 16.9641 43.2256C17.5157 43.465 18.1156 43.5734 18.7163 43.5421C19.8147 43.5069 20.8811 43.1651 21.7942 42.5554C23.2468 41.4777 24.4818 40.1356 25.4339 38.6C26.0919 37.6017 26.8206 36.6515 27.6144 35.7568C28.193 35.1463 28.562 34.8536 28.5369 34.8286C28.5117 34.8035 28.4278 34.8704 28.2433 35.0042C27.9803 35.2021 27.7283 35.4143 27.4886 35.6397C26.6385 36.4979 25.8667 37.4298 25.1823 38.4244C24.2166 39.8939 22.9953 41.1796 21.5761 42.2209C20.7198 42.7744 19.728 43.0838 18.7079 43.1156C18.1741 43.1453 17.6407 43.0503 17.1501 42.8384C16.6595 42.6265 16.2252 42.3033 15.8817 41.8947C15.5546 41.4721 15.3193 40.9861 15.1908 40.4679C15.0623 39.9496 15.0434 39.4103 15.1353 38.8843C15.223 38.3962 15.4252 37.9357 15.7255 37.5404C16.0257 37.1451 16.4155 36.8262 16.8629 36.6097C17.2553 36.4119 17.691 36.3151 18.1305 36.3282C18.57 36.3414 18.9991 36.464 19.3789 36.685C19.7169 36.8744 19.9968 37.1519 20.1889 37.4877C20.3809 37.8236 20.4778 38.2051 20.4691 38.5916C20.4685 38.909 20.3922 39.2217 20.2463 39.5038C20.1005 39.7859 19.8894 40.0293 19.6305 40.2139C19.4215 40.3407 19.1895 40.4251 18.9477 40.4624C18.7059 40.4997 18.4592 40.4892 18.2215 40.4313C17.7972 40.3365 17.4149 40.1078 17.1313 39.7791Z" fill="black"/>
<path d="M36.4036 35.3639C35.6661 35.4413 34.9845 35.7918 34.4938 36.3462C34.0031 36.9005 33.7389 37.6183 33.7534 38.3576L35.4307 78.271C35.4978 82.9873 44.0688 88.5566 49.1342 88.4562C54.2416 88.3475 52.7404 82.9371 52.8159 78.4215C52.9417 70.8954 52.9333 68.1191 52.9417 68.1609C52.95 68.2027 59.3992 67.0905 60.7327 58.6864C61.4036 54.5053 61.1939 47.6565 60.8333 42.0538C60.523 37.0364 57.1684 30.8316 52.1366 31.3584L36.4036 35.3639Z" fill="#FFBE9D"/>
<path d="M58.6434 47.5311C58.648 47.8121 58.5414 48.0837 58.3469 48.2871C58.1523 48.4905 57.8853 48.6094 57.6035 48.6182C57.466 48.6296 57.3275 48.6133 57.1964 48.5704C57.0653 48.5275 56.9441 48.4587 56.8401 48.3683C56.7361 48.2778 56.6514 48.1675 56.5909 48.0438C56.5305 47.9201 56.4955 47.7856 56.4881 47.6482C56.4858 47.3627 56.5963 47.0878 56.7955 46.8828C56.9948 46.6778 57.267 46.5593 57.5532 46.5527C57.8277 46.539 58.0965 46.6342 58.3008 46.8176C58.5051 47.0009 58.6282 47.2574 58.6434 47.5311Z" fill="black"/>
<path d="M59.347 45.6327C59.2128 45.7749 58.3909 45.1728 57.2252 45.1728C56.0595 45.1728 55.2125 45.7582 55.0867 45.616C54.9609 45.4738 55.1621 45.2982 55.5311 45.0306C56.037 44.6845 56.6368 44.5007 57.2504 44.5038C57.8528 44.5049 58.4397 44.695 58.9276 45.0474C59.2883 45.34 59.4141 45.6327 59.347 45.6327Z" fill="black"/>
<path d="M47.2793 47.5309C47.2816 47.8114 47.1744 48.0817 46.9803 48.2847C46.7861 48.4876 46.5204 48.6072 46.2394 48.6181C46.1018 48.6294 45.9634 48.6132 45.8323 48.5703C45.7011 48.5273 45.58 48.4586 45.476 48.3682C45.372 48.2777 45.2872 48.1674 45.2268 48.0437C45.1663 47.92 45.1313 47.7854 45.1239 47.648C45.1194 47.3661 45.2256 47.0937 45.42 46.8889C45.6143 46.6842 45.8814 46.5635 46.1639 46.5526C46.3016 46.5435 46.4397 46.5616 46.5704 46.6059C46.7011 46.6502 46.8217 46.7198 46.9254 46.8107C47.029 46.9017 47.1136 47.0121 47.1744 47.1357C47.2351 47.2593 47.2707 47.3936 47.2793 47.5309Z" fill="black"/>
<path d="M47.9163 45.8669C47.7821 46.0091 46.9603 45.407 45.7945 45.407C44.6288 45.407 43.7818 45.9924 43.656 45.8502C43.5302 45.7081 43.7315 45.5324 44.1005 45.2648C44.6063 44.9187 45.2062 44.7349 45.8197 44.738C46.4228 44.735 47.0109 44.9256 47.497 45.2816C47.8576 45.5492 47.9834 45.8084 47.9163 45.8669Z" fill="black"/>
<path d="M52.1352 54.4717C52.7472 54.2786 53.3812 54.1634 54.0222 54.1288C54.3241 54.1288 54.6009 54.0369 54.6512 53.8362C54.6767 53.5298 54.6063 53.2231 54.4499 52.9581L53.6113 50.7087C52.3868 47.4975 51.5063 44.855 51.6404 44.8049C52.6035 46.6474 53.4195 48.5627 54.0809 50.533L54.9195 52.7992C55.1059 53.1696 55.1477 53.5957 55.037 53.995C54.9934 54.1005 54.9261 54.1945 54.8404 54.2699C54.7546 54.3453 54.6525 54.4 54.5422 54.4299C54.3782 54.4746 54.209 54.4971 54.039 54.4968C53.4059 54.5686 52.7662 54.5602 52.1352 54.4717Z" fill="black"/>
<path d="M52.9395 68.2109C48.958 68.2693 45.0386 67.2242 41.6178 65.1921C41.6178 65.1921 44.3601 70.9621 52.7885 70.2095L52.9395 68.2109Z" fill="black" fill-opacity="0.16"/>
<path d="M51.6401 57.2647C51.4184 56.9873 51.1298 56.7706 50.8013 56.6346C50.4727 56.4986 50.115 56.4478 49.7615 56.487C49.5055 56.5115 49.257 56.587 49.0308 56.7091C48.8046 56.8313 48.6054 56.9974 48.4448 57.1978C48.2892 57.3904 48.1968 57.6263 48.1803 57.8731C48.1638 58.12 48.2239 58.366 48.3526 58.5776C48.5383 58.7878 48.7836 58.937 49.056 59.0057C49.3284 59.0743 49.6153 59.0592 49.8789 58.9622C50.4267 58.7656 50.9309 58.4645 51.3633 58.0758C51.4949 57.9853 51.6063 57.8685 51.6904 57.733C51.7355 57.6694 51.7598 57.5934 51.7598 57.5155C51.7598 57.4376 51.7355 57.3617 51.6904 57.2981" fill="#EB996E"/>
<path d="M48.713 55.2745C48.8975 55.2745 48.9059 56.5204 49.9877 57.4152C51.0696 58.31 52.4114 58.1678 52.4198 58.3434C52.4281 58.519 52.1178 58.5859 51.5811 58.6026C50.8432 58.6112 50.1255 58.3628 49.5516 57.9002C49.0013 57.4519 48.6491 56.8065 48.5704 56.1023C48.4865 55.5755 48.6291 55.2661 48.713 55.2745Z" fill="black"/>
<path d="M48.4351 43.8433C48.3177 44.1527 47.1603 44.0021 45.7933 44.1694C44.4263 44.3366 43.3277 44.7046 43.1432 44.4202C43.0677 44.2865 43.2606 43.9938 43.7051 43.6844C44.2957 43.3043 44.9682 43.0693 45.6675 42.9987C46.3648 42.9133 47.0724 42.9965 47.7306 43.2412C48.2338 43.4419 48.4854 43.6927 48.4351 43.8433Z" fill="black"/>
<path d="M58.9189 42.2879C58.7092 42.5555 57.9125 42.2879 56.948 42.2879C55.9836 42.2879 55.1701 42.4719 54.9772 42.196C54.9017 42.0622 55.0275 41.7946 55.3798 41.5437C55.8611 41.248 56.419 41.0999 56.9841 41.1178C57.5492 41.1356 58.0966 41.3186 58.5583 41.6441C58.8937 41.8949 59.0111 42.1709 58.9189 42.2879Z" fill="black"/>
<path d="M34.6834 48.8021C34.3417 48.6147 33.9546 48.5257 33.5651 48.5449C33.1757 48.5641 32.7992 48.6907 32.4777 48.9108C31.6977 49.3631 31.0986 50.0705 30.7822 50.9132C30.4659 51.7558 30.4517 52.6816 30.742 53.5335C31.0324 54.3854 31.6095 55.1108 32.3753 55.5867C33.1411 56.0626 34.0485 56.2595 34.9434 56.1442" fill="#FFBE9D"/>
<path d="M47.9326 28.5987C50.799 28.7425 53.5826 29.6053 56.0255 31.1074C58.7853 32.5372 60.8634 35.0003 61.8038 37.9562C61.9225 38.2591 61.9778 38.583 61.9663 38.908C61.9547 39.2331 61.8766 39.5523 61.7367 39.846C61.4717 40.1852 61.0959 40.4211 60.6746 40.5128C60.2532 40.6044 59.813 40.5461 59.4304 40.3478C58.6752 39.9241 58.0314 39.328 57.5518 38.6084C57.3476 39.3832 56.8897 40.0678 56.2508 40.5535C55.6119 41.0393 54.8287 41.2984 54.0253 41.2898C53.2219 41.2811 52.4444 41.0052 51.8162 40.5058C51.188 40.0064 50.745 39.3122 50.5575 38.5332C50.4933 39.3383 50.1199 40.0876 49.5153 40.625C48.9107 41.1624 48.1215 41.4465 47.312 41.4182C46.5045 41.3448 45.7357 41.0395 45.0986 40.5393C44.4615 40.0392 43.9836 39.3655 43.7226 38.6001C43.5197 40.0529 43.0171 41.448 42.2466 42.6976C41.8453 43.3137 41.2648 43.7929 40.5828 44.0709C39.9008 44.3489 39.15 44.4124 38.4307 44.253C38.7297 45.4894 38.7095 46.7812 38.372 48.0077C37.9276 49.1951 36.6025 50.1568 35.4032 49.747C34.204 49.3373 33.7846 47.9659 33.5079 46.7617C32.906 44.4628 32.6016 42.0965 32.6021 39.7206C32.5258 37.275 33.3227 34.8818 34.8509 32.9675C36.3792 31.0532 38.5394 29.742 40.9467 29.2677C43.3511 28.7144 45.8197 28.4894 48.2848 28.5987" fill="black"/>
<path d="M34.0701 53.6355C34.0701 53.577 33.743 53.7108 33.3321 53.5185C33.0849 53.3765 32.8848 53.1654 32.7566 52.9113C32.6284 52.6571 32.5778 52.3711 32.6109 52.0885C32.6145 51.8017 32.7011 51.5221 32.8603 51.2833C33.0195 51.0444 33.2445 50.8565 33.5082 50.7422C33.9359 50.5665 34.2462 50.6502 34.263 50.5833C34.2798 50.5164 33.9779 50.3241 33.4244 50.4495C33.0954 50.5209 32.8 50.7006 32.5857 50.9596C32.3319 51.2737 32.185 51.6604 32.1664 52.0634C32.1244 52.4302 32.2053 52.8005 32.3964 53.1166C32.5876 53.4328 32.8782 53.6769 33.2231 53.8111C33.8269 53.9951 34.1372 53.669 34.0701 53.6355Z" fill="#EB996E"/>
<path d="M30.893 54.0704C30.7749 54.0905 30.6595 54.1242 30.5492 54.1708C30.2218 54.2758 29.9069 54.416 29.6099 54.5889C28.4723 55.1819 27.5205 56.0759 26.8591 57.1728C26.404 57.9343 26.1447 58.7961 26.1043 59.6815C26.0802 60.7069 26.3229 61.721 26.8088 62.6251C27.3386 63.6311 28.1074 64.4924 29.048 65.1338C30.0599 65.8317 31.2562 66.2158 32.4864 66.2376C33.6675 66.216 34.8204 65.8747 35.822 65.2501C36.8235 64.6256 37.636 63.7414 38.1725 62.692C38.6473 61.7749 38.8564 60.744 38.7763 59.715C38.6779 58.829 38.3921 57.9739 37.9376 57.2063C37.2958 56.0969 36.3182 55.2187 35.1449 54.6976C34.8318 54.5547 34.5023 54.4508 34.1637 54.3882C34.0442 54.3697 33.9226 54.3697 33.8031 54.3882C33.8031 54.4384 34.2895 54.4969 35.0779 54.8816C36.0022 55.3547 36.791 56.054 37.3704 56.9139C37.9498 57.7739 38.3008 58.7665 38.3905 59.7986C38.4483 60.7554 38.2424 61.7097 37.7951 62.5582C37.2832 63.5332 36.5183 64.3533 35.5801 64.9329C34.6418 65.5124 33.5647 65.8302 32.4613 65.8529C31.3578 65.8084 30.2853 65.4761 29.3509 64.8891C28.4164 64.3022 27.6527 63.4812 27.1359 62.508C26.6952 61.7222 26.4638 60.8369 26.4638 59.9366C26.4638 59.0363 26.6952 58.151 27.1359 57.3652C27.7552 56.2967 28.6387 55.4043 29.7021 54.7729C30.4401 54.2795 30.9098 54.1122 30.893 54.0704Z" fill="#F95B29"/>
</g>
</g>
<defs>
<clipPath id="clip0_416_55041">
<rect width="188" height="216" fill="white"/>
</clipPath>
<clipPath id="clip1_416_55041">
<rect width="77.0303" height="69.3896" fill="white" transform="translate(88.373 26.4951) rotate(-11.3759)"/>
</clipPath>
<clipPath id="clip2_416_55041">
<rect width="126.833" height="158.541" fill="white" transform="matrix(-1 0 0 1 141.468 25.6838)"/>
</clipPath>
</defs>
</svg>
