<svg width="188" height="216" viewBox="0 0 188 216" fill="none" xmlns="http://www.w3.org/2000/svg">
<g clip-path="url(#clip0_416_55637)">
<path fill-rule="evenodd" clip-rule="evenodd" d="M167.587 169.904C140.859 203.22 95.4182 212.017 52.7695 214.848C12.4902 217.523 -28.9647 210.998 -59.8836 185.008C-90.0881 159.618 -103.872 120.44 -106.357 81.0881C-108.709 43.846 -92.4449 10.5434 -72.9088 -21.226C-49.5 -59.2931 -27.615 -101.511 14.7345 -115.83C65.5318 -133.005 130.126 -140.002 169.027 -103.027C207.184 -66.7604 184.064 -4.93609 183.786 47.6642C183.56 90.5241 194.396 136.49 167.587 169.904Z" fill="#F95B29"/>
<path fill-rule="evenodd" clip-rule="evenodd" d="M167.587 169.904C140.859 203.22 95.4182 212.017 52.7695 214.848C12.4902 217.523 -28.9647 210.998 -59.8836 185.008C-90.0881 159.618 -103.872 120.44 -106.357 81.0881C-108.709 43.846 -92.4449 10.5434 -72.9088 -21.226C-49.5 -59.2931 -27.615 -101.511 14.7345 -115.83C65.5318 -133.005 130.126 -140.002 169.027 -103.027C207.184 -66.7604 184.064 -4.93609 183.786 47.6642C183.56 90.5241 194.396 136.49 167.587 169.904Z" fill="white" fill-opacity="0.8"/>
<path d="M77.4297 139.288L14.3381 72.6271C14.0196 72.2892 13.8481 71.839 13.861 71.375C13.874 70.9111 14.0705 70.4711 14.4074 70.1515L55.8258 31.0474C55.993 30.8893 56.1898 30.7657 56.4049 30.6837C56.62 30.6016 56.8491 30.5627 57.0793 30.5691C57.3094 30.5756 57.5361 30.6272 57.7462 30.7211C57.9564 30.8151 58.1459 30.9495 58.3041 31.1166L121.392 97.7818C121.71 98.1197 121.882 98.5699 121.869 99.0339C121.856 99.4978 121.659 99.9377 121.322 100.257L79.9121 139.345C79.7458 139.505 79.5494 139.631 79.3344 139.714C79.1193 139.798 78.8898 139.839 78.659 139.833C78.4282 139.828 78.2008 139.777 77.9898 139.683C77.7788 139.59 77.5884 139.456 77.4297 139.288Z" fill="#F95B29"/>
<g opacity="0.3">
<path d="M77.4306 139.288L14.3391 72.6271C14.0206 72.2892 13.849 71.839 13.862 71.375C13.875 70.9111 14.0715 70.4711 14.4084 70.1515L55.8267 31.0474C55.994 30.8893 56.1908 30.7657 56.4059 30.6837C56.621 30.6016 56.8501 30.5627 57.0803 30.5691C57.3104 30.5756 57.537 30.6272 57.7472 30.7211C57.9574 30.8151 58.1469 30.9495 58.3051 31.1166L121.393 97.7818C121.711 98.1197 121.883 98.5699 121.87 99.0339C121.857 99.4978 121.66 99.9377 121.323 100.257L79.913 139.345C79.7468 139.505 79.5504 139.631 79.3354 139.714C79.1203 139.798 78.8907 139.839 78.66 139.833C78.4292 139.828 78.2017 139.777 77.9907 139.683C77.7798 139.59 77.5894 139.456 77.4306 139.288Z" fill="black"/>
</g>
<path d="M120.928 97.2932L58.7573 31.6052C58.5389 31.3735 58.2769 31.1871 57.9863 31.0568C57.6956 30.9264 57.3821 30.8547 57.0636 30.8456C56.7451 30.8365 56.428 30.8903 56.1304 31.0039C55.8328 31.1175 55.5605 31.2886 55.3293 31.5075L43.5653 42.619C43.449 42.7276 43.3613 42.8632 43.3101 43.0138C43.2589 43.1644 43.2458 43.3253 43.2718 43.4822C44.4499 50.0538 49.1538 55.9292 54.7627 59.8217C61.5373 64.5245 69.5674 67.0041 77.1818 70.1434C84.7962 73.2826 92.4716 77.4194 97.0492 84.2802C101.366 90.7581 102.385 98.7915 104.582 106.267C105.179 108.298 105.926 110.282 106.816 112.204C106.881 112.343 106.978 112.465 107.099 112.56C107.22 112.655 107.362 112.72 107.513 112.749C107.664 112.779 107.82 112.772 107.968 112.729C108.116 112.687 108.252 112.61 108.365 112.505L120.834 100.73C121.067 100.511 121.255 100.248 121.386 99.9567C121.518 99.6652 121.59 99.3505 121.598 99.0309C121.607 98.7114 121.552 98.3932 121.437 98.095C121.322 97.7967 121.149 97.5242 120.928 97.2932Z" fill="#F95B29"/>
<path d="M57.8392 50.7216C57.2767 51.255 56.5267 51.1288 55.7196 50.2615L54.1299 48.5799L57.3908 45.5099L58.8909 47.0978C59.6613 47.9121 59.7061 48.6491 59.2129 49.1336C59.0681 49.277 58.8853 49.3762 58.686 49.4195C58.4867 49.4627 58.2792 49.4483 58.0879 49.3779C58.2028 49.5974 58.2408 49.8491 58.1957 50.0926C58.1507 50.3362 58.0251 50.5577 57.8392 50.7216ZM57.5213 46.7924L56.755 47.5172L57.4561 48.2786C57.8025 48.645 58.1205 48.7224 58.3773 48.4822C58.6341 48.242 58.5689 47.9244 58.2224 47.5579L57.5213 46.7924ZM57.1993 49.891C57.4724 49.6345 57.4072 49.3006 57.0362 48.9097L56.221 48.0343L55.4057 48.7916L56.221 49.6711C56.6041 50.062 56.9221 50.1556 57.1993 49.9073V49.891Z" fill="white"/>
<path d="M60.2124 53.6125L58.7816 52.1019L57.8115 52.4724L57.0859 51.7029L61.7084 50.0742L62.4095 50.8193L60.5344 55.3429L59.7844 54.553L60.2124 53.6125ZM60.5589 52.8348L61.317 51.145L59.5847 51.8047L60.5589 52.8348Z" fill="white"/>
<path d="M66.922 55.6076L63.6611 58.6776L63.0863 58.0506L63.5306 54.5693L61.5536 56.4219L60.8525 55.6768L64.1135 52.6068L64.7046 53.2297L64.2562 56.7069L66.2331 54.8421L66.922 55.6076Z" fill="white"/>
<path d="M66.7958 59.4064H65.9275L65.1123 60.1841L64.3867 59.4309L67.6477 56.3568L68.3529 57.1059L66.8324 58.5392H69.7143L70.5051 59.3535L67.7822 59.3779L67.3338 62.5294L66.5186 61.654L66.7958 59.4064Z" fill="white"/>
<path d="M43.7363 62.8877L43.1901 62.2892L42.3748 63.0302L42.0854 62.7248L42.8721 61.9838L41.2783 60.3022L41.4984 60.0905L44.9754 59.8014L45.2975 60.1434L41.9264 60.4406L43.1493 61.7354L43.8382 61.0799L44.1194 61.3812L43.4306 62.0327L43.9931 62.6271L43.7363 62.8877Z" fill="white"/>
<path d="M45.8832 65.009C45.3818 65.4773 44.6604 65.4813 43.9756 64.7606C43.5901 64.3789 43.3643 63.8651 43.3438 63.3234L43.7269 63.2419C43.7321 63.712 43.9225 64.1611 44.2568 64.4919C44.7256 64.9887 45.2106 65.0416 45.5816 64.6914C45.9525 64.3413 45.9362 63.8771 45.4145 63.3274L45.2106 63.1157L45.4389 62.8999L47.2569 62.7492L45.8139 61.2224L46.087 60.9659L47.9009 62.8836L47.6849 63.0872L45.8221 63.246C46.3927 63.9178 46.3601 64.5652 45.8832 65.009Z" fill="white"/>
<path d="M48.1896 67.4154C47.6801 67.8958 46.9667 67.9162 46.2615 67.1874C45.8757 66.8079 45.6509 66.2947 45.6338 65.7541L46.017 65.6727C46.0253 66.1321 46.2124 66.5703 46.5387 66.8942C47.0156 67.4032 47.517 67.4398 47.8798 67.0937C48.2426 66.7476 48.2874 66.2794 47.5618 65.5098L46.9586 64.8747L48.589 63.6165L50.1339 65.2452L49.8608 65.5017L48.585 64.158L47.5333 64.952L47.8961 65.3592C48.748 66.2224 48.7154 66.8983 48.1896 67.4154Z" fill="white"/>
<path d="M50.6861 70.0131C50.5564 70.134 50.4029 70.2266 50.2354 70.285C50.0679 70.3433 49.8901 70.3662 49.7132 70.352C49.5364 70.3378 49.3645 70.2869 49.2084 70.2027C49.0524 70.1184 48.9156 70.0025 48.807 69.8624C48.0569 69.0685 48.1996 68.1198 49.1412 67.2281C50.1562 66.2712 51.2078 66.3242 51.9742 67.1344C52.2198 67.3702 52.3961 67.6688 52.4837 67.9976L52.1168 68.1076C52.0557 67.8345 51.9137 67.5862 51.7092 67.395C51.1019 66.7517 50.2989 66.7273 49.4877 67.4927C49.4184 67.5579 49.3369 67.6434 49.2553 67.737C49.5011 67.6659 49.7623 67.6685 50.0065 67.7445C50.2508 67.8205 50.4673 67.9666 50.629 68.1646C51.1915 68.755 51.2323 69.5001 50.6861 70.0131ZM50.3926 69.7199C50.8002 69.3494 50.7635 68.8242 50.3274 68.3641C50.2494 68.2603 50.1509 68.1736 50.0381 68.1094C49.9252 68.0451 49.8003 68.0047 49.6712 67.9906C49.542 67.9764 49.4114 67.9889 49.2873 68.0273C49.1632 68.0656 49.0482 68.129 48.9496 68.2134C48.6195 68.5229 48.5665 69.0888 49.0556 69.6019C49.1311 69.7037 49.2273 69.7884 49.3379 69.8504C49.4486 69.9124 49.5711 69.9502 49.6975 69.9613C49.8239 69.9725 49.9512 69.9568 50.071 69.9151C50.1908 69.8735 50.3004 69.807 50.3926 69.7199Z" fill="white"/>
<path d="M55.8956 77.3014L56.1605 75.7053L54.53 75.8763L54.208 75.5343L56.2013 75.3307L56.4907 73.4577L56.8168 73.7997L56.5722 75.3022L58.0886 75.1434L58.4024 75.4773L56.5151 75.6645L56.2094 77.6474L55.8956 77.3014Z" fill="white"/>
<path d="M58.0471 79.5774L58.3121 77.9772L56.6816 78.1483L56.3555 77.8062L58.3487 77.6067L58.6422 75.7338L58.9643 76.0717L58.7237 77.5742L60.236 77.4194L60.554 77.7533L58.6626 77.9406L58.3569 79.9235L58.0471 79.5774Z" fill="white"/>
<path d="M60.2012 81.8494L60.4662 80.2533L58.8357 80.4243L58.5137 80.0823L60.5029 79.8828L60.7963 78.0058L61.1184 78.3478L60.8779 79.8502L62.3942 79.6955L62.7081 80.0253L60.8167 80.2126L60.511 82.1955L60.2012 81.8494Z" fill="white"/>
<path d="M62.3487 84.1092L62.6136 82.5131L60.9832 82.6841L60.6611 82.3421L62.6503 82.1385L62.9438 80.2655L63.2658 80.6075L63.0253 82.11L64.5417 81.9512L64.8556 82.2851L62.9642 82.4724L62.6626 84.4553L62.3487 84.1092Z" fill="white"/>
<path d="M69.7891 91.9797L70.0541 90.3836L68.4236 90.5546L68.1016 90.2126L70.0908 90.013L70.3842 88.136L70.7063 88.478L70.4658 89.9805L71.9821 89.8217L72.296 90.1556L70.4046 90.3429L70.0989 92.3257L69.7891 91.9797Z" fill="white"/>
<path d="M71.9395 94.2557L72.2044 92.6556L70.574 92.8266L70.252 92.4886L72.2411 92.285L72.5346 90.4121L72.8566 90.7541L72.6161 92.2565L74.1325 92.0977L74.4464 92.4316L72.555 92.6189L72.2493 94.6018L71.9395 94.2557Z" fill="white"/>
<path d="M74.0907 96.5317L74.3597 94.9316L72.7293 95.1026L72.4072 94.7606L74.3964 94.5611L74.6899 92.6881L75.0119 93.0261L74.7714 94.5285L76.2878 94.3738L76.6016 94.7036L74.7103 94.8909L74.4086 96.8738L74.0907 96.5317Z" fill="white"/>
<path d="M76.2481 98.8038L76.5131 97.2077L74.8826 97.3787L74.5605 97.0367L76.5497 96.8371L76.8432 94.9601L77.1693 95.3021L76.9248 96.8046L78.4411 96.6458L78.755 96.9797L76.8636 97.167L76.562 99.1498L76.2481 98.8038Z" fill="white"/>
<path d="M85.9081 103.038L82.9243 105.86L82.6309 105.55L85.3456 102.989L84.6812 102.289L84.9543 102.029L85.9081 103.038Z" fill="white"/>
<path d="M86.3188 107.725C85.8215 108.197 85.0959 108.197 84.4111 107.476C84.0257 107.095 83.7998 106.581 83.7793 106.039L84.1625 105.958C84.1701 106.428 84.36 106.878 84.6924 107.212C85.1611 107.704 85.6503 107.761 86.0212 107.411C86.3921 107.061 86.3758 106.597 85.85 106.043L85.6503 105.831L85.8745 105.62L87.6925 105.465L86.2495 103.942L86.5226 103.682L88.3365 105.599L88.1205 105.807L86.2617 105.966C86.8324 106.646 86.8038 107.281 86.3188 107.725Z" fill="white"/>
<path d="M89.0562 110.766L88.4897 110.168L87.707 110.909L87.4135 110.603L88.2002 109.862L86.6064 108.181L86.8306 107.969L90.3036 107.684L90.6256 108.022L87.2546 108.319L88.4774 109.614L89.1663 108.963L89.4516 109.26L88.7587 109.911L89.3253 110.51L89.0562 110.766Z" fill="white"/>
<path d="M90.719 113.551L90.4459 113.808L88.4648 111.715L88.6849 111.511L91.0736 111.601C91.7258 111.625 91.9867 111.499 92.1905 111.308C92.537 110.978 92.5207 110.534 92.0886 110.086C91.9537 109.926 91.7844 109.798 91.5931 109.712C91.4018 109.626 91.1936 109.584 90.9839 109.59V109.182C91.2551 109.179 91.5235 109.236 91.7701 109.349C92.0168 109.461 92.2355 109.627 92.4106 109.834C92.9813 110.441 93.0383 111.112 92.537 111.585C92.2516 111.853 91.9133 111.992 91.1429 111.992L89.1822 111.923L90.719 113.551Z" fill="white"/>
<path d="M32.8578 65.3795C33.0201 65.2445 33.2186 65.16 33.4286 65.1365C33.6385 65.1129 33.8508 65.1514 34.0391 65.2472C34.2274 65.343 34.3834 65.4918 34.4879 65.6753C34.5924 65.8587 34.6407 66.0688 34.6268 66.2794L34.2192 66.255C34.2311 66.1615 34.2219 66.0665 34.1923 65.977C34.1627 65.8875 34.1134 65.8058 34.048 65.7379C33.9913 65.678 33.9233 65.6298 33.8479 65.5962C33.7725 65.5626 33.6913 65.5441 33.6088 65.5418C33.4421 65.5372 33.2805 65.599 33.1594 65.7134C33.0383 65.8279 32.9677 65.9857 32.9631 66.1522C32.9585 66.3186 33.0203 66.4801 33.1349 66.601C33.1993 66.6703 33.2787 66.7239 33.367 66.7578C33.4553 66.7917 33.5502 66.8049 33.6445 66.7965V67.2036C33.4909 67.2105 33.3379 67.1825 33.1967 67.1219C33.0555 67.0612 32.9299 66.9695 32.8292 66.8535C32.7295 66.7574 32.6508 66.6418 32.5978 66.5139C32.5449 66.3861 32.519 66.2487 32.5217 66.1103C32.5244 65.972 32.5556 65.8356 32.6134 65.7099C32.6712 65.5842 32.7544 65.4717 32.8578 65.3795Z" fill="white"/>
<path d="M34.8094 68.2297L34.1816 67.5701L33.774 67.733L33.4561 67.395L35.4942 66.6825L35.7999 67.0082L34.9846 68.9911L34.63 68.6369L34.8094 68.2297ZM34.9602 67.8918L35.2903 67.1507L34.5322 67.4398L34.9602 67.8918Z" fill="white"/>
<path d="M35.9519 70.0538L36.0864 69.4023L35.8133 69.1173L35.4057 69.4919L35.0918 69.1621L36.5185 67.8185L37.1014 68.4333C37.4601 68.8119 37.4886 69.2476 37.1666 69.5367C37.075 69.6322 36.9557 69.6966 36.8255 69.7207C36.6953 69.7448 36.5608 69.7274 36.441 69.6711L36.2861 70.4202L35.9519 70.0538ZM36.816 68.6531L36.5592 68.3844L36.0619 68.8527L36.3187 69.1214C36.5062 69.3209 36.6978 69.3331 36.8527 69.1906C37.0076 69.0481 37.0035 68.8527 36.816 68.6369V68.6531Z" fill="white"/>
<path d="M36.542 70.3958L36.8966 70.2737C36.9309 70.5029 37.0347 70.7161 37.1942 70.8844C37.3776 71.0799 37.5162 71.0961 37.6018 71.0147C37.8668 70.7623 36.9007 70.1108 37.4306 69.61C37.6752 69.382 38.0583 69.3861 38.4415 69.7891C38.6103 69.9586 38.7288 70.1714 38.7839 70.404L38.4374 70.5383C38.3951 70.3518 38.3052 70.1793 38.1766 70.0375C37.989 69.8421 37.8464 69.838 37.7689 69.9194C37.5081 70.1678 38.47 70.8274 37.9483 71.3201C37.7078 71.544 37.3205 71.54 36.9333 71.1328C36.732 70.9318 36.5957 70.6751 36.542 70.3958Z" fill="white"/>
<path d="M40.945 72.4765L39.5183 73.8242L39.2085 73.4944L39.7914 72.9406L39.18 72.2932L38.5971 72.847L38.2832 72.5172L39.7099 71.1735L40.0197 71.4993L39.4572 72.0326L40.0686 72.68L40.6311 72.1466L40.945 72.4765Z" fill="white"/>
<path d="M40.4665 73.4007C40.6143 73.2439 40.8058 73.1351 41.0163 73.0884C41.2267 73.0416 41.4464 73.0591 41.6468 73.1385C41.8471 73.2179 42.019 73.3557 42.1401 73.5338C42.2613 73.712 42.326 73.9223 42.326 74.1377C42.326 74.353 42.2613 74.5634 42.1401 74.7415C42.019 74.9197 41.8471 75.0574 41.6468 75.1368C41.4464 75.2162 41.2267 75.2337 41.0163 75.187C40.8058 75.1402 40.6143 75.0314 40.4665 74.8746C40.3666 74.7796 40.2871 74.6652 40.2328 74.5386C40.1784 74.4119 40.1504 74.2755 40.1504 74.1377C40.1504 73.9999 40.1784 73.8635 40.2328 73.7368C40.2871 73.6101 40.3666 73.4958 40.4665 73.4007ZM41.6241 74.6222C41.6872 74.5691 41.7385 74.5035 41.7749 74.4295C41.8112 74.3556 41.8317 74.2749 41.8352 74.1926C41.8386 74.1102 41.8249 74.0281 41.7949 73.9514C41.7649 73.8746 41.7192 73.805 41.6608 73.7468C41.5775 73.6541 41.4683 73.5882 41.3473 73.5577C41.2263 73.5273 41.099 73.5335 40.9815 73.5756C40.8641 73.6178 40.7619 73.6939 40.688 73.7944C40.6141 73.8948 40.5718 74.015 40.5666 74.1395C40.5614 74.2641 40.5934 74.3873 40.6587 74.4936C40.7239 74.5998 40.8194 74.6843 40.9329 74.7361C41.0464 74.7879 41.1728 74.8047 41.2959 74.7844C41.419 74.7641 41.5333 74.7077 41.6241 74.6222Z" fill="white"/>
<path d="M42.8935 74.5367L43.2033 74.8665L42.0456 75.9658L42.7223 76.6784L42.4532 76.9308L41.4668 75.8885L42.8935 74.5367Z" fill="white"/>
<path d="M44.0544 75.7663L44.6659 76.4137C44.7672 76.5042 44.8486 76.6148 44.9049 76.7383C44.9613 76.8619 44.9914 76.9958 44.9932 77.1315C44.9951 77.2673 44.9688 77.402 44.9159 77.527C44.863 77.6521 44.7847 77.7648 44.6859 77.8581C44.5871 77.9514 44.4701 78.0232 44.3421 78.069C44.2141 78.1147 44.078 78.1335 43.9424 78.124C43.8069 78.1145 43.6747 78.0771 43.5543 78.0139C43.434 77.9508 43.3281 77.8635 43.2433 77.7574L42.6318 77.11L44.0544 75.7663ZM43.496 77.4846C43.5439 77.5602 43.6078 77.6244 43.6833 77.6727C43.7588 77.7209 43.844 77.752 43.9328 77.7637C44.0217 77.7754 44.112 77.7674 44.1974 77.7404C44.2828 77.7134 44.3613 77.6679 44.4272 77.6073C44.493 77.5466 44.5448 77.4722 44.5787 77.3894C44.6126 77.3065 44.6279 77.2172 44.6235 77.1278C44.619 77.0384 44.5949 76.9511 44.553 76.872C44.511 76.793 44.4521 76.7241 44.3805 76.6702L44.0952 76.3689L43.2147 77.1873L43.496 77.4846Z" fill="white"/>
<path d="M45.5311 79.6303L45.2662 79.8828L44.2227 78.7794L45.6493 77.4357L46.6643 78.5106L46.4034 78.759L45.6942 78.0139L45.3844 78.303L46.008 78.9667L45.7512 79.2069L45.1276 78.5473L44.7974 78.8567L45.5311 79.6303Z" fill="white"/>
<path d="M46.3737 81.0635L46.5083 80.4162L46.2352 80.1311L45.8275 80.5057L45.5137 80.1759L46.9403 78.8282L47.5232 79.4471C47.8819 79.8258 47.9105 80.2614 47.5885 80.5505C47.4969 80.646 47.3775 80.7104 47.2474 80.7345C47.1172 80.7586 46.9827 80.7413 46.8629 80.6849L46.708 81.4341L46.3737 81.0635ZM47.2379 79.6629L46.9811 79.3942L46.4879 79.8665L46.7406 80.1352C46.9322 80.3347 47.1197 80.3469 47.2746 80.2004C47.4295 80.0538 47.4254 79.8665 47.2379 79.6629Z" fill="white"/>
<path d="M27.1539 70.4773L27.9121 70.4284C27.8754 70.5653 27.8725 70.7092 27.9038 70.8475C27.935 70.9858 27.9994 71.1144 28.0915 71.2224C28.332 71.4748 28.6132 71.4667 28.9067 71.1817L30.2111 69.9602L29.298 68.9952L29.8075 68.5147L31.3198 70.1108L29.5385 71.7883C28.8578 72.4317 28.2056 72.4031 27.5942 71.7598C27.4263 71.5947 27.2992 71.3929 27.2228 71.1703C27.1464 70.9478 27.1228 70.7105 27.1539 70.4773Z" fill="white"/>
<path d="M29.3331 72.7615C29.4337 72.6664 29.5679 72.6152 29.7062 72.619C29.8446 72.6228 29.9758 72.6814 30.0709 72.7818C30.166 72.8822 30.2173 73.0163 30.2135 73.1545C30.2097 73.2927 30.1511 73.4238 30.0505 73.5188C30.0007 73.5658 29.9422 73.6026 29.8781 73.6271C29.8141 73.6515 29.7459 73.6631 29.6774 73.6612C29.6089 73.6594 29.5414 73.644 29.4789 73.6161C29.4163 73.5881 29.3598 73.5482 29.3127 73.4984C29.2656 73.4487 29.2288 73.3902 29.2043 73.3263C29.1798 73.2623 29.1682 73.1942 29.1701 73.1257C29.172 73.0573 29.1874 72.9899 29.2153 72.9274C29.2433 72.8649 29.2833 72.8085 29.3331 72.7615Z" fill="white"/>
<path d="M36.6443 75.7134L33.0491 77.4072L32.405 76.7273L33.6931 74.3698L31.2474 75.5017L30.6074 74.8258L32.4988 71.3323L33.1224 71.9878L31.7773 74.4308L34.3208 73.2541L34.8752 73.8405L33.5219 76.3038L36.0736 75.1067L36.6443 75.7134Z" fill="white"/>
<path d="M36.9006 75.9862C36.9487 75.9413 37.0057 75.907 37.0679 75.8854C37.1301 75.8638 37.1961 75.8555 37.2617 75.8608C37.3273 75.8662 37.3911 75.8852 37.4489 75.9166C37.5067 75.948 37.5574 75.9911 37.5976 76.0432C37.6473 76.0848 37.6878 76.1362 37.7166 76.1941C37.7454 76.2521 37.7619 76.3155 37.7649 76.3801C37.768 76.4448 37.7576 76.5094 37.7344 76.5698C37.7112 76.6303 37.6757 76.6853 37.6302 76.7313C37.582 76.7784 37.5245 76.8149 37.4614 76.8383C37.3982 76.8618 37.3308 76.8717 37.2635 76.8675C37.1963 76.8633 37.1307 76.845 37.071 76.8138C37.0112 76.7826 36.9587 76.7393 36.9168 76.6865C36.8674 76.6431 36.8275 76.5898 36.7996 76.5302C36.7718 76.4705 36.7566 76.4057 36.7551 76.3399C36.7536 76.2741 36.7657 76.2087 36.7907 76.1478C36.8158 76.087 36.8532 76.0319 36.9006 75.9862ZM36.334 76.658L36.9128 77.2688L34.8013 79.2598L34.2266 78.6491L36.334 76.658Z" fill="white"/>
<path d="M38.2512 77.0815L38.8301 77.6922L35.9196 80.4447L35.3408 79.8339L38.2512 77.0815Z" fill="white"/>
<path d="M39.3616 78.2582L39.9404 78.8689L37.03 81.6173L36.4512 81.0066L39.3616 78.2582Z" fill="white"/>
<path d="M40.2443 79.5163C40.2933 79.4725 40.3508 79.4391 40.4132 79.4181C40.4755 79.3972 40.5415 79.3891 40.6071 79.3945C40.6727 79.3998 40.7365 79.4184 40.7947 79.4492C40.8528 79.4799 40.9041 79.5222 40.9454 79.5733C40.9944 79.6159 41.0342 79.668 41.0624 79.7264C41.0905 79.7849 41.1064 79.8485 41.1091 79.9133C41.1117 79.9781 41.1011 80.0428 41.0779 80.1033C41.0547 80.1639 41.0193 80.2191 40.9739 80.2655C40.8719 80.3465 40.7434 80.3867 40.6133 80.3784C40.4832 80.3701 40.3608 80.3138 40.27 80.2205C40.1791 80.1272 40.1261 80.0035 40.1214 79.8733C40.1166 79.7432 40.1604 79.616 40.2443 79.5163ZM39.6777 80.1922L40.2565 80.803L38.1491 82.794L37.5703 82.1833L39.6777 80.1922Z" fill="white"/>
<path d="M41.6514 84.1091L40.4285 85.2451L39.8864 84.6751L40.1514 84.4267C39.9821 84.452 39.8092 84.4313 39.6507 84.3668C39.4922 84.3023 39.354 84.1965 39.2505 84.0603C38.7818 83.5676 38.7777 83.0139 39.1445 82.6718C39.5114 82.3298 40.0209 82.338 40.6283 82.9772L41.0889 83.4658C41.3538 83.2174 41.3579 82.9161 41.0441 82.5863C40.8376 82.3716 40.5675 82.2289 40.2737 82.1792L40.4938 81.5603C40.9238 81.6658 41.3126 81.8969 41.6106 82.224C42.2384 82.8306 42.2914 83.4862 41.6514 84.1091ZM40.5386 84.0073L40.7546 83.8038L40.347 83.3966C40.078 83.1075 39.8864 83.1197 39.7437 83.25C39.6011 83.3803 39.6133 83.6205 39.8171 83.8363C39.9057 83.9348 40.0235 84.0024 40.1532 84.0295C40.2829 84.0566 40.4179 84.0417 40.5386 83.987V84.0073Z" fill="white"/>
<path d="M45.5458 88.1808L44.323 89.3209L43.7482 88.7101L44.861 87.6596C45.1993 87.338 45.2116 87.0367 44.9792 86.7924C44.7469 86.5481 44.3637 86.4911 43.9846 86.8453L42.9289 87.8469L42.3501 87.2362L43.4629 86.1857C43.8053 85.86 43.8216 85.5668 43.5811 85.3144C43.3406 85.0619 42.9697 85.0171 42.5906 85.3754L41.5593 86.3852L40.9805 85.7745L43.0879 83.7834L43.6422 84.3657L43.3977 84.5978C43.5685 84.5955 43.7378 84.6309 43.8934 84.7012C44.0491 84.7716 44.1874 84.8753 44.2985 85.0049C44.4341 85.134 44.534 85.296 44.5882 85.4751C44.6425 85.6542 44.6495 85.8443 44.6083 86.0269C44.8075 86.0127 45.0073 86.0442 45.1924 86.119C45.3775 86.1938 45.543 86.3099 45.6763 86.4585C46.1369 86.9593 46.1858 87.5864 45.5458 88.1808Z" fill="white"/>
<path d="M44.8574 89.4919L45.4892 89.2802C45.565 89.627 45.7342 89.9466 45.9784 90.2044C46.2433 90.4854 46.4186 90.522 46.5368 90.4121C46.8792 90.0864 45.314 89.1458 46.1659 88.3478C46.5735 87.9732 47.189 88.0668 47.7719 88.6816C48.043 88.9583 48.243 89.2963 48.3548 89.667L47.7271 89.8746C47.6616 89.5903 47.5208 89.3287 47.3195 89.1173C47.0627 88.8445 46.8629 88.8079 46.7529 88.9096C46.3941 89.2517 47.9472 90.1963 47.1156 90.978C46.708 91.3486 46.1007 91.2508 45.4852 90.6197C45.1793 90.3062 44.9626 89.9169 44.8574 89.4919Z" fill="white"/>
<path d="M69.2133 113.038C70.1182 112.183 71.1047 112.199 71.7446 112.871C72.3846 113.543 72.3438 114.533 71.4348 115.388C70.5258 116.243 69.5475 116.23 68.9035 115.555C68.2595 114.879 68.3084 113.893 69.2133 113.038ZM70.8438 114.748C71.4674 114.162 71.5204 113.698 71.2188 113.38C70.9172 113.063 70.4565 113.091 69.8329 113.682C69.2092 114.272 69.1562 114.732 69.4538 115.046C69.7514 115.359 70.2079 115.339 70.8316 114.748H70.8438Z" fill="white"/>
<path d="M73.3529 118.437C72.7945 118.967 72.0078 118.844 71.4575 118.262C70.7441 117.505 70.7727 116.585 71.6572 115.75C72.607 114.854 73.6953 114.936 74.4576 115.75C74.7193 116.01 74.9053 116.337 74.9956 116.695L74.3067 116.898C74.2557 116.654 74.1337 116.43 73.9562 116.255C73.8635 116.144 73.7478 116.054 73.6171 115.991C73.4863 115.929 73.3435 115.896 73.1986 115.894C73.0537 115.892 72.9102 115.921 72.7778 115.98C72.6454 116.039 72.5273 116.126 72.4317 116.234C72.7741 116.262 73.0919 116.423 73.3162 116.682C73.4364 116.794 73.5329 116.928 73.5999 117.078C73.667 117.227 73.7034 117.388 73.7068 117.552C73.7102 117.716 73.6807 117.878 73.6199 118.031C73.5591 118.183 73.4683 118.321 73.3529 118.437ZM72.7415 117.851C72.8002 117.795 72.8464 117.728 72.8769 117.653C72.9075 117.578 72.9217 117.497 72.9186 117.416C72.9155 117.335 72.8952 117.256 72.859 117.183C72.8229 117.111 72.7717 117.047 72.7089 116.996C72.6597 116.931 72.5978 116.878 72.527 116.838C72.4563 116.799 72.3781 116.774 72.2974 116.766C72.2168 116.758 72.1353 116.767 72.0581 116.792C71.9809 116.817 71.9097 116.857 71.8488 116.91C71.7907 116.968 71.7456 117.038 71.7163 117.115C71.687 117.191 71.6743 117.273 71.6789 117.355C71.6835 117.437 71.7054 117.517 71.7431 117.59C71.7808 117.662 71.8335 117.727 71.8977 117.778C71.9459 117.843 72.0073 117.896 72.0779 117.936C72.1484 117.975 72.2266 117.999 72.3071 118.006C72.3877 118.013 72.4688 118.003 72.5451 117.976C72.6214 117.949 72.6911 117.907 72.7496 117.851H72.7415Z" fill="white"/>
<path d="M77.0233 117.415L77.541 117.957L72.621 120.155L72.1074 119.61L77.0233 117.415Z" fill="white"/>
<path d="M76.6564 122.615L76.1387 123.103L74.1699 121.031L74.5775 120.644L76.579 120.758C76.7149 120.785 76.8549 120.781 76.9893 120.748C77.1238 120.715 77.2494 120.653 77.3575 120.567C77.5736 120.363 77.5573 120.094 77.2801 119.805C77.1806 119.69 77.0539 119.602 76.9116 119.548C76.7693 119.494 76.6158 119.476 76.4648 119.496L76.3262 118.751C76.6132 118.718 76.9039 118.756 77.1727 118.861C77.4415 118.967 77.6799 119.138 77.867 119.357C78.4459 119.972 78.5152 120.673 78.0179 121.145C77.7529 121.397 77.439 121.552 76.7176 121.503L75.5273 121.434L76.6564 122.615Z" fill="white"/>
<path d="M79.3037 125.29L78.8961 124.846L78.3213 125.388L77.7343 124.769L78.3132 124.227L76.915 122.749L77.343 122.342L80.3064 121.992L80.9383 122.655L78.1501 123.014L78.8472 123.751L79.3608 123.266L79.9273 123.865L79.4137 124.349L79.8214 124.797L79.3037 125.29Z" fill="white"/>
<path d="M92.1785 91.377C93.7275 88.9992 93.1201 85.8396 91.0413 83.9096C90.4089 83.3138 89.6762 82.8341 88.8768 82.4927C86.8917 81.6784 84.2626 82.2688 83.219 84.1499C82.3671 85.6849 82.7095 87.6026 83.3087 89.2516C83.9324 90.9821 84.9392 92.7492 86.6553 93.421C88.3714 94.0928 90.2913 93.478 91.5223 92.1995C91.7687 91.9485 91.9886 91.6729 92.1785 91.377Z" fill="#F95B29"/>
<path d="M129.984 92.3584H25.7437C21.8175 92.3584 18.6348 95.5376 18.6348 99.4594V171.133C18.6348 175.054 21.8175 178.234 25.7437 178.234H129.984C133.911 178.234 137.093 175.054 137.093 171.133V99.4594C137.093 95.5376 133.911 92.3584 129.984 92.3584Z" fill="#F95B29"/>
<path d="M137.093 99.4593C137.093 99.4593 137.093 99.3738 137.093 99.2028C137.085 98.9476 137.061 98.6933 137.02 98.4414C136.877 97.4501 136.521 96.5014 135.976 95.6604C135.577 95.0418 135.088 94.486 134.525 94.0114C133.837 93.4483 133.051 93.0176 132.206 92.7411C131.977 92.6637 131.737 92.6189 131.496 92.5497C131.256 92.4805 130.999 92.4723 130.742 92.4316L129.956 92.395H125.561L83.0588 92.4275H53.7101H37.3563H26.6318C25.9081 92.3986 25.1833 92.4395 24.4674 92.5497C23.0259 92.814 21.7048 93.5265 20.6928 94.5855C20.1818 95.113 19.7592 95.7193 19.4414 96.3811C19.1138 97.0426 18.8988 97.754 18.8055 98.4862C18.7352 99.2304 18.712 99.9784 18.7362 100.726V112.204C18.7362 118.409 18.7362 124.737 18.7362 131.19V171.092C18.7387 172.795 19.3585 174.439 20.4808 175.721C21.5879 176.996 23.123 177.823 24.7976 178.046C25.6325 178.118 26.4709 178.142 27.3085 178.115H91.7778H125.468H129.389C130.029 178.135 130.669 178.093 131.301 177.989C131.922 177.87 132.524 177.667 133.09 177.387C133.371 177.249 133.643 177.094 133.905 176.922C134.16 176.743 134.405 176.55 134.639 176.344C135.333 175.734 135.899 174.993 136.302 174.162C136.706 173.332 136.94 172.429 136.991 171.507C137.032 166.621 136.991 161.922 137.016 157.444C137.016 139.528 137.044 125.017 137.052 114.993C137.052 109.98 137.052 106.092 137.073 103.449C137.073 102.134 137.073 101.129 137.073 100.449C137.073 99.7687 137.073 99.4267 137.073 99.4267C137.073 99.4267 137.073 99.7728 137.073 100.449C137.073 101.125 137.073 102.134 137.073 103.449C137.073 106.092 137.073 109.964 137.093 114.993C137.093 125.017 137.093 139.52 137.126 157.444C137.126 161.922 137.154 166.617 137.126 171.515C137.057 172.771 136.658 173.986 135.968 175.037C135.624 175.566 135.213 176.048 134.745 176.47C134.505 176.682 134.254 176.879 133.991 177.061C133.729 177.236 133.457 177.395 133.176 177.537C132.597 177.827 131.981 178.035 131.346 178.156C130.703 178.264 130.052 178.308 129.401 178.286H125.48H91.79H54.5579H27.2922C26.445 178.313 25.597 178.288 24.7527 178.213C23.0275 177.987 21.4452 177.137 20.3056 175.823C19.1549 174.506 18.5181 172.819 18.512 171.071C18.512 157.395 18.512 144.048 18.512 131.169V112.204C18.512 109.104 18.512 106.036 18.512 103.002V100.734C18.4877 99.9769 18.5122 99.2194 18.5854 98.4658C18.6818 97.7136 18.9036 96.9828 19.2417 96.3037C19.5674 95.6216 20.0025 94.9973 20.5298 94.4552C21.0517 93.919 21.6507 93.4634 22.307 93.1034C22.9667 92.7536 23.6759 92.5065 24.4103 92.3705L24.9606 92.285L25.5109 92.2565C25.8818 92.2362 26.2446 92.2565 26.6074 92.2565H53.6856H83.0343L125.537 92.2932H129.911L130.706 92.3339C130.962 92.3787 131.219 92.4072 131.464 92.4601C131.708 92.513 131.949 92.5741 132.177 92.6555C133.029 92.9357 133.821 93.372 134.513 93.9422C135.079 94.4212 135.569 94.9826 135.968 95.6075C136.51 96.4556 136.861 97.4115 136.995 98.4088C137.037 98.6619 137.059 98.9178 137.06 99.1743C137.093 99.3738 137.093 99.4593 137.093 99.4593Z" fill="black"/>
<path d="M132.944 97.6516C133.753 97.5103 134.581 97.5103 135.39 97.6516C134.581 97.7929 133.753 97.7929 132.944 97.6516Z" fill="#263238"/>
<path d="M122.965 97.6516C124.625 97.5103 126.294 97.5103 127.954 97.6516C126.294 97.7929 124.625 97.7929 122.965 97.6516Z" fill="#263238"/>
<path d="M112.99 97.6516C114.649 97.5102 116.317 97.5102 117.975 97.6516C116.317 97.793 114.649 97.793 112.99 97.6516Z" fill="#263238"/>
<path d="M103.013 97.6516C104.673 97.5103 106.342 97.5103 108.002 97.6516C106.342 97.7929 104.673 97.7929 103.013 97.6516Z" fill="black"/>
<path d="M93.0371 97.6516C94.6958 97.5102 96.3636 97.5102 98.0223 97.6516C96.3636 97.793 94.6958 97.793 93.0371 97.6516Z" fill="black"/>
<path d="M83.0586 97.6516C84.7187 97.5103 86.3878 97.5103 88.0479 97.6516C86.3878 97.7929 84.7187 97.7929 83.0586 97.6516Z" fill="black"/>
<path d="M73.085 97.6516C74.7437 97.5102 76.4114 97.5102 78.0702 97.6516C76.4114 97.793 74.7437 97.793 73.085 97.6516Z" fill="black"/>
<path d="M63.1055 97.6516C64.7656 97.5103 66.4347 97.5103 68.0948 97.6516C66.4347 97.7929 64.7656 97.7929 63.1055 97.6516Z" fill="black"/>
<path d="M53.127 97.6516C54.787 97.5103 56.4561 97.5103 58.1162 97.6516C56.4561 97.7929 54.787 97.7929 53.127 97.6516Z" fill="black"/>
<path d="M43.1533 97.6516C43.9764 97.5475 44.8068 97.5121 45.6357 97.5456C46.4688 97.5114 47.3032 97.5468 48.1304 97.6516C47.3034 97.7588 46.4688 97.7943 45.6357 97.7576C44.8068 97.7936 43.9762 97.7581 43.1533 97.6516Z" fill="black"/>
<path d="M33.1738 97.6516C34.001 97.5468 34.8354 97.5114 35.6685 97.5456C36.5015 97.5114 37.336 97.5468 38.1631 97.6516C37.3362 97.7588 36.5015 97.7943 35.6685 97.7576C34.8354 97.7943 34.0008 97.7588 33.1738 97.6516Z" fill="black"/>
<path d="M25.7441 100.094C25.6367 99.2848 25.6012 98.4673 25.6381 97.6515L25.7441 97.5456H26.6939L27.4724 97.57C27.7138 97.5612 27.9552 97.5859 28.1898 97.6433C27.9557 97.7036 27.714 97.7296 27.4724 97.7207L26.6939 97.741H26.2373H25.7441L25.8501 97.6352C25.8854 98.4565 25.8499 99.2793 25.7441 100.094Z" fill="black"/>
<path d="M25.744 109.227C25.6368 108.471 25.6013 107.706 25.638 106.943C25.6014 106.181 25.6369 105.418 25.744 104.663C25.8487 105.418 25.8842 106.181 25.85 106.943C25.8842 107.706 25.8488 108.471 25.744 109.227Z" fill="black"/>
<path d="M25.7437 118.36C25.6024 116.842 25.6024 115.314 25.7437 113.796C25.885 115.314 25.885 116.842 25.7437 118.36Z" fill="black"/>
<path d="M25.7437 127.493C25.6024 125.973 25.6024 124.444 25.7437 122.924C25.885 124.444 25.885 125.973 25.7437 127.493Z" fill="#263238"/>
<path d="M25.7437 136.633C25.6024 135.114 25.6024 133.585 25.7437 132.065C25.885 133.585 25.885 135.114 25.7437 136.633Z" fill="#263238"/>
<path d="M25.7437 145.754C25.6024 144.236 25.6024 142.708 25.7437 141.19C25.885 142.708 25.885 144.236 25.7437 145.754Z" fill="#263238"/>
<path d="M25.7437 154.887C25.6024 153.369 25.6024 151.841 25.7437 150.322C25.885 151.841 25.885 153.369 25.7437 154.887Z" fill="black"/>
<path d="M25.7437 164.019C25.6024 162.501 25.6024 160.973 25.7437 159.455C25.885 160.973 25.885 162.501 25.7437 164.019Z" fill="black"/>
<path d="M28.1903 171.031C27.3796 171.135 26.5614 171.171 25.7446 171.137C25.5326 170.925 25.6834 171.076 25.6386 171.027V170.542C25.6386 170.383 25.6386 170.233 25.6386 170.082C25.6386 169.813 25.6386 169.557 25.6386 169.304C25.6269 169.064 25.653 168.824 25.7161 168.592C25.7738 168.825 25.7985 169.065 25.7894 169.304C25.7894 169.557 25.7894 169.813 25.8139 170.082C25.8139 170.233 25.8139 170.383 25.8139 170.542C25.8139 170.62 25.8139 170.701 25.8139 170.782V171.027C25.765 170.982 25.9199 171.137 25.7079 170.925C26.5369 170.886 27.3677 170.922 28.1903 171.031Z" fill="black"/>
<path d="M38.0204 171.031C37.2095 171.135 36.3914 171.17 35.5746 171.137C34.7579 171.17 33.9397 171.135 33.1289 171.031C33.9395 170.924 34.7579 170.889 35.5746 170.925C36.3914 170.889 37.2098 170.924 38.0204 171.031Z" fill="black"/>
<path d="M47.8553 171.031C47.0445 171.135 46.2264 171.17 45.4096 171.137C44.5928 171.17 43.7747 171.135 42.9639 171.031C43.7745 170.924 44.5928 170.889 45.4096 170.925C46.2264 170.889 47.0447 170.924 47.8553 171.031Z" fill="black"/>
<path d="M57.6864 171.031C56.0508 171.172 54.4061 171.172 52.7705 171.031C54.4061 170.89 56.0508 170.89 57.6864 171.031Z" fill="black"/>
<path d="M67.5165 171.031C65.8809 171.172 64.2362 171.172 62.6006 171.031C64.2362 170.89 65.8809 170.89 67.5165 171.031Z" fill="black"/>
<path d="M77.3505 171.031C75.7149 171.172 74.0702 171.172 72.4346 171.031C74.0702 170.89 75.7149 170.89 77.3505 171.031Z" fill="black"/>
<path d="M87.1806 171.031C85.545 171.172 83.9002 171.172 82.2646 171.031C83.9002 170.89 85.545 170.89 87.1806 171.031Z" fill="black"/>
<path d="M96.995 171.031C95.3594 171.172 93.7147 171.172 92.0791 171.031C93.7147 170.89 95.3594 170.89 96.995 171.031Z" fill="black"/>
<path d="M106.846 171.031C105.21 171.172 103.565 171.172 101.93 171.031C103.565 170.89 105.21 170.89 106.846 171.031Z" fill="black"/>
<path d="M116.676 171.031C115.04 171.172 113.395 171.172 111.76 171.031C113.395 170.89 115.04 170.89 116.676 171.031Z" fill="black"/>
<path d="M126.512 171.031C124.876 171.172 123.231 171.172 121.596 171.031C123.231 170.89 124.876 170.89 126.512 171.031Z" fill="black"/>
<path d="M133.872 171.031C133.062 171.172 132.235 171.172 131.426 171.031C132.235 170.89 133.062 170.89 133.872 171.031Z" fill="black"/>
<g opacity="0.3">
<path d="M59.4931 139.989C59.4931 139.989 59.5175 144.06 58.2702 146.503C57.0229 148.946 56.6397 149.915 54.031 150.86C51.4222 151.804 18.6006 155.408 18.6006 155.408V144.345L59.4931 139.989Z" fill="black"/>
</g>
<g opacity="0.3">
<path d="M58.917 124.638C58.917 124.638 59.292 120.481 48.8528 118.938C36.9136 117.175 18.6318 115.009 18.6318 115.009V122.871L58.917 124.638Z" fill="black"/>
</g>
<path d="M53.6777 120.868H19.7188C16.4973 120.868 13.8857 123.477 13.8857 126.695V141.882C13.8857 145.1 16.4973 147.708 19.7188 147.708H53.6777C56.8992 147.708 59.5107 145.1 59.5107 141.882V126.695C59.5107 123.477 56.8992 120.868 53.6777 120.868Z" fill="#F95B29"/>
<path d="M19.719 147.704C19.719 147.704 19.6008 147.704 19.3725 147.704C19.0305 147.691 18.6906 147.645 18.3575 147.566C17.8128 147.443 17.2893 147.24 16.8045 146.963C16.1404 146.589 15.5571 146.086 15.0884 145.485C14.4946 144.732 14.0957 143.844 13.9267 142.9C13.8418 142.361 13.809 141.816 13.8289 141.271C13.8289 140.709 13.8289 140.123 13.8289 139.516C13.8289 137.094 13.8289 134.337 13.8289 131.287C13.8289 129.761 13.8289 128.168 13.8289 126.499C13.8563 125.619 14.0806 124.756 14.4855 123.974C14.8904 123.192 15.4655 122.511 16.1686 121.98C16.9076 121.412 17.7734 121.032 18.6918 120.872C19.1577 120.795 19.63 120.762 20.1021 120.774H27.4393H53.7064C54.5912 120.772 55.4652 120.969 56.2638 121.35C57.0625 121.73 57.7653 122.285 58.3207 122.973C59.056 123.873 59.5072 124.972 59.6169 126.129C59.6617 126.703 59.6454 127.261 59.6495 127.818C59.6495 128.934 59.6495 130.04 59.6495 131.137V137.598C59.6495 138.653 59.6495 139.699 59.6495 140.73C59.6495 141.251 59.6699 141.756 59.6495 142.277C59.6346 142.535 59.6033 142.792 59.5557 143.046C59.5003 143.297 59.4322 143.544 59.3519 143.787C59.02 144.741 58.4502 145.593 57.6962 146.265C56.9423 146.937 56.0292 147.406 55.0434 147.627C54.8079 147.681 54.5698 147.723 54.33 147.753C54.0896 147.774 53.8491 147.782 53.6086 147.79H49.4712H39.4845L25.0221 147.753L21.0886 147.733H20.0695H19.719C19.719 147.733 19.8372 147.733 20.0695 147.733H21.0886L25.0221 147.712L39.4845 147.68H49.4712H52.2063C53.1357 147.655 54.0855 147.757 54.9986 147.517C55.9438 147.291 56.8164 146.83 57.5349 146.177C58.2534 145.523 58.7944 144.698 59.1074 143.779C59.4579 142.839 59.409 141.817 59.409 140.782V137.651C59.409 135.542 59.409 133.384 59.409 131.19V127.871C59.409 127.313 59.409 126.747 59.3805 126.202C59.2706 125.086 58.8355 124.027 58.1291 123.156C57.7735 122.725 57.3623 122.343 56.9062 122.02C56.4325 121.709 55.9181 121.463 55.3776 121.291C54.8304 121.132 54.2641 121.047 53.6942 121.039H27.4271H20.0899C19.6274 121.027 19.1647 121.058 18.7081 121.133C17.8188 121.287 16.9798 121.652 16.2624 122.199C15.5785 122.714 15.0186 123.375 14.6236 124.134C14.2287 124.892 14.0086 125.73 13.9797 126.585C13.9593 128.242 13.9797 129.842 13.9797 131.369C13.9797 134.418 13.9797 137.175 13.9797 139.598C13.9797 140.204 13.9797 140.791 13.9797 141.353C13.9591 141.89 13.9892 142.429 14.0694 142.961C14.265 144.071 14.7789 145.1 15.5488 145.924C16.3186 146.748 17.3113 147.331 18.4064 147.602C18.7366 147.685 19.0736 147.737 19.4133 147.757L19.719 147.704Z" fill="black"/>
<path d="M45.7676 145.054C51.1615 145.054 55.5342 140.686 55.5342 135.298C55.5342 129.91 51.1615 125.542 45.7676 125.542C40.3736 125.542 36.001 129.91 36.001 135.298C36.001 140.686 40.3736 145.054 45.7676 145.054Z" fill="black"/>
<path d="M48.2686 143.266C49.0947 142.96 49.8783 142.55 50.6001 142.045C51.3681 141.482 52.0351 140.794 52.573 140.009C53.2427 139.056 53.686 137.964 53.8689 136.814C54.0519 135.665 53.9697 134.489 53.6288 133.376C53.3623 132.463 52.9404 131.602 52.3814 130.831C51.8547 130.127 51.238 129.495 50.5472 128.95C50.5472 128.95 50.6083 128.975 50.7061 129.04C50.857 129.134 51.0026 129.236 51.1423 129.345C51.6556 129.749 52.1133 130.219 52.5037 130.742C53.0897 131.517 53.534 132.39 53.8163 133.319C54.1788 134.458 54.2695 135.667 54.0813 136.847C53.893 138.028 53.431 139.148 52.732 140.119C52.1774 140.912 51.4875 141.601 50.6939 142.155C50.1611 142.531 49.5797 142.834 48.9656 143.054C48.8005 143.118 48.6317 143.171 48.4601 143.213C48.4003 143.243 48.3353 143.261 48.2686 143.266Z" fill="#FAFAFA"/>
<path d="M152.026 101.756C152.026 101.756 151.998 99.0481 151.88 99.0236L146.32 100.265C146.258 100.616 145.557 105.062 145.676 105.493L151.949 107.232C151.949 107.232 152.026 101.914 152.026 101.756Z" fill="#FFBE9D"/>
<path d="M152.026 106.821C152.044 106.783 152.052 106.741 152.051 106.699C152.116 106.092 152.079 103.441 151.753 103.331C151.427 103.221 150.485 103.409 150.424 103.759C150.363 104.109 150.575 107.09 150.575 107.09C150.575 107.09 150.636 107.558 151.427 107.672C151.924 107.725 152.026 106.821 152.026 106.821Z" fill="#FFBE9D"/>
<path d="M150.445 107.774C150.463 107.735 150.471 107.693 150.47 107.651C150.535 107.045 150.498 104.394 150.172 104.28C149.846 104.166 148.904 104.362 148.843 104.712C148.782 105.062 148.994 108.042 148.994 108.042C148.994 108.042 149.055 108.511 149.846 108.625C150.335 108.694 150.445 107.774 150.445 107.774Z" fill="#FFBE9D"/>
<path d="M148.889 108.246C148.889 108.246 148.91 108.197 148.918 108.124C148.983 107.517 148.942 104.866 148.62 104.756C148.298 104.647 147.349 104.838 147.287 105.188C147.226 105.538 147.438 108.515 147.438 108.515C147.438 108.515 147.499 108.987 148.29 109.101C148.767 109.17 148.889 108.246 148.889 108.246Z" fill="#FFBE9D"/>
<path d="M147.339 108.694C147.339 108.694 147.339 108.645 147.367 108.572C147.433 107.965 147.392 105.314 147.07 105.204C146.748 105.094 145.802 105.286 145.737 105.632C145.672 105.978 145.888 108.963 145.888 108.963C145.888 108.963 145.953 109.431 146.744 109.545C147.233 109.618 147.339 108.694 147.339 108.694Z" fill="#FFBE9D"/>
<path d="M150.421 104.533C150.516 104.956 150.557 105.39 150.543 105.823C150.586 106.248 150.572 106.676 150.503 107.098C150.408 106.674 150.367 106.241 150.38 105.807C150.338 105.382 150.352 104.954 150.421 104.533Z" fill="#EB996E"/>
<path d="M148.858 104.524C148.965 105.129 149.016 105.743 149.009 106.357C149.06 106.969 149.053 107.586 148.988 108.197C148.886 107.592 148.837 106.979 148.842 106.365C148.793 105.752 148.798 105.136 148.858 104.524Z" fill="#EB996E"/>
<g opacity="0.78">
<path d="M147.273 104.655C147.375 105.26 147.424 105.873 147.419 106.487C147.474 107.099 147.474 107.715 147.419 108.327C147.314 107.722 147.264 107.109 147.268 106.495C147.216 105.883 147.218 105.267 147.273 104.655Z" fill="#EB996E"/>
</g>
<path d="M146.271 100.396C146.271 100.396 144.066 105.404 144.388 105.717C144.811 106.027 145.266 106.29 145.745 106.503L146.271 100.396Z" fill="#FFBE9D"/>
<path d="M134.094 33.2461L132.463 51.9757L123.088 51.2265C123.027 50.1312 123.108 45.8926 123.108 45.8926C123.108 45.8926 119.199 45.2859 119.151 41.3853C119.13 39.492 119.399 35.575 119.684 32.0449C119.837 30.1638 120.72 28.417 122.145 27.1781C123.571 25.9393 125.425 25.3069 127.311 25.4163C128.276 25.4726 129.219 25.7214 130.086 26.1481C130.953 26.5748 131.725 27.1708 132.357 27.9007C132.99 28.6306 133.469 29.4797 133.767 30.3978C134.066 31.3159 134.177 32.2844 134.094 33.2461Z" fill="#FFBE9D"/>
<path d="M123.087 45.8356C124.891 45.8687 126.663 45.364 128.178 44.3861C128.178 44.3861 126.956 47.1955 123.079 46.8291L123.087 45.8356Z" fill="black" fill-opacity="0.16"/>
<path d="M120.703 34.7811C120.703 34.926 120.759 35.0653 120.859 35.17C120.959 35.2747 121.096 35.3367 121.241 35.343C121.312 35.3491 121.384 35.3408 121.451 35.3188C121.519 35.2967 121.581 35.2612 121.635 35.2145C121.689 35.1677 121.732 35.1107 121.763 35.0467C121.795 34.9827 121.812 34.9132 121.816 34.8422C121.819 34.6967 121.765 34.5557 121.665 34.4498C121.565 34.3439 121.428 34.2815 121.282 34.2762C121.211 34.2707 121.139 34.2794 121.071 34.3019C121.003 34.3244 120.94 34.3602 120.886 34.4072C120.832 34.4542 120.789 34.5115 120.757 34.5757C120.726 34.6399 120.707 34.7097 120.703 34.7811Z" fill="black"/>
<path d="M120.498 34.0278C120.567 34.1011 120.991 33.7876 121.59 33.7917C122.189 33.7957 122.629 34.093 122.695 34.0197C122.76 33.9464 122.658 33.8568 122.466 33.7143C122.205 33.5356 121.895 33.4404 121.578 33.4415C121.266 33.4436 120.963 33.5417 120.71 33.7224C120.526 33.8487 120.465 33.979 120.498 34.0278Z" fill="black"/>
<path d="M126.613 34.7811C126.613 34.928 126.671 35.0691 126.774 35.1741C126.877 35.2792 127.017 35.3398 127.164 35.343C127.234 35.3474 127.304 35.3379 127.37 35.315C127.436 35.2922 127.497 35.2564 127.549 35.2098C127.602 35.1633 127.644 35.1068 127.675 35.0437C127.705 34.9806 127.722 34.9121 127.726 34.8422C127.729 34.6967 127.675 34.5557 127.575 34.4498C127.475 34.3439 127.338 34.2815 127.192 34.2762C127.121 34.2707 127.049 34.2794 126.981 34.3019C126.913 34.3244 126.85 34.3602 126.797 34.4072C126.743 34.4542 126.699 34.5115 126.667 34.5757C126.636 34.6399 126.617 34.7097 126.613 34.7811Z" fill="black"/>
<path d="M126.396 34.1255C126.465 34.1988 126.889 33.8853 127.488 33.8853C128.087 33.8853 128.532 34.1866 128.597 34.1133C128.662 34.04 128.556 33.9505 128.365 33.812C128.105 33.6324 127.796 33.5372 127.48 33.5392C127.168 33.536 126.863 33.6346 126.612 33.8202C126.428 33.9627 126.347 34.093 126.396 34.1255Z" fill="black"/>
<path d="M124.22 38.5718C123.904 38.4741 123.577 38.4153 123.246 38.3967C123.091 38.3967 122.949 38.3478 122.92 38.2461C122.907 38.0873 122.943 37.9283 123.022 37.79L123.478 36.6255C124.106 34.9643 124.563 33.6003 124.493 33.5759C124.424 33.5514 123.862 34.8747 123.234 36.536C123.083 36.9431 122.936 37.3503 122.798 37.7086C122.703 37.8944 122.675 38.1074 122.72 38.3112C122.744 38.3644 122.779 38.4119 122.822 38.4506C122.866 38.4892 122.917 38.518 122.973 38.5351C123.059 38.5559 123.146 38.5682 123.234 38.5718C123.561 38.613 123.893 38.613 124.22 38.5718Z" fill="black"/>
<path d="M125.984 38.9871C125.886 38.9871 125.886 39.6304 125.328 40.0946C124.769 40.5588 124.076 40.5018 124.072 40.575C124.068 40.6483 124.227 40.7013 124.521 40.7094C124.902 40.7134 125.273 40.5837 125.568 40.343C125.854 40.1129 126.037 39.7791 126.078 39.4146C126.102 39.1418 126.029 38.983 125.984 38.9871Z" fill="black"/>
<path d="M126.242 31.7762C126.303 31.9391 126.903 31.8617 127.608 31.9472C128.313 32.0327 128.879 32.2241 128.973 32.0775C129.014 32.0042 128.916 31.8536 128.688 31.6948C128.381 31.5015 128.035 31.3805 127.675 31.341C127.315 31.3015 126.95 31.3445 126.609 31.4668C126.348 31.5848 126.218 31.6988 126.242 31.7762Z" fill="black"/>
<path d="M120.718 32.277C120.824 32.4154 121.235 32.277 121.733 32.277C122.23 32.277 122.654 32.3706 122.752 32.2281C122.792 32.1589 122.727 32.0205 122.544 31.8943C122.297 31.7414 122.011 31.6645 121.721 31.6732C121.431 31.6819 121.15 31.7758 120.913 31.9431C120.73 32.0693 120.673 32.2118 120.718 32.277Z" fill="black"/>
<path d="M134.907 30.8356C134.683 32.729 134.165 35.1272 134.015 37.0653C134.017 37.2458 133.969 37.4235 133.876 37.5783C133.599 37.9448 132.934 38.7428 132.596 38.4252C131.781 37.6597 131.455 35.518 131.288 34.4065C131.12 33.2949 131.153 32.163 131.002 31.0474V30.97C130.891 30.1891 130.484 29.4806 129.865 28.9912C129.724 28.8913 129.571 28.8106 129.408 28.751C128.259 28.3438 126.347 29.093 125.202 29.5083C124.615 29.7241 124.04 29.9887 123.469 30.2493C122.827 30.5516 122.116 30.6795 121.408 30.6202C120.701 30.5608 120.021 30.3164 119.438 29.9114C118.741 29.4065 118.68 27.8145 118.986 26.8088C119.801 24.093 123.229 23.1443 127.619 24.1948C132.009 25.2453 135.356 26.935 134.907 30.8356Z" fill="black"/>
<path d="M132.757 35.0132C132.822 34.9847 135.439 34.1988 135.353 36.8861C135.267 39.5734 132.606 38.922 132.602 38.8446C132.598 38.7672 132.757 35.0132 132.757 35.0132Z" fill="#FFBE9D"/>
<path d="M133.452 37.8592C133.452 37.8592 133.497 37.8918 133.574 37.9325C133.686 37.9776 133.81 37.9776 133.921 37.9325C134.097 37.8291 134.242 37.6806 134.342 37.5024C134.442 37.3242 134.492 37.1227 134.488 36.9187C134.501 36.6894 134.463 36.4599 134.377 36.2469C134.356 36.1627 134.313 36.0853 134.254 36.0214C134.195 35.9575 134.121 35.909 134.039 35.8804C133.986 35.8648 133.93 35.8681 133.879 35.8896C133.829 35.9112 133.787 35.9497 133.762 35.9985C133.721 36.0718 133.737 36.1247 133.721 36.1288C133.705 36.1329 133.668 36.084 133.693 35.9741C133.709 35.9085 133.748 35.8507 133.803 35.8112C133.879 35.7583 133.972 35.7365 134.064 35.7501C134.173 35.7757 134.274 35.8288 134.356 35.9044C134.439 35.9799 134.501 36.0754 134.536 36.1817C134.641 36.4156 134.687 36.6712 134.671 36.9268C134.675 37.1644 134.61 37.3979 134.483 37.599C134.356 37.8 134.174 37.9598 133.958 38.0587C133.888 38.0762 133.815 38.0776 133.744 38.0628C133.673 38.048 133.607 38.0174 133.55 37.9732C133.452 37.9244 133.44 37.8633 133.452 37.8592Z" fill="#EB996E"/>
<path d="M134.866 31.0148C134.281 31.3372 133.625 31.512 132.957 31.524C132.288 31.5361 131.627 31.385 131.03 31.084C131.664 31.2142 132.308 31.2905 132.954 31.312C133.599 31.2659 134.238 31.1665 134.866 31.0148Z" fill="white" fill-opacity="0.3"/>
<path d="M134.774 31.7803C134.233 32.1339 133.595 32.3117 132.948 32.2892C132.301 32.3347 131.655 32.1813 131.098 31.8495C131.706 31.974 132.324 32.0489 132.944 32.0734C133.561 32.0273 134.174 31.9292 134.774 31.7803Z" fill="white" fill-opacity="0.3"/>
<path d="M116.189 164.667L117.925 172.651C117.925 172.651 110.384 177.093 110.564 178.6L126.176 175.795L123.983 163.246L116.189 164.667Z" fill="#263238"/>
<path d="M126.177 175.795L125.908 174.536L111.038 177.696C111.038 177.696 110.398 178.103 110.565 178.6L126.177 175.795Z" fill="white"/>
<path d="M133.951 165.542L134.208 173.706C134.208 173.706 125.987 176.711 125.889 178.221L141.753 178.291L141.876 165.554L133.951 165.542Z" fill="#263238"/>
<path d="M141.753 178.295L141.717 177.012L126.521 177.419C126.521 177.419 125.811 177.72 125.889 178.234L141.753 178.295Z" fill="white"/>
<path d="M115.342 171.515C115.342 171.515 107.189 131.666 107.189 130.868L121.725 123.197L127.35 169.96L115.342 171.515Z" fill="black"/>
<path d="M133.625 172.871L122.396 103.787V88.8893L137.738 90.3144C137.934 90.8925 142.956 172.94 142.956 172.94L141.374 172.851H133.63" fill="black"/>
<path d="M113.564 87.8347L107.197 130.868L121.435 127.419L127.236 89.2354L113.564 87.8347Z" fill="black"/>
<path d="M126.756 91.4829C126.756 91.4829 126.756 91.5562 126.756 91.6946C126.756 91.8331 126.793 92.0489 126.821 92.3135C126.886 92.8632 126.976 93.6613 127.094 94.6832C127.335 96.7435 127.702 99.7199 128.183 103.397C129.132 110.746 130.571 120.905 132.12 132.09C132.895 137.692 133.604 143.034 134.207 147.896C134.366 149.117 134.488 150.302 134.66 151.45C134.831 152.598 135.006 153.714 135.173 154.789C135.499 156.943 135.805 158.95 136.082 160.782C136.633 164.447 137.069 167.415 137.354 169.467C137.497 170.493 137.603 171.291 137.664 171.833C137.696 172.106 137.717 172.309 137.725 172.452C137.729 172.503 137.729 172.555 137.725 172.607C137.725 172.651 137.7 172.607 137.7 172.607C137.7 172.607 137.733 172.607 137.729 172.607C137.736 172.554 137.736 172.5 137.729 172.448C137.729 172.309 137.729 172.102 137.688 171.829C137.639 171.287 137.546 170.485 137.415 169.459C137.15 167.403 136.738 164.431 136.192 160.762C135.919 158.93 135.622 156.923 135.304 154.765C135.141 153.69 134.973 152.574 134.802 151.426C134.631 150.278 134.513 149.089 134.358 147.875C133.763 143.01 133.058 137.668 132.287 132.061C130.738 120.86 129.275 110.726 128.289 103.376L127.163 94.6955C127.033 93.6735 126.927 92.8795 126.858 92.3298L126.772 91.715C126.756 91.5562 126.756 91.4829 126.756 91.4829Z" fill="white" fill-opacity="0.3"/>
<path d="M118.196 171.145C118.196 171.145 118.196 171.076 118.167 170.941C118.139 170.807 118.11 170.599 118.069 170.343C117.98 169.813 117.849 169.04 117.662 168.05L116.182 159.626L111.233 131.849C111.087 131.188 111.047 130.508 111.115 129.834C111.197 129.17 111.311 128.494 111.409 127.835C111.613 126.507 111.815 125.202 112.016 123.918C112.424 121.353 112.831 118.877 113.21 116.524C113.997 111.817 114.751 107.566 115.428 104.036C116.105 100.506 116.7 97.6311 117.152 95.6645C117.364 94.6751 117.56 93.9178 117.678 93.3966C117.739 93.1441 117.784 92.9487 117.817 92.8103C117.849 92.6718 117.853 92.6067 117.853 92.6067C117.853 92.6067 117.853 92.6718 117.796 92.8062C117.739 92.9406 117.706 93.136 117.641 93.3884C117.507 93.9055 117.303 94.6629 117.079 95.6441C116.602 97.6107 115.986 100.465 115.293 104.011C114.6 107.558 113.826 111.784 113.035 116.495C112.628 118.848 112.22 121.324 111.812 123.889C111.611 125.173 111.409 126.479 111.205 127.806C111.103 128.47 110.993 129.129 110.907 129.813C110.84 130.506 110.881 131.206 111.03 131.886C112.982 142.725 114.751 152.537 116.035 159.651C116.683 163.197 117.209 166.072 117.576 168.063C117.759 169.052 117.902 169.822 118.004 170.351C118.053 170.603 118.09 170.803 118.118 170.945C118.147 171.088 118.196 171.145 118.196 171.145Z" fill="white" fill-opacity="0.3"/>
<path d="M122.397 103.299C122.34 103.299 123.004 107.778 123.877 113.262C124.749 118.747 125.507 123.205 125.552 123.197C125.597 123.189 124.941 118.718 124.068 113.234C123.196 107.749 122.45 103.291 122.397 103.299Z" fill="white" fill-opacity="0.3"/>
<path d="M133.493 172.725C133.613 172.765 133.738 172.787 133.864 172.79C134.101 172.818 134.447 172.851 134.871 172.884C135.727 172.953 136.909 173.014 138.213 173.034C139.518 173.055 140.704 173.034 141.56 172.994C141.968 172.994 142.33 172.953 142.571 172.933C142.696 172.931 142.821 172.914 142.942 172.884C142.481 172.845 142.018 172.835 141.556 172.855C140.7 172.855 139.518 172.855 138.217 172.855C136.917 172.855 135.735 172.794 134.879 172.761C134.418 172.721 133.955 172.709 133.493 172.725Z" fill="#455A64"/>
<path d="M115.341 171.515C115.5 171.523 115.66 171.515 115.818 171.491L117.106 171.352C118.198 171.23 119.698 171.043 121.357 170.831C123.016 170.62 124.516 170.424 125.601 170.253L126.885 170.058C127.043 170.039 127.2 170.006 127.353 169.96C127.195 169.945 127.035 169.945 126.876 169.96C126.571 169.988 126.126 170.033 125.584 170.094C124.496 170.216 122.992 170.4 121.333 170.615C119.674 170.831 118.174 171.023 117.09 171.198L115.806 171.393C115.647 171.417 115.491 171.458 115.341 171.515Z" fill="#455A64"/>
<path d="M93.9575 62.3991L103.113 69.3576C103.113 69.3576 111.632 54.838 112.386 53.9341C113.14 53.0302 115.052 52.0693 115.052 52.0693L114 70.6727C114 70.6727 109.39 82.4235 103.064 81.7842C98.2212 81.2956 89.8486 68.531 89.8486 68.531L93.9575 62.3991Z" fill="#455A64"/>
<g opacity="0.2">
<path d="M102.947 69.1377C102.315 70.1195 101.905 71.2268 101.746 72.3827C101.586 73.5387 101.68 74.7155 102.021 75.8315C102.07 76.0664 102.202 76.276 102.392 76.4219C102.556 76.4915 102.74 76.4989 102.909 76.4427C103.078 76.3864 103.22 76.2704 103.309 76.1165C103.474 75.7986 103.555 75.4442 103.546 75.0864C103.697 75.4308 103.929 75.7339 104.223 75.9699C104.372 76.0836 104.557 76.142 104.745 76.1353C104.933 76.1287 105.112 76.0573 105.254 75.9333C105.555 75.5994 105.388 75.0701 105.205 74.6548C104.428 72.8904 103.648 71.126 102.865 69.3616" fill="black"/>
</g>
<path d="M96.2612 64.4838C96.3183 64.5204 95.3808 66.0921 94.162 67.9935C92.9432 69.895 91.916 71.4056 91.8589 71.3689C91.8019 71.3323 92.7394 69.7403 93.9541 67.8592C95.1688 65.9781 96.2041 64.4471 96.2612 64.4838Z" fill="black"/>
<path d="M93.9276 64.2273C93.9031 64.2273 94.0213 64.0848 94.2292 64.1662C94.2899 64.1906 94.3438 64.2292 94.3864 64.2789C94.4289 64.3285 94.4589 64.3876 94.4738 64.4512C94.4922 64.5378 94.4819 64.6281 94.4444 64.7083C94.4068 64.7885 94.3442 64.8543 94.2658 64.8957C94.1875 64.9372 94.0978 64.9519 94.0102 64.9379C93.9227 64.9238 93.8422 64.8816 93.7808 64.8176C93.736 64.7691 93.7037 64.7103 93.6866 64.6465C93.6696 64.5827 93.6683 64.5156 93.683 64.4512C93.736 64.2354 93.9031 64.2069 93.9072 64.2395C93.9113 64.272 93.8501 64.3413 93.8583 64.4716C93.8664 64.6019 93.9724 64.7403 94.1396 64.6548C94.1704 64.6391 94.1963 64.6152 94.2144 64.5858C94.2325 64.5563 94.242 64.5224 94.242 64.4878C94.242 64.4533 94.2325 64.4194 94.2144 64.3899C94.1963 64.3605 94.1704 64.3366 94.1396 64.3209C94.0458 64.2395 93.9439 64.2598 93.9276 64.2273Z" fill="black"/>
<path d="M103.113 73.7671C102.815 73.0751 102.675 72.3253 102.705 71.5725C102.685 70.3225 102.995 69.3453 103.056 69.3657C103.117 69.386 102.929 70.3551 102.954 71.5684C102.978 72.7818 103.198 73.7468 103.113 73.7671Z" fill="black"/>
<path d="M104.903 73.702C104.846 73.7387 104.247 72.8551 103.729 71.6458C103.379 70.9329 103.145 70.1687 103.036 69.382C103.105 69.3616 103.444 70.3592 103.957 71.5481C104.471 72.737 104.964 73.6654 104.903 73.702Z" fill="black"/>
<path d="M134.222 50.3144L132.836 47.5783H122.821L121.244 50.685L115.056 52.0856L112.39 91.943C112.374 92.4482 112.496 92.9481 112.745 93.3884L137.076 94.2883L138.066 94.6954C138.938 94.158 138.396 91.9349 138.404 90.8925L138.718 71.1532L143.532 55.3796L134.222 50.3144Z" fill="#455A64"/>
<g opacity="0.2">
<path d="M123.842 51.6825L125.611 49.9113C126.274 51.5128 126.937 53.1103 127.6 54.7037C129.892 53.3602 132.073 51.8367 134.122 50.1475L127.384 52.3095C126.813 50.7976 126.244 49.2884 125.676 47.7818C125.275 49.1537 124.705 50.4707 123.98 51.7028" fill="black"/>
</g>
<path d="M152.071 100.278L145.512 100.616V81.8168L138.729 71.1694L143.543 55.3958C144.534 55.803 152.006 74.5326 153.909 79.614C154.183 80.3473 154.304 81.1288 154.264 81.9104L152.071 100.278Z" fill="#455A64"/>
<path d="M115.056 60.294C115.125 60.294 114.799 64.158 114.33 68.9015C113.861 73.645 113.425 77.4968 113.356 77.4886C113.287 77.4805 113.613 73.6287 114.086 68.8771C114.558 64.1255 114.991 60.29 115.056 60.294Z" fill="black"/>
<path d="M125.66 47.7941C125.338 48.8889 124.939 49.9596 124.466 50.9985L124.331 51.3201C124.29 51.4484 124.215 51.5635 124.115 51.654C124.052 51.699 123.978 51.7252 123.901 51.7295C123.823 51.7338 123.746 51.7161 123.679 51.6784C123.584 51.6264 123.491 51.5693 123.402 51.5074L122.501 50.8967C122.211 50.7259 121.944 50.5194 121.706 50.2819C122.02 50.4007 122.319 50.558 122.595 50.7501L123.524 51.312C123.703 51.426 123.883 51.5563 123.964 51.4626C124.083 51.2917 124.175 51.1036 124.237 50.9048C124.959 49.1581 125.595 47.7696 125.66 47.7941Z" fill="black"/>
<path d="M133.628 50.2371C133.135 50.4796 132.624 50.6851 132.1 50.8519C131.142 51.2021 129.817 51.6662 128.35 52.1711L127.534 52.4439L127.424 52.4806L127.384 52.3747C126.866 51.1247 126.418 50.0213 126.112 49.2233C125.925 48.8046 125.772 48.3716 125.655 47.9285C125.892 48.3173 126.093 48.726 126.259 49.15C126.609 49.9276 127.074 51.0229 127.608 52.2689L127.457 52.1996L128.272 51.9228C129.744 51.4219 131.077 50.9822 132.047 50.6728C132.561 50.4855 133.09 50.3398 133.628 50.2371Z" fill="black"/>
<path d="M142.499 55.9577C142.499 56.031 141.109 56.4138 139.475 57.1426C137.84 57.8714 136.622 58.6573 136.564 58.5962C136.789 58.3644 137.047 58.1681 137.331 58.0139C138.638 57.183 140.061 56.5504 141.554 56.1369C141.858 56.0311 142.177 55.9707 142.499 55.9577Z" fill="black"/>
<path d="M125.662 47.7941C125.667 47.8332 125.667 47.873 125.662 47.9121C125.662 48.0058 125.662 48.1198 125.662 48.2623C125.662 48.5717 125.691 49.0237 125.695 49.61C125.695 50.7786 125.695 52.4602 125.617 54.5611C125.47 58.7427 124.945 64.5041 124.113 70.8274C123.705 73.9951 123.257 77 122.955 79.7443C122.665 82.1763 122.529 84.6242 122.548 87.0733C122.576 88.7213 122.712 90.3657 122.955 91.9959C123.029 92.5782 123.123 93.022 123.167 93.3233C123.188 93.4658 123.204 93.5798 123.216 93.6734C123.222 93.7126 123.222 93.7523 123.216 93.7915C123.199 93.7553 123.187 93.717 123.18 93.6775C123.159 93.5839 123.135 93.4739 123.102 93.3355C123.045 93.0342 122.935 92.5904 122.849 92.0122C122.572 90.381 122.415 88.7316 122.381 87.0774C122.333 84.6295 122.447 82.1812 122.723 79.7484C123.012 76.996 123.457 73.987 123.86 70.8274C124.676 64.5041 125.246 58.7549 125.438 54.5815C125.544 52.4968 125.576 50.8071 125.593 49.6385C125.593 49.0685 125.593 48.6206 125.593 48.2908C125.593 48.1524 125.593 48.0343 125.593 47.9406C125.607 47.888 125.63 47.8383 125.662 47.7941Z" fill="black"/>
<path d="M152.436 97.3995C152.436 97.4687 150.879 97.4484 148.959 97.3546C147.039 97.2609 145.494 97.1304 145.498 97.0611C145.502 96.9918 147.055 97.0122 148.971 97.106C150.131 97.1231 151.289 97.2212 152.436 97.3995Z" fill="black"/>
<path d="M146.609 98.1319C146.609 98.1604 146.609 98.2256 146.609 98.3111C146.609 98.3966 146.715 98.4495 146.801 98.3803C146.886 98.3111 146.858 98.2337 146.776 98.1767C146.695 98.1197 146.629 98.1441 146.605 98.1197C146.58 98.0953 146.65 97.9854 146.825 98.0098C146.878 98.0172 146.928 98.0385 146.97 98.0713C147.013 98.1042 147.045 98.1476 147.066 98.1971C147.091 98.2629 147.094 98.3353 147.074 98.403C147.054 98.4706 147.012 98.5299 146.956 98.5717C146.901 98.6221 146.831 98.6524 146.757 98.6576C146.683 98.6628 146.609 98.6425 146.548 98.6002C146.504 98.5696 146.469 98.5286 146.446 98.4809C146.422 98.4332 146.411 98.3805 146.413 98.3274C146.466 98.1482 146.597 98.1034 146.609 98.1319Z" fill="black"/>
<g opacity="0.2">
<path d="M138.817 71.1165L136.681 67.2607C135.83 74.0659 136.309 80.9715 138.091 87.5945L138.751 71.202" fill="black"/>
</g>
<path d="M127.979 64.0318C128.113 64.0109 128.25 64.0027 128.386 64.0074L129.524 63.9789C130.514 63.9585 131.945 63.9341 133.665 63.926H133.779V64.04C133.669 65.5465 133.543 67.2973 133.404 69.1458V69.215L133.343 69.2476L133.086 69.382L130.318 70.8356L130.249 70.8722L130.188 70.8233L127.571 68.7224L127.53 68.6898V68.6369C127.653 67.2566 127.75 66.1043 127.824 65.2533C127.86 64.8869 127.893 64.5815 127.918 64.3372C127.922 64.2342 127.937 64.1318 127.962 64.0318C127.971 64.1484 127.971 64.2654 127.962 64.382C127.962 64.6304 127.938 64.9439 127.922 65.3225C127.877 66.1369 127.812 67.2932 127.734 68.6491L127.697 68.5636L130.294 70.6361H130.163L132.927 69.1743L133.18 69.04L133.115 69.1377C133.266 67.281 133.404 65.5424 133.522 64.0359L133.632 64.154C131.957 64.154 130.555 64.1214 129.556 64.101L128.39 64.0725C128.252 64.0667 128.115 64.0531 127.979 64.0318Z" fill="black"/>
<path d="M115.934 93.5717C115.934 93.6368 115.42 93.5472 115.09 93.0546C114.76 92.5619 114.862 92.057 114.927 92.0814C114.992 92.1059 115.013 92.4886 115.298 92.8958C115.583 93.3029 115.954 93.5024 115.934 93.5717Z" fill="black"/>
<path d="M116.563 93.307C116.227 93.0079 115.989 92.6155 115.879 92.1802C115.768 91.7449 115.791 91.2865 115.943 90.864C116.016 90.864 115.943 91.4503 116.118 92.1222C116.294 92.794 116.62 93.2622 116.563 93.307Z" fill="black"/>
<path d="M134.931 90.5668C134.992 90.5668 135.049 91.5236 134.548 92.5741C134.046 93.6246 133.276 94.2028 133.243 94.1458C133.211 94.0888 133.863 93.4658 134.324 92.4682C134.784 91.4707 134.853 90.5586 134.931 90.5668Z" fill="black"/>
<path d="M93.444 63.1605C93.444 63.1605 86.0335 57.5538 84.9981 57.1792C83.2739 56.5563 82.8581 56.7232 82.8581 56.7232L86.9343 61.0962C86.9343 61.0962 82.638 62.5416 82.3282 62.7248C82.0184 62.908 81.8676 63.8405 82.9111 63.8405C83.7712 63.8405 87.8922 63.9382 87.8922 63.9382L91.2877 66.4137L93.444 63.1605Z" fill="#FFBE9D"/>
</g>
<defs>
<clipPath id="clip0_416_55637">
<rect width="188" height="216" fill="white"/>
</clipPath>
</defs>
</svg>
