<svg width="188" height="216" viewBox="0 0 188 216" fill="none" xmlns="http://www.w3.org/2000/svg">
<g clip-path="url(#clip0_416_55836)">
<path fill-rule="evenodd" clip-rule="evenodd" d="M53.0646 297.2C16.4823 269.589 5.60524 221.129 1.21439 175.475C-2.93252 132.357 2.75027 87.686 29.6456 53.698C55.9194 20.4954 97.504 4.46781 139.633 0.553143C179.504 -3.15167 215.74 13.2362 250.435 33.1821C292.008 57.0819 337.985 79.2155 354.687 124.184C374.721 178.124 384.276 247.184 345.852 290.083C308.164 332.16 241.119 309.324 184.691 310.695C138.714 311.813 89.7554 324.894 53.0646 297.2Z" fill="#F95B29"/>
<path fill-rule="evenodd" clip-rule="evenodd" d="M53.0646 297.2C16.4823 269.589 5.60524 221.129 1.21439 175.475C-2.93252 132.357 2.75027 87.686 29.6456 53.698C55.9194 20.4954 97.504 4.46781 139.633 0.553143C179.504 -3.15167 215.74 13.2362 250.435 33.1821C292.008 57.0819 337.985 79.2155 354.687 124.184C374.721 178.124 384.276 247.184 345.852 290.083C308.164 332.16 241.119 309.324 184.691 310.695C138.714 311.813 89.7554 324.894 53.0646 297.2Z" fill="white" fill-opacity="0.8"/>
<path d="M163.922 80.5037C164.442 86.0986 163.29 91.722 160.611 96.6615C157.933 101.601 153.849 105.634 148.876 108.251C143.903 110.867 138.266 111.949 132.678 111.359C127.09 110.769 121.803 108.534 117.486 104.937C113.17 101.34 110.018 96.5421 108.43 91.1521C106.842 85.7622 106.889 80.0222 108.566 74.6592C110.243 69.2962 113.474 64.5515 117.849 61.0261C122.225 57.5007 127.548 55.3533 133.145 54.8557C140.626 54.1822 148.069 56.5047 153.839 61.3133C159.609 66.122 163.236 73.0238 163.922 80.5037Z" fill="#F95B29"/>
<g opacity="0.3">
<path d="M157.126 80.4139C156.997 80.4139 156.824 79.497 156.331 77.8491C155.639 75.5768 154.601 73.4248 153.253 71.4692C152.322 70.1343 151.247 68.9065 150.047 67.808C148.674 66.5471 147.144 65.4695 145.494 64.602C144.606 64.134 143.685 63.7332 142.737 63.4029C141.752 63.0564 140.743 62.7842 139.717 62.5886C138.659 62.3856 137.588 62.2634 136.511 62.2231C135.398 62.1852 134.283 62.2302 133.177 62.3578C132.073 62.4949 130.981 62.7091 129.907 62.999C128.867 63.298 127.851 63.6752 126.868 64.1275C125.004 64.9832 123.276 66.1064 121.738 67.4617C120.341 68.6897 119.108 70.0926 118.07 71.6359C117.169 72.9898 116.421 74.4392 115.839 75.9576C114.994 78.1757 114.501 80.5122 114.377 82.8826C114.281 84.5753 114.338 85.5243 114.204 85.5435C114.069 85.5628 113.838 84.6266 113.729 82.8826C113.607 80.403 113.946 77.9223 114.73 75.5665C115.895 72.0232 117.958 68.8421 120.718 66.3332C122.346 64.8424 124.187 63.604 126.181 62.6591C127.237 62.1602 128.33 61.7464 129.452 61.4216C130.607 61.0911 131.786 60.8489 132.978 60.6971C134.172 60.5611 135.374 60.514 136.575 60.556C137.743 60.6081 138.905 60.7496 140.051 60.9792C142.212 61.4197 144.295 62.1805 146.232 63.2362C149.51 65.0179 152.272 67.6151 154.253 70.7767C155.578 72.877 156.5 75.2058 156.972 77.644C157.241 79.4521 157.241 80.4139 157.126 80.4139Z" fill="black"/>
</g>
<g opacity="0.3">
<path d="M139.235 95.6616L139.626 99.4062L136.279 99.7589L135.901 96.1104C132.567 96.2515 129.284 95.5462 127.296 94.3023L128.707 90.0255C130.766 91.166 133.086 91.7515 135.439 91.7246L134.856 86.1398C131.053 85.6204 126.777 84.8189 126.277 80.0292C125.905 76.4833 128.168 73.1748 133.387 72.0206L133.003 68.3081L136.35 67.9618L136.728 71.6038C139.135 71.4909 141.534 71.9479 143.73 72.9375L142.492 77.2079C140.824 76.4593 139.024 76.0496 137.196 76.0024L137.786 81.6899C141.588 82.1708 145.801 82.9723 146.288 87.7043C146.654 91.2053 144.416 94.4818 139.235 95.6616ZM134.356 81.2218L133.856 76.4705C132.131 77.054 131.528 78.0992 131.643 79.202C131.759 80.3049 132.83 80.9076 134.356 81.2218ZM140.947 88.6854C140.825 87.512 139.787 86.9798 138.299 86.6271L138.78 91.2437C140.415 90.7051 141.056 89.7562 140.947 88.6854Z" fill="black"/>
</g>
<path d="M114.113 85.0113C114.135 85.0671 114.15 85.1252 114.158 85.1844C114.158 85.3191 114.21 85.4858 114.248 85.691C114.287 85.8962 114.325 86.1975 114.376 86.5117C114.428 86.8879 114.503 87.2605 114.601 87.6274C115.522 91.6241 117.548 95.2812 120.449 98.1815L121.462 99.1049C121.635 99.2523 121.795 99.4191 121.981 99.5665L122.552 99.9897C122.936 100.272 123.315 100.586 123.725 100.849L125.007 101.625C126.843 102.662 128.819 103.429 130.874 103.901C135.322 104.918 139.979 104.489 144.166 102.676C146.101 101.837 147.904 100.723 149.52 99.3678L150.636 98.3739C150.995 98.0405 151.277 97.6622 151.63 97.3159C151.79 97.1428 151.957 96.9697 152.111 96.7966C152.265 96.6234 152.399 96.4247 152.547 96.2451C152.823 95.8732 153.098 95.5142 153.374 95.1551C154.309 93.7785 155.089 92.3035 155.702 90.7565C156.588 88.5046 157.093 86.121 157.196 83.7033C157.221 83.3254 157.221 82.9462 157.196 82.5684C157.196 82.2478 157.196 81.9656 157.196 81.7348C157.196 81.504 157.196 81.3565 157.196 81.2218C157.19 81.1621 157.19 81.102 157.196 81.0423C157.202 81.0998 157.202 81.1579 157.196 81.2154C157.196 81.3501 157.196 81.5232 157.234 81.7284C157.273 81.9336 157.234 82.2413 157.279 82.5684C157.309 82.9482 157.309 83.3298 157.279 83.7097C157.226 86.1476 156.751 88.5578 155.875 90.8334C155.276 92.4139 154.498 93.92 153.554 95.3218L152.752 96.4439C152.605 96.6298 152.47 96.8286 152.316 97.0082L151.829 97.5403C151.502 97.893 151.188 98.2713 150.822 98.6111L149.7 99.6307C148.064 101.011 146.237 102.147 144.275 103.003C140.035 104.846 135.316 105.282 130.81 104.247C128.724 103.763 126.719 102.977 124.86 101.913L123.578 101.125C123.161 100.855 122.782 100.535 122.391 100.253L121.821 99.8166C121.635 99.6691 121.468 99.496 121.288 99.3421L120.25 98.3675C119.072 97.1626 118.033 95.8291 117.153 94.3921C115.877 92.3128 114.97 90.0285 114.473 87.6402C114.381 87.2714 114.317 86.8964 114.28 86.5181C114.242 86.1975 114.21 85.9154 114.178 85.6846C114.146 85.4537 114.139 85.3063 114.12 85.1716C114.113 85.1185 114.111 85.0648 114.113 85.0113Z" fill="#263238"/>
<path d="M125.917 190.612C124.506 193.555 122.253 196.013 119.444 197.675C116.635 199.337 113.396 200.127 110.137 199.947C106.878 199.767 103.746 198.624 101.137 196.663C98.5284 194.701 96.5602 192.01 95.4818 188.93C94.4035 185.849 94.2634 182.518 95.0794 179.358C95.8954 176.197 97.6307 173.35 100.066 171.177C102.501 169.004 105.526 167.602 108.758 167.149C111.99 166.696 115.284 167.212 118.223 168.632C120.171 169.57 121.916 170.882 123.357 172.495C124.799 174.107 125.908 175.987 126.623 178.028C127.337 180.069 127.643 182.231 127.522 184.391C127.401 186.55 126.855 188.664 125.917 190.612Z" fill="#F95B29"/>
<g opacity="0.3">
<path d="M122.577 188.554C122.643 188.04 122.764 187.535 122.936 187.047C123.267 185.708 123.391 184.326 123.302 182.95C123.233 182.007 123.063 181.074 122.795 180.167C122.48 179.134 122.034 178.145 121.468 177.224C121.162 176.728 120.822 176.255 120.449 175.807C119.232 174.353 117.696 173.198 115.96 172.434C115.368 172.175 114.757 171.961 114.133 171.793C113.525 171.633 112.905 171.52 112.28 171.453C111.677 171.384 111.071 171.363 110.465 171.389C109.882 171.412 109.301 171.478 108.727 171.588C107.665 171.781 106.632 172.113 105.656 172.575C104.803 172.983 103.997 173.482 103.252 174.063C102.171 174.922 101.231 175.943 100.462 177.089C100.213 177.545 99.9186 177.975 99.584 178.372C99.6615 177.848 99.8518 177.347 100.142 176.903C100.819 175.618 101.732 174.471 102.835 173.524C103.591 172.866 104.424 172.302 105.316 171.844C106.344 171.318 107.437 170.932 108.567 170.697C109.832 170.435 111.129 170.366 112.414 170.491C113.09 170.559 113.758 170.679 114.415 170.851C115.089 171.032 115.749 171.264 116.39 171.543C117.028 171.829 117.643 172.163 118.23 172.543C118.796 172.915 119.332 173.331 119.833 173.787C120.321 174.225 120.771 174.704 121.18 175.217C121.574 175.702 121.93 176.216 122.244 176.756C122.834 177.759 123.284 178.838 123.584 179.962C123.839 180.93 123.979 181.924 124.001 182.924C124.037 184.367 123.804 185.805 123.315 187.163C123.168 187.672 122.916 188.146 122.577 188.554Z" fill="black"/>
</g>
<g opacity="0.3">
<path d="M109.111 190.837L108.194 192.818L106.418 191.997L107.316 190.074C105.764 189.291 104.463 188.089 103.559 186.605L105.54 184.893C106.228 186.077 107.211 187.062 108.393 187.753L109.772 184.79C108.021 183.399 106.13 181.719 107.31 179.186C108.182 177.307 110.291 176.326 113.241 177.307L114.158 175.339L115.927 176.166L115.03 178.09C116.265 178.748 117.327 179.691 118.127 180.84L116.203 182.61C115.594 181.74 114.818 180.999 113.92 180.43L112.523 183.444C114.273 184.816 116.132 186.477 114.972 188.977C114.145 190.837 112.054 191.779 109.111 190.837ZM110.977 182.174L112.151 179.661C111.112 179.436 110.496 179.776 110.227 180.36C109.958 180.943 110.317 181.552 110.977 182.161V182.174ZM112.048 187.868C112.33 187.227 111.978 186.669 111.336 186.047L110.201 188.496C111.17 188.702 111.811 188.419 112.048 187.855V187.868Z" fill="black"/>
</g>
<path d="M99.7494 178.013C99.7494 178.013 99.5571 178.532 99.2429 179.475C98.8183 180.809 98.6189 182.204 98.653 183.604C98.6781 184.567 98.8093 185.523 99.0441 186.457C99.3233 187.536 99.7347 188.576 100.269 189.554C100.877 190.612 101.632 191.577 102.513 192.42C104.416 194.247 106.854 195.415 109.47 195.755C110.678 195.912 111.902 195.894 113.106 195.703C115.155 195.375 117.091 194.54 118.735 193.273C119.846 192.421 120.81 191.392 121.589 190.228C122.121 189.394 122.371 188.894 122.403 188.913C122.365 189.041 122.311 189.164 122.243 189.279C122.08 189.626 121.898 189.964 121.698 190.292C120.95 191.503 119.998 192.575 118.883 193.459C117.227 194.793 115.254 195.676 113.157 196.024C111.923 196.231 110.666 196.255 109.425 196.095C108.094 195.909 106.797 195.526 105.578 194.96C104.374 194.367 103.265 193.597 102.289 192.677C101.389 191.81 100.62 190.816 100.006 189.727C99.4473 188.739 99.0164 187.683 98.7235 186.586C98.4969 185.629 98.3786 184.651 98.3709 183.668C98.3551 182.246 98.5918 180.833 99.0698 179.494C99.195 179.131 99.345 178.778 99.5186 178.436C99.5783 178.286 99.6558 178.144 99.7494 178.013Z" fill="#263238"/>
<path d="M88.7663 122.828C89.464 127.537 88.7487 132.347 86.7109 136.649C84.6731 140.952 81.4044 144.552 77.3189 146.996C73.2333 149.439 68.5145 150.616 63.7601 150.375C59.0057 150.135 54.4294 148.49 50.6107 145.647C46.792 142.805 43.9027 138.893 42.3086 134.407C40.7145 129.922 40.4873 125.064 41.6558 120.449C42.8242 115.834 45.3359 111.67 48.8726 108.483C52.4093 105.297 56.812 103.231 61.5233 102.549C64.6437 102.091 67.8236 102.253 70.8815 103.024C73.9394 103.796 76.8154 105.162 79.3452 107.045C81.875 108.928 84.009 111.291 85.6255 113.999C87.242 116.707 88.3092 119.707 88.7663 122.828Z" fill="#F95B29"/>
<g opacity="0.3">
<path d="M83.0158 123.068C82.907 123.068 82.7123 122.307 82.2197 120.961C81.5341 119.068 80.5563 117.294 79.3219 115.703C78.4766 114.622 77.5165 113.635 76.4585 112.76C75.235 111.765 73.8875 110.933 72.4496 110.286C71.6772 109.931 70.8789 109.636 70.0615 109.404C69.2129 109.146 68.3455 108.954 67.4672 108.831C66.5601 108.708 65.645 108.654 64.7297 108.671C63.7871 108.695 62.8473 108.787 61.9178 108.946C60.9891 109.115 60.0741 109.352 59.1804 109.656C58.3149 109.958 57.4727 110.324 56.6605 110.75C55.8767 111.162 55.1262 111.635 54.4156 112.164C53.7295 112.666 53.0807 113.218 52.4742 113.814C50.3652 115.886 48.7927 118.442 47.8926 121.258C47.2814 123.177 46.9742 125.178 46.982 127.192C46.982 128.623 47.0679 129.425 46.982 129.442C46.8961 129.459 46.627 128.686 46.4609 127.22C46.235 125.128 46.406 123.012 46.9649 120.984C47.344 119.572 47.89 118.211 48.5913 116.929C49.4072 115.455 50.4165 114.098 51.5922 112.891C52.2284 112.237 52.9138 111.632 53.6424 111.082C54.4007 110.503 55.203 109.984 56.042 109.53C56.9117 109.059 57.8175 108.659 58.7508 108.333C60.676 107.653 62.6996 107.293 64.7412 107.268C65.7298 107.257 66.7177 107.322 67.6963 107.462C68.6415 107.597 69.5742 107.807 70.4853 108.092C71.358 108.359 72.2098 108.691 73.0338 109.083C75.8879 110.438 78.3453 112.505 80.1695 115.085C81.3863 116.803 82.2755 118.731 82.7924 120.772C83.0902 122.255 83.096 123.057 83.0158 123.068Z" fill="black"/>
</g>
<g opacity="0.3">
<path d="M68.5951 136.79L69.0991 139.94L66.2872 140.392L65.7947 137.322C62.9827 137.597 60.1708 137.156 58.4298 136.177L59.4263 132.495C61.2197 133.374 63.2117 133.769 65.2048 133.64L64.4546 128.944C61.2074 128.686 57.5536 128.199 56.9065 124.179C56.4311 121.195 58.1893 118.286 62.5532 117.072L62.0493 113.945L64.8669 113.498L65.3537 116.562C67.3857 116.355 69.4381 116.63 71.344 117.364L70.4907 121.052C69.0433 120.495 67.4994 120.233 65.9493 120.279L66.7167 125.061C69.9581 125.29 73.5546 125.783 74.1903 129.751C74.6599 132.672 72.9247 135.547 68.5951 136.79ZM63.7902 124.803L63.1488 120.795C61.7114 121.367 61.2532 122.284 61.4021 123.211C61.551 124.139 62.4902 124.609 63.7902 124.803ZM69.7176 130.811C69.5572 129.826 68.6581 129.419 67.381 129.19L67.9995 133.073C69.3568 132.563 69.8608 131.71 69.7176 130.811Z" fill="black"/>
</g>
<path d="M46.8513 128.955C46.8685 129.002 46.8819 129.05 46.8914 129.099C46.92 129.207 46.9544 129.351 46.9945 129.522L47.1434 130.21C47.2048 130.525 47.2852 130.837 47.3839 131.143C47.9529 133.109 48.8451 134.967 50.024 136.641C50.8371 137.792 51.7765 138.848 52.8245 139.791L53.7236 140.524C53.8782 140.644 54.0271 140.776 54.1875 140.89L54.6914 141.222C55.0293 141.44 55.3615 141.686 55.7223 141.893L56.8333 142.465C58.4349 143.256 60.1417 143.814 61.9016 144.12C63.7973 144.42 65.7267 144.441 67.6285 144.183C69.523 143.877 71.3633 143.298 73.092 142.465C74.6862 141.663 76.1576 140.637 77.4617 139.418L78.3551 138.519C78.6471 138.222 78.8877 137.889 79.1511 137.586L79.5348 137.122C79.6608 136.962 79.7639 136.796 79.8727 136.635C80.096 136.309 80.3079 135.988 80.5256 135.673C81.2501 134.465 81.8416 133.183 82.2895 131.847C82.9338 129.903 83.2493 127.865 83.2229 125.817C83.2341 125.496 83.2207 125.174 83.1828 124.855C83.1828 124.586 83.1428 124.351 83.1313 124.151C83.1199 123.95 83.1313 123.836 83.1027 123.715C83.0951 123.666 83.0951 123.616 83.1027 123.566C83.1202 123.614 83.1299 123.664 83.1313 123.715C83.1313 123.83 83.1657 123.973 83.1886 124.145C83.2115 124.317 83.2401 124.58 83.2745 124.849C83.3182 125.17 83.3393 125.493 83.3375 125.817C83.4117 127.882 83.1249 129.944 82.4899 131.91C82.054 133.271 81.4642 134.578 80.7317 135.805L80.0846 136.778C79.97 136.944 79.867 137.116 79.741 137.277L79.3573 137.746C79.0938 138.061 78.8476 138.399 78.5555 138.703C78.2634 139.006 77.9828 139.31 77.6506 139.613C76.3314 140.86 74.8383 141.91 73.218 142.729C69.7099 144.49 65.7291 145.078 61.8615 144.407C60.0695 144.086 58.3334 143.507 56.7073 142.689L55.5619 142.076C55.1954 141.87 54.8632 141.618 54.5196 141.394L54.0099 141.056C53.8496 140.936 53.7007 140.799 53.5403 140.678L52.6355 139.934C51.5821 138.97 50.6407 137.89 49.8293 136.715C48.6536 135.015 47.7817 133.124 47.2522 131.126C47.1539 130.817 47.0811 130.501 47.0346 130.181C46.9887 129.912 46.9487 129.683 46.9086 129.482L46.8398 129.053C46.8409 129.02 46.8447 128.987 46.8513 128.955Z" fill="#263238"/>
</g>
<defs>
<clipPath id="clip0_416_55836">
<rect width="188" height="216" fill="white"/>
</clipPath>
</defs>
</svg>
