<svg width="188" height="216" viewBox="0 0 188 216" fill="none" xmlns="http://www.w3.org/2000/svg">
<g clip-path="url(#clip0_416_56255)">
<path fill-rule="evenodd" clip-rule="evenodd" d="M167.587 169.904C140.859 203.22 95.4182 212.017 52.7695 214.848C12.4902 217.523 -28.9647 210.998 -59.8836 185.008C-90.0881 159.618 -103.872 120.44 -106.357 81.0881C-108.709 43.846 -92.4449 10.5434 -72.9088 -21.226C-49.5 -59.2931 -27.615 -101.511 14.7345 -115.83C65.5318 -133.005 130.126 -140.002 169.027 -103.027C207.184 -66.7604 184.064 -4.93609 183.786 47.6642C183.56 90.5241 194.396 136.49 167.587 169.904Z" fill="#F95B29"/>
<path fill-rule="evenodd" clip-rule="evenodd" d="M167.587 169.904C140.859 203.22 95.4182 212.017 52.7695 214.848C12.4902 217.523 -28.9647 210.998 -59.8836 185.008C-90.0881 159.618 -103.872 120.44 -106.357 81.0881C-108.709 43.846 -92.4449 10.5434 -72.9088 -21.226C-49.5 -59.2931 -27.615 -101.511 14.7345 -115.83C65.5318 -133.005 130.126 -140.002 169.027 -103.027C207.184 -66.7604 184.064 -4.93609 183.786 47.6642C183.56 90.5241 194.396 136.49 167.587 169.904Z" fill="white" fill-opacity="0.8"/>
<path d="M128.97 73.9893C128.97 73.9893 136.487 67.2102 137.569 66.7934C138.65 66.3765 147.388 65.8646 147.994 66.2814C148.6 66.6983 157.645 71.2031 156.206 72.0075C154.766 72.8119 148.469 69.5723 148.469 69.5723L147.439 69.7478C147.439 69.7478 152.903 72.3951 153.904 73.4628C154.905 74.5305 154.029 75.6567 153.013 75.2618C151.998 74.8669 147.293 72.3366 146.935 72.4828C146.577 72.6291 151.961 75.4665 152.465 76.015C153.145 76.7463 152.787 78.2601 151.735 77.8725C151.128 77.6385 146.153 74.6182 146.153 74.6182C146.153 74.6182 149.93 77.5434 150.215 78.0553C150.675 78.8598 149.879 79.6422 149.017 79.1523C148.425 78.8232 145.831 76.4684 145.035 76.0223C145.035 76.0223 144.173 76.0223 142.968 77.3898C142.39 78.0553 139.315 81.7776 136.838 80.1395L134.106 82.2749L128.97 73.9893Z" fill="#FFBE9D"/>
<path d="M156.183 72.0223C155.558 72.1393 154.916 72.1243 154.298 71.9784C153.621 71.8723 152.955 71.7008 152.311 71.4665C151.58 71.1667 150.85 70.8157 150.046 70.45L148.344 69.6529H148.453C146.957 69.7958 145.452 69.8105 143.953 69.6968C145.43 69.4085 146.928 69.2446 148.432 69.2068H148.468H148.527L150.214 69.9747L152.45 71.0204C153.067 71.2647 153.702 71.4627 154.349 71.6128C155.474 71.9199 156.183 71.9199 156.183 72.0223Z" fill="#EB996E"/>
<path d="M164.71 60.3654L162.446 69.587C162.355 69.9501 162.338 70.3276 162.395 70.6974C162.452 71.0672 162.582 71.4219 162.777 71.7411C162.972 72.0602 163.229 72.3374 163.532 72.5564C163.835 72.7754 164.178 72.9319 164.542 73.0168L173.397 75.2107L164.71 60.3654Z" fill="#F95B29"/>
<path d="M163.811 101.171L140.177 95.3209C139.788 95.225 139.422 95.0534 139.1 94.8159C138.777 94.5784 138.505 94.2796 138.298 93.9366C138.091 93.5936 137.954 93.2132 137.894 92.8171C137.834 92.4209 137.852 92.0168 137.948 91.6279L145.985 58.8804C146.187 58.1094 146.682 57.4481 147.365 57.0381C148.047 56.6281 148.863 56.5019 149.638 56.6865L164.629 60.343L173.286 75.181L167.442 98.9116C167.254 99.69 166.768 100.363 166.089 100.786C165.41 101.209 164.591 101.347 163.811 101.171Z" fill="#F95B29"/>
<path fill-rule="evenodd" clip-rule="evenodd" d="M155.029 67.5831C158.053 68.329 160.552 68.8409 160.552 68.7166C158.79 68.0602 156.98 67.5395 155.138 67.1589C153.33 66.638 151.483 66.259 149.615 66.0254C151.376 66.6857 153.186 67.2065 155.029 67.5831ZM157.279 73.6668C162.247 74.8954 166.331 75.7876 166.331 75.6706C166.36 75.5755 162.364 74.4566 157.389 73.2354C152.414 72.0141 148.366 71.1073 148.337 71.2316C148.308 71.3559 152.311 72.4383 157.279 73.6668ZM166.878 80.4245C166.878 80.5415 162.436 79.5542 157.022 78.2306C151.609 76.9069 147.233 75.7222 147.262 75.5979C147.291 75.4736 151.704 76.4681 157.125 77.7918C162.546 79.1154 166.907 80.3075 166.878 80.4245ZM156.007 82.333C161.428 83.6567 165.87 84.6439 165.87 84.5269C165.899 84.4099 161.538 83.2179 156.117 81.8942C150.696 80.5706 146.283 79.5833 146.254 79.7003C146.225 79.8173 150.586 81.0094 156.007 82.333ZM164.862 88.637C164.862 88.754 160.42 87.7668 154.999 86.4431C149.579 85.1195 145.217 83.9274 145.246 83.8104C145.275 83.6934 149.688 84.6807 155.109 86.0043C160.53 87.328 164.891 88.5127 164.862 88.637ZM153.991 90.5457C159.405 91.8694 163.854 92.8566 163.854 92.7396C163.883 92.6226 159.507 91.4379 154.093 90.1069C148.68 88.776 144.26 87.796 144.231 87.913C144.201 88.03 148.578 89.2221 153.991 90.5457Z" fill="#FAFAFA"/>
<path d="M134.535 74.4498C134.787 74.7744 135.133 75.0128 135.525 75.132C135.918 75.2512 136.338 75.2454 136.727 75.1153C137.531 74.9105 138.239 74.4425 139.028 74.1793C141.373 73.3968 144.069 74.5668 146.378 73.6747C146.699 73.5503 147.057 73.2944 147.006 72.9434C146.955 72.5923 146.597 72.4826 146.276 72.4022L138.371 70.2083" fill="#FFBE9D"/>
<path d="M138.401 70.2232C138.698 70.2384 138.993 70.29 139.278 70.3768C139.84 70.5011 140.644 70.6912 141.63 70.9472L145.1 71.854L146.101 72.1173C146.525 72.1646 146.914 72.3774 147.182 72.7096C147.239 72.8271 147.262 72.9585 147.246 73.0882C147.23 73.2179 147.178 73.3403 147.095 73.4409C146.945 73.6109 146.757 73.7436 146.547 73.8285C146.17 73.9767 145.778 74.0822 145.378 74.143C143.763 74.3697 142.28 74.0552 140.958 74.0771C140.338 74.0664 139.719 74.1503 139.124 74.3258C138.576 74.5013 138.079 74.7573 137.597 74.9547C137.223 75.1493 136.811 75.2605 136.39 75.2807C135.969 75.3009 135.548 75.2296 135.157 75.0717C134.609 74.7792 134.514 74.4135 134.536 74.4135C134.735 74.6183 134.971 74.7844 135.23 74.9035C135.6 75.0203 135.99 75.0579 136.375 75.0138C136.76 74.9697 137.132 74.8449 137.466 74.6476C137.926 74.4428 138.415 74.1649 139.007 73.9528C139.635 73.7509 140.291 73.6473 140.951 73.6457C142.331 73.6018 143.814 73.8943 145.334 73.6457C145.696 73.5954 146.051 73.5046 146.393 73.3751C146.707 73.2435 146.919 73.0021 146.81 72.8559C146.7 72.7096 146.357 72.578 146.013 72.4829L145.02 72.205L141.572 71.1958C140.593 70.9106 139.804 70.662 139.263 70.4645C138.965 70.4269 138.675 70.3456 138.401 70.2232Z" fill="#EB996E"/>
<path d="M75.7758 139.316L29.7495 138.965L7.51074 285.188L26.608 287.616L51.0896 167.383L58.4173 288.04L58.4393 288.398L79.0927 288.04L75.7758 139.316Z" fill="black"/>
<path d="M52.6313 164.239C52.6184 163.642 52.6575 163.045 52.7482 162.454C52.8578 161.358 52.9747 159.844 53.0258 158.169C53.077 156.494 53.0258 154.973 53.0258 153.869C52.9761 153.273 52.9761 152.674 53.0258 152.077C53.1935 152.656 53.2892 153.253 53.3107 153.854C53.4382 155.291 53.4796 156.735 53.4349 158.176C53.3953 159.619 53.2659 161.057 53.0477 162.484C52.9818 163.084 52.842 163.673 52.6313 164.239Z" fill="white" fill-opacity="0.3"/>
<path d="M56.4171 152.501C56.4171 152.501 56.4974 152.413 56.6874 152.399C56.9617 152.382 57.2331 152.463 57.4545 152.626C57.6247 152.745 57.7648 152.902 57.8637 153.085C57.9626 153.268 58.0176 153.471 58.0243 153.679C58.0031 153.939 57.9064 154.187 57.746 154.393C57.5857 154.599 57.3687 154.753 57.1218 154.837C56.8749 154.921 56.6088 154.931 56.3564 154.865C56.104 154.8 55.8762 154.662 55.7011 154.468C55.578 154.299 55.4972 154.102 55.4654 153.895C55.4336 153.687 55.4518 153.475 55.5185 153.276C55.5927 153.013 55.7585 152.785 55.986 152.633C56.1468 152.538 56.2563 152.538 56.2636 152.552C56.271 152.567 55.8911 152.772 55.7742 153.35C55.7409 153.505 55.7413 153.666 55.7754 153.821C55.8094 153.976 55.8762 154.122 55.9714 154.249C56.0998 154.387 56.2672 154.483 56.4512 154.523C56.6352 154.564 56.8271 154.547 57.0015 154.476C57.1825 154.427 57.3441 154.323 57.4643 154.18C57.5845 154.036 57.6576 153.858 57.6737 153.671C57.6727 153.513 57.6377 153.356 57.5709 153.212C57.504 153.068 57.407 152.941 57.2865 152.838C57.0348 152.645 56.733 152.528 56.4171 152.501Z" fill="white" fill-opacity="0.3"/>
<path d="M44.6389 149.554C44.6389 149.554 44.5001 149.715 44.2152 149.942C43.8054 150.261 43.3649 150.537 42.9001 150.768C42.2019 151.12 41.4668 151.392 40.7084 151.58C39.7925 151.807 38.8536 151.927 37.9103 151.938C36.9642 151.931 36.0225 151.811 35.1049 151.58C34.346 151.393 33.6107 151.121 32.9131 150.768C32.45 150.539 32.0118 150.262 31.6054 149.942C31.3132 149.715 31.1671 149.584 31.1817 149.562C31.1963 149.54 31.8611 149.993 33.03 150.527C33.7147 150.836 34.4264 151.08 35.156 151.258C36.0509 151.458 36.9642 151.564 37.881 151.573C38.795 151.556 39.7051 151.451 40.5988 151.258C41.3284 151.081 42.0401 150.836 42.7248 150.527C43.9521 149.993 44.595 149.496 44.6389 149.554Z" fill="white" fill-opacity="0.3"/>
<path d="M73.1245 152.655C72.728 152.828 72.3003 152.917 71.8679 152.918C69.7628 153.069 67.6723 152.47 65.9649 151.229C65.322 150.753 65.0078 150.373 65.037 150.337C66.2218 151.143 67.5126 151.78 68.8726 152.231C70.2645 152.562 71.6946 152.704 73.1245 152.655Z" fill="white" fill-opacity="0.3"/>
<path d="M14.7725 286.519C14.8289 286.42 14.8731 286.314 14.904 286.204C14.977 285.995 15.0647 285.673 15.167 285.239C15.3715 284.383 15.6418 283.111 15.9779 281.465C16.6354 278.182 17.5267 273.421 18.6007 267.52C20.7413 255.724 23.6051 239.416 26.7539 221.404C29.9027 203.392 32.7885 187.091 34.8633 175.266C35.93 169.416 36.792 164.619 37.3911 161.299C37.698 159.668 37.9317 158.373 38.1217 157.503C38.2021 157.086 38.2678 156.772 38.319 156.523C38.3701 156.275 38.3993 156.187 38.3993 156.187C38.3993 156.187 38.3993 156.304 38.3555 156.531C38.3116 156.757 38.2678 157.101 38.1947 157.518C38.0486 158.41 37.8295 159.712 37.5592 161.328C36.9893 164.648 36.1637 169.423 35.1556 175.318C33.1026 187.143 30.2753 203.451 27.1192 221.47C23.9631 239.489 21.0627 255.79 18.8491 267.542C17.7459 273.392 16.8108 278.189 16.1021 281.436C15.3935 284.683 14.9332 286.577 14.7725 286.519Z" fill="white" fill-opacity="0.3"/>
<path d="M73.453 284.866C73.4464 284.754 73.4464 284.642 73.453 284.53C73.453 284.288 73.453 283.967 73.453 283.542C73.453 282.65 73.453 281.348 73.4165 279.74C73.3799 278.131 73.4165 276.083 73.358 273.714C73.2996 271.344 73.2996 268.697 73.2192 265.743C73.1023 259.834 72.8758 252.806 72.5398 245.003C72.2037 237.2 71.685 228.622 71.0202 219.634C70.3554 210.647 69.559 202.083 68.7408 194.324C67.9225 186.565 67.0897 179.566 66.3226 173.709C65.9573 170.784 65.592 168.129 65.2632 165.803C64.9345 163.478 64.6715 161.474 64.4304 159.843C64.1893 158.213 64.0213 156.918 63.8971 156.077C63.8459 155.66 63.8021 155.346 63.7729 155.097C63.7436 154.849 63.7363 154.761 63.7363 154.761C63.7363 154.761 63.7363 154.871 63.8094 155.09C63.8824 155.309 63.9044 155.646 63.9774 156.063C64.1162 156.94 64.3208 158.205 64.5765 159.821C64.8322 161.438 65.1463 163.478 65.4751 165.774C65.8039 168.07 66.2057 170.74 66.5856 173.672C67.3892 179.523 68.244 186.514 69.0915 194.28C69.9389 202.047 70.7206 210.61 71.4001 219.605C72.0795 228.6 72.5471 237.156 72.8612 244.988C73.1754 252.821 73.3799 259.826 73.4603 265.735C73.5188 268.66 73.5188 271.366 73.5407 273.714C73.5626 276.061 73.5407 278.102 73.5407 279.74C73.5407 281.378 73.5407 282.665 73.5407 283.542C73.5407 283.967 73.5407 284.274 73.5407 284.53C73.5407 284.786 73.453 284.866 73.453 284.866Z" fill="white" fill-opacity="0.3"/>
<path d="M74.2922 61.9011C73.7297 61.4257 64.2103 60.2118 64.2103 60.2118C59.2131 60.0655 51.6663 59.071 46.2746 59.6487C40.4904 61.6947 34.8203 64.0505 29.2887 66.7057C26.1842 68.8234 24.0456 72.0872 23.3418 75.7811L31.5754 122.006L28.1052 142.856C27.5645 147.595 45.1714 149.715 55.6844 150.556C60.5219 150.942 65.376 150.052 69.7626 147.975L77.178 144.457C77.1932 144.46 77.2088 144.458 77.2235 144.454C77.2382 144.449 77.2517 144.441 77.2629 144.431C77.2741 144.42 77.2829 144.407 77.2884 144.393C77.2939 144.378 77.2962 144.363 77.2949 144.348L76.9515 120.317L81.2984 74.3331C81.8829 70.2525 77.4556 64.563 74.2922 61.9011Z" fill="#F95B29"/>
<path d="M64.8242 61.4767C64.8242 61.4767 74.6213 60.9428 79.538 63.3561C84.4548 65.7694 106.138 80.6952 106.138 80.6952L128.362 72.4534L136.223 83.1231L116.973 97.164C114.702 98.6996 112.082 99.6384 109.353 99.894C106.625 100.15 103.876 99.7138 101.36 98.6266L76.4258 88.7395L64.8242 61.4767Z" fill="#F95B29"/>
<path d="M80.4452 80.5781C80.5767 80.5781 79.963 87.8911 79.0717 96.8714C78.1804 105.852 77.3621 113.121 77.2306 113.106C77.0991 113.092 77.7128 105.793 78.6041 96.8203C79.4954 87.8472 80.321 80.5708 80.4452 80.5781Z" fill="black"/>
<g opacity="0.3">
<path d="M29.8819 132.918L29.1514 136.706C34.4773 137.364 39.3794 137.81 44.7346 138.468L66.5934 141.159C68.303 141.371 70.1367 141.561 71.7075 140.779C74.0599 139.572 74.8197 136.589 74.9512 133.949C75.0827 131.309 74.9001 128.486 76.259 126.226C60.4274 128.047 45.5382 130.175 29.8819 132.918Z" fill="black"/>
</g>
<g opacity="0.3">
<path d="M38.6484 114.745C40.7473 106.017 43.5647 97.4775 47.072 89.2151C46.1652 98.23 44.553 107.16 42.2502 115.922" fill="black"/>
</g>
<path d="M38.0924 78.9182C37.3472 77.2761 36.3323 75.7707 35.0897 74.4646C33.7653 73.2458 32.2467 72.2571 30.5967 71.5394C31.1357 71.5953 31.659 71.7542 32.1382 72.0075C33.3361 72.5373 34.4278 73.2807 35.36 74.2014C36.2912 75.1222 37.0507 76.2019 37.6029 77.3898C37.8586 77.8648 38.0245 78.383 38.0924 78.9182Z" fill="black"/>
<path d="M80.526 72.768C80.2028 71.5131 80.0022 70.2297 79.927 68.936C79.7243 67.6522 79.6484 66.3515 79.7005 65.0528C80.0224 66.3104 80.223 67.5961 80.2996 68.8921C80.5021 70.1735 80.5779 71.4717 80.526 72.768Z" fill="black"/>
<path d="M107.424 91.1895C107.109 90.7574 106.863 90.2788 106.694 89.7708C106.216 88.5678 105.902 87.306 105.759 86.0193C105.618 84.7308 105.655 83.4291 105.868 82.1507C105.92 81.6159 106.064 81.0939 106.292 80.6077C106.059 82.387 106.007 84.1856 106.139 85.9754C106.396 87.7514 106.826 89.4978 107.424 91.1895Z" fill="black"/>
<g opacity="0.3">
<path d="M106.094 80.8486C105.174 81.6531 104.976 82.984 104.903 84.2053C104.8 86.0245 104.846 87.8492 105.042 89.6608C105.098 90.6599 105.362 91.6363 105.816 92.5274C105.893 92.6979 106.004 92.8507 106.143 92.9765C106.281 93.1023 106.443 93.1983 106.62 93.2587C107.256 93.405 107.826 92.7176 107.84 92.0667C107.79 91.4159 107.579 90.7878 107.226 90.2385C105.864 87.5138 105.465 84.4074 106.094 81.4264" fill="black"/>
</g>
<path d="M74.9215 62.837C74.9168 63.0084 74.9022 63.1793 74.8777 63.3489C74.8412 63.6853 74.7973 64.1826 74.6951 64.8115C74.4137 66.6342 74.016 68.4369 73.5042 70.2085C71.775 76.2511 68.8287 81.8756 64.8469 86.7358L64.7592 86.8455L64.635 86.787C62.8159 85.9899 60.9383 85.1416 59.0607 84.1982C52.2199 80.7846 45.7513 76.6697 39.7589 71.9198C37.4575 70.0988 35.6896 68.5192 34.4695 67.4223L33.096 66.1279L32.7453 65.7842C32.7044 65.7442 32.6677 65.7001 32.6357 65.6525C32.6859 65.681 32.7325 65.7154 32.7746 65.7549L33.1471 66.0694C33.4978 66.3765 33.9727 66.8007 34.5645 67.3126C35.8138 68.373 37.611 69.916 39.9196 71.7004C45.9435 76.3697 52.411 80.4357 59.2287 83.8399C61.099 84.7833 62.9766 85.6316 64.7811 86.4287L64.5619 86.4799C68.5179 81.6603 71.4781 76.1022 73.2704 70.1281C73.7982 68.371 74.2299 66.5864 74.5635 64.7823C74.6877 64.1461 74.7462 63.6488 74.8119 63.3197C74.8315 63.1554 74.8683 62.9937 74.9215 62.837Z" fill="#FAFAFA"/>
<path d="M71.4798 62.4567C71.4628 62.595 71.436 62.7318 71.3995 62.8663C71.3264 63.1295 71.2387 63.5244 71.0926 64.0217C70.815 65.0236 70.3621 66.4715 69.7338 68.2486C68.0389 72.9701 65.8522 77.4999 63.2097 81.763L63.1074 81.9312L62.9467 81.8215L59.4618 79.4301L44.7626 69.2651L40.3427 66.1498L39.1518 65.2868C39.0057 65.1958 38.8709 65.0878 38.75 64.9651C38.9058 65.04 39.0548 65.1281 39.1957 65.2284L40.4303 66.0328L44.9234 69.0457L59.681 79.1157L63.1659 81.5143L62.8956 81.5655C65.5326 77.3237 67.7495 72.8341 69.5146 68.1608C70.1721 66.4057 70.6543 64.9724 70.9757 63.9851L71.341 62.8516C71.3708 62.7148 71.4175 62.5821 71.4798 62.4567Z" fill="#FAFAFA"/>
<path d="M125.412 90.4437C125.202 90.3902 125.004 90.2985 124.827 90.1731C124.325 89.8771 123.857 89.5263 123.432 89.1273C122.04 87.7826 120.98 86.1329 120.334 84.3081C119.705 82.5002 119.288 80.6253 119.092 78.721C118.963 77.9406 118.907 77.1498 118.924 76.3589C119.129 77.1192 119.276 77.8943 119.362 78.6771C119.631 80.5482 120.076 82.3896 120.692 84.1764C121.322 85.9508 122.318 87.5728 123.614 88.9372C124.637 89.961 125.448 90.3852 125.412 90.4437Z" fill="#FAFAFA"/>
<path d="M129.254 88.3666C129.089 88.25 128.941 88.1095 128.816 87.9497C128.546 87.6645 128.181 87.2184 127.749 86.6846C126.636 85.242 125.658 83.6998 124.827 82.0774C123.995 80.4565 123.32 78.7594 122.811 77.0095C122.614 76.344 122.482 75.7955 122.409 75.408C122.345 75.2149 122.317 75.0115 122.329 74.8083C122.609 75.5018 122.853 76.2097 123.059 76.9291C123.641 78.6337 124.342 80.2954 125.156 81.9019C125.983 83.5042 126.918 85.0484 127.954 86.5237C128.426 87.1095 128.861 87.725 129.254 88.3666Z" fill="#FAFAFA"/>
<path d="M77.3827 140.662C77.2446 140.762 77.0979 140.85 76.9444 140.925L75.6513 141.605L74.6796 142.124C74.3362 142.292 73.949 142.446 73.5326 142.629C72.6997 142.98 71.7646 143.426 70.6834 143.777L68.9957 144.369C68.4113 144.574 67.783 144.72 67.1401 144.91C65.8615 145.305 64.4515 145.576 62.9831 145.89C59.7697 146.474 56.5104 146.768 53.2445 146.768C49.9771 146.718 46.7206 146.378 43.5132 145.751C42.0521 145.415 40.642 145.13 39.3708 144.713C38.7279 144.516 38.0996 144.355 37.5152 144.143L35.8422 143.528C34.7609 143.163 33.8404 142.702 33.0148 142.344C32.5984 142.153 32.2112 141.993 31.8678 141.817L30.9327 141.32L29.6542 140.589C29.5007 140.514 29.354 140.426 29.2158 140.325C29.3804 140.375 29.5396 140.441 29.6907 140.523L30.9984 141.166L31.9482 141.634C32.2989 141.795 32.6788 141.949 33.0952 142.124C33.928 142.468 34.8559 142.907 35.9371 143.25L37.6102 143.843C38.1946 144.048 38.8156 144.201 39.4585 144.384C40.7224 144.786 42.1251 145.064 43.579 145.386C46.767 145.988 50.0006 146.316 53.2445 146.366C56.4867 146.359 59.7225 146.077 62.9173 145.525C64.3785 145.218 65.7812 144.969 67.0597 144.581C67.6953 144.406 68.3236 144.26 68.9081 144.07L70.5957 143.499C71.6769 143.17 72.6121 142.768 73.4449 142.409C73.8614 142.241 74.2559 142.095 74.6066 141.934L75.5563 141.481L76.8786 140.859C77.0376 140.772 77.207 140.706 77.3827 140.662Z" fill="#FAFAFA"/>
<path d="M69.7769 137.846L39.7064 130.365C39.3591 130.279 39.0322 130.125 38.7443 129.912C38.4565 129.699 38.2134 129.431 38.0288 129.124C37.8443 128.817 37.722 128.477 37.6689 128.123C37.6157 127.769 37.6328 127.407 37.7192 127.06L47.7939 86.5019C47.8793 86.1537 48.0327 85.8259 48.2451 85.5373C48.4576 85.2486 48.7249 85.0049 49.0318 84.82C49.3387 84.6352 49.679 84.5129 50.0333 84.4601C50.3876 84.4074 50.7487 84.4253 51.0961 84.5127L72.1221 89.7488L80.9767 104.046L73.0791 135.857C72.9928 136.205 72.8389 136.532 72.6262 136.82C72.4136 137.108 72.1463 137.352 71.8396 137.536C71.533 137.721 71.193 137.843 70.8391 137.897C70.4851 137.95 70.1242 137.933 69.7769 137.846Z" fill="#455A64"/>
<path d="M72.1457 89.6466L70.1439 97.6909C70.0249 98.1649 70.0007 98.6577 70.0727 99.1411C70.1446 99.6245 70.3114 100.089 70.5633 100.507C70.8152 100.926 71.1473 101.291 71.5404 101.581C71.9336 101.87 72.3802 102.079 72.8544 102.196L80.9784 104.031L72.1457 89.6466Z" fill="#263238"/>
<path d="M68.3757 123.842C68.3757 123.951 63.722 122.891 58.0381 121.472C52.3542 120.054 47.7589 118.825 47.81 118.715C47.8611 118.606 52.4638 119.673 58.155 121.092C63.8462 122.511 68.4049 123.747 68.3757 123.842Z" fill="white"/>
<path d="M54.7351 119.505L59.8492 118.942C59.8492 118.942 61.9678 115.425 63.3559 114.196C64.744 112.968 71.9329 109.531 71.9329 109.531C72.2257 109.886 72.3858 110.332 72.3858 110.792C72.3858 111.252 72.2257 111.698 71.9329 112.054C71.458 112.624 68.0609 114.533 68.0609 114.533C67.9688 114.854 67.9599 115.193 68.0352 115.519C68.1104 115.844 68.2673 116.145 68.491 116.393C68.7147 116.642 68.9978 116.828 69.3137 116.937C69.6296 117.045 69.9678 117.071 70.2964 117.012C72.4005 116.624 74.8552 116.185 75.1767 116.185C75.4981 116.185 77.6387 114.196 79.1802 112.69C79.3807 112.495 79.638 112.37 79.9146 112.333C80.1912 112.295 80.4725 112.347 80.7174 112.481C80.9623 112.615 81.1579 112.824 81.2757 113.078C81.3935 113.331 81.4272 113.615 81.372 113.889C81.3424 114.007 81.2789 114.114 81.1893 114.196C81.1893 114.196 83.3811 114.123 81.4304 117.121C81.4304 117.121 81.8834 119.871 80.2615 121.136C80.2615 121.136 79.5309 124.464 78.5154 125.612C77.4999 126.76 67.3303 128.961 67.3303 128.961L52.7188 130.731L54.7351 119.505Z" fill="#FFBE9D"/>
<path d="M71.2393 120.185C71.8429 120.286 72.4579 120.301 73.0657 120.229C74.5615 120.196 76.0284 119.811 77.3469 119.103C78.6014 118.276 79.6288 117.147 80.3349 115.819C80.6751 115.311 80.9362 114.754 81.1094 114.167C80.7084 114.618 80.3535 115.108 80.05 115.629C79.3089 116.846 78.3116 117.887 77.1277 118.679C75.8614 119.344 74.4758 119.752 73.0511 119.878C72.437 119.907 71.8286 120.01 71.2393 120.185Z" fill="#EB996E"/>
<path d="M72.292 122.533C72.8282 122.712 73.4 122.757 73.9577 122.665C74.5622 122.619 75.1628 122.531 75.7549 122.401C76.5041 122.26 77.2172 121.969 77.8517 121.546C78.4313 121.07 78.9557 120.53 79.4151 119.937L80.5329 118.54C80.9153 118.134 81.2353 117.673 81.4826 117.173C81.0329 117.499 80.6297 117.885 80.2845 118.321C79.9338 118.694 79.5539 119.147 79.0864 119.659C78.6301 120.21 78.1211 120.714 77.5668 121.165C76.9828 121.554 76.331 121.829 75.6453 121.977C75.0776 122.126 74.502 122.243 73.9212 122.328C72.9203 122.489 72.2993 122.467 72.292 122.533Z" fill="#EB996E"/>
<path d="M73.7227 125.158C73.7227 125.348 75.571 124.961 77.7262 124.361C78.0242 124.27 78.2952 124.107 78.5152 123.886C78.7198 123.696 78.9024 123.505 79.0705 123.323C79.3617 122.989 79.6256 122.631 79.8595 122.255C80.254 121.604 80.3636 121.136 80.3052 121.121C80.2467 121.107 80.0275 121.494 79.5746 122.065C79.3179 122.402 79.0397 122.722 78.7417 123.023C78.5748 123.204 78.3967 123.375 78.2084 123.535C78.039 123.706 77.831 123.834 77.602 123.908C76.5062 124.2 75.5418 124.507 74.8404 124.734C74.4531 124.833 74.0782 124.975 73.7227 125.158Z" fill="#EB996E"/>
<path d="M33.9063 113.209L38.5747 87.9425C38.6259 87.533 35.8424 76.4758 23.4664 75.2399L17.8848 94.2536C16.4236 100.243 14.2319 108.602 13.3041 119.498C12.7123 126.27 19.2144 132.522 26.8124 133.575L27.1193 133.619C40.1235 135.214 52.6895 133.129 54.3771 132.676L56.2035 118.862C56.357 118.913 33.9063 113.209 33.9063 113.209Z" fill="#F95B29"/>
<path d="M21.6979 115.797C21.6801 115.693 21.6801 115.587 21.6979 115.483C21.7557 115.186 21.8388 114.895 21.9462 114.613C22.3355 113.546 22.9714 112.586 23.8019 111.812C25.065 110.603 26.7306 109.904 28.4776 109.852C29.5743 109.818 30.6652 110.023 31.6746 110.454C32.6839 110.884 33.5874 111.53 34.3222 112.346L34.0008 112.441C34.2272 110.927 34.4683 109.325 34.7313 107.687C35.6153 102.02 36.419 96.8933 37.0107 93.1198C37.3103 91.2916 37.5587 89.7997 37.7413 88.732C37.829 88.2421 37.902 87.8472 37.9605 87.5327C37.9754 87.3921 38.0098 87.2543 38.0628 87.1232C38.0742 87.2643 38.0742 87.4062 38.0628 87.5473C38.0628 87.8618 37.9751 88.2786 37.9167 88.754C37.7632 89.8509 37.5587 91.3501 37.303 93.1783C36.7404 96.9591 35.9806 102.093 35.1112 107.76L34.3807 112.521L34.3222 112.916L34.0592 112.616C33.3635 111.84 32.5102 111.222 31.5563 110.803C30.6025 110.385 29.5702 110.175 28.5287 110.188C26.8508 110.227 25.244 110.874 24.0065 112.009C23.1846 112.751 22.536 113.665 22.107 114.686C21.8001 115.351 21.7271 115.797 21.6979 115.797Z" fill="black"/>
<path d="M34.3138 112.872C34.4526 112.899 34.5893 112.936 34.7229 112.982L35.9138 113.348C36.9439 113.67 38.4635 114.13 40.3849 114.679C44.2351 115.768 49.7363 117.172 56.2457 118.672L56.3992 118.708V118.862C55.8951 123.125 55.3325 127.813 54.7408 132.756V132.903H54.5946L53.6814 133.042C48.8403 133.755 43.9612 134.179 39.0699 134.314C35.0804 134.521 31.0802 134.342 27.125 133.78C24.4387 133.381 21.8768 132.381 19.6292 130.855C19.2825 130.609 18.9508 130.343 18.6357 130.058C18.3983 129.858 18.1738 129.643 17.9635 129.414L17.5836 128.99C17.4959 128.895 17.4594 128.844 17.4667 128.837L17.6128 128.968L18.022 129.363C18.2374 129.58 18.4668 129.783 18.7087 129.97C19.028 130.236 19.3648 130.481 19.7169 130.701C21.9702 132.18 24.5225 133.142 27.1907 133.517C30.5367 134.087 34.5914 134.087 39.0845 133.963C43.9538 133.806 48.8103 133.371 53.6303 132.661L54.5362 132.522L54.3828 132.691L56.0704 118.796L56.2019 118.986C49.6925 117.465 44.1985 116.01 40.363 114.862C38.4416 114.284 36.9366 113.794 35.9138 113.399C35.3951 113.223 35.0079 113.077 34.7449 112.982C34.5982 112.959 34.4539 112.922 34.3138 112.872Z" fill="black"/>
<g opacity="0.3">
<path d="M34.2206 112.28C33.7088 112.087 33.1596 112.013 32.6152 112.065C32.0707 112.117 31.5453 112.293 31.0791 112.58C29.9759 113.148 29.0081 113.948 28.2416 114.925C27.4751 115.902 26.9279 117.032 26.6372 118.24C26.4941 118.742 26.474 119.271 26.5788 119.783C26.6325 120.039 26.7537 120.275 26.9297 120.468C27.1057 120.661 27.3302 120.803 27.5797 120.88C27.8968 120.925 28.2203 120.874 28.5082 120.733C28.7961 120.592 29.0351 120.368 29.1942 120.09C29.507 119.53 29.7336 118.926 29.8664 118.298C30.599 115.913 32.122 113.85 34.1841 112.448" fill="black"/>
</g>
<path d="M43.2657 133.473C43.1565 133.264 43.0778 133.039 43.0319 132.808C42.8608 132.197 42.7242 131.576 42.6228 130.95C41.9174 126.766 42.3619 122.469 43.9086 118.518C44.1347 117.923 44.3957 117.342 44.6903 116.778C44.7834 116.562 44.9063 116.36 45.0556 116.178C45.114 116.178 44.683 117.099 44.157 118.606C42.7847 122.541 42.3494 126.743 42.8858 130.877C43.083 132.493 43.3241 133.458 43.2657 133.473Z" fill="#FAFAFA"/>
<path d="M48.2917 133.553C48.2917 133.553 48.0214 133.553 47.7292 133.166C47.3866 132.631 47.2017 132.01 47.1958 131.374C47.0246 129.352 47.0246 127.319 47.1958 125.297C47.35 123.273 47.68 121.267 48.1821 119.3C48.3794 118.569 48.562 117.948 48.7008 117.538C48.7545 117.316 48.8433 117.103 48.9638 116.909C49.015 116.909 48.7666 117.852 48.4451 119.366C47.6057 123.305 47.284 127.337 47.4881 131.36C47.4651 131.956 47.5986 132.549 47.8753 133.078C48.0725 133.436 48.3136 133.524 48.2917 133.553Z" fill="#FAFAFA"/>
<path d="M45.3253 31.9325L46.3189 60.8626C46.399 63.2325 47.4159 65.4735 49.1462 67.0931C50.8765 68.7127 53.1785 69.5781 55.5461 69.4992C57.8232 69.4256 59.9863 68.4848 61.5938 66.8688C63.2014 65.2529 64.1322 63.0837 64.1961 60.8041C64.2692 58.2153 64.3203 56.0507 64.3203 56.0507C64.3203 56.0507 71.5165 55.2828 71.9403 48.138C72.1448 44.6936 71.9987 37.5708 71.7795 31.1207C71.6657 27.646 70.2063 24.3519 67.7099 21.9349C65.2135 19.5179 61.8758 18.1676 58.4027 18.1694C56.6339 18.1896 54.8871 18.5644 53.2655 19.2717C51.6439 19.979 50.1803 21.0044 48.9612 22.2874C47.7422 23.5703 46.7924 25.0849 46.1679 26.7415C45.5434 28.3981 45.2569 30.1632 45.3253 31.9325Z" fill="#FFBE9D"/>
<path d="M64.3269 56.0723C61.0266 55.9779 57.8294 54.9009 55.1436 52.9789C55.1436 52.9789 57.1015 58.2296 64.2538 57.9224L64.3269 56.0723Z" fill="black" fill-opacity="0.16"/>
<path d="M69.4353 36.0861C69.4257 36.3519 69.3126 36.6033 69.12 36.7865C68.9274 36.9697 68.6708 37.0701 68.4052 37.0661C68.2721 37.0741 68.1388 37.0546 68.0136 37.0089C67.8884 36.9632 67.7739 36.8921 67.6773 36.8002C67.5807 36.7083 67.504 36.5975 67.452 36.4746C67.4 36.3518 67.3738 36.2195 67.375 36.0861C67.3845 35.8197 67.4975 35.5675 67.6899 35.3831C67.8822 35.1988 68.1388 35.0968 68.4052 35.0989C68.5386 35.0919 68.672 35.1123 68.7972 35.1589C68.9225 35.2054 69.0369 35.2772 69.1334 35.3697C69.2299 35.4621 69.3064 35.5734 69.3584 35.6966C69.4103 35.8198 69.4365 35.9524 69.4353 36.0861Z" fill="black"/>
<path d="M70.0696 34.6238C69.9381 34.7482 69.193 34.1412 68.0971 34.09C67.0012 34.0388 66.1684 34.5507 66.0515 34.4118C65.9346 34.2728 66.1391 34.1119 66.5044 33.8779C66.9918 33.5679 67.5644 33.4194 68.1409 33.4538C68.7124 33.4763 69.2612 33.6842 69.7044 34.0461C70.0331 34.324 70.1354 34.5726 70.0696 34.6238Z" fill="black"/>
<path d="M59.0388 36.0862C59.0274 36.3533 58.9129 36.6055 58.7194 36.7897C58.5258 36.9739 58.2684 37.0756 58.0014 37.0735C57.871 37.0774 57.7411 37.0552 57.6194 37.0081C57.4978 36.9611 57.3867 36.8902 57.2928 36.7996C57.1988 36.709 57.124 36.6005 57.0725 36.4805C57.0211 36.3605 56.9941 36.2314 56.9932 36.1008C57.0027 35.8344 57.1156 35.5822 57.308 35.3979C57.5003 35.2135 57.757 35.1115 58.0233 35.1136C58.154 35.1097 58.2842 35.1319 58.4063 35.1788C58.5284 35.2258 58.64 35.2966 58.7345 35.3871C58.829 35.4776 58.9045 35.586 58.9568 35.7061C59.009 35.8261 59.0369 35.9553 59.0388 36.0862Z" fill="black"/>
<path d="M59.2738 34.3236C59.1423 34.4479 58.3971 33.841 57.3012 33.7898C56.2054 33.7386 55.3725 34.2505 55.2556 34.1115C55.1387 33.9726 55.3433 33.819 55.7013 33.5777C56.1919 33.2689 56.7664 33.1206 57.3451 33.1535C57.9166 33.1761 58.4653 33.384 58.9085 33.7459C59.2373 34.0165 59.3395 34.2651 59.2738 34.3236Z" fill="black"/>
<path d="M62.8727 42.6676C63.4582 42.5069 64.0627 42.4257 64.6699 42.4263C64.9475 42.4263 65.2178 42.3678 65.2763 42.1776C65.31 41.8883 65.2565 41.5954 65.1229 41.3366C64.8988 40.6492 64.6553 39.9179 64.3923 39.1427C63.3841 36.0494 62.6681 33.5044 62.7923 33.4679C62.9165 33.4313 63.837 35.9031 64.8452 38.9965L65.532 41.1904C65.697 41.5372 65.7307 41.9321 65.627 42.3019C65.5806 42.3971 65.5141 42.4811 65.4321 42.548C65.3501 42.6149 65.2546 42.6632 65.1521 42.6895C64.9938 42.724 64.8318 42.7387 64.6699 42.7334C64.0704 42.7842 63.4669 42.7622 62.8727 42.6676Z" fill="black"/>
<path d="M59.6073 43.2675C59.7826 43.2675 59.7315 44.4595 60.7105 45.3517C61.6894 46.2439 62.9899 46.1781 62.9899 46.3243C62.9899 46.4706 62.6976 46.5437 62.1643 46.5364C61.4699 46.5211 60.8028 46.2623 60.2794 45.8051C59.7807 45.3541 59.4746 44.7282 59.4246 44.0573C59.3735 43.5454 59.5196 43.2529 59.6073 43.2675Z" fill="black"/>
<path d="M59.7615 30.0312C59.6373 30.3237 58.5487 30.1335 57.2556 30.2213C55.9625 30.3091 54.8959 30.6235 54.7424 30.3456C54.6694 30.214 54.8666 29.9434 55.2977 29.6728C55.8726 29.3385 56.5186 29.1455 57.1826 29.1097C57.8444 29.0596 58.5085 29.17 59.1186 29.4315C59.5862 29.6436 59.8126 29.8922 59.7615 30.0312Z" fill="black"/>
<path d="M69.8143 31.428C69.6098 31.6693 68.8719 31.3768 67.9587 31.3183C67.0454 31.2598 66.271 31.406 66.1103 31.1354C66.0372 31.0111 66.1688 30.7625 66.5194 30.5431C66.9806 30.2737 67.5147 30.156 68.0463 30.2067C68.5806 30.2409 69.0912 30.4402 69.5075 30.7771C69.8143 31.0477 69.9093 31.311 69.8143 31.428Z" fill="black"/>
<path d="M53.4418 24.5756H53.4053C52.2233 25.4197 51.4121 26.6874 51.1405 28.1151V28.2614C50.7606 30.287 50.7167 32.3639 50.3222 34.3823C50.0272 36.4403 49.0525 38.3403 47.5533 39.7793C46.9031 40.3278 45.7926 40.6715 45.3178 39.9694C45.1564 39.6825 45.0828 39.3545 45.1059 39.026C44.9598 34.0825 43.8201 29.6508 44.0685 24.5025C44.1025 23.8123 44.2989 23.1399 44.6417 22.5401C44.9845 21.9403 45.4639 21.43 46.041 21.0508C47.1515 20.3195 48.5031 19.5882 49.6939 20.2171C50.8848 20.846 52.3094 23.1423 53.1934 24.1515" fill="black"/>
<path d="M47.5748 35.3985C47.4506 35.34 42.7311 33.7165 42.658 38.6089C42.585 43.5013 47.5091 42.5725 47.5164 42.4262C47.5237 42.28 47.5748 35.3985 47.5748 35.3985Z" fill="#FFBE9D"/>
<path d="M46.0565 40.5544C46.0565 40.5544 45.9689 40.6129 45.8228 40.6714C45.6189 40.754 45.391 40.754 45.1872 40.6714C44.8748 40.4658 44.6229 40.1805 44.4572 39.8451C44.2916 39.5096 44.2182 39.136 44.2447 38.7627C44.2353 38.3414 44.3228 37.9236 44.5004 37.5415C44.5488 37.3896 44.6333 37.2518 44.7465 37.1397C44.8597 37.0276 44.9984 36.9447 45.1506 36.8979C45.2485 36.875 45.3513 36.8865 45.4418 36.9304C45.5322 36.9744 45.6048 37.0481 45.6474 37.1392C45.7132 37.2782 45.6474 37.3733 45.7059 37.3879C45.7643 37.4025 45.8081 37.3074 45.7716 37.1027C45.7478 36.9823 45.6833 36.8739 45.589 36.7955C45.5243 36.7425 45.4494 36.7035 45.3689 36.6808C45.2885 36.6582 45.2042 36.6524 45.1214 36.6639C44.9203 36.6974 44.7312 36.7823 44.5724 36.9104C44.4137 37.0385 44.2908 37.2055 44.2155 37.3952C44.0021 37.8138 43.8943 38.2782 43.9013 38.7481C43.867 39.1837 43.9633 39.6197 44.1781 40.0002C44.3929 40.3806 44.7162 40.6882 45.1068 40.8835C45.2374 40.9249 45.3757 40.9359 45.5112 40.9156C45.6467 40.8954 45.7757 40.8443 45.8885 40.7665C46.0419 40.6714 46.0711 40.5617 46.0565 40.5544Z" fill="#EB996E"/>
<path d="M48.9123 21.7455C47.5095 19.9319 50.483 16.78 52.7989 15.7562C55.1149 14.7324 58.4024 15.5661 60.8353 16.0999C62.3987 16.429 63.9767 16.9628 65.5548 16.7288C66.6036 16.5045 67.6132 16.125 68.5502 15.6026C69.4891 15.0845 70.5228 14.7612 71.5894 14.652C72.1244 14.6032 72.6624 14.703 73.1445 14.9403C73.6265 15.1777 74.0338 15.5435 74.3217 15.9975C74.4488 16.229 74.5248 16.485 74.5448 16.7483C74.5648 17.0117 74.5282 17.2763 74.4376 17.5243C74.3469 17.7723 74.2042 17.998 74.0192 18.1862C73.8341 18.3745 73.6109 18.5209 73.3647 18.6156C73.6835 18.4037 74.0483 18.2713 74.4287 18.2294C74.8091 18.1876 75.194 18.2376 75.5512 18.3752C75.9083 18.5128 76.2273 18.7341 76.4815 19.0204C76.7357 19.3067 76.9178 19.6499 77.0123 20.0211C77.1069 20.3923 77.1112 20.7807 77.0251 21.154C76.9389 21.5272 76.7646 21.8743 76.5169 22.1663C76.2692 22.4583 75.9553 22.6867 75.6013 22.8323C75.2474 22.9779 74.8637 23.0366 74.4824 23.0034C75.118 22.4037 76.2724 23.1569 76.2797 24.0272C76.2321 24.4625 76.0724 24.8781 75.8163 25.2332C75.5602 25.5882 75.2164 25.8707 74.8185 26.0529C72.8898 27.1645 70.5008 27.1352 68.3237 26.6599C66.1466 26.1845 64.079 25.2923 61.9238 24.7658C59.7686 24.2393 56.123 23.252 54.1213 24.2173C52.6601 24.9486 51.7761 26.8939 50.8629 26.5794C50.4291 26.4002 50.0439 26.1204 49.7391 25.7632C49.4343 25.406 49.2185 24.9814 49.1095 24.5245C48.8888 23.6158 48.8172 22.6772 48.8976 21.7455" fill="black"/>
<path d="M73.1451 18.9662C73.1451 18.9662 73.2328 19.0101 73.3862 19.1198C73.6109 19.28 73.7856 19.5006 73.8903 19.756C74.0807 20.2219 74.0969 20.7409 73.9359 21.2178C73.7749 21.6947 73.4474 22.0975 73.0136 22.3521C72.4127 22.7134 71.7274 22.9102 71.0264 22.9226C70.2221 22.9299 69.4214 22.814 68.6521 22.5788C66.9035 21.9609 65.2317 21.1438 63.6695 20.1436C62.085 19.1351 60.3174 18.4492 58.4678 18.1252C57.6501 18.02 56.8198 18.0696 56.0204 18.2715C55.329 18.461 54.6762 18.7704 54.0917 19.1856C53.2496 19.7675 52.5644 20.5488 52.0972 21.46C51.9255 21.7948 51.8001 22.1516 51.7246 22.5203C51.7246 22.5203 51.8415 22.1328 52.1703 21.4965C52.6516 20.6025 53.3407 19.8375 54.1793 19.2661C54.7528 18.8663 55.3939 18.5739 56.0715 18.4031C56.8502 18.2104 57.6581 18.1658 58.4532 18.2715C60.2712 18.6065 62.0076 19.2894 63.5673 20.2826C65.1382 21.2947 66.826 22.1124 68.5936 22.7178C69.3792 22.9581 70.1979 23.0716 71.0191 23.0542C71.7452 23.043 72.4556 22.8412 73.0794 22.4691C73.3418 22.2903 73.5716 22.0676 73.7588 21.811C73.9224 21.579 74.0345 21.3147 74.0876 21.0358C74.1811 20.5903 74.1299 20.1265 73.9415 19.7122C73.8249 19.451 73.6344 19.2298 73.3935 19.0759C73.3161 19.0282 73.2325 18.9912 73.1451 18.9662Z" fill="white" fill-opacity="0.3"/>
<path d="M55.8591 16.4947C55.8591 16.4947 55.7495 16.4947 55.5449 16.4947C55.2573 16.5118 54.9728 16.5634 54.6974 16.6483C53.7678 16.9079 52.9388 17.4441 52.3204 18.1859C51.702 18.9277 51.3233 19.84 51.2345 20.802C51.2005 21.0887 51.2005 21.3783 51.2345 21.665C51.2345 21.7732 51.2568 21.8803 51.3003 21.9794C51.3003 21.9794 51.3003 21.526 51.3733 20.8167C51.4961 19.895 51.8768 19.0269 52.4714 18.3126C53.0661 17.5983 53.8505 17.067 54.734 16.7799C55.4134 16.5459 55.8664 16.5313 55.8591 16.4947Z" fill="white" fill-opacity="0.3"/>
<path d="M44.1484 29.0366C44.272 29.1039 44.4096 29.1415 44.5503 29.1463C44.9338 29.1783 45.3181 29.0942 45.6534 28.905C46.157 28.6374 46.5635 28.2178 46.815 27.7056C47.1217 27.0965 47.3477 26.45 47.4872 25.7823C47.625 25.1279 47.8459 24.4938 48.1447 23.8956C48.3864 23.4174 48.7655 23.0227 49.2333 22.7621C49.5488 22.5817 49.9074 22.4907 50.2707 22.4988C50.5264 22.4988 50.6652 22.5646 50.6725 22.55C50.5535 22.476 50.4178 22.4332 50.278 22.4257C49.8957 22.382 49.5091 22.4532 49.1675 22.6304C48.6576 22.8889 48.2412 23.3006 47.9767 23.8078C47.6683 24.4176 47.4375 25.0638 47.2899 25.7311C47.1525 26.3828 46.9391 27.016 46.6543 27.6179C46.4206 28.1043 46.0465 28.5093 45.5804 28.7807C45.2717 28.9732 44.9139 29.0723 44.5503 29.0659C44.2946 29.0659 44.1557 29.0147 44.1484 29.0366Z" fill="white" fill-opacity="0.3"/>
<path d="M44.4053 32.269C44.4053 32.269 44.4491 32.269 44.5295 32.269C44.6452 32.2919 44.7624 32.3065 44.8801 32.3129C45.3163 32.3439 45.7546 32.3093 46.1806 32.2105C47.6051 31.8713 48.8525 31.0137 49.68 29.8045C50.4924 28.6029 50.9944 27.2185 51.1412 25.7751C51.1526 25.5282 51.1894 25.2831 51.2508 25.0438C51.2958 24.8705 51.3957 24.7165 51.5357 24.605C51.6543 24.5092 51.8 24.4529 51.9521 24.4441C51.8724 24.4201 51.788 24.4162 51.7064 24.4328C51.6248 24.4494 51.5486 24.4859 51.4846 24.5392C51.3245 24.6559 51.2045 24.8194 51.1412 25.0072C51.0666 25.2451 51.0176 25.4902 50.9951 25.7385C50.8198 27.1457 50.3195 28.4928 49.5339 29.6729C48.7332 30.8429 47.5414 31.6883 46.1733 32.0569C45.5969 32.2107 45.0016 32.2821 44.4053 32.269Z" fill="white" fill-opacity="0.3"/>
</g>
<defs>
<clipPath id="clip0_416_56255">
<rect width="188" height="216" fill="white"/>
</clipPath>
</defs>
</svg>
