<svg width="188" height="216" viewBox="0 0 188 216" fill="none" xmlns="http://www.w3.org/2000/svg">
<g clip-path="url(#clip0_415_53396)">
<path fill-rule="evenodd" clip-rule="evenodd" d="M53.0657 297.2C16.4835 269.589 5.60641 221.129 1.21553 175.475C-2.93136 132.357 2.75144 87.6859 29.6467 53.6979C55.9205 20.4953 97.505 4.46774 139.634 0.55307C179.505 -3.15172 215.741 13.2362 250.436 33.182C292.009 57.0818 337.986 79.2154 354.688 124.184C374.722 178.124 384.277 247.184 345.853 290.083C308.165 332.16 241.119 309.323 184.692 310.695C138.715 311.813 89.7565 324.894 53.0657 297.2Z" fill="#F95B29"/>
<path fill-rule="evenodd" clip-rule="evenodd" d="M53.0657 297.2C16.4835 269.589 5.60641 221.129 1.21553 175.475C-2.93136 132.357 2.75144 87.6859 29.6467 53.6979C55.9205 20.4953 97.505 4.46774 139.634 0.55307C179.505 -3.15172 215.741 13.2362 250.436 33.182C292.009 57.0818 337.986 79.2154 354.688 124.184C374.722 178.124 384.277 247.184 345.853 290.083C308.165 332.16 241.119 309.323 184.692 310.695C138.715 311.813 89.7565 324.894 53.0657 297.2Z" fill="white" fill-opacity="0.8"/>
<g clip-path="url(#clip1_415_53396)">
<path d="M151.881 82.2771L146.926 165.624C137.656 171.027 128.062 175.931 114.907 175.194L52.2393 169.548L63.15 72.9873L151.881 82.2771Z" fill="#181423" fill-opacity="0.3"/>
<path d="M156.612 78.3343L151.654 161.665L119.638 171.251L56.9043 165.619L63.2536 71.7873L156.612 78.3343Z" fill="white"/>
<path d="M141.667 154.427L151.672 161.678C148.022 165.012 143.72 167.553 139.039 169.143C132.779 171.09 126.206 171.832 119.669 171.33C119.669 171.33 134.473 168.284 141.667 154.427Z" fill="#181423"/>
<path d="M141.667 154.427L151.672 161.678C148.022 165.012 143.72 167.553 139.039 169.143C132.779 171.09 126.206 171.832 119.669 171.33C119.669 171.33 134.473 168.284 141.667 154.427Z" fill="white" fill-opacity="0.88"/>
<path d="M161.145 97.7277L123.636 73.9789L128.576 66.0798L166.903 89.3906L161.145 97.7277Z" fill="white" fill-opacity="0.5"/>
<path d="M50.4177 91.1709L86.0391 64.6728L91.6572 72.1226L56.1355 99.5408L50.4177 91.1709Z" fill="white" fill-opacity="0.5"/>
<mask id="path-7-inside-1_415_53396" fill="white">
<path d="M71.5841 102.159C71.6303 102.389 87.4352 103.721 107.026 105.095C126.616 106.469 142.463 107.417 142.539 107.112C142.614 106.806 126.688 105.549 107.077 104.162C87.4669 102.775 71.6035 101.916 71.5841 102.159Z"/>
</mask>
<path d="M71.5841 102.159C71.6303 102.389 87.4352 103.721 107.026 105.095C126.616 106.469 142.463 107.417 142.539 107.112C142.614 106.806 126.688 105.549 107.077 104.162C87.4669 102.775 71.6035 101.916 71.5841 102.159Z" fill="#E0E0E0"/>
<path d="M71.5841 102.159L69.6769 102.543L69.6232 102.275L69.6449 102.004L71.5841 102.159ZM73.4912 101.775C73.3654 101.15 72.9815 100.795 72.8454 100.68C72.6783 100.538 72.5257 100.459 72.458 100.426C72.3159 100.356 72.2019 100.323 72.1798 100.316C72.115 100.297 72.0842 100.294 72.1277 100.302C72.1972 100.314 72.3365 100.336 72.5651 100.365C73.0116 100.423 73.6869 100.497 74.5793 100.586C76.3581 100.763 78.9381 100.993 82.1373 101.259C88.5327 101.792 97.3729 102.468 107.162 103.155L106.89 107.036C97.088 106.348 88.2305 105.671 81.8143 105.137C78.6077 104.87 76.0034 104.638 74.1936 104.457C73.2916 104.367 72.5716 104.289 72.0683 104.224C71.8221 104.192 71.5979 104.16 71.4212 104.128C71.3417 104.113 71.2172 104.089 71.0887 104.051C71.0347 104.035 70.8964 103.994 70.7375 103.915C70.6614 103.878 70.5023 103.794 70.3306 103.649C70.19 103.53 69.8035 103.172 69.6769 102.543L73.4912 101.775ZM107.162 103.155C116.953 103.841 125.804 104.421 132.213 104.791C135.419 104.976 138.003 105.108 139.786 105.175C140.681 105.208 141.352 105.224 141.792 105.224C142.019 105.223 142.144 105.218 142.195 105.215C142.232 105.212 142.173 105.214 142.072 105.236C142.033 105.244 141.88 105.278 141.693 105.366C141.646 105.388 140.878 105.718 140.65 106.647L144.428 107.576C144.197 108.514 143.419 108.854 143.354 108.884C143.15 108.981 142.972 109.022 142.899 109.038C142.733 109.074 142.578 109.088 142.49 109.094C142.291 109.109 142.049 109.114 141.797 109.114C141.28 109.115 140.548 109.097 139.64 109.063C137.818 108.995 135.202 108.861 131.988 108.676C125.557 108.304 116.689 107.723 106.89 107.036L107.162 103.155ZM140.65 106.647C140.362 107.816 141.189 108.516 141.32 108.62C141.538 108.792 141.737 108.871 141.778 108.887C141.898 108.935 141.978 108.949 141.942 108.941C141.903 108.933 141.789 108.912 141.567 108.88C141.14 108.819 140.479 108.743 139.59 108.652C137.821 108.472 135.24 108.244 132.031 107.981C125.618 107.456 116.743 106.796 106.94 106.103L107.215 102.221C117.022 102.915 125.915 103.577 132.349 104.103C135.564 104.367 138.176 104.597 139.985 104.781C140.885 104.873 141.609 104.956 142.115 105.028C142.359 105.063 142.599 105.101 142.794 105.145C142.876 105.164 143.043 105.203 143.22 105.273C143.29 105.301 143.51 105.39 143.741 105.574C143.885 105.688 144.718 106.398 144.428 107.576L140.65 106.647ZM106.94 106.103C97.1423 105.409 88.2838 104.849 81.8758 104.491C78.6702 104.313 76.086 104.186 74.3068 104.118C73.4139 104.084 72.7407 104.066 72.2984 104.064C72.0708 104.062 71.9381 104.065 71.8775 104.068C71.8356 104.071 71.8823 104.07 71.9677 104.055C71.995 104.051 72.1456 104.025 72.3319 103.949C72.4203 103.913 72.6276 103.822 72.8463 103.637C73.0658 103.45 73.4671 103.016 73.5233 102.314L69.6449 102.004C69.7013 101.298 70.1049 100.86 70.3285 100.67C70.5514 100.481 70.7648 100.387 70.8612 100.347C71.0634 100.265 71.2377 100.233 71.2962 100.223C71.444 100.197 71.5832 100.188 71.6633 100.184C71.8468 100.173 72.0761 100.171 72.3224 100.173C72.828 100.176 73.5506 100.196 74.454 100.23C76.2674 100.299 78.8783 100.428 82.0923 100.607C88.5235 100.965 97.4019 101.527 107.215 102.221L106.94 106.103Z" fill="#181423" mask="url(#path-7-inside-1_415_53396)"/>
<mask id="path-9-inside-2_415_53396" fill="white">
<path d="M70.9884 114.979C71.0347 115.209 86.8559 116.538 106.45 117.929C126.044 119.319 141.953 120.237 141.973 119.994C141.992 119.751 126.105 118.435 106.511 117.045C86.9173 115.654 70.9946 114.67 70.9884 114.979Z"/>
</mask>
<path d="M70.9884 114.979C71.0347 115.209 86.8559 116.538 106.45 117.929C126.044 119.319 141.953 120.237 141.973 119.994C141.992 119.751 126.105 118.435 106.511 117.045C86.9173 115.654 70.9946 114.67 70.9884 114.979Z" fill="#E0E0E0"/>
<path d="M70.9884 114.979L69.0812 115.363L69.0391 115.153L69.0434 114.94L70.9884 114.979ZM72.8956 114.595C72.7696 113.969 72.385 113.615 72.2489 113.499C72.0817 113.358 71.9291 113.279 71.8614 113.245C71.7193 113.175 71.6054 113.143 71.5833 113.136C71.5186 113.117 71.488 113.113 71.5316 113.122C71.6013 113.134 71.7408 113.156 71.9697 113.185C72.4167 113.243 73.0928 113.317 73.986 113.405C75.7665 113.583 78.3488 113.813 81.5505 114.08C87.9508 114.614 96.7963 115.293 106.587 115.988L106.312 119.869C96.5094 119.173 87.6473 118.493 81.227 117.957C78.0183 117.69 75.412 117.457 73.6008 117.277C72.698 117.187 71.9774 117.109 71.4738 117.044C71.2274 117.013 71.0031 116.98 70.8264 116.948C70.7468 116.933 70.6223 116.909 70.4938 116.871C70.4399 116.856 70.3016 116.814 70.1427 116.736C70.0667 116.698 69.9075 116.615 69.7358 116.47C69.5951 116.351 69.2079 115.993 69.0812 115.363L72.8956 114.595ZM106.587 115.988C116.379 116.683 125.246 117.259 131.664 117.632C134.875 117.818 137.465 117.953 139.249 118.026C140.144 118.062 140.819 118.083 141.263 118.087C141.491 118.089 141.625 118.087 141.686 118.083C141.728 118.081 141.682 118.081 141.596 118.096C141.569 118.101 141.419 118.125 141.232 118.201C141.144 118.236 140.935 118.327 140.715 118.512C140.494 118.698 140.09 119.133 140.033 119.839L143.912 120.149C143.855 120.859 143.448 121.297 143.223 121.487C142.999 121.676 142.785 121.77 142.688 121.809C142.486 121.89 142.311 121.921 142.253 121.931C142.105 121.956 141.966 121.965 141.886 121.969C141.702 121.979 141.473 121.98 141.226 121.977C140.719 121.973 139.995 121.95 139.09 121.913C137.273 121.839 134.657 121.703 131.439 121.516C124.999 121.142 116.115 120.565 106.312 119.869L106.587 115.988ZM140.033 119.839C139.977 120.55 140.312 121.048 140.509 121.272C140.702 121.493 140.899 121.614 140.983 121.663C141.159 121.766 141.307 121.812 141.333 121.82C141.416 121.847 141.463 121.854 141.422 121.846C141.362 121.834 141.231 121.813 141.004 121.783C140.564 121.725 139.893 121.651 139.002 121.562C137.225 121.384 134.642 121.155 131.436 120.888C125.027 120.356 116.165 119.68 106.373 118.985L106.649 115.104C116.451 115.8 125.329 116.477 131.758 117.011C134.971 117.278 137.58 117.509 139.389 117.69C140.29 117.781 141.01 117.86 141.512 117.926C141.757 117.958 141.984 117.991 142.164 118.026C142.243 118.042 142.38 118.07 142.523 118.116C142.579 118.134 142.75 118.19 142.941 118.301C143.032 118.354 143.234 118.48 143.432 118.704C143.632 118.932 143.969 119.434 143.912 120.149L140.033 119.839ZM106.373 118.985C96.5798 118.29 87.7091 117.697 81.2893 117.316C78.0773 117.126 75.4897 116.989 73.7099 116.92C72.8158 116.885 72.1476 116.867 71.7126 116.867C71.487 116.867 71.3673 116.872 71.3232 116.876C71.2867 116.878 71.3585 116.876 71.474 116.849C71.5156 116.839 71.7014 116.797 71.9204 116.679C72.0095 116.632 72.9105 116.155 72.9334 115.018L69.0434 114.94C69.0665 113.793 69.9754 113.308 70.0802 113.251C70.3148 113.125 70.5239 113.075 70.5965 113.058C70.7738 113.017 70.9377 113.003 71.023 112.996C71.2224 112.981 71.4645 112.977 71.7131 112.977C72.2267 112.977 72.9566 112.996 73.8622 113.032C75.682 113.103 78.3009 113.242 81.5195 113.432C87.9611 113.814 96.8488 114.409 106.649 115.104L106.373 118.985Z" fill="#181423" mask="url(#path-9-inside-2_415_53396)"/>
<mask id="path-11-inside-3_415_53396" fill="white">
<path d="M69.7966 126.294C69.8428 126.524 85.6477 127.857 105.258 129.244C124.868 130.631 140.745 131.556 140.781 131.395C140.817 131.234 124.93 129.832 105.319 128.445C85.7092 127.058 69.816 126.051 69.7966 126.294Z"/>
</mask>
<path d="M69.7966 126.294C69.8428 126.524 85.6477 127.857 105.258 129.244C124.868 130.631 140.745 131.556 140.781 131.395C140.817 131.234 124.93 129.832 105.319 128.445C85.7092 127.058 69.816 126.051 69.7966 126.294Z" fill="#E0E0E0"/>
<path d="M69.7966 126.294L67.8894 126.678L67.8356 126.411L67.8573 126.139L69.7966 126.294ZM71.7037 125.91C71.5779 125.285 71.194 124.931 71.0579 124.815C70.8908 124.674 70.7382 124.594 70.6705 124.561C70.5283 124.491 70.4144 124.458 70.3923 124.452C70.3275 124.433 70.2967 124.429 70.3403 124.437C70.4098 124.45 70.5491 124.471 70.7777 124.501C71.2242 124.558 71.8997 124.632 72.7922 124.721C74.5714 124.899 77.1521 125.129 80.3527 125.396C86.7508 125.931 95.5961 126.61 105.395 127.303L105.121 131.184C95.3095 130.49 86.4473 129.81 80.0288 129.274C76.8211 129.006 74.2162 128.773 72.4062 128.593C71.5041 128.503 70.784 128.424 70.2808 128.359C70.0345 128.328 69.8104 128.296 69.6337 128.263C69.5541 128.248 69.4296 128.224 69.3011 128.186C69.2472 128.17 69.1088 128.129 68.9499 128.051C68.8739 128.013 68.7148 127.93 68.5431 127.784C68.4025 127.665 68.016 127.307 67.8894 126.678L71.7037 125.91ZM105.395 127.303C115.195 127.996 124.059 128.574 130.476 128.958C133.685 129.15 136.277 129.293 138.066 129.378C138.962 129.421 139.645 129.449 140.1 129.461C140.332 129.467 140.482 129.468 140.564 129.467C140.613 129.466 140.598 129.465 140.552 129.47C140.541 129.471 140.442 129.479 140.312 129.51C140.257 129.523 140.09 129.565 139.894 129.665C139.816 129.705 139.086 130.058 138.882 130.971L142.68 131.819C142.475 132.734 141.743 133.089 141.661 133.131C141.46 133.234 141.287 133.278 141.224 133.293C141.077 133.328 140.953 133.34 140.911 133.344C140.801 133.354 140.693 133.357 140.619 133.358C140.455 133.36 140.241 133.357 139.997 133.35C139.5 133.337 138.784 133.308 137.88 133.265C136.069 133.179 133.459 133.034 130.244 132.842C123.81 132.457 114.932 131.878 105.121 131.184L105.395 127.303ZM138.882 130.971C138.637 132.069 139.369 132.746 139.519 132.873C139.735 133.057 139.94 133.146 139.995 133.17C140.139 133.233 140.255 133.261 140.265 133.263C140.318 133.276 140.338 133.278 140.291 133.27C140.213 133.258 140.068 133.238 139.84 133.21C139.392 133.156 138.714 133.085 137.823 132.997C136.044 132.823 133.459 132.59 130.253 132.318C123.844 131.775 114.979 131.079 105.182 130.386L105.457 126.505C115.27 127.199 124.154 127.897 130.582 128.441C133.795 128.714 136.4 128.948 138.203 129.125C139.102 129.213 139.813 129.288 140.304 129.347C140.545 129.376 140.756 129.404 140.917 129.43C140.989 129.442 141.099 129.461 141.211 129.489C141.251 129.499 141.388 129.533 141.547 129.602C141.609 129.63 141.819 129.722 142.039 129.909C142.192 130.039 142.925 130.718 142.68 131.819L138.882 130.971ZM105.182 130.386C95.3797 129.692 86.5105 129.094 80.0922 128.7C76.8813 128.503 74.2924 128.357 72.5091 128.276C71.6141 128.235 70.9394 128.212 70.4956 128.205C70.2673 128.202 70.1341 128.203 70.073 128.206C70.0308 128.208 70.0774 128.208 70.163 128.194C70.1901 128.19 70.3417 128.166 70.5295 128.091C70.6185 128.055 70.8284 127.965 71.0501 127.779C71.2736 127.592 71.6793 127.156 71.7358 126.449L67.8573 126.139C67.9141 125.429 68.322 124.989 68.5497 124.798C68.7756 124.609 68.9916 124.515 69.0886 124.477C69.2924 124.395 69.4676 124.366 69.526 124.356C69.6741 124.331 69.8134 124.323 69.8935 124.32C70.0769 124.311 70.3063 124.311 70.5527 124.315C71.0585 124.322 71.7818 124.348 72.686 124.389C74.5009 124.472 77.1145 124.619 80.3307 124.817C86.7664 125.212 95.649 125.811 105.457 126.505L105.182 130.386Z" fill="#181423" mask="url(#path-11-inside-3_415_53396)"/>
<mask id="path-13-inside-4_415_53396" fill="white">
<path d="M69.1116 137.268C69.1546 137.482 84.9594 138.814 104.553 140.204C124.147 141.595 140.057 142.513 140.076 142.27C140.096 142.027 124.225 140.708 104.618 139.337C85.011 137.966 69.108 136.995 69.1116 137.268Z"/>
</mask>
<path d="M69.1116 137.268C69.1546 137.482 84.9594 138.814 104.553 140.204C124.147 141.595 140.057 142.513 140.076 142.27C140.096 142.027 124.225 140.708 104.618 139.337C85.011 137.966 69.108 136.995 69.1116 137.268Z" fill="#E0E0E0"/>
<path d="M69.1116 137.268L67.2044 137.652L67.1687 137.474L67.1664 137.294L69.1116 137.268ZM71.0188 136.884C70.8845 136.217 70.4569 135.855 70.3313 135.754C70.1628 135.62 70.0108 135.545 69.947 135.516C69.8102 135.452 69.7015 135.422 69.6823 135.417C69.623 135.4 69.5968 135.397 69.6416 135.405C69.7145 135.418 69.8565 135.439 70.0855 135.468C70.5336 135.524 71.2103 135.597 72.1028 135.685C73.8822 135.861 76.4629 136.09 79.6623 136.356C86.0585 136.889 94.9 137.569 104.691 138.264L104.416 142.145C94.6127 141.449 85.7548 140.768 79.3393 140.234C76.133 139.966 73.5297 139.735 71.7214 139.557C70.82 139.469 70.1017 139.392 69.6008 139.329C69.3553 139.298 69.1342 139.267 68.9612 139.236C68.8831 139.222 68.7634 139.2 68.6405 139.166C68.5895 139.151 68.4566 139.114 68.3032 139.042C68.231 139.008 68.0727 138.93 67.8997 138.792C67.7696 138.688 67.3394 138.322 67.2044 137.652L71.0188 136.884ZM104.691 138.264C114.482 138.959 123.349 139.535 129.768 139.908C132.979 140.094 135.569 140.229 137.352 140.302C138.248 140.338 138.923 140.359 139.366 140.363C139.595 140.365 139.728 140.362 139.789 140.359C139.831 140.357 139.785 140.357 139.7 140.372C139.673 140.377 139.522 140.401 139.335 140.477C139.247 140.512 139.039 140.603 138.819 140.788C138.598 140.974 138.193 141.409 138.137 142.115L142.015 142.425C141.959 143.135 141.552 143.573 141.327 143.763C141.103 143.952 140.888 144.046 140.792 144.085C140.589 144.166 140.415 144.197 140.356 144.207C140.209 144.232 140.069 144.241 139.989 144.245C139.806 144.254 139.576 144.256 139.329 144.253C138.823 144.249 138.099 144.226 137.193 144.189C135.376 144.115 132.761 143.979 129.542 143.792C123.103 143.418 114.218 142.841 104.416 142.145L104.691 138.264ZM138.137 142.115C138.08 142.825 138.415 143.323 138.611 143.547C138.805 143.768 139.002 143.89 139.085 143.938C139.262 144.041 139.41 144.088 139.436 144.096C139.519 144.123 139.566 144.13 139.525 144.122C139.465 144.11 139.334 144.089 139.108 144.059C138.669 144.001 137.998 143.927 137.107 143.838C135.333 143.66 132.751 143.43 129.546 143.165C123.141 142.634 114.28 141.962 104.482 141.277L104.754 137.396C114.563 138.082 123.441 138.755 129.868 139.288C133.079 139.554 135.687 139.785 137.495 139.966C138.396 140.056 139.115 140.136 139.617 140.202C139.861 140.234 140.088 140.267 140.268 140.303C140.347 140.318 140.484 140.346 140.628 140.392C140.684 140.41 140.854 140.466 141.046 140.577C141.136 140.63 141.339 140.756 141.536 140.981C141.736 141.209 142.072 141.711 142.015 142.425L138.137 142.115ZM104.482 141.277C94.6821 140.592 85.8123 140.007 79.396 139.628C76.186 139.438 73.5996 139.3 71.8206 139.227C70.9273 139.19 70.2572 139.171 69.8192 139.168C69.5928 139.166 69.4671 139.17 69.4152 139.173C69.3756 139.175 69.4366 139.174 69.5392 139.154C69.5727 139.147 69.749 139.113 69.9609 139.012C70.0647 138.962 70.2916 138.844 70.5151 138.612C70.7599 138.358 71.0654 137.891 71.0568 137.242L67.1664 137.294C67.1577 136.641 67.4651 136.17 67.7137 135.912C67.941 135.676 68.1737 135.554 68.2851 135.5C68.5123 135.392 68.7117 135.351 68.7757 135.338C68.9395 135.306 69.092 135.295 69.1735 135.29C69.3637 135.278 69.5984 135.275 69.8449 135.277C70.3525 135.28 71.0773 135.302 71.9808 135.34C73.7954 135.414 76.4095 135.554 79.6256 135.744C86.0617 136.125 94.9469 136.711 104.754 137.396L104.482 141.277Z" fill="#181423" mask="url(#path-13-inside-4_415_53396)"/>
</g>
</g>
<defs>
<clipPath id="clip0_415_53396">
<rect width="188" height="216" fill="white"/>
</clipPath>
<clipPath id="clip1_415_53396">
<rect width="128.22" height="115.502" fill="white" transform="translate(33.2773 75.2889) rotate(-11.3759)"/>
</clipPath>
</defs>
</svg>
