<svg width="188" height="216" viewBox="0 0 188 216" fill="none" xmlns="http://www.w3.org/2000/svg">
<g clip-path="url(#clip0_415_53382)">
<path fill-rule="evenodd" clip-rule="evenodd" d="M167.587 169.904C140.859 203.22 95.4182 212.017 52.7695 214.848C12.4902 217.523 -28.9647 210.998 -59.8836 185.008C-90.0881 159.618 -103.872 120.44 -106.357 81.0881C-108.709 43.846 -92.4449 10.5434 -72.9088 -21.226C-49.5 -59.2931 -27.615 -101.511 14.7345 -115.83C65.5318 -133.005 130.126 -140.002 169.027 -103.027C207.184 -66.7604 184.064 -4.93609 183.786 47.6642C183.56 90.5241 194.396 136.49 167.587 169.904Z" fill="#F95B29"/>
<path fill-rule="evenodd" clip-rule="evenodd" d="M167.587 169.904C140.859 203.22 95.4182 212.017 52.7695 214.848C12.4902 217.523 -28.9647 210.998 -59.8836 185.008C-90.0881 159.618 -103.872 120.44 -106.357 81.0881C-108.709 43.846 -92.4449 10.5434 -72.9088 -21.226C-49.5 -59.2931 -27.615 -101.511 14.7345 -115.83C65.5318 -133.005 130.126 -140.002 169.027 -103.027C207.184 -66.7604 184.064 -4.93609 183.786 47.6642C183.56 90.5241 194.396 136.49 167.587 169.904Z" fill="white" fill-opacity="0.8"/>
<mask id="mask0_415_53382" style="mask-type:alpha" maskUnits="userSpaceOnUse" x="-107" y="-130" width="298" height="346">
<path fill-rule="evenodd" clip-rule="evenodd" d="M167.587 169.904C140.859 203.22 95.4182 212.017 52.7695 214.848C12.4902 217.523 -28.9647 210.998 -59.8836 185.008C-90.0881 159.618 -103.872 120.44 -106.357 81.0881C-108.709 43.846 -92.4449 10.5434 -72.9088 -21.226C-49.5 -59.2931 -27.615 -101.511 14.7345 -115.83C65.5318 -133.005 130.126 -140.002 169.027 -103.027C207.184 -66.7604 184.064 -4.93609 183.786 47.6642C183.56 90.5241 194.396 136.49 167.587 169.904Z" fill="#F95B29"/>
<path fill-rule="evenodd" clip-rule="evenodd" d="M167.587 169.904C140.859 203.22 95.4182 212.017 52.7695 214.848C12.4902 217.523 -28.9647 210.998 -59.8836 185.008C-90.0881 159.618 -103.872 120.44 -106.357 81.0881C-108.709 43.846 -92.4449 10.5434 -72.9088 -21.226C-49.5 -59.2931 -27.615 -101.511 14.7345 -115.83C65.5318 -133.005 130.126 -140.002 169.027 -103.027C207.184 -66.7604 184.064 -4.93609 183.786 47.6642C183.56 90.5241 194.396 136.49 167.587 169.904Z" fill="white" fill-opacity="0.8"/>
</mask>
<g mask="url(#mask0_415_53382)">
<g clip-path="url(#clip1_415_53382)">
<path fill-rule="evenodd" clip-rule="evenodd" d="M-53.4384 196.474C-96.1689 164.222 -108.874 107.618 -114.003 54.2906C-118.847 3.92586 -112.209 -48.2528 -80.7933 -87.953C-50.1037 -126.736 -1.53025 -145.457 47.6795 -150.03C94.251 -154.357 136.577 -135.215 177.104 -111.917C225.664 -84.0004 279.367 -58.1468 298.877 -5.6201C322.278 57.3845 333.439 138.051 288.557 188.16C244.535 237.309 166.221 210.635 100.311 212.237C46.6053 213.542 -10.581 228.822 -53.4384 196.474Z" fill="#F95B29"/>
<path fill-rule="evenodd" clip-rule="evenodd" d="M-53.4384 196.474C-96.1689 164.222 -108.874 107.618 -114.003 54.2906C-118.847 3.92586 -112.209 -48.2528 -80.7933 -87.953C-50.1037 -126.736 -1.53025 -145.457 47.6795 -150.03C94.251 -154.357 136.577 -135.215 177.104 -111.917C225.664 -84.0004 279.367 -58.1468 298.877 -5.6201C322.278 57.3845 333.439 138.051 288.557 188.16C244.535 237.309 166.221 210.635 100.311 212.237C46.6053 213.542 -10.581 228.822 -53.4384 196.474Z" fill="white" fill-opacity="0.8"/>
<mask id="mask1_415_53382" style="mask-type:alpha" maskUnits="userSpaceOnUse" x="-116" y="-151" width="436" height="370">
<path fill-rule="evenodd" clip-rule="evenodd" d="M-53.4384 196.474C-96.1689 164.222 -108.874 107.618 -114.003 54.2906C-118.847 3.92586 -112.209 -48.2528 -80.7933 -87.953C-50.1037 -126.736 -1.53025 -145.457 47.6795 -150.03C94.251 -154.357 136.577 -135.215 177.104 -111.917C225.664 -84.0004 279.367 -58.1468 298.877 -5.6201C322.278 57.3845 333.439 138.051 288.557 188.16C244.535 237.309 166.221 210.635 100.311 212.237C46.6053 213.542 -10.581 228.822 -53.4384 196.474Z" fill="#F95B29"/>
<path fill-rule="evenodd" clip-rule="evenodd" d="M-53.4384 196.474C-96.1689 164.222 -108.874 107.618 -114.003 54.2906C-118.847 3.92586 -112.209 -48.2528 -80.7933 -87.953C-50.1037 -126.736 -1.53025 -145.457 47.6795 -150.03C94.251 -154.357 136.577 -135.215 177.104 -111.917C225.664 -84.0004 279.367 -58.1468 298.877 -5.6201C322.278 57.3845 333.439 138.051 288.557 188.16C244.535 237.309 166.221 210.635 100.311 212.237C46.6053 213.542 -10.581 228.822 -53.4384 196.474Z" fill="white" fill-opacity="0.8"/>
</mask>
<g mask="url(#mask1_415_53382)">
<g clip-path="url(#clip2_415_53382)">
<path d="M116.208 157.419C146.02 160.758 150.848 180.946 164.741 200.817L184.852 237.811L147.888 260.407L149.163 317.18L164.286 367.414L25.0621 359.579L40.5719 311.889L22.0329 238.992C20.6209 229.045 16.7947 210.582 19.391 200.794C27.4989 170.25 59.3384 161.325 81.248 155.648C85.803 154.49 107.576 154.558 111.357 155.466" fill="#F95B29"/>
<path d="M149.143 315.636C148.917 314.331 148.803 313.009 148.801 311.685C148.665 308.869 148.482 305.167 148.277 300.693C147.867 291.405 147.412 278.552 146.979 264.358C146.547 250.165 146.228 237.311 146.068 228.023C146.068 223.481 146.068 219.825 145.932 217.009C145.862 215.653 145.908 214.293 146.068 212.944C146.297 214.28 146.419 215.631 146.433 216.986C146.569 219.802 146.751 223.504 146.979 227.978C147.366 237.266 147.845 250.12 148.255 264.313C148.665 278.506 149.006 291.337 149.188 300.648C149.188 305.19 149.188 308.823 149.302 311.662C149.352 312.989 149.299 314.318 149.143 315.636Z" fill="#181423"/>
<path d="M109.857 204.95C110.842 206.464 112.391 207.526 114.161 207.902C115.801 208.368 117.533 208.404 119.19 208.006C120.847 207.609 122.374 206.792 123.622 205.634C124.87 204.476 125.798 203.017 126.315 201.398C126.832 199.778 126.921 198.053 126.573 196.389C126.154 194.459 125.172 192.697 123.749 191.324C123.152 190.655 122.428 190.11 121.619 189.721C120.81 189.331 119.932 189.104 119.035 189.053C120.549 189.761 121.94 190.704 123.157 191.847C124.368 193.112 125.211 194.682 125.594 196.389C125.989 198.512 125.601 200.706 124.501 202.566C123.454 204.463 121.744 205.911 119.695 206.631C118.003 207.18 116.194 207.267 114.457 206.88C112.831 206.482 111.279 205.83 109.857 204.95Z" fill="#FAFAFA"/>
<path d="M95.2117 231.679C97.0162 231.732 98.7684 231.071 100.086 229.84C101.633 228.619 102.782 226.967 103.388 225.094C104.092 222.751 103.888 220.231 102.819 218.031C101.782 215.812 99.9556 214.056 97.6942 213.103C95.8509 212.395 93.8409 212.238 91.9093 212.649C91.0165 212.76 90.1546 213.046 89.3729 213.49C88.5912 213.935 87.9052 214.529 87.3543 215.238C88.7758 214.425 90.311 213.828 91.9093 213.466C93.6754 213.198 95.4815 213.427 97.1248 214.125C99.0996 215.011 100.693 216.57 101.62 218.522C102.546 220.474 102.745 222.691 102.181 224.776C101.67 226.479 100.701 228.011 99.3795 229.204C98.1326 230.247 96.7253 231.083 95.2117 231.679Z" fill="#FAFAFA"/>
<path d="M149.21 183.671C148.331 183.5 147.427 183.506 146.551 183.69C145.674 183.873 144.844 184.23 144.108 184.739C142.396 185.72 141.01 187.181 140.123 188.94C139.374 190.481 139.044 192.191 139.165 193.899C139.286 195.607 139.855 197.253 140.814 198.673C141.772 200.094 143.088 201.238 144.63 201.993C146.171 202.748 147.884 203.086 149.597 202.975C151.4 203.009 153.144 202.332 154.448 201.09C152.887 201.685 151.243 202.038 149.574 202.134C147.791 202.14 146.041 201.652 144.518 200.726C142.704 199.545 141.372 197.757 140.76 195.685C140.131 193.619 140.26 191.397 141.125 189.417C141.873 187.809 143.056 186.441 144.541 185.466C145.984 184.608 147.563 184.001 149.21 183.671Z" fill="#FAFAFA"/>
<path d="M31.3054 227.955C33.1074 228.079 34.8874 227.501 36.2703 226.343C37.8601 225.204 39.0797 223.624 39.7777 221.801C40.5648 219.489 40.4758 216.97 39.5275 214.719C38.5792 212.468 36.8372 210.641 34.6305 209.583C32.8242 208.778 30.8189 208.525 28.8684 208.856C27.0931 209.035 25.4583 209.899 24.3135 211.264C25.7923 210.473 27.3936 209.936 29.0507 209.674C30.8225 209.499 32.6087 209.805 34.2206 210.56C36.1372 211.554 37.6431 213.187 38.4755 215.175C39.3079 217.163 39.4141 219.379 38.7756 221.437C38.1976 223.115 37.165 224.601 35.792 225.729C34.4257 226.706 32.9108 227.458 31.3054 227.955Z" fill="#FAFAFA"/>
<path d="M56.6543 189.666C58.4504 189.799 60.2266 189.22 61.5964 188.054C63.1863 186.915 64.4058 185.336 65.1038 183.512C65.8909 181.2 65.802 178.681 64.8537 176.43C63.9054 174.179 62.1634 172.352 59.9566 171.294C58.1507 170.488 56.145 170.235 54.1945 170.568C52.4192 170.746 50.7844 171.61 49.6395 172.975C51.1277 172.211 52.7259 171.683 54.3768 171.408C56.147 171.211 57.9372 171.51 59.5467 172.271C61.4634 173.265 62.9692 174.899 63.8017 176.887C64.6341 178.874 64.7403 181.091 64.1017 183.149C63.518 184.83 62.4867 186.322 61.1182 187.464C59.7517 188.421 58.2463 189.164 56.6543 189.666Z" fill="#FAFAFA"/>
<path d="M157.911 233.791C159.71 233.918 161.487 233.33 162.853 232.156C164.661 230.882 165.973 229.025 166.566 226.898C167.16 224.771 166.999 222.506 166.11 220.484C165.182 218.221 163.434 216.389 161.213 215.351C159.408 214.544 157.402 214.292 155.451 214.625C154.57 214.705 153.713 214.959 152.931 215.372C152.149 215.785 151.458 216.349 150.896 217.032C152.375 216.242 153.976 215.704 155.634 215.442C157.405 215.268 159.192 215.574 160.803 216.328C162.72 217.322 164.226 218.955 165.058 220.943C165.891 222.931 165.997 225.148 165.358 227.206C164.774 228.88 163.743 230.364 162.375 231.498C161.016 232.49 159.51 233.264 157.911 233.791Z" fill="#FAFAFA"/>
<path d="M56.3577 198.433C55.4632 198.547 54.6002 198.836 53.8184 199.284C53.0366 199.733 52.3516 200.331 51.8027 201.044C50.4715 202.5 49.607 204.318 49.3203 206.267C49.0312 208.688 49.6373 211.13 51.0251 213.137C52.4129 215.144 54.4871 216.577 56.8588 217.168C58.7904 217.579 60.8004 217.421 62.6437 216.714C64.3749 216.185 65.8248 214.992 66.6748 213.398C65.384 214.474 63.9213 215.326 62.3476 215.919C60.6527 216.466 58.8381 216.529 57.1093 216.101C55.0176 215.545 53.1976 214.255 51.9849 212.467C50.7488 210.699 50.1838 208.549 50.3907 206.404C50.6165 204.641 51.3258 202.975 52.4404 201.589C53.5739 200.341 54.8955 199.276 56.3577 198.433Z" fill="#FAFAFA"/>
<path d="M24.4032 238.492C24.5218 238.749 24.6208 239.015 24.6993 239.287C24.8815 239.855 25.1547 240.627 25.4736 241.558C26.1569 243.67 27.1134 246.668 28.3205 250.506L38.4553 282.912L37.9771 282.685L99.8796 259.976L101.428 259.34L101.155 259.839C97.4106 245.951 92.5672 232.381 86.6701 219.257C82.0842 208.468 75.8792 198.437 68.2679 189.508C65.2861 186.161 61.7691 183.33 57.8597 181.128C54.9265 179.437 51.6325 178.464 48.2486 178.29C47.5965 178.245 46.9421 178.245 46.29 178.29L44.5591 178.471C44.0353 178.471 43.5342 178.471 43.1015 178.653L41.8944 178.971L40.2774 179.38L39.7307 179.493L40.2546 179.312L41.8489 178.789L43.0559 178.449C43.4887 178.335 43.9897 178.312 44.5363 178.222L46.2672 177.994C46.9345 177.949 47.6041 177.949 48.2714 177.994C51.7176 178.109 55.0851 179.051 58.0875 180.742C62.0842 182.923 65.6806 185.764 68.7234 189.145C76.4557 198.071 82.7555 208.137 87.399 218.985C93.3634 232.136 98.2531 245.745 102.021 259.68V260.044L101.679 260.18L100.107 260.816C76.9224 269.468 55.4228 277.167 38.1365 283.525L37.7949 283.662L37.681 283.298L27.8422 250.801C26.7035 246.94 25.8152 243.988 25.1775 241.717C24.9042 240.695 24.6764 239.923 24.517 239.333C24.4463 239.058 24.4081 238.776 24.4032 238.492Z" fill="black"/>
<path d="M83.0947 25.5455C74.0736 26.1492 65.4227 29.3531 58.1934 34.7674C50.9642 40.1818 45.4679 47.5736 42.3729 56.0443C41.2797 59.2237 40.5282 62.5166 39.1389 65.5823C37.8762 68.738 35.5152 71.3341 32.4886 72.8948C30.211 73.9167 27.6603 74.0303 25.3372 74.8932C23.3843 75.6618 21.6461 76.8888 20.2702 78.4702C18.8944 80.0516 17.9216 81.9407 17.4343 83.977C16.9801 86.0214 16.9353 88.135 17.3027 90.1966C17.6701 92.2582 18.4424 94.2271 19.5751 95.9903C20.9349 97.5929 21.8601 99.5163 22.2626 101.577C22.1712 102.994 21.8878 104.392 21.4199 105.733C20.8459 108.091 21.0449 110.571 21.9878 112.809C22.9306 115.046 24.5677 116.924 26.659 118.166C28.7502 119.408 31.1855 119.949 33.6078 119.71C36.03 119.471 38.3117 118.464 40.1182 116.838C41.3171 120.426 43.7332 123.486 46.9507 125.49C50.367 127.102 55.4003 125.649 56.0607 121.947C56.9678 123.673 58.4073 125.062 60.1666 125.909C61.926 126.757 63.912 127.018 65.8315 126.654C67.751 126.29 69.5023 125.32 70.8269 123.888C72.1514 122.456 72.979 120.637 73.1876 118.7" fill="black"/>
<path d="M137.686 81.4107C145.11 72.7584 145.224 59.1781 139.963 49.0497C134.702 38.9213 124.704 31.9495 114.182 27.8164C99.6969 22.139 82.4107 21.5485 69.3834 30.0873C63.6915 33.9112 59.1249 39.1792 56.154 45.3484C53.1832 51.5176 51.9155 58.365 52.4817 65.1852C53.0478 72.0055 55.4272 78.5519 59.3748 84.1501C63.3225 89.7484 68.6955 94.196 74.9405 97.0348" fill="#F95B29"/>
<path d="M51.9366 60.3135C53.6811 60.735 55.471 60.9409 57.266 60.9266C59.0261 61.2851 60.8232 61.43 62.6182 61.3581C61.0006 60.4741 59.2203 59.9259 57.3846 59.7463C55.5488 59.5668 53.6956 59.7597 51.9366 60.3135Z" fill="#FAFAFA"/>
<path d="M58.9091 41.4421C60.457 41.9842 62.0615 42.3499 63.6919 42.5322C66.2882 43.0999 68.2469 43.9401 68.4746 43.6222C67.2642 42.3643 65.6551 41.5621 63.9196 41.3512C62.2903 40.7959 60.5171 40.828 58.9091 41.4421Z" fill="#FAFAFA"/>
<path d="M72.5037 28.7246C72.5037 29.0652 75.6012 29.474 79.3363 30.7003C81.4798 31.6144 83.6691 32.4179 85.8955 33.1075C84.2056 31.3694 82.0585 30.1416 79.7007 29.5648C77.434 28.5955 74.9337 28.3036 72.5037 28.7246Z" fill="#FAFAFA"/>
<path d="M95.166 23.7062C95.166 24.0241 97.99 24.9552 100.951 27.1353C103.912 29.3155 105.711 31.6772 106.007 31.541C105.212 29.2996 103.668 27.3991 101.634 26.1588C99.8344 24.6082 97.5442 23.7398 95.166 23.7062Z" fill="#FAFAFA"/>
<path d="M121.265 32.0401C121.083 32.3126 122.017 33.2211 122.837 34.5155C123.406 35.4012 123.771 36.2642 124.067 36.7865L124.591 37.5813V36.8092C124.591 36.5594 124.591 36.4004 124.454 36.355C124.317 36.3096 124.203 36.355 124.044 36.6275H124.591C124.621 35.6754 124.35 34.738 123.816 33.9478C122.86 32.3581 121.47 31.7676 121.265 32.0401Z" fill="#FAFAFA"/>
<path d="M56.7209 80.1619C56.7209 80.4798 58.7706 80.6616 61.162 79.9349C63.5534 79.2082 65.1249 77.891 64.9655 77.6639C64.806 77.4368 63.0296 78.1408 60.8204 78.8221C58.6112 79.5034 56.6981 79.844 56.7209 80.1619Z" fill="#FAFAFA"/>
<path d="M20.8078 61.8804C20.8078 61.8804 21.2177 63.3793 23.5863 64.1514C24.2988 64.3672 25.0478 64.4362 25.7878 64.3542C26.5278 64.2722 27.2433 64.0409 27.8909 63.6745C28.7375 63.1504 29.442 62.4269 29.9424 61.5676C30.4428 60.7083 30.7238 59.7395 30.7605 58.7465C30.8036 57.5364 30.5224 56.3367 29.946 55.271C29.3695 54.2052 28.5187 53.312 27.4809 52.6831C26.299 51.9561 24.9499 51.5431 23.5625 51.4835C22.1751 51.4239 20.7955 51.7195 19.5552 52.3424C18.1782 52.9938 16.9754 53.9611 16.0452 55.1649C15.1149 56.3688 14.4837 57.7751 14.203 59.2688C13.9248 60.8576 13.9837 62.4869 14.376 64.0515C14.7683 65.6162 15.4852 67.0814 16.4805 68.3527C17.5299 69.6013 18.8558 70.5897 20.3538 71.24C21.8517 71.8903 23.4808 72.1846 25.1123 72.0997C28.0951 72.0041 30.991 71.0757 33.4707 69.42C37.4156 66.4934 40.7695 62.8487 43.3551 58.6784C45.1421 55.9673 47.1209 53.387 49.2766 50.9571C50.8481 49.2994 51.8502 48.5045 51.7819 48.4364C51.7135 48.3682 51.4858 48.5499 50.9847 48.9133C50.2704 49.4509 49.5862 50.027 48.935 50.6392C46.6265 52.9698 44.5305 55.5005 42.6718 58.2015C40.0492 62.1923 36.7327 65.6839 32.8786 68.5116C30.5532 70.0149 27.8595 70.8552 25.0895 70.9415C23.6397 71.0219 22.1912 70.7642 20.8588 70.1886C19.5264 69.613 18.347 68.7356 17.4143 67.6259C16.526 66.4781 15.887 65.1585 15.538 63.7509C15.189 62.3434 15.1378 60.8789 15.3874 59.4505C15.6255 58.1249 16.1747 56.8743 16.9901 55.8008C17.8055 54.7273 18.8639 53.8613 20.079 53.2735C21.1445 52.7361 22.3279 52.4733 23.5214 52.509C24.7148 52.5447 25.8803 52.8778 26.9116 53.4779C27.8294 53.9922 28.5898 54.7458 29.1113 55.6578C29.6328 56.5699 29.8958 57.606 29.8723 58.6556C29.8708 59.5176 29.6634 60.3667 29.2673 61.1328C28.8713 61.899 28.298 62.56 27.5948 63.0613C27.0272 63.4055 26.3971 63.6349 25.7406 63.7362C25.0841 63.8375 24.414 63.8088 23.7686 63.6518C22.6163 63.3943 21.5779 62.7731 20.8078 61.8804Z" fill="black"/>
<path d="M73.1438 49.8902C71.141 50.1003 69.2902 51.0522 67.9575 52.5577C66.6248 54.0631 65.9073 56.0125 65.9469 58.0201L70.5019 166.412C70.6841 179.221 93.9602 194.345 107.716 194.073C121.586 193.777 117.51 179.084 117.715 166.821C118.056 146.383 118.033 138.843 118.056 138.957C118.079 139.07 135.593 136.05 139.214 113.227C141.036 101.872 140.467 83.2731 139.488 68.0577C138.645 54.4321 129.535 37.5816 115.87 39.0123L73.1438 49.8902Z" fill="#FFBE9D"/>
<path d="M133.542 82.9323C133.554 83.6956 133.265 84.4332 132.736 84.9855C132.208 85.5379 131.483 85.8609 130.718 85.8846C130.344 85.9155 129.968 85.8714 129.612 85.7548C129.256 85.6383 128.927 85.4516 128.644 85.206C128.362 84.9604 128.132 84.6607 127.968 84.3248C127.803 83.9889 127.709 83.6235 127.688 83.2503C127.682 82.4751 127.982 81.7285 128.523 81.1719C129.065 80.6153 129.804 80.2932 130.581 80.2754C131.326 80.2382 132.056 80.4969 132.611 80.9947C133.166 81.4926 133.5 82.1892 133.542 82.9323Z" fill="black"/>
<path d="M135.456 77.777C135.092 78.1631 132.86 76.5281 129.694 76.5281C126.528 76.5281 124.228 78.1177 123.886 77.7316C123.545 77.3456 124.091 76.8687 125.093 76.142C126.467 75.2019 128.096 74.7027 129.762 74.7113C131.398 74.7141 132.992 75.2305 134.317 76.1874C135.297 76.9822 135.638 77.777 135.456 77.777Z" fill="black"/>
<path d="M102.683 82.9321C102.689 83.6937 102.398 84.4278 101.871 84.9789C101.343 85.5301 100.622 85.8548 99.8584 85.8843C99.4849 85.9152 99.109 85.8711 98.7529 85.7545C98.3968 85.638 98.0678 85.4513 97.7854 85.2057C97.5029 84.9601 97.2728 84.6604 97.1085 84.3245C96.9443 83.9886 96.8494 83.6232 96.8293 83.25C96.8169 82.4845 97.1055 81.7446 97.6333 81.1886C98.1611 80.6326 98.8862 80.3047 99.6535 80.2751C100.028 80.2505 100.403 80.2997 100.758 80.42C101.112 80.5403 101.44 80.7294 101.721 80.9762C102.003 81.2231 102.233 81.523 102.398 81.8586C102.563 82.1943 102.659 82.559 102.683 82.9321Z" fill="black"/>
<path d="M104.412 78.4132C104.048 78.7992 101.816 77.1642 98.65 77.1642C95.4843 77.1642 93.184 78.7539 92.8423 78.3678C92.5007 77.9817 93.0473 77.5048 94.0494 76.7781C95.4231 75.838 97.0522 75.3388 98.7183 75.3474C100.356 75.3392 101.953 75.8567 103.273 76.8235C104.253 77.5502 104.594 78.2542 104.412 78.4132Z" fill="black"/>
<path d="M115.868 101.781C117.53 101.257 119.252 100.944 120.992 100.85C121.812 100.85 122.564 100.6 122.701 100.055C122.77 99.2231 122.579 98.3902 122.154 97.6707L119.876 91.5618C116.551 82.8414 114.16 75.6652 114.524 75.5289C117.14 80.5328 119.356 85.7341 121.152 91.0849L123.429 97.2392C123.935 98.2449 124.049 99.4021 123.748 100.487C123.63 100.773 123.447 101.028 123.214 101.233C122.981 101.438 122.704 101.586 122.405 101.667C121.959 101.789 121.5 101.85 121.038 101.849C119.319 102.044 117.582 102.021 115.868 101.781Z" fill="black"/>
<path d="M118.055 139.093C107.242 139.251 96.5983 136.413 87.3085 130.894C87.3085 130.894 94.7559 146.564 117.645 144.52L118.055 139.093Z" fill="black" fill-opacity="0.16"/>
<path d="M114.523 109.366C113.921 108.613 113.137 108.024 112.245 107.655C111.353 107.285 110.381 107.147 109.421 107.254C108.726 107.32 108.051 107.526 107.437 107.857C106.822 108.189 106.281 108.64 105.845 109.184C105.423 109.707 105.172 110.348 105.127 111.018C105.082 111.689 105.245 112.357 105.595 112.931C106.099 113.502 106.765 113.907 107.505 114.094C108.245 114.28 109.024 114.239 109.74 113.976C111.227 113.442 112.597 112.624 113.771 111.569C114.128 111.323 114.431 111.006 114.659 110.637C114.782 110.465 114.848 110.259 114.848 110.047C114.848 109.835 114.782 109.629 114.659 109.457" fill="#EB996E"/>
<path d="M106.577 103.961C107.078 103.961 107.1 107.345 110.038 109.775C112.976 112.205 116.62 111.818 116.643 112.295C116.666 112.772 115.823 112.954 114.366 112.999C112.362 113.023 110.413 112.348 108.854 111.092C107.36 109.874 106.403 108.122 106.189 106.209C105.962 104.779 106.349 103.938 106.577 103.961Z" fill="black"/>
<path d="M105.823 72.9174C105.504 73.7576 102.361 73.3489 98.6485 73.8031C94.9362 74.2573 91.9526 75.2565 91.4516 74.4844C91.2466 74.121 91.7704 73.3262 92.9775 72.486C94.5813 71.4538 96.4077 70.8156 98.3068 70.6238C100.2 70.3919 102.122 70.6178 103.91 71.2824C105.276 71.8274 105.959 72.5086 105.823 72.9174Z" fill="black"/>
<path d="M134.293 68.6937C133.723 69.4204 131.56 68.6937 128.94 68.6937C126.321 68.6937 124.112 69.1933 123.588 68.4439C123.383 68.0806 123.725 67.3538 124.681 66.6725C125.989 65.8696 127.504 65.4674 129.038 65.5159C130.573 65.5643 132.06 66.0613 133.313 66.9451C134.224 67.6264 134.543 68.3758 134.293 68.6937Z" fill="black"/>
<path d="M68.4737 86.3841C67.5458 85.8753 66.4944 85.6334 65.4368 85.6855C64.3791 85.7377 63.3569 86.0817 62.4838 86.6793C60.3654 87.9075 58.7386 89.8288 57.8794 92.1171C57.0202 94.4054 56.9816 96.9198 57.7702 99.2332C58.5587 101.547 60.1258 103.517 62.2055 104.809C64.2853 106.101 66.7494 106.636 69.1797 106.323" fill="#FFBE9D"/>
<path d="M104.458 31.5181C112.242 31.9084 119.802 34.2517 126.436 38.3309C133.931 42.2136 139.574 48.9027 142.128 56.93C142.45 57.7526 142.601 58.6323 142.569 59.515C142.538 60.3976 142.326 61.2645 141.946 62.0623C141.226 62.9834 140.205 63.6241 139.061 63.873C137.917 64.1219 136.722 63.9634 135.683 63.4249C133.632 62.2743 131.883 60.6556 130.581 58.7013C130.026 60.8054 128.783 62.6645 127.048 63.9837C125.313 65.3028 123.186 66.0065 121.004 65.983C118.822 65.9595 116.711 65.2102 115.005 63.8541C113.299 62.4979 112.096 60.6125 111.587 58.497C111.412 60.6833 110.398 62.7182 108.756 64.1777C107.114 65.6372 104.971 66.4088 102.773 66.3317C100.58 66.1323 98.4918 65.3034 96.7618 63.9451C95.0317 62.5868 93.7337 60.7574 93.025 58.6786C92.4738 62.624 91.109 66.4128 89.0165 69.8062C87.9268 71.4795 86.3503 72.7807 84.4983 73.5357C82.6462 74.2906 80.6071 74.4631 78.6539 74.0302C79.4657 77.3879 79.4108 80.8959 78.4945 84.2267C77.2874 87.4515 73.6889 90.0631 70.4321 88.9503C67.1753 87.8376 66.0365 84.1132 65.2849 80.8431C63.6503 74.6 62.8237 68.174 62.8252 61.7217C62.6179 55.0802 64.7821 48.581 68.9323 43.3823C73.0824 38.1835 78.949 34.6229 85.4864 33.3348C92.016 31.8323 98.72 31.2211 105.415 31.5181" fill="black"/>
<path d="M66.8103 99.5102C66.8103 99.3513 65.9221 99.7146 64.8061 99.1923C64.1346 98.8068 63.5913 98.2335 63.2432 97.5433C62.8951 96.8531 62.7575 96.0763 62.8475 95.309C62.8573 94.5302 63.0925 93.7708 63.5248 93.1222C63.9571 92.4736 64.5681 91.9633 65.2843 91.6527C66.4459 91.1758 67.2886 91.403 67.3341 91.2213C67.3797 91.0396 66.5598 90.5173 65.0566 90.8579C64.1632 91.0519 63.361 91.5398 62.7792 92.2432C62.0897 93.0963 61.6909 94.1463 61.6404 95.2408C61.5264 96.2368 61.746 97.2425 62.265 98.101C62.7841 98.9595 63.5734 99.6227 64.51 99.9871C66.1498 100.487 66.9925 99.6011 66.8103 99.5102Z" fill="#EB996E"/>
<path d="M58.1789 100.691C57.8582 100.746 57.5448 100.837 57.2451 100.964C56.3561 101.249 55.5009 101.63 54.6944 102.099C51.605 103.71 49.0204 106.137 47.2241 109.116C45.9882 111.184 45.284 113.525 45.1744 115.929C45.109 118.714 45.7681 121.468 47.0875 123.923C48.5261 126.655 50.614 128.994 53.1685 130.736C55.9165 132.631 59.1653 133.674 62.5062 133.734C65.7136 133.675 68.8447 132.748 71.5645 131.052C74.2844 129.356 76.4908 126.955 77.9477 124.105C79.2372 121.614 79.805 118.815 79.5874 116.02C79.3204 113.614 78.5442 111.292 77.3099 109.207C75.567 106.195 72.9121 103.81 69.7259 102.394C68.8756 102.006 67.9806 101.724 67.0612 101.554C66.7367 101.504 66.4064 101.504 66.0819 101.554C66.0819 101.691 67.4029 101.849 69.5437 102.894C72.054 104.179 74.1961 106.078 75.7695 108.413C77.3429 110.749 78.2961 113.444 78.5398 116.247C78.6968 118.846 78.1376 121.437 76.9228 123.741C75.5329 126.389 73.4555 128.616 70.9075 130.19C68.3596 131.764 65.4345 132.627 62.4378 132.689C59.4411 132.568 56.5286 131.665 53.991 130.072C51.4533 128.478 49.3793 126.248 47.9758 123.605C46.7789 121.471 46.1505 119.067 46.1505 116.622C46.1505 114.177 46.7789 111.773 47.9758 109.639C49.6577 106.737 52.057 104.314 54.9449 102.599C56.9491 101.259 58.2245 100.805 58.1789 100.691Z" fill="#F95B29"/>
</g>
</g>
</g>
</g>
</g>
<defs>
<clipPath id="clip0_415_53382">
<rect width="188" height="216" fill="white"/>
</clipPath>
<clipPath id="clip1_415_53382">
<rect width="275.143" height="214" fill="white" transform="translate(-41 23)"/>
</clipPath>
<clipPath id="clip2_415_53382">
<rect width="344.438" height="430.547" fill="white" transform="matrix(-1 0 0 1 358.468 23.6021)"/>
</clipPath>
</defs>
</svg>
