<svg width="56" height="56" viewBox="0 0 56 56" fill="none" xmlns="http://www.w3.org/2000/svg">
<path fill-rule="evenodd" clip-rule="evenodd" d="M16.2702 24.5289C19.0259 24.5289 21.2598 22.295 21.2598 19.5393C21.2598 16.7836 19.0259 14.5497 16.2702 14.5497C13.5146 14.5497 11.2807 16.7836 11.2807 19.5393C11.2807 22.295 13.5146 24.5289 16.2702 24.5289ZM16.2702 27.8553C20.863 27.8553 24.5862 24.1321 24.5862 19.5393C24.5862 14.9465 20.863 11.2233 16.2702 11.2233C11.6775 11.2233 7.95426 14.9465 7.95426 19.5393C7.95426 24.1321 11.6775 27.8553 16.2702 27.8553Z" fill="white"/>
<path fill-rule="evenodd" clip-rule="evenodd" d="M37.0601 24.5289C39.8158 24.5289 42.0497 22.295 42.0497 19.5393C42.0497 16.7836 39.8158 14.5497 37.0601 14.5497C34.3045 14.5497 32.0706 16.7836 32.0706 19.5393C32.0706 22.295 34.3045 24.5289 37.0601 24.5289ZM37.0601 27.8553C41.6529 27.8553 45.3761 24.1321 45.3761 19.5393C45.3761 14.9465 41.6529 11.2233 37.0601 11.2233C32.4674 11.2233 28.7442 14.9465 28.7442 19.5393C28.7442 24.1321 32.4674 27.8553 37.0601 27.8553Z" fill="white"/>
<path d="M31.239 40.3292C31.6982 40.3292 32.0633 39.9541 32.139 39.5011C32.5334 37.1396 34.5866 35.3396 37.0601 35.3396C38.4442 35.3396 39.6966 35.9032 40.6005 36.8133C40.8363 37.0507 41.2256 37.0781 41.4622 36.8416L43.0171 35.2866C43.2219 35.0819 43.236 34.7525 43.0345 34.5445C41.5228 32.9836 39.4048 32.0132 37.0601 32.0132C32.7476 32.0132 29.2018 35.2959 28.7851 39.4988C28.7398 39.9558 29.1165 40.3292 29.5758 40.3292H31.239Z" fill="white"/>
<path fill-rule="evenodd" clip-rule="evenodd" d="M24.4197 38.6659C24.5288 39.2033 24.5861 39.7595 24.5861 40.3291C24.5861 40.7425 24.5559 41.1488 24.4977 41.5459C24.4594 41.8068 24.2302 41.9923 23.9665 41.9923H11.5644C12.2494 43.9302 14.0976 45.3187 16.2701 45.3187C17.3929 45.3187 18.4252 44.9508 19.2594 44.3248C19.3741 44.2388 19.5354 44.2455 19.6368 44.3468L21.6088 46.3188C21.7213 46.4313 21.7165 46.6156 21.5943 46.7175C20.1519 47.921 18.2955 48.6451 16.2701 48.6451C12.2469 48.6451 8.89096 45.7881 8.12045 41.9923C8.01137 41.4549 7.9541 40.8987 7.9541 40.3291C7.9541 39.7595 8.01137 39.2033 8.12045 38.6659C8.89096 34.8701 12.2469 32.0131 16.2701 32.0131C20.2933 32.0131 23.6492 34.8701 24.4197 38.6659ZM20.9758 38.6659C20.2908 36.728 18.4426 35.3395 16.2701 35.3395C14.0976 35.3395 12.2494 36.728 11.5644 38.6659H20.9758Z" fill="white"/>
<path d="M21.2598 5.12483C21.2598 4.81865 21.508 4.57043 21.8142 4.57043H24.0318C24.3379 4.57043 24.5862 4.81865 24.5862 5.12483V18.9848C24.5862 19.291 24.3379 19.5392 24.0318 19.5392H21.8142C21.508 19.5392 21.2598 19.291 21.2598 18.9848V5.12483Z" fill="white"/>
<path d="M28.7442 32.5676C28.7442 32.2615 28.9924 32.0132 29.2986 32.0132H31.5162C31.8223 32.0132 32.0706 32.2615 32.0706 32.5676V48.0908C32.0706 48.397 31.8223 48.6452 31.5162 48.6452H29.2986C28.9924 48.6452 28.7442 48.397 28.7442 48.0908V32.5676Z" fill="white"/>
<path fill-rule="evenodd" clip-rule="evenodd" d="M54.7276 35.7634C54.9441 35.9799 54.9441 36.331 54.7276 36.5475L42.8298 48.4455C42.6129 48.6624 42.2611 48.6619 42.0447 48.4445L36.8617 43.2349C36.6458 43.0178 36.6467 42.6668 36.8637 42.4509L38.4358 40.8868C38.6529 40.6708 39.0039 40.6717 39.2198 40.8888L42.4428 44.1282L52.3755 34.1954C52.592 33.9789 52.943 33.9789 53.1595 34.1954L54.7276 35.7634Z" fill="#F95B29"/>
</svg>
