<svg width="56" height="56" viewBox="0 0 56 56" fill="none" xmlns="http://www.w3.org/2000/svg">
<path fill-rule="evenodd" clip-rule="evenodd" d="M16.2693 24.5288C19.0249 24.5288 21.2589 22.2949 21.2589 19.5392C21.2589 16.7835 19.0249 14.5496 16.2693 14.5496C13.5136 14.5496 11.2797 16.7835 11.2797 19.5392C11.2797 22.2949 13.5136 24.5288 16.2693 24.5288ZM16.2693 27.8552C20.8621 27.8552 24.5852 24.132 24.5852 19.5392C24.5852 14.9464 20.8621 11.2232 16.2693 11.2232C11.6765 11.2232 7.95328 14.9464 7.95328 19.5392C7.95328 24.132 11.6765 27.8552 16.2693 27.8552Z" fill="white"/>
<path fill-rule="evenodd" clip-rule="evenodd" d="M37.0592 24.5288C39.8148 24.5288 42.0488 22.2949 42.0488 19.5392C42.0488 16.7835 39.8148 14.5496 37.0592 14.5496C34.3035 14.5496 32.0696 16.7835 32.0696 19.5392C32.0696 22.2949 34.3035 24.5288 37.0592 24.5288ZM37.0592 27.8552C41.652 27.8552 45.3752 24.132 45.3752 19.5392C45.3752 14.9464 41.652 11.2232 37.0592 11.2232C32.4664 11.2232 28.7432 14.9464 28.7432 19.5392C28.7432 24.132 32.4664 27.8552 37.0592 27.8552Z" fill="white"/>
<path d="M31.238 40.3291C31.6973 40.3291 32.0623 39.954 32.138 39.501C32.5325 37.1394 34.5856 35.3395 37.0592 35.3395C38.4432 35.3395 39.6956 35.903 40.5995 36.8132C40.8353 37.0505 41.2247 37.078 41.4612 36.8414L43.0162 35.2865C43.2209 35.0818 43.235 34.7524 43.0335 34.5444C41.5218 32.9834 39.4038 32.0131 37.0592 32.0131C32.7466 32.0131 29.2008 35.2958 28.7841 39.4987C28.7388 39.9557 29.1155 40.3291 29.5748 40.3291H31.238Z" fill="white"/>
<path fill-rule="evenodd" clip-rule="evenodd" d="M24.4187 38.6658C24.5278 39.2032 24.5851 39.7594 24.5851 40.329C24.5851 40.7423 24.5549 41.1486 24.4967 41.5458C24.4584 41.8067 24.2292 41.9922 23.9656 41.9922H11.5634C12.2484 43.9301 14.0966 45.3186 16.2691 45.3186C17.392 45.3186 18.4243 44.9507 19.2585 44.3247C19.3731 44.2387 19.5345 44.2454 19.6358 44.3467L21.6078 46.3187C21.7203 46.4312 21.7155 46.6154 21.5933 46.7174C20.1509 47.9208 18.2946 48.645 16.2691 48.645C12.2459 48.645 8.88998 45.788 8.11947 41.9922C8.01039 41.4548 7.95312 40.8986 7.95312 40.329C7.95312 39.7594 8.01039 39.2032 8.11947 38.6658C8.88998 34.87 12.2459 32.013 16.2691 32.013C20.2923 32.013 23.6482 34.87 24.4187 38.6658ZM20.9748 38.6658C20.2898 36.7278 18.4416 35.3394 16.2691 35.3394C14.0966 35.3394 12.2484 36.7278 11.5634 38.6658H20.9748Z" fill="white"/>
<path d="M21.2588 5.12471C21.2588 4.81852 21.507 4.57031 21.8132 4.57031H24.0308C24.337 4.57031 24.5852 4.81853 24.5852 5.12471V18.9847C24.5852 19.2909 24.337 19.5391 24.0308 19.5391H21.8132C21.507 19.5391 21.2588 19.2909 21.2588 18.9847V5.12471Z" fill="white"/>
<path d="M28.7432 32.5675C28.7432 32.2613 28.9914 32.0131 29.2976 32.0131H31.5152C31.8214 32.0131 32.0696 32.2613 32.0696 32.5675V48.0907C32.0696 48.3969 31.8214 48.6451 31.5152 48.6451H29.2976C28.9914 48.6451 28.7432 48.3969 28.7432 48.0907V32.5675Z" fill="white"/>
<path fill-rule="evenodd" clip-rule="evenodd" d="M54.7276 35.7633C54.9441 35.9798 54.9441 36.3308 54.7276 36.5473L42.8298 48.4453C42.6129 48.6622 42.2611 48.6618 42.0447 48.4443L36.8617 43.2348C36.6458 43.0177 36.6467 42.6667 36.8637 42.4507L38.4358 40.8867C38.6529 40.6707 39.0039 40.6716 39.2198 40.8887L42.4428 44.1281L52.3755 34.1952C52.592 33.9787 52.943 33.9787 53.1595 34.1952L54.7276 35.7633Z" fill="#724FFF"/>
</svg>
