<svg width="156" height="118" viewBox="0 0 156 118" fill="white" xmlns="http://www.w3.org/2000/svg">
    <rect width="156" height="118" rx="12" fill="white" />
    <circle cx="78" cy="21" r="5" fill="#181423" fill-opacity="0.16"/>
    <circle cx="97" cy="21" r="5" fill="#181423" fill-opacity="0.16"/>
    <circle cx="116" cy="21" r="5" fill="#181423" fill-opacity="0.16"/>
    <circle cx="135" cy="21" r="5" fill="#181423" fill-opacity="0.16"/>
    <circle cx="21" cy="40" r="5" fill="#181423" fill-opacity="0.16"/>
    <circle cx="40" cy="40" r="5" fill="#181423" fill-opacity="0.16"/>
    <circle cx="59" cy="40" r="5" fill="#181423" fill-opacity="0.16"/>
    <circle cx="78" cy="40" r="5" fill="#181423" fill-opacity="0.16"/>
    <circle cx="97" cy="40" r="5" fill="#181423" fill-opacity="0.16"/>
    <circle cx="116" cy="40" r="5" fill="#181423" fill-opacity="0.16"/>
    <circle cx="135" cy="40" r="5" fill="#181423" fill-opacity="0.16"/>
    <circle cx="21" cy="59" r="5" fill="#181423" fill-opacity="0.16"/>
    <circle cx="40" cy="59" r="5" fill="#181423" fill-opacity="0.16"/>
    <circle cx="59" cy="59" r="5" fill="#181423" fill-opacity="0.16"/>
    <circle cx="78" cy="59" r="5" fill="#FDCD1E"/>
    <circle cx="97" cy="59" r="5" fill="#181423" fill-opacity="0.16"/>
    <circle cx="116" cy="59" r="5" fill="#181423" fill-opacity="0.16"/>
    <circle cx="135" cy="59" r="5" fill="#181423" fill-opacity="0.16"/>
    <circle cx="21" cy="78" r="5" fill="#181423" fill-opacity="0.16"/>
    <circle cx="40" cy="78" r="5" fill="#181423" fill-opacity="0.16"/>
    <circle cx="59" cy="78" r="5" fill="#181423" fill-opacity="0.16"/>
    <circle cx="78" cy="78" r="5" fill="#181423" fill-opacity="0.16"/>
    <circle cx="97" cy="78" r="5" fill="#181423" fill-opacity="0.16"/>
    <circle cx="116" cy="78" r="5" fill="#181423" fill-opacity="0.16"/>
    <circle cx="135" cy="78" r="5" fill="#181423" fill-opacity="0.16"/>
    <circle cx="21" cy="97" r="5" fill="#181423" fill-opacity="0.16"/>
    <circle cx="40" cy="97" r="5" fill="#181423" fill-opacity="0.16"/>
    <circle cx="59" cy="97" r="5" fill="#181423" fill-opacity="0.16"/>
    <circle cx="78" cy="97" r="5" fill="#181423" fill-opacity="0.16"/>
    <circle cx="97" cy="97" r="5" fill="#181423" fill-opacity="0.16"/>
</svg>